<svg xmlns="http://www.w3.org/2000/svg" xmlns:xlink="http://www.w3.org/1999/xlink" contentStyleType="text/css" data-diagram-type="SEQUENCE" height="1852px" preserveAspectRatio="none" style="width:1629px;height:1852px;background:#FFFFFF;" version="1.1" viewBox="0 0 1629 1852" width="1629px" zoomAndPan="magnify"><title>File Upload Flow - Bucket Module</title><defs/><g><text fill="#000000" font-family="Verdana" font-size="22" font-weight="bold" lengthAdjust="spacing" textLength="413.7461" x="608.8284" y="35.4209">File Upload Flow - Bucket Module</text><g><title>Bucket</title><rect fill="#FFFFFF" height="1404.9922" style="stroke:#000000;stroke-width:1;" width="10" x="380.2705" y="160.0391"/></g><g><title>Bucket</title><rect fill="#FFFFFF" height="262.1953" style="stroke:#000000;stroke-width:1;" width="10" x="385.2705" y="327.7031"/></g><g><title>Bucket</title><rect fill="#FFFFFF" height="145.6641" style="stroke:#000000;stroke-width:1;" width="10" x="385.2705" y="675.9688"/></g><g><title>_ensure_connected..</title><rect fill="#FFFFFF" height="625.4609" style="stroke:#000000;stroke-width:1;" width="10" x="754.2319" y="232.3047"/></g><g><title>S3ServiceResourceLike</title><rect fill="#FFFFFF" height="87.3984" style="stroke:#000000;stroke-width:1;" width="10" x="953.8486" y="356.8359"/></g><g><title>S3ServiceResourceLike</title><rect fill="#FFFFFF" height="87.3984" style="stroke:#000000;stroke-width:1;" width="10" x="953.8486" y="473.3672"/></g><g><title>S3ServiceResourceLike</title><rect fill="#FFFFFF" height="87.3984" style="stroke:#000000;stroke-width:1;" width="10" x="953.8486" y="705.1016"/></g><g><title>S3ServiceResourceLike</title><rect fill="#FFFFFF" height="29.1328" style="stroke:#000000;stroke-width:1;" width="10" x="953.8486" y="1040.2344"/></g><g><title>S3BucketLike</title><rect fill="#FFFFFF" height="153.6641" style="stroke:#000000;stroke-width:1;" width="10" x="1131.1187" y="1171.7656"/></g><g><title>MinIO.S3 Server</title><rect fill="#FFFFFF" height="29.1328" style="stroke:#000000;stroke-width:1;" width="10" x="1353.3921" y="385.9688"/></g><g><title>MinIO.S3 Server</title><rect fill="#FFFFFF" height="29.1328" style="stroke:#000000;stroke-width:1;" width="10" x="1353.3921" y="502.5"/></g><g><title>MinIO.S3 Server</title><rect fill="#FFFFFF" height="29.1328" style="stroke:#000000;stroke-width:1;" width="10" x="1353.3921" y="734.2344"/></g><g><title>MinIO.S3 Server</title><rect fill="#FFFFFF" height="53.2656" style="stroke:#000000;stroke-width:1;" width="10" x="1353.3921" y="1243.0313"/></g><g><title>Disp</title><rect fill="#FFFFFF" height="14" style="stroke:#000000;stroke-width:1;" width="10" x="1483.5386" y="189.1719"/></g><g><title>Disp</title><rect fill="#FFFFFF" height="14" style="stroke:#000000;stroke-width:1;" width="10" x="1483.5386" y="953.1641"/></g><g><title>Disp</title><rect fill="#FFFFFF" height="14" style="stroke:#000000;stroke-width:1;" width="10" x="1483.5386" y="1354.5625"/></g><g><title>Disp</title><rect fill="#FFFFFF" height="14" style="stroke:#000000;stroke-width:1;" width="10" x="1483.5386" y="1499.8984"/></g><rect fill="#FFFFFF" height="582.3281" style="stroke:#000000;stroke-width:1;" width="1107.7446" x="334.0781" y="247.3047"/><rect fill="#FFFFFF" height="189.6016" style="stroke:none;stroke-width:1;" width="1107.7446" x="334.0781" y="640.0313"/><rect fill="#FFFFFF" height="685.2656" style="stroke:#000000;stroke-width:1;" width="1540.2544" x="15" y="872.7656"/><rect fill="#FFFFFF" height="553.7344" style="stroke:none;stroke-width:1;" width="1540.2544" x="15" y="1004.2969"/><rect fill="#FFFFFF" height="59.2656" style="stroke:#000000;stroke-width:1;" width="226.7896" x="334.0781" y="1084.3672"/><rect fill="#FFFFFF" height="293" style="stroke:#000000;stroke-width:1;" width="1520.2544" x="25" y="1258.0313"/><rect fill="#FFFFFF" height="145.3359" style="stroke:none;stroke-width:1;" width="1520.2544" x="25" y="1405.6953"/><g><title>User</title><rect fill="#000000" fill-opacity="0.00000" height="1642.3203" width="8" x="49.9551" y="128.9063"/><line style="stroke:#000000;stroke-width:1;stroke-dasharray:5,5;" x1="53" x2="53" y1="128.9063" y2="1771.2266"/></g><g><title>Bucket</title><rect fill="#000000" fill-opacity="0.00000" height="1642.3203" width="8" x="381.2705" y="128.9063"/><line style="stroke:#000000;stroke-width:1;stroke-dasharray:5,5;" x1="385.0781" x2="385.0781" y1="128.9063" y2="1771.2266"/></g><g><title>_ensure_connected..</title><rect fill="#000000" fill-opacity="0.00000" height="1642.3203" width="8" x="755.2319" y="128.9063"/><line style="stroke:#000000;stroke-width:1;stroke-dasharray:5,5;" x1="759.1045" x2="759.1045" y1="128.9063" y2="1771.2266"/></g><g><title>S3ServiceResourceLike</title><rect fill="#000000" fill-opacity="0.00000" height="1642.3203" width="8" x="954.8486" y="128.9063"/><line style="stroke:#000000;stroke-width:1;stroke-dasharray:5,5;" x1="958.3062" x2="958.3062" y1="128.9063" y2="1771.2266"/></g><g><title>S3BucketLike</title><rect fill="#000000" fill-opacity="0.00000" height="1642.3203" width="8" x="1132.1187" y="128.9063"/><line style="stroke:#000000;stroke-width:1;stroke-dasharray:5,5;" x1="1135.3911" x2="1135.3911" y1="128.9063" y2="1771.2266"/></g><g><title>MinIO.S3 Server</title><rect fill="#000000" fill-opacity="0.00000" height="1642.3203" width="8" x="1354.3921" y="128.9063"/><line style="stroke:#000000;stroke-width:1;stroke-dasharray:5,5;" x1="1357.9614" x2="1357.9614" y1="128.9063" y2="1771.2266"/></g><g><title>Disp</title><rect fill="#000000" fill-opacity="0.00000" height="1642.3203" width="8" x="1484.5386" y="128.9063"/><line style="stroke:#000000;stroke-width:1;stroke-dasharray:5,5;" x1="1487.8228" x2="1487.8228" y1="128.9063" y2="1771.2266"/></g><g class="participant participant-head" data-participant="User"><text fill="#000000" font-family="Verdana" font-size="14" lengthAdjust="spacing" textLength="31.9102" x="35" y="125.6045">User</text><ellipse cx="53.9551" cy="60.6094" fill="#FFFFFF" rx="8" ry="8" style="stroke:#000000;stroke-width:1;"/><path d="M53.9551,68.6094 L53.9551,95.6094 M40.9551,76.6094 L66.9551,76.6094 M53.9551,95.6094 L40.9551,110.6094 M53.9551,95.6094 L66.9551,110.6094" fill="none" style="stroke:#000000;stroke-width:1;"/></g><g class="participant participant-tail" data-participant="User"><text fill="#000000" font-family="Verdana" font-size="14" lengthAdjust="spacing" textLength="31.9102" x="35" y="1783.2217">User</text><ellipse cx="53.9551" cy="1795.5234" fill="#FFFFFF" rx="8" ry="8" style="stroke:#000000;stroke-width:1;"/><path d="M53.9551,1803.5234 L53.9551,1830.5234 M40.9551,1811.5234 L66.9551,1811.5234 M53.9551,1830.5234 L40.9551,1845.5234 M53.9551,1830.5234 L66.9551,1845.5234" fill="none" style="stroke:#000000;stroke-width:1;"/></g><g class="participant participant-head" data-participant="Bucket"><rect fill="#FFFFFF" height="30.2969" rx="2.5" ry="2.5" style="stroke:#000000;stroke-width:1;" width="62.3848" x="354.0781" y="97.6094"/><text fill="#000000" font-family="Verdana" font-size="14" lengthAdjust="spacing" textLength="48.3848" x="361.0781" y="117.6045">Bucket</text></g><g class="participant participant-tail" data-participant="Bucket"><rect fill="#FFFFFF" height="30.2969" rx="2.5" ry="2.5" style="stroke:#000000;stroke-width:1;" width="62.3848" x="354.0781" y="1770.2266"/><text fill="#000000" font-family="Verdana" font-size="14" lengthAdjust="spacing" textLength="48.3848" x="361.0781" y="1790.2217">Bucket</text></g><g class="participant participant-head" data-participant="Ensure"><rect fill="#FFFFFF" height="30.2969" rx="2.5" ry="2.5" style="stroke:#000000;stroke-width:1;" width="160.2549" x="679.1045" y="97.6094"/><text fill="#000000" font-family="Verdana" font-size="14" lengthAdjust="spacing" textLength="146.2549" x="686.1045" y="117.6045">_ensure_connected()</text></g><g class="participant participant-tail" data-participant="Ensure"><rect fill="#FFFFFF" height="30.2969" rx="2.5" ry="2.5" style="stroke:#000000;stroke-width:1;" width="160.2549" x="679.1045" y="1770.2266"/><text fill="#000000" font-family="Verdana" font-size="14" lengthAdjust="spacing" textLength="146.2549" x="686.1045" y="1790.2217">_ensure_connected()</text></g><g class="participant participant-head" data-participant="S3Resource"><rect fill="#FFFFFF" height="46.5938" rx="2.5" ry="2.5" style="stroke:#000000;stroke-width:1;" width="177.085" x="870.3062" y="81.3125"/><text fill="#000000" font-family="Verdana" font-size="14" lengthAdjust="spacing" textLength="163.085" x="877.3062" y="101.3076">S3ServiceResourceLike</text><text fill="#000000" font-family="Verdana" font-size="14" lengthAdjust="spacing" textLength="116.9561" x="900.3706" y="117.6045">(boto3 resource)</text></g><g class="participant participant-tail" data-participant="S3Resource"><rect fill="#FFFFFF" height="46.5938" rx="2.5" ry="2.5" style="stroke:#000000;stroke-width:1;" width="177.085" x="870.3062" y="1770.2266"/><text fill="#000000" font-family="Verdana" font-size="14" lengthAdjust="spacing" textLength="163.085" x="877.3062" y="1790.2217">S3ServiceResourceLike</text><text fill="#000000" font-family="Verdana" font-size="14" lengthAdjust="spacing" textLength="116.9561" x="900.3706" y="1806.5186">(boto3 resource)</text></g><g class="participant participant-head" data-participant="S3Bucket"><rect fill="#FFFFFF" height="46.5938" rx="2.5" ry="2.5" style="stroke:#000000;stroke-width:1;" width="117.4551" x="1077.3911" y="81.3125"/><text fill="#000000" font-family="Verdana" font-size="14" lengthAdjust="spacing" textLength="94.5889" x="1088.8242" y="101.3076">S3BucketLike</text><text fill="#000000" font-family="Verdana" font-size="14" lengthAdjust="spacing" textLength="103.4551" x="1084.3911" y="117.6045">(boto3 bucket)</text></g><g class="participant participant-tail" data-participant="S3Bucket"><rect fill="#FFFFFF" height="46.5938" rx="2.5" ry="2.5" style="stroke:#000000;stroke-width:1;" width="117.4551" x="1077.3911" y="1770.2266"/><text fill="#000000" font-family="Verdana" font-size="14" lengthAdjust="spacing" textLength="94.5889" x="1088.8242" y="1790.2217">S3BucketLike</text><text fill="#000000" font-family="Verdana" font-size="14" lengthAdjust="spacing" textLength="103.4551" x="1084.3911" y="1806.5186">(boto3 bucket)</text></g><g class="participant participant-head" data-participant="Server"><rect fill="#FFFFFF" height="30.2969" rx="2.5" ry="2.5" style="stroke:#000000;stroke-width:1;" width="126.8613" x="1294.9614" y="97.6094"/><text fill="#000000" font-family="Verdana" font-size="14" lengthAdjust="spacing" textLength="112.8613" x="1301.9614" y="117.6045">MinIO/S3 Server</text></g><g class="participant participant-tail" data-participant="Server"><rect fill="#FFFFFF" height="30.2969" rx="2.5" ry="2.5" style="stroke:#000000;stroke-width:1;" width="126.8613" x="1294.9614" y="1770.2266"/><text fill="#000000" font-family="Verdana" font-size="14" lengthAdjust="spacing" textLength="112.8613" x="1301.9614" y="1790.2217">MinIO/S3 Server</text></g><g class="participant participant-head" data-participant="Logger"><rect fill="#FFFFFF" height="46.5938" rx="2.5" ry="2.5" style="stroke:#000000;stroke-width:1;" width="73.4316" x="1451.8228" y="81.3125"/><text fill="#000000" font-family="Verdana" font-size="14" lengthAdjust="spacing" textLength="30.8506" x="1473.1133" y="101.3076">Disp</text><text fill="#000000" font-family="Verdana" font-size="14" lengthAdjust="spacing" textLength="59.4316" x="1458.8228" y="117.6045">(Logger)</text></g><g class="participant participant-tail" data-participant="Logger"><rect fill="#FFFFFF" height="46.5938" rx="2.5" ry="2.5" style="stroke:#000000;stroke-width:1;" width="73.4316" x="1451.8228" y="1770.2266"/><text fill="#000000" font-family="Verdana" font-size="14" lengthAdjust="spacing" textLength="30.8506" x="1473.1133" y="1790.2217">Disp</text><text fill="#000000" font-family="Verdana" font-size="14" lengthAdjust="spacing" textLength="59.4316" x="1458.8228" y="1806.5186">(Logger)</text></g><g><title>Bucket</title><rect fill="#FFFFFF" height="1404.9922" style="stroke:#000000;stroke-width:1;" width="10" x="380.2705" y="160.0391"/></g><g><title>Bucket</title><rect fill="#FFFFFF" height="262.1953" style="stroke:#000000;stroke-width:1;" width="10" x="385.2705" y="327.7031"/></g><g><title>Bucket</title><rect fill="#FFFFFF" height="145.6641" style="stroke:#000000;stroke-width:1;" width="10" x="385.2705" y="675.9688"/></g><g><title>_ensure_connected..</title><rect fill="#FFFFFF" height="625.4609" style="stroke:#000000;stroke-width:1;" width="10" x="754.2319" y="232.3047"/></g><g><title>S3ServiceResourceLike</title><rect fill="#FFFFFF" height="87.3984" style="stroke:#000000;stroke-width:1;" width="10" x="953.8486" y="356.8359"/></g><g><title>S3ServiceResourceLike</title><rect fill="#FFFFFF" height="87.3984" style="stroke:#000000;stroke-width:1;" width="10" x="953.8486" y="473.3672"/></g><g><title>S3ServiceResourceLike</title><rect fill="#FFFFFF" height="87.3984" style="stroke:#000000;stroke-width:1;" width="10" x="953.8486" y="705.1016"/></g><g><title>S3ServiceResourceLike</title><rect fill="#FFFFFF" height="29.1328" style="stroke:#000000;stroke-width:1;" width="10" x="953.8486" y="1040.2344"/></g><g><title>S3BucketLike</title><rect fill="#FFFFFF" height="153.6641" style="stroke:#000000;stroke-width:1;" width="10" x="1131.1187" y="1171.7656"/></g><g><title>MinIO.S3 Server</title><rect fill="#FFFFFF" height="29.1328" style="stroke:#000000;stroke-width:1;" width="10" x="1353.3921" y="385.9688"/></g><g><title>MinIO.S3 Server</title><rect fill="#FFFFFF" height="29.1328" style="stroke:#000000;stroke-width:1;" width="10" x="1353.3921" y="502.5"/></g><g><title>MinIO.S3 Server</title><rect fill="#FFFFFF" height="29.1328" style="stroke:#000000;stroke-width:1;" width="10" x="1353.3921" y="734.2344"/></g><g><title>MinIO.S3 Server</title><rect fill="#FFFFFF" height="53.2656" style="stroke:#000000;stroke-width:1;" width="10" x="1353.3921" y="1243.0313"/></g><g><title>Disp</title><rect fill="#FFFFFF" height="14" style="stroke:#000000;stroke-width:1;" width="10" x="1483.5386" y="189.1719"/></g><g><title>Disp</title><rect fill="#FFFFFF" height="14" style="stroke:#000000;stroke-width:1;" width="10" x="1483.5386" y="953.1641"/></g><g><title>Disp</title><rect fill="#FFFFFF" height="14" style="stroke:#000000;stroke-width:1;" width="10" x="1483.5386" y="1354.5625"/></g><g><title>Disp</title><rect fill="#FFFFFF" height="14" style="stroke:#000000;stroke-width:1;" width="10" x="1483.5386" y="1499.8984"/></g><g class="message" data-participant-1="User" data-participant-2="Bucket"><polygon fill="#000000" points="368.2705,156.0391,378.2705,160.0391,368.2705,164.0391,372.2705,160.0391" style="stroke:#000000;stroke-width:1;"/><line style="stroke:#000000;stroke-width:1;" x1="53.9551" x2="374.2705" y1="160.0391" y2="160.0391"/><text fill="#000000" font-family="Verdana" font-size="13" lengthAdjust="spacing" textLength="307.3154" x="60.9551" y="154.9731">upload_file(bucket_name, file_path, key_name)</text></g><g class="message" data-participant-1="Bucket" data-participant-2="Logger"><polygon fill="#000000" points="1471.5386,185.1719,1481.5386,189.1719,1471.5386,193.1719,1475.5386,189.1719" style="stroke:#000000;stroke-width:1;"/><line style="stroke:#000000;stroke-width:1;" x1="390.2705" x2="1477.5386" y1="189.1719" y2="189.1719"/><text fill="#000000" font-family="Verdana" font-size="13" lengthAdjust="spacing" textLength="191.3945" x="397.2705" y="184.106">log_debug("Uploading file...")</text></g><g class="message" data-participant-1="Logger" data-participant-2="Bucket"><polygon fill="#000000" points="401.2705,199.1719,391.2705,203.1719,401.2705,207.1719,397.2705,203.1719" style="stroke:#000000;stroke-width:1;"/><line style="stroke:#000000;stroke-width:1;stroke-dasharray:2,2;" x1="395.2705" x2="1487.5386" y1="203.1719" y2="203.1719"/></g><g class="message" data-participant-1="Bucket" data-participant-2="Ensure"><polygon fill="#000000" points="742.2319,228.3047,752.2319,232.3047,742.2319,236.3047,746.2319,232.3047" style="stroke:#000000;stroke-width:1;"/><line style="stroke:#000000;stroke-width:1;" x1="390.2705" x2="748.2319" y1="232.3047" y2="232.3047"/><text fill="#000000" font-family="Verdana" font-size="13" lengthAdjust="spacing" textLength="135.8081" x="397.2705" y="227.2388">_ensure_connected()</text></g><path d="M334.0781,247.3047 L398.521,247.3047 L398.521,254.4375 L388.521,264.4375 L334.0781,264.4375 L334.0781,247.3047" fill="#FFFFFF" style="stroke:#000000;stroke-width:1;"/><rect fill="none" height="582.3281" style="stroke:#000000;stroke-width:1;" width="1107.7446" x="334.0781" y="247.3047"/><text fill="#000000" font-family="Verdana" font-size="13" font-weight="bold" lengthAdjust="spacing" textLength="19.4429" x="349.0781" y="260.3716">alt</text><text fill="#000000" font-family="Verdana" font-size="11" font-weight="bold" lengthAdjust="spacing" textLength="100.2192" x="413.521" y="259.5151">[Not connected]</text><g class="message" data-participant-1="Ensure" data-participant-2="Ensure"><line style="stroke:#000000;stroke-width:1;" x1="764.2319" x2="806.2319" y1="285.5703" y2="285.5703"/><line style="stroke:#000000;stroke-width:1;" x1="806.2319" x2="806.2319" y1="285.5703" y2="298.5703"/><line style="stroke:#000000;stroke-width:1;" x1="765.2319" x2="806.2319" y1="298.5703" y2="298.5703"/><polygon fill="#000000" points="775.2319,294.5703,765.2319,298.5703,775.2319,302.5703,771.2319,298.5703" style="stroke:#000000;stroke-width:1;"/><text fill="#000000" font-family="Verdana" font-size="13" lengthAdjust="spacing" textLength="135.5796" x="771.2319" y="280.5044">Check _is_connected</text></g><g class="message" data-participant-1="Ensure" data-participant-2="Bucket"><polygon fill="#000000" points="406.2705,323.7031,396.2705,327.7031,406.2705,331.7031,402.2705,327.7031" style="stroke:#000000;stroke-width:1;"/><line style="stroke:#000000;stroke-width:1;" x1="400.2705" x2="753.2319" y1="327.7031" y2="327.7031"/><text fill="#000000" font-family="Verdana" font-size="13" lengthAdjust="spacing" textLength="61.9658" x="412.2705" y="322.6372">connect()</text></g><g class="message" data-participant-1="Bucket" data-participant-2="S3Resource"><polygon fill="#000000" points="941.8486,352.8359,951.8486,356.8359,941.8486,360.8359,945.8486,356.8359" style="stroke:#000000;stroke-width:1;"/><line style="stroke:#000000;stroke-width:1;" x1="395.2705" x2="947.8486" y1="356.8359" y2="356.8359"/><text fill="#000000" font-family="Verdana" font-size="13" lengthAdjust="spacing" textLength="305.5127" x="402.2705" y="351.77">boto3.resource("s3", endpoint_url, credentials)</text></g><g class="message" data-participant-1="S3Resource" data-participant-2="Server"><polygon fill="#000000" points="1341.3921,381.9688,1351.3921,385.9688,1341.3921,389.9688,1345.3921,385.9688" style="stroke:#000000;stroke-width:1;"/><line style="stroke:#000000;stroke-width:1;" x1="963.8486" x2="1347.3921" y1="385.9688" y2="385.9688"/><text fill="#000000" font-family="Verdana" font-size="13" lengthAdjust="spacing" textLength="134.2974" x="970.8486" y="380.9028">Establish connection</text></g><g class="message" data-participant-1="Server" data-participant-2="S3Resource"><polygon fill="#000000" points="974.8486,411.1016,964.8486,415.1016,974.8486,419.1016,970.8486,415.1016" style="stroke:#000000;stroke-width:1;"/><line style="stroke:#000000;stroke-width:1;stroke-dasharray:2,2;" x1="968.8486" x2="1357.3921" y1="415.1016" y2="415.1016"/><text fill="#000000" font-family="Verdana" font-size="13" lengthAdjust="spacing" textLength="152.2612" x="980.8486" y="410.0356">Connection established</text></g><g class="message" data-participant-1="S3Resource" data-participant-2="Bucket"><polygon fill="#000000" points="406.2705,440.2344,396.2705,444.2344,406.2705,448.2344,402.2705,444.2344" style="stroke:#000000;stroke-width:1;"/><line style="stroke:#000000;stroke-width:1;stroke-dasharray:2,2;" x1="400.2705" x2="957.8486" y1="444.2344" y2="444.2344"/><text fill="#000000" font-family="Verdana" font-size="13" lengthAdjust="spacing" textLength="100.9912" x="412.2705" y="439.1685">resource object</text></g><g class="message" data-participant-1="Bucket" data-participant-2="S3Resource"><polygon fill="#000000" points="941.8486,469.3672,951.8486,473.3672,941.8486,477.3672,945.8486,473.3672" style="stroke:#000000;stroke-width:1;"/><line style="stroke:#000000;stroke-width:1;" x1="395.2705" x2="947.8486" y1="473.3672" y2="473.3672"/><text fill="#000000" font-family="Verdana" font-size="13" lengthAdjust="spacing" textLength="164.4678" x="402.2705" y="468.3013">meta.client.list_buckets()</text></g><g class="message" data-participant-1="S3Resource" data-participant-2="Server"><polygon fill="#000000" points="1341.3921,498.5,1351.3921,502.5,1341.3921,506.5,1345.3921,502.5" style="stroke:#000000;stroke-width:1;"/><line style="stroke:#000000;stroke-width:1;" x1="963.8486" x2="1347.3921" y1="502.5" y2="502.5"/><text fill="#000000" font-family="Verdana" font-size="13" lengthAdjust="spacing" textLength="175.5127" x="970.8486" y="497.4341">List buckets (health check)</text></g><g class="message" data-participant-1="Server" data-participant-2="S3Resource"><polygon fill="#000000" points="974.8486,527.6328,964.8486,531.6328,974.8486,535.6328,970.8486,531.6328" style="stroke:#000000;stroke-width:1;"/><line style="stroke:#000000;stroke-width:1;stroke-dasharray:2,2;" x1="968.8486" x2="1357.3921" y1="531.6328" y2="531.6328"/><text fill="#000000" font-family="Verdana" font-size="13" lengthAdjust="spacing" textLength="68.1548" x="980.8486" y="526.5669">Bucket list</text></g><g class="message" data-participant-1="S3Resource" data-participant-2="Bucket"><polygon fill="#000000" points="406.2705,556.7656,396.2705,560.7656,406.2705,564.7656,402.2705,560.7656" style="stroke:#000000;stroke-width:1;"/><line style="stroke:#000000;stroke-width:1;stroke-dasharray:2,2;" x1="400.2705" x2="957.8486" y1="560.7656" y2="560.7656"/><text fill="#000000" font-family="Verdana" font-size="13" lengthAdjust="spacing" textLength="52.3301" x="412.2705" y="555.6997">Success</text></g><g class="message" data-participant-1="Bucket" data-participant-2="Ensure"><polygon fill="#000000" points="742.2319,585.8984,752.2319,589.8984,742.2319,593.8984,746.2319,589.8984" style="stroke:#000000;stroke-width:1;"/><line style="stroke:#000000;stroke-width:1;stroke-dasharray:2,2;" x1="390.2705" x2="748.2319" y1="589.8984" y2="589.8984"/><text fill="#000000" font-family="Verdana" font-size="13" lengthAdjust="spacing" textLength="50.8511" x="397.2705" y="584.8325">success</text></g><g class="message" data-participant-1="Ensure" data-participant-2="Ensure"><line style="stroke:#000000;stroke-width:1;" x1="764.2319" x2="806.2319" y1="619.0313" y2="619.0313"/><line style="stroke:#000000;stroke-width:1;" x1="806.2319" x2="806.2319" y1="619.0313" y2="632.0313"/><line style="stroke:#000000;stroke-width:1;" x1="765.2319" x2="806.2319" y1="632.0313" y2="632.0313"/><polygon fill="#000000" points="775.2319,628.0313,765.2319,632.0313,775.2319,636.0313,771.2319,632.0313" style="stroke:#000000;stroke-width:1;"/><text fill="#000000" font-family="Verdana" font-size="13" lengthAdjust="spacing" textLength="165.6167" x="771.2319" y="613.9653">Set _is_connected = True</text></g><line style="stroke:#000000;stroke-width:1;stroke-dasharray:2,2;" x1="334.0781" x2="1441.8228" y1="641.0313" y2="641.0313"/><text fill="#000000" font-family="Verdana" font-size="11" font-weight="bold" lengthAdjust="spacing" textLength="125.834" x="339.0781" y="651.2417">[Already connected]</text><g class="message" data-participant-1="Ensure" data-participant-2="Bucket"><polygon fill="#000000" points="406.2705,671.9688,396.2705,675.9688,406.2705,679.9688,402.2705,675.9688" style="stroke:#000000;stroke-width:1;"/><line style="stroke:#000000;stroke-width:1;" x1="400.2705" x2="753.2319" y1="675.9688" y2="675.9688"/><text fill="#000000" font-family="Verdana" font-size="13" lengthAdjust="spacing" textLength="95.1006" x="412.2705" y="670.9028">is_connected()</text></g><g class="message" data-participant-1="Bucket" data-participant-2="S3Resource"><polygon fill="#000000" points="941.8486,701.1016,951.8486,705.1016,941.8486,709.1016,945.8486,705.1016" style="stroke:#000000;stroke-width:1;"/><line style="stroke:#000000;stroke-width:1;" x1="395.2705" x2="947.8486" y1="705.1016" y2="705.1016"/><text fill="#000000" font-family="Verdana" font-size="13" lengthAdjust="spacing" textLength="164.4678" x="402.2705" y="700.0356">meta.client.list_buckets()</text></g><g class="message" data-participant-1="S3Resource" data-participant-2="Server"><polygon fill="#000000" points="1341.3921,730.2344,1351.3921,734.2344,1341.3921,738.2344,1345.3921,734.2344" style="stroke:#000000;stroke-width:1;"/><line style="stroke:#000000;stroke-width:1;" x1="963.8486" x2="1347.3921" y1="734.2344" y2="734.2344"/><text fill="#000000" font-family="Verdana" font-size="13" lengthAdjust="spacing" textLength="77.8921" x="970.8486" y="729.1685">List buckets</text></g><g class="message" data-participant-1="Server" data-participant-2="S3Resource"><polygon fill="#000000" points="974.8486,759.3672,964.8486,763.3672,974.8486,767.3672,970.8486,763.3672" style="stroke:#000000;stroke-width:1;"/><line style="stroke:#000000;stroke-width:1;stroke-dasharray:2,2;" x1="968.8486" x2="1357.3921" y1="763.3672" y2="763.3672"/><text fill="#000000" font-family="Verdana" font-size="13" lengthAdjust="spacing" textLength="68.1548" x="980.8486" y="758.3013">Bucket list</text></g><g class="message" data-participant-1="S3Resource" data-participant-2="Bucket"><polygon fill="#000000" points="406.2705,788.5,396.2705,792.5,406.2705,796.5,402.2705,792.5" style="stroke:#000000;stroke-width:1;"/><line style="stroke:#000000;stroke-width:1;stroke-dasharray:2,2;" x1="400.2705" x2="957.8486" y1="792.5" y2="792.5"/><text fill="#000000" font-family="Verdana" font-size="13" lengthAdjust="spacing" textLength="29.5229" x="412.2705" y="787.4341">True</text></g><g class="message" data-participant-1="Bucket" data-participant-2="Ensure"><polygon fill="#000000" points="742.2319,817.6328,752.2319,821.6328,742.2319,825.6328,746.2319,821.6328" style="stroke:#000000;stroke-width:1;"/><line style="stroke:#000000;stroke-width:1;stroke-dasharray:2,2;" x1="390.2705" x2="748.2319" y1="821.6328" y2="821.6328"/><text fill="#000000" font-family="Verdana" font-size="13" lengthAdjust="spacing" textLength="29.5229" x="397.2705" y="816.5669">True</text></g><g class="message" data-participant-1="Ensure" data-participant-2="Bucket"><polygon fill="#000000" points="401.2705,853.7656,391.2705,857.7656,401.2705,861.7656,397.2705,857.7656" style="stroke:#000000;stroke-width:1;"/><line style="stroke:#000000;stroke-width:1;stroke-dasharray:2,2;" x1="395.2705" x2="758.2319" y1="857.7656" y2="857.7656"/><text fill="#000000" font-family="Verdana" font-size="13" lengthAdjust="spacing" textLength="126.7754" x="407.2705" y="852.6997">Connection verified</text></g><path d="M15,872.7656 L79.4429,872.7656 L79.4429,879.8984 L69.4429,889.8984 L15,889.8984 L15,872.7656" fill="#FFFFFF" style="stroke:#000000;stroke-width:1;"/><rect fill="none" height="685.2656" style="stroke:#000000;stroke-width:1;" width="1540.2544" x="15" y="872.7656"/><text fill="#000000" font-family="Verdana" font-size="13" font-weight="bold" lengthAdjust="spacing" textLength="19.4429" x="30" y="885.8325">alt</text><text fill="#000000" font-family="Verdana" font-size="11" font-weight="bold" lengthAdjust="spacing" textLength="128.2241" x="94.4429" y="884.9761">[connection is None]</text><g class="message" data-participant-1="Bucket" data-participant-2="Bucket"><line style="stroke:#000000;stroke-width:1;" x1="390.2705" x2="432.2705" y1="911.0313" y2="911.0313"/><line style="stroke:#000000;stroke-width:1;" x1="432.2705" x2="432.2705" y1="911.0313" y2="924.0313"/><line style="stroke:#000000;stroke-width:1;" x1="391.2705" x2="432.2705" y1="924.0313" y2="924.0313"/><polygon fill="#000000" points="401.2705,920.0313,391.2705,924.0313,401.2705,928.0313,397.2705,924.0313" style="stroke:#000000;stroke-width:1;"/><text fill="#000000" font-family="Verdana" font-size="13" lengthAdjust="spacing" textLength="339.9614" x="397.2705" y="905.9653">raise ConnectionError("No connection established.")</text></g><g class="message" data-participant-1="Bucket" data-participant-2="Logger"><polygon fill="#000000" points="1471.5386,949.1641,1481.5386,953.1641,1471.5386,957.1641,1475.5386,953.1641" style="stroke:#000000;stroke-width:1;"/><line style="stroke:#000000;stroke-width:1;" x1="390.2705" x2="1477.5386" y1="953.1641" y2="953.1641"/><text fill="#000000" font-family="Verdana" font-size="13" lengthAdjust="spacing" textLength="190.0806" x="397.2705" y="948.0981">log_error("Connection error")</text></g><g class="message" data-participant-1="Logger" data-participant-2="Bucket"><polygon fill="#000000" points="401.2705,963.1641,391.2705,967.1641,401.2705,971.1641,397.2705,967.1641" style="stroke:#000000;stroke-width:1;"/><line style="stroke:#000000;stroke-width:1;stroke-dasharray:2,2;" x1="395.2705" x2="1487.5386" y1="967.1641" y2="967.1641"/></g><g class="message" data-participant-1="Bucket" data-participant-2="User"><polygon fill="#000000" points="64.9551,992.2969,54.9551,996.2969,64.9551,1000.2969,60.9551,996.2969" style="stroke:#000000;stroke-width:1;"/><line style="stroke:#000000;stroke-width:1;stroke-dasharray:2,2;" x1="58.9551" x2="379.2705" y1="996.2969" y2="996.2969"/><text fill="#000000" font-family="Verdana" font-size="13" lengthAdjust="spacing" textLength="67.4692" x="70.9551" y="991.231">error code</text></g><line style="stroke:#000000;stroke-width:1;stroke-dasharray:2,2;" x1="15" x2="1555.2544" y1="1005.2969" y2="1005.2969"/><text fill="#000000" font-family="Verdana" font-size="11" font-weight="bold" lengthAdjust="spacing" textLength="118.7012" x="20" y="1015.5073">[connection exists]</text><g class="message" data-participant-1="Bucket" data-participant-2="S3Resource"><polygon fill="#000000" points="941.8486,1036.2344,951.8486,1040.2344,941.8486,1044.2344,945.8486,1040.2344" style="stroke:#000000;stroke-width:1;"/><line style="stroke:#000000;stroke-width:1;" x1="390.2705" x2="947.8486" y1="1040.2344" y2="1040.2344"/><text fill="#000000" font-family="Verdana" font-size="13" lengthAdjust="spacing" textLength="142.7017" x="397.2705" y="1035.1685">Bucket(bucket_name)</text></g><g class="message" data-participant-1="S3Resource" data-participant-2="Bucket"><polygon fill="#000000" points="401.2705,1065.3672,391.2705,1069.3672,401.2705,1073.3672,397.2705,1069.3672" style="stroke:#000000;stroke-width:1;"/><line style="stroke:#000000;stroke-width:1;stroke-dasharray:2,2;" x1="395.2705" x2="957.8486" y1="1069.3672" y2="1069.3672"/><text fill="#000000" font-family="Verdana" font-size="13" lengthAdjust="spacing" textLength="132.0249" x="407.2705" y="1064.3013">S3BucketLike object</text></g><path d="M334.0781,1084.3672 L398.521,1084.3672 L398.521,1091.5 L388.521,1101.5 L334.0781,1101.5 L334.0781,1084.3672" fill="#FFFFFF" style="stroke:#000000;stroke-width:1;"/><rect fill="none" height="59.2656" style="stroke:#000000;stroke-width:1;" width="226.7896" x="334.0781" y="1084.3672"/><text fill="#000000" font-family="Verdana" font-size="13" font-weight="bold" lengthAdjust="spacing" textLength="19.4429" x="349.0781" y="1097.4341">alt</text><text fill="#000000" font-family="Verdana" font-size="11" font-weight="bold" lengthAdjust="spacing" textLength="121.709" x="413.521" y="1096.5776">[key_name is None]</text><g class="message" data-participant-1="Bucket" data-participant-2="Bucket"><line style="stroke:#000000;stroke-width:1;" x1="390.2705" x2="432.2705" y1="1122.6328" y2="1122.6328"/><line style="stroke:#000000;stroke-width:1;" x1="432.2705" x2="432.2705" y1="1122.6328" y2="1135.6328"/><line style="stroke:#000000;stroke-width:1;" x1="391.2705" x2="432.2705" y1="1135.6328" y2="1135.6328"/><polygon fill="#000000" points="401.2705,1131.6328,391.2705,1135.6328,401.2705,1139.6328,397.2705,1135.6328" style="stroke:#000000;stroke-width:1;"/><text fill="#000000" font-family="Verdana" font-size="13" lengthAdjust="spacing" textLength="141.5972" x="397.2705" y="1117.5669">key_name = file_path</text></g><g class="message" data-participant-1="Bucket" data-participant-2="S3Bucket"><polygon fill="#000000" points="1119.1187,1167.7656,1129.1187,1171.7656,1119.1187,1175.7656,1123.1187,1171.7656" style="stroke:#000000;stroke-width:1;"/><line style="stroke:#000000;stroke-width:1;" x1="390.2705" x2="1125.1187" y1="1171.7656" y2="1171.7656"/><text fill="#000000" font-family="Verdana" font-size="13" lengthAdjust="spacing" textLength="211.4214" x="397.2705" y="1166.6997">upload_file(file_path, key_name)</text></g><g class="message" data-participant-1="S3Bucket" data-participant-2="S3Bucket"><line style="stroke:#000000;stroke-width:1;" x1="1141.1187" x2="1183.1187" y1="1200.8984" y2="1200.8984"/><line style="stroke:#000000;stroke-width:1;" x1="1183.1187" x2="1183.1187" y1="1200.8984" y2="1213.8984"/><line style="stroke:#000000;stroke-width:1;" x1="1142.1187" x2="1183.1187" y1="1213.8984" y2="1213.8984"/><polygon fill="#000000" points="1152.1187,1209.8984,1142.1187,1213.8984,1152.1187,1217.8984,1148.1187,1213.8984" style="stroke:#000000;stroke-width:1;"/><text fill="#000000" font-family="Verdana" font-size="13" lengthAdjust="spacing" textLength="91.603" x="1148.1187" y="1195.8325">Read local file</text></g><g class="message" data-participant-1="S3Bucket" data-participant-2="Server"><polygon fill="#000000" points="1341.3921,1239.0313,1351.3921,1243.0313,1341.3921,1247.0313,1345.3921,1243.0313" style="stroke:#000000;stroke-width:1;"/><line style="stroke:#000000;stroke-width:1;" x1="1141.1187" x2="1347.3921" y1="1243.0313" y2="1243.0313"/><text fill="#000000" font-family="Verdana" font-size="13" lengthAdjust="spacing" textLength="193.2734" x="1148.1187" y="1237.9653">PUT object (multipart if large)</text></g><path d="M25,1258.0313 L89.4429,1258.0313 L89.4429,1265.1641 L79.4429,1275.1641 L25,1275.1641 L25,1258.0313" fill="#FFFFFF" style="stroke:#000000;stroke-width:1;"/><rect fill="none" height="293" style="stroke:#000000;stroke-width:1;" width="1520.2544" x="25" y="1258.0313"/><text fill="#000000" font-family="Verdana" font-size="13" font-weight="bold" lengthAdjust="spacing" textLength="19.4429" x="40" y="1271.0981">alt</text><text fill="#000000" font-family="Verdana" font-size="11" font-weight="bold" lengthAdjust="spacing" textLength="121.6768" x="104.4429" y="1270.2417">[Upload successful]</text><g class="message" data-participant-1="Server" data-participant-2="S3Bucket"><polygon fill="#000000" points="1152.1187,1292.2969,1142.1187,1296.2969,1152.1187,1300.2969,1148.1187,1296.2969" style="stroke:#000000;stroke-width:1;"/><line style="stroke:#000000;stroke-width:1;stroke-dasharray:2,2;" x1="1146.1187" x2="1357.3921" y1="1296.2969" y2="1296.2969"/><text fill="#000000" font-family="Verdana" font-size="13" lengthAdjust="spacing" textLength="47.7026" x="1158.1187" y="1291.231">200 OK</text></g><g class="message" data-participant-1="S3Bucket" data-participant-2="Bucket"><polygon fill="#000000" points="401.2705,1321.4297,391.2705,1325.4297,401.2705,1329.4297,397.2705,1325.4297" style="stroke:#000000;stroke-width:1;"/><line style="stroke:#000000;stroke-width:1;stroke-dasharray:2,2;" x1="395.2705" x2="1135.1187" y1="1325.4297" y2="1325.4297"/><text fill="#000000" font-family="Verdana" font-size="13" lengthAdjust="spacing" textLength="52.3301" x="407.2705" y="1320.3638">Success</text></g><g class="message" data-participant-1="Bucket" data-participant-2="Logger"><polygon fill="#000000" points="1471.5386,1350.5625,1481.5386,1354.5625,1471.5386,1358.5625,1475.5386,1354.5625" style="stroke:#000000;stroke-width:1;"/><line style="stroke:#000000;stroke-width:1;" x1="390.2705" x2="1477.5386" y1="1354.5625" y2="1354.5625"/><text fill="#000000" font-family="Verdana" font-size="13" lengthAdjust="spacing" textLength="242.874" x="397.2705" y="1349.4966">log_info("File uploaded successfully")</text></g><g class="message" data-participant-1="Logger" data-participant-2="Bucket"><polygon fill="#000000" points="401.2705,1364.5625,391.2705,1368.5625,401.2705,1372.5625,397.2705,1368.5625" style="stroke:#000000;stroke-width:1;"/><line style="stroke:#000000;stroke-width:1;stroke-dasharray:2,2;" x1="395.2705" x2="1487.5386" y1="1368.5625" y2="1368.5625"/></g><g class="message" data-participant-1="Bucket" data-participant-2="User"><polygon fill="#000000" points="64.9551,1393.6953,54.9551,1397.6953,64.9551,1401.6953,60.9551,1397.6953" style="stroke:#000000;stroke-width:1;"/><line style="stroke:#000000;stroke-width:1;stroke-dasharray:2,2;" x1="58.9551" x2="379.2705" y1="1397.6953" y2="1397.6953"/><text fill="#000000" font-family="Verdana" font-size="13" lengthAdjust="spacing" textLength="86.3345" x="70.9551" y="1392.6294">success code</text></g><line style="stroke:#000000;stroke-width:1;stroke-dasharray:2,2;" x1="25" x2="1545.2544" y1="1406.6953" y2="1406.6953"/><text fill="#000000" font-family="Verdana" font-size="11" font-weight="bold" lengthAdjust="spacing" textLength="92.3989" x="30" y="1416.9058">[Upload failed]</text><g class="message" data-participant-1="Server" data-participant-2="S3Bucket"><polygon fill="#000000" points="1147.1187,1437.6328,1137.1187,1441.6328,1147.1187,1445.6328,1143.1187,1441.6328" style="stroke:#000000;stroke-width:1;"/><line style="stroke:#000000;stroke-width:1;stroke-dasharray:2,2;" x1="1141.1187" x2="1357.3921" y1="1441.6328" y2="1441.6328"/><text fill="#000000" font-family="Verdana" font-size="13" lengthAdjust="spacing" textLength="170.0854" x="1153.1187" y="1436.5669">Error (403, 404, 500, etc.)</text></g><g class="message" data-participant-1="S3Bucket" data-participant-2="Bucket"><polygon fill="#000000" points="401.2705,1466.7656,391.2705,1470.7656,401.2705,1474.7656,397.2705,1470.7656" style="stroke:#000000;stroke-width:1;"/><line style="stroke:#000000;stroke-width:1;stroke-dasharray:2,2;" x1="395.2705" x2="1135.1187" y1="1470.7656" y2="1470.7656"/><text fill="#000000" font-family="Verdana" font-size="13" lengthAdjust="spacing" textLength="137.96" x="407.2705" y="1465.6997">ClientError exception</text></g><g class="message" data-participant-1="Bucket" data-participant-2="Logger"><polygon fill="#000000" points="1471.5386,1495.8984,1481.5386,1499.8984,1471.5386,1503.8984,1475.5386,1499.8984" style="stroke:#000000;stroke-width:1;"/><line style="stroke:#000000;stroke-width:1;" x1="390.2705" x2="1477.5386" y1="1499.8984" y2="1499.8984"/><text fill="#000000" font-family="Verdana" font-size="13" lengthAdjust="spacing" textLength="228.3887" x="397.2705" y="1494.8325">log_error("Upload failed: &lt;error&gt;")</text></g><g class="message" data-participant-1="Logger" data-participant-2="Bucket"><polygon fill="#000000" points="401.2705,1509.8984,391.2705,1513.8984,401.2705,1517.8984,397.2705,1513.8984" style="stroke:#000000;stroke-width:1;"/><line style="stroke:#000000;stroke-width:1;stroke-dasharray:2,2;" x1="395.2705" x2="1487.5386" y1="1513.8984" y2="1513.8984"/></g><g class="message" data-participant-1="Bucket" data-participant-2="User"><polygon fill="#000000" points="64.9551,1539.0313,54.9551,1543.0313,64.9551,1547.0313,60.9551,1543.0313" style="stroke:#000000;stroke-width:1;"/><line style="stroke:#000000;stroke-width:1;stroke-dasharray:2,2;" x1="58.9551" x2="379.2705" y1="1543.0313" y2="1543.0313"/><text fill="#000000" font-family="Verdana" font-size="13" lengthAdjust="spacing" textLength="67.4692" x="70.9551" y="1537.9653">error code</text></g><path d="M317,1570.0313 L317,1625.0313 L1025,1625.0313 L1025,1580.0313 L1015,1570.0313 L317,1570.0313" fill="#FFFFFF" style="stroke:#000000;stroke-width:1;"/><path d="M1015,1570.0313 L1015,1580.0313 L1025,1580.0313 L1015,1570.0313" fill="#FFFFFF" style="stroke:#000000;stroke-width:1;"/><text fill="#000000" font-family="Verdana" font-size="13" lengthAdjust="spacing" textLength="275.6914" x="518.1563" y="1587.0981">The _ensure_connected() method is called</text><text fill="#000000" font-family="Verdana" font-size="13" lengthAdjust="spacing" textLength="233.2319" x="518.1563" y="1602.231">before every operation to verify the</text><text fill="#000000" font-family="Verdana" font-size="13" lengthAdjust="spacing" textLength="297.0005" x="518.1563" y="1617.3638">connection is active and reconnect if needed.</text><path d="M1067,1635.4297 L1067,1690.4297 L1426,1690.4297 L1426,1645.4297 L1416,1635.4297 L1067,1635.4297" fill="#FFFFFF" style="stroke:#000000;stroke-width:1;"/><path d="M1416,1635.4297 L1416,1645.4297 L1426,1645.4297 L1416,1635.4297" fill="#FFFFFF" style="stroke:#000000;stroke-width:1;"/><text fill="#000000" font-family="Verdana" font-size="13" lengthAdjust="spacing" textLength="249.5137" x="1107.3821" y="1652.4966">boto3 automatically handles multipart</text><text fill="#000000" font-family="Verdana" font-size="13" lengthAdjust="spacing" textLength="211.8213" x="1107.3821" y="1667.6294">uploads for large files, retries on</text><text fill="#000000" font-family="Verdana" font-size="13" lengthAdjust="spacing" textLength="269.6675" x="1107.3821" y="1682.7622">network failures, and connection pooling.</text><path d="M1353,1700.8281 L1353,1755.8281 L1622,1755.8281 L1622,1710.8281 L1612,1700.8281 L1353,1700.8281" fill="#FFFFFF" style="stroke:#000000;stroke-width:1;"/><path d="M1612,1700.8281 L1612,1710.8281 L1622,1710.8281 L1612,1700.8281" fill="#FFFFFF" style="stroke:#000000;stroke-width:1;"/><text fill="#000000" font-family="Verdana" font-size="13" lengthAdjust="spacing" textLength="248.4028" x="1359" y="1717.895">All operations are logged with context</text><text fill="#000000" font-family="Verdana" font-size="13" lengthAdjust="spacing" textLength="242.9502" x="1359" y="1733.0278">including function name and detailed</text><text fill="#000000" font-family="Verdana" font-size="13" lengthAdjust="spacing" textLength="200.9351" x="1359" y="1748.1606">error messages for debugging.</text><!--SRC=[lLTDRnit4BtlhvZguZKWgqBbNeGcGEewHL772IBxLc11xOuaLXIv8BcnzUyp_DXThhnkemBfHPR9uV3nlNb3wWUxmmD2BHYNMNO13zmApApxXFUSFXvheLW5xuLwWYlujIdtQE63gXeAe_XFJ5jUyff9Qp9MMgNXqQ3EwduS9c7L19Y92ORJ1KhJQ2nA9IMM5glyqiVU-k5Xx6gnGls5b_WPZMfqYNTyZt_9VAsiMe2EWs7zQj46dUO8A0PBrtweNJW6ymENVtpySRK0Xm1rYFHVXt6_SLDJsZkrtQ8E2SDtnvVZCNCCmTNRICOI6izniI6-yu2ZaEo0Kt0ZHStiRWfxFFh1IySo_y8ijbncKHHA6FPPWb3Rei9riyqdGJykjpxPR3QR91aYhl07hX98MOMdKSa-GPabZ2ZN9u_oPKnOk5SMkg0CuboQwcQ7vHuARehnk1POdAMD04wP0EWXzk8lmIiyQuiZdvZ5P0eegrfnQOj6YocK6YkKbZDX1fcJ6eBa7x-3rtu9jyQojU1crsBZIWvIX1g1-CNJdAAxwLO1jgdyuHC9-Xm9X8ILzcoWrdzJhfF5wHd66JgWPRDISA9WHllR8fIXoSybuuuMHoyPo7T8uXClJjlBSpY9A1sKyuXODMM9ndm30KdjcR55NKszhDKLhHzKAho11zrWXi8Wl1CQMNM4VwxZTFbPnVnTfFfVjF4KdINConMH739lbhMa9biaNY8eVCE9_MHrsv8kuBuH8jIbxq-zSqaOwbPoQ9NEPeoJmFqcjrehdK_kLPeWCR5hjccUj3zZM9kwturC1ZB6rWimrg87n7IH2Otkdbc6j0ImYlMPGdqc4Ptu5_0xjiNGzv3n0WoZwKNrRPMNkZIvWV-zPNbypdFj7GXyqshanEk7E-d6nEl2tlJtAeMwKefxnBUEcpqv_TXDFNev3uZedEoP6CltcJe5LKF9HBlh82uwzTFZGsG9yaCZB7Vl3KU2O7gBuuqrSXEF53lSfX6Ud86pMom_pUVmyKy_FsRg5DfempqHi3kyn_AQ2xZSg7pYNvg1Mqp1YgEtmvWXNhF4k2bEC7JUY5i5TyGmRvAs51WXgrxdp3S0oA_dYobSpw-dyFDyJayBMyukpoNonhVqa12VIwpZE-8_qHgRo-0KI_Z53x_zpfmc_IQuopVhbptSTM5bqMIIFa4vSiFCT6Z_XnsEFJJTHRXJbJCzsIUejCQDeXi1ATSHL8sQ-JPdLRWDZa2_TYXisEqzBWGcAtf6nIbdBedq9Anc3ZuuY5a2jDLXsiiQVaQmnge3xUeW7M57IGKQw4nBSQ7C3H3Iu5_lV3EbpQtc5EnLbsYVbDvxwUZWDEtm9S1hfGIzwiVXTHgzerkkuu6EIkG8DrV14xV-mMhnsQ7YiXHD-9dGoB23xvLkrufU7D46GTi3MOPjCPp1_yxO3g5y1G00]--></g></svg>