<svg xmlns="http://www.w3.org/2000/svg" xmlns:xlink="http://www.w3.org/1999/xlink" contentStyleType="text/css" data-diagram-type="CLASS" height="523px" preserveAspectRatio="none" style="width:1377px;height:523px;background:#FFFFFF;" version="1.1" viewBox="0 0 1377 523" width="1377px" zoomAndPan="magnify"><defs/><g><!--cluster PathManager Module--><g class="cluster" data-entity="PathManager Module" data-source-line="36" data-uid="ent0002" id="cluster_PathManager Module"><path d="M13.5,11 L182.7871,11 A3.75,3.75 0 0 1 185.2871,13.5 L192.2871,33.2969 L392.5,33.2969 A2.5,2.5 0 0 1 395,35.7969 L395,514.4 A2.5,2.5 0 0 1 392.5,516.9 L13.5,516.9 A2.5,2.5 0 0 1 11,514.4 L11,13.5 A2.5,2.5 0 0 1 13.5,11" fill="#FFFFFF" style="stroke:#000000;stroke-width:1;"/><line style="stroke:#000000;stroke-width:1;" x1="11" x2="192.2871" y1="33.2969" y2="33.2969"/><text fill="#000000" font-family="Verdana" font-size="14" font-weight="bold" lengthAdjust="spacing" textLength="168.2871" x="15" y="25.9951">PathManager Module</text></g><!--cluster Core--><g class="cluster" data-entity="Core" data-source-line="61" data-uid="ent0005" id="cluster_Core"><path d="M512.5,364.86 L549.792,364.86 A3.75,3.75 0 0 1 552.292,367.36 L559.292,387.1569 L1099.5,387.1569 A2.5,2.5 0 0 1 1102,389.6569 L1102,506.25 A2.5,2.5 0 0 1 1099.5,508.75 L512.5,508.75 A2.5,2.5 0 0 1 510,506.25 L510,367.36 A2.5,2.5 0 0 1 512.5,364.86" fill="#FFFFFF" style="stroke:#000000;stroke-width:1;"/><line style="stroke:#000000;stroke-width:1;" x1="510" x2="559.292" y1="387.1569" y2="387.1569"/><text fill="#000000" font-family="Verdana" font-size="14" font-weight="bold" lengthAdjust="spacing" textLength="36.292" x="514" y="379.8551">Core</text></g><!--cluster EndpointManager--><g class="cluster" data-entity="EndpointManager" data-source-line="77" data-uid="ent0009" id="cluster_EndpointManager"><path d="M1136.5,373.16 L1277.3633,373.16 A3.75,3.75 0 0 1 1279.8633,375.66 L1286.8633,395.4569 L1350.5,395.4569 A2.5,2.5 0 0 1 1353,397.9569 L1353,497.95 A2.5,2.5 0 0 1 1350.5,500.45 L1136.5,500.45 A2.5,2.5 0 0 1 1134,497.95 L1134,375.66 A2.5,2.5 0 0 1 1136.5,373.16" fill="#FFFFFF" style="stroke:#000000;stroke-width:1;"/><line style="stroke:#000000;stroke-width:1;" x1="1134" x2="1286.8633" y1="395.4569" y2="395.4569"/><text fill="#000000" font-family="Verdana" font-size="14" font-weight="bold" lengthAdjust="spacing" textLength="139.8633" x="1138" y="388.1551">EndpointManager</text></g><!--class PathManager--><g class="entity" data-entity="PathManager" data-source-line="37" data-uid="ent0003" id="entity_PathManager"><rect fill="#FFFFFF" height="255.8594" rx="2.5" ry="2.5" style="stroke:#000000;stroke-width:1;" width="352.877" x="26.56" y="46"/><ellipse cx="152.8735" cy="60" fill="#FFFFFF" rx="9" ry="9" style="stroke:#000000;stroke-width:1;"/><path d="M155.8422,65.6406 Q155.2641,65.9375 154.6235,66.0781 Q153.9829,66.2344 153.2797,66.2344 Q150.7797,66.2344 149.4516,64.5938 Q148.1391,62.9375 148.1391,59.8125 Q148.1391,56.6875 149.4516,55.0313 Q150.7797,53.375 153.2797,53.375 Q153.9829,53.375 154.6235,53.5313 Q155.2797,53.6875 155.8422,53.9844 L155.8422,56.7031 Q155.2172,56.125 154.6235,55.8594 Q154.0297,55.5781 153.4047,55.5781 Q152.061,55.5781 151.3735,56.6563 Q150.686,57.7188 150.686,59.8125 Q150.686,61.9063 151.3735,62.9844 Q152.061,64.0469 153.4047,64.0469 Q154.0297,64.0469 154.6235,63.7813 Q155.2172,63.5 155.8422,62.9219 L155.8422,65.6406 Z " fill="#000000"/><text fill="#000000" font-family="Verdana" font-size="14" lengthAdjust="spacing" textLength="92.75" x="170.3735" y="64.8467">PathManager</text><line style="stroke:#000000;stroke-width:1;" x1="27.56" x2="378.437" y1="74" y2="74"/><rect fill="none" height="6" style="stroke:#000000;stroke-width:1;" width="6" x="34.56" y="84.6484"/><text fill="#000000" font-family="Verdana" font-size="14" lengthAdjust="spacing" textLength="182.1094" x="44.56" y="90.9951">routes: List[Dict[str, Any]]</text><rect fill="none" height="6" style="stroke:#000000;stroke-width:1;" width="6" x="34.56" y="100.9453"/><text fill="#000000" font-family="Verdana" font-size="14" lengthAdjust="spacing" textLength="328.877" x="44.56" y="107.292">runtime_manager_initialised: RuntimeManager</text><rect fill="none" height="6" style="stroke:#000000;stroke-width:1;" width="6" x="34.56" y="117.2422"/><text fill="#000000" font-family="Verdana" font-size="14" lengthAdjust="spacing" textLength="276.3975" x="44.56" y="123.5889">endpoints_initialised: EndpointManager</text><rect fill="none" height="6" style="stroke:#000000;stroke-width:1;" width="6" x="34.56" y="133.5391"/><text fill="#000000" font-family="Verdana" font-size="14" lengthAdjust="spacing" textLength="304.3359" x="44.56" y="139.8857">runtime_control_initialised: RuntimeControl</text><line style="stroke:#000000;stroke-width:1;" x1="27.56" x2="378.437" y1="147.1875" y2="147.1875"/><ellipse cx="37.56" cy="160.8359" fill="#FFFFFF" rx="3" ry="3" style="stroke:#000000;stroke-width:1;"/><text fill="#000000" font-family="Verdana" font-size="14" lengthAdjust="spacing" textLength="212.2217" x="44.56" y="164.1826">__init__(success, error, debug)</text><ellipse cx="37.56" cy="177.1328" fill="#FFFFFF" rx="3" ry="3" style="stroke:#000000;stroke-width:1;"/><text fill="#000000" font-family="Verdana" font-size="14" lengthAdjust="spacing" textLength="241.876" x="44.56" y="180.4795">add_path(path, endpoint, method)</text><ellipse cx="37.56" cy="193.4297" fill="#FFFFFF" rx="3" ry="3" style="stroke:#000000;stroke-width:1;"/><text fill="#000000" font-family="Verdana" font-size="14" lengthAdjust="spacing" textLength="270.5186" x="44.56" y="196.7764">has_endpoint(path, endpoint, method)</text><ellipse cx="37.56" cy="209.7266" fill="#FFFFFF" rx="3" ry="3" style="stroke:#000000;stroke-width:1;"/><text fill="#000000" font-family="Verdana" font-size="14" lengthAdjust="spacing" textLength="217.4102" x="44.56" y="213.0732">load_default_paths_initialised()</text><ellipse cx="37.56" cy="226.0234" fill="#FFFFFF" rx="3" ry="3" style="stroke:#000000;stroke-width:1;"/><text fill="#000000" font-family="Verdana" font-size="14" lengthAdjust="spacing" textLength="100.9668" x="44.56" y="229.3701">inject_routes()</text><rect fill="#FFFFFF" height="6" style="stroke:#000000;stroke-width:1;" width="6" x="34.56" y="239.3203"/><text fill="#000000" font-family="Verdana" font-size="14" lengthAdjust="spacing" textLength="279.3027" x="44.56" y="245.667">endpoint_valid(path, endpoint, method)</text><rect fill="#FFFFFF" height="6" style="stroke:#000000;stroke-width:1;" width="6" x="34.56" y="255.6172"/><text fill="#000000" font-family="Verdana" font-size="14" lengthAdjust="spacing" textLength="287.1982" x="44.56" y="261.9639">_build_endpoint(path, endpoint, method)</text><rect fill="#FFFFFF" height="6" style="stroke:#000000;stroke-width:1;" width="6" x="34.56" y="271.9141"/><text fill="#000000" font-family="Verdana" font-size="14" lengthAdjust="spacing" textLength="237.1523" x="44.56" y="278.2607">_find_route_index(path, endpoint)</text><rect fill="#FFFFFF" height="6" style="stroke:#000000;stroke-width:1;" width="6" x="34.56" y="288.2109"/><text fill="#000000" font-family="Verdana" font-size="14" lengthAdjust="spacing" textLength="224.8477" x="44.56" y="294.5576">_merge_methods(existing, new)</text></g><!--class PathConstants--><g class="entity" data-entity="PathConstants" data-source-line="53" data-uid="ent0004" id="entity_PathConstants"><rect fill="#FFFFFF" height="109.1875" rx="2.5" ry="2.5" style="stroke:#000000;stroke-width:1;" width="253.585" x="76.21" y="391.71"/><ellipse cx="148.4444" cy="405.71" fill="#FFFFFF" rx="9" ry="9" style="stroke:#000000;stroke-width:1;"/><path d="M151.4131,411.3506 Q150.835,411.6475 150.1944,411.7881 Q149.5537,411.9444 148.8506,411.9444 Q146.3506,411.9444 145.0225,410.3038 Q143.71,408.6475 143.71,405.5225 Q143.71,402.3975 145.0225,400.7413 Q146.3506,399.085 148.8506,399.085 Q149.5537,399.085 150.1944,399.2413 Q150.8506,399.3975 151.4131,399.6944 L151.4131,402.4131 Q150.7881,401.835 150.1944,401.5694 Q149.6006,401.2881 148.9756,401.2881 Q147.6319,401.2881 146.9444,402.3663 Q146.2569,403.4288 146.2569,405.5225 Q146.2569,407.6163 146.9444,408.6944 Q147.6319,409.7569 148.9756,409.7569 Q149.6006,409.7569 150.1944,409.4913 Q150.7881,409.21 151.4131,408.6319 L151.4131,411.3506 Z " fill="#000000"/><text fill="#000000" font-family="Verdana" font-size="14" lengthAdjust="spacing" textLength="101.6162" x="165.9444" y="410.5567">PathConstants</text><line style="stroke:#000000;stroke-width:1;" x1="77.21" x2="328.795" y1="419.71" y2="419.71"/><ellipse cx="87.21" cy="433.3584" fill="none" rx="3" ry="3" style="stroke:#000000;stroke-width:1;"/><text fill="#000000" font-family="Verdana" font-size="14" lengthAdjust="spacing" textLength="163.7207" x="94.21" y="436.7051">PATH_KEY: str = "path"</text><ellipse cx="87.21" cy="449.6553" fill="none" rx="3" ry="3" style="stroke:#000000;stroke-width:1;"/><text fill="#000000" font-family="Verdana" font-size="14" lengthAdjust="spacing" textLength="229.585" x="94.21" y="453.002">ENDPOINT_KEY: str = "endpoint"</text><ellipse cx="87.21" cy="465.9522" fill="none" rx="3" ry="3" style="stroke:#000000;stroke-width:1;"/><text fill="#000000" font-family="Verdana" font-size="14" lengthAdjust="spacing" textLength="210.6631" x="94.21" y="469.2989">METHOD_KEY: str = "method"</text><ellipse cx="87.21" cy="482.2491" fill="none" rx="3" ry="3" style="stroke:#000000;stroke-width:1;"/><text fill="#000000" font-family="Verdana" font-size="14" lengthAdjust="spacing" textLength="210.458" x="94.21" y="485.5957">ALLOWED_METHODS: List[str]</text><line style="stroke:#000000;stroke-width:1;" x1="77.21" x2="328.795" y1="492.8975" y2="492.8975"/></g><!--class RuntimeManager--><g class="entity" data-entity="RuntimeManager" data-source-line="62" data-uid="ent0006" id="entity_RuntimeManager"><rect fill="#FFFFFF" height="92.8906" rx="2.5" ry="2.5" style="stroke:#000000;stroke-width:1;" width="252.7852" x="525.61" y="399.86"/><ellipse cx="588.0177" cy="413.86" fill="#FFFFFF" rx="9" ry="9" style="stroke:#000000;stroke-width:1;"/><path d="M590.9865,419.5006 Q590.4083,419.7975 589.7677,419.9381 Q589.1271,420.0944 588.424,420.0944 Q585.924,420.0944 584.5958,418.4538 Q583.2833,416.7975 583.2833,413.6725 Q583.2833,410.5475 584.5958,408.8913 Q585.924,407.235 588.424,407.235 Q589.1271,407.235 589.7677,407.3913 Q590.424,407.5475 590.9865,407.8444 L590.9865,410.5631 Q590.3615,409.985 589.7677,409.7194 Q589.174,409.4381 588.549,409.4381 Q587.2052,409.4381 586.5177,410.5163 Q585.8302,411.5788 585.8302,413.6725 Q585.8302,415.7663 586.5177,416.8444 Q587.2052,417.9069 588.549,417.9069 Q589.174,417.9069 589.7677,417.6413 Q590.3615,417.36 590.9865,416.7819 L590.9865,419.5006 Z " fill="#000000"/><text fill="#000000" font-family="Verdana" font-size="14" lengthAdjust="spacing" textLength="120.4697" x="605.5177" y="418.7067">RuntimeManager</text><line style="stroke:#000000;stroke-width:1;" x1="526.61" x2="777.3952" y1="427.86" y2="427.86"/><line style="stroke:#000000;stroke-width:1;" x1="526.61" x2="777.3952" y1="435.86" y2="435.86"/><ellipse cx="536.61" cy="449.5084" fill="#FFFFFF" rx="3" ry="3" style="stroke:#000000;stroke-width:1;"/><text fill="#000000" font-family="Verdana" font-size="14" lengthAdjust="spacing" textLength="106.9414" x="543.61" y="452.8551">get(class_type)</text><ellipse cx="536.61" cy="465.8053" fill="#FFFFFF" rx="3" ry="3" style="stroke:#000000;stroke-width:1;"/><text fill="#000000" font-family="Verdana" font-size="14" lengthAdjust="spacing" textLength="228.7852" x="543.61" y="469.152">get_if_exists(class_type, default)</text><ellipse cx="536.61" cy="482.1022" fill="#FFFFFF" rx="3" ry="3" style="stroke:#000000;stroke-width:1;"/><text fill="#000000" font-family="Verdana" font-size="14" lengthAdjust="spacing" textLength="124.8174" x="543.61" y="485.4489">exists(class_type)</text></g><!--class RuntimeControl--><g class="entity" data-entity="RuntimeControl" data-source-line="68" data-uid="ent0007" id="entity_RuntimeControl"><rect fill="#FFFFFF" height="60.2969" rx="2.5" ry="2.5" style="stroke:#000000;stroke-width:1;" width="138.0176" x="812.99" y="416.16"/><ellipse cx="825.99" cy="430.16" fill="#FFFFFF" rx="9" ry="9" style="stroke:#000000;stroke-width:1;"/><path d="M828.9588,435.8006 Q828.3806,436.0975 827.74,436.2381 Q827.0994,436.3944 826.3963,436.3944 Q823.8963,436.3944 822.5681,434.7537 Q821.2556,433.0975 821.2556,429.9725 Q821.2556,426.8475 822.5681,425.1912 Q823.8963,423.535 826.3963,423.535 Q827.0994,423.535 827.74,423.6912 Q828.3963,423.8475 828.9588,424.1444 L828.9588,426.8631 Q828.3338,426.285 827.74,426.0194 Q827.1463,425.7381 826.5213,425.7381 Q825.1775,425.7381 824.49,426.8162 Q823.8025,427.8787 823.8025,429.9725 Q823.8025,432.0662 824.49,433.1444 Q825.1775,434.2069 826.5213,434.2069 Q827.1463,434.2069 827.74,433.9412 Q828.3338,433.66 828.9588,433.0819 L828.9588,435.8006 Z " fill="#000000"/><text fill="#000000" font-family="Verdana" font-size="14" lengthAdjust="spacing" textLength="110.0176" x="837.99" y="435.0067">RuntimeControl</text><line style="stroke:#000000;stroke-width:1;" x1="813.99" x2="950.0076" y1="444.16" y2="444.16"/><ellipse cx="823.99" cy="457.8084" fill="none" rx="3" ry="3" style="stroke:#000000;stroke-width:1;"/><text fill="#000000" font-family="Verdana" font-size="14" lengthAdjust="spacing" textLength="87.083" x="830.99" y="461.1551">app: FastAPI</text><line style="stroke:#000000;stroke-width:1;" x1="813.99" x2="950.0076" y1="468.4569" y2="468.4569"/></g><!--class FinalClass--><g class="entity" data-entity="FinalClass" data-source-line="72" data-uid="ent0008" id="entity_FinalClass"><rect fill="#FFFFFF" height="60.2969" rx="2.5" ry="2.5" style="stroke:#000000;stroke-width:1;" width="100.2041" x="985.9" y="416.16"/><ellipse cx="999.8396" cy="430.16" fill="#FFFFFF" rx="9" ry="9" style="stroke:#000000;stroke-width:1;"/><path d="M1002.8083,435.8006 Q1002.2302,436.0975 1001.5896,436.2381 Q1000.9489,436.3944 1000.2458,436.3944 Q997.7458,436.3944 996.4177,434.7537 Q995.1052,433.0975 995.1052,429.9725 Q995.1052,426.8475 996.4177,425.1912 Q997.7458,423.535 1000.2458,423.535 Q1000.9489,423.535 1001.5896,423.6912 Q1002.2458,423.8475 1002.8083,424.1444 L1002.8083,426.8631 Q1002.1833,426.285 1001.5896,426.0194 Q1000.9958,425.7381 1000.3708,425.7381 Q999.0271,425.7381 998.3396,426.8162 Q997.6521,427.8787 997.6521,429.9725 Q997.6521,432.0662 998.3396,433.1444 Q999.0271,434.2069 1000.3708,434.2069 Q1000.9958,434.2069 1001.5896,433.9412 Q1002.1833,433.66 1002.8083,433.0819 L1002.8083,435.8006 Z " fill="#000000"/><text fill="#000000" font-family="Verdana" font-size="14" lengthAdjust="spacing" textLength="70.1162" x="1012.0483" y="435.0067">FinalClass</text><line style="stroke:#000000;stroke-width:1;" x1="986.9" x2="1085.1041" y1="444.16" y2="444.16"/><text fill="#000000" font-family="Verdana" font-size="14" lengthAdjust="spacing" textLength="88.2041" x="991.9" y="461.1551">&#171;metaclass&#187;</text><line style="stroke:#000000;stroke-width:1;" x1="986.9" x2="1085.1041" y1="468.4569" y2="468.4569"/></g><!--class EndpointManager--><g class="entity" data-entity="EndpointManager" data-source-line="78" data-uid="ent0010" id="entity_EndpointManager"><rect fill="#FFFFFF" height="60.2969" rx="2.5" ry="2.5" style="stroke:#000000;stroke-width:1;" width="151.6758" x="1158.16" y="416.16"/><ellipse cx="1171.16" cy="430.16" fill="#FFFFFF" rx="9" ry="9" style="stroke:#000000;stroke-width:1;"/><path d="M1174.1288,435.8006 Q1173.5506,436.0975 1172.91,436.2381 Q1172.2694,436.3944 1171.5663,436.3944 Q1169.0663,436.3944 1167.7381,434.7537 Q1166.4256,433.0975 1166.4256,429.9725 Q1166.4256,426.8475 1167.7381,425.1912 Q1169.0663,423.535 1171.5663,423.535 Q1172.2694,423.535 1172.91,423.6912 Q1173.5663,423.8475 1174.1288,424.1444 L1174.1288,426.8631 Q1173.5038,426.285 1172.91,426.0194 Q1172.3163,425.7381 1171.6913,425.7381 Q1170.3475,425.7381 1169.66,426.8162 Q1168.9725,427.8787 1168.9725,429.9725 Q1168.9725,432.0662 1169.66,433.1444 Q1170.3475,434.2069 1171.6913,434.2069 Q1172.3163,434.2069 1172.91,433.9412 Q1173.5038,433.66 1174.1288,433.0819 L1174.1288,435.8006 Z " fill="#000000"/><text fill="#000000" font-family="Verdana" font-size="14" lengthAdjust="spacing" textLength="123.6758" x="1183.16" y="435.0067">EndpointManager</text><line style="stroke:#000000;stroke-width:1;" x1="1159.16" x2="1308.8358" y1="444.16" y2="444.16"/><line style="stroke:#000000;stroke-width:1;" x1="1159.16" x2="1308.8358" y1="452.16" y2="452.16"/><ellipse cx="1169.16" cy="465.8084" fill="#FFFFFF" rx="3" ry="3" style="stroke:#000000;stroke-width:1;"/><text fill="#000000" font-family="Verdana" font-size="14" lengthAdjust="spacing" textLength="100.9668" x="1176.16" y="469.1551">inject_routes()</text></g><!--class FastAPI--><g class="entity" data-entity="FastAPI" data-source-line="88" data-uid="ent0016" id="entity_FastAPI"><rect fill="#FFFFFF" height="44" rx="2.5" ry="2.5" style="stroke:#000000;stroke-width:1;" width="79.5635" x="411.22" y="424.31"/><ellipse cx="424.22" cy="438.31" fill="#FFFFFF" rx="9" ry="9" style="stroke:#000000;stroke-width:1;"/><path d="M427.1888,443.9506 Q426.6106,444.2475 425.97,444.3881 Q425.3294,444.5444 424.6263,444.5444 Q422.1263,444.5444 420.7981,442.9037 Q419.4856,441.2475 419.4856,438.1225 Q419.4856,434.9975 420.7981,433.3412 Q422.1263,431.685 424.6263,431.685 Q425.3294,431.685 425.97,431.8412 Q426.6263,431.9975 427.1888,432.2944 L427.1888,435.0131 Q426.5638,434.435 425.97,434.1694 Q425.3763,433.8881 424.7513,433.8881 Q423.4075,433.8881 422.72,434.9662 Q422.0325,436.0287 422.0325,438.1225 Q422.0325,440.2162 422.72,441.2944 Q423.4075,442.3569 424.7513,442.3569 Q425.3763,442.3569 425.97,442.0912 Q426.5638,441.81 427.1888,441.2319 L427.1888,443.9506 Z " fill="#000000"/><text fill="#000000" font-family="Verdana" font-size="14" lengthAdjust="spacing" textLength="51.5635" x="436.22" y="443.1567">FastAPI</text><line style="stroke:#000000;stroke-width:1;" x1="412.22" x2="489.7835" y1="452.31" y2="452.31"/><line style="stroke:#000000;stroke-width:1;" x1="412.22" x2="489.7835" y1="460.31" y2="460.31"/></g><g class="entity" data-entity="GMN18" data-source-line="91" data-uid="ent0019" id="entity_GMN18"><path d="M414.37,70.57 L414.37,169.93 L379.91,173.93 L414.37,177.93 L414.37,277.2966 A0,0 0 0 0 414.37,277.2966 L645.6298,277.2966 A0,0 0 0 0 645.6298,277.2966 L645.6298,80.57 L635.6298,70.57 L414.37,70.57 A0,0 0 0 0 414.37,70.57" fill="#FFFFFF" style="stroke:#000000;stroke-width:1;"/><path d="M635.6298,70.57 L635.6298,80.57 L645.6298,80.57 L635.6298,70.57" fill="#FFFFFF" style="stroke:#000000;stroke-width:1;"/><text fill="#000000" font-family="Verdana" font-size="13" font-weight="bold" lengthAdjust="spacing" textLength="189.3315" x="420.37" y="87.6369">Internal Storage (routes):</text><text fill="#000000" font-family="Verdana" font-size="13" lengthAdjust="spacing" textLength="170.8535" x="420.37" y="102.7697">Deferred routes structure:</text><text fill="#000000" font-family="Verdana" font-size="13" lengthAdjust="spacing" textLength="5.0718" x="420.37" y="117.9025">[</text><text fill="#000000" font-family="Verdana" font-size="13" lengthAdjust="spacing" textLength="8.271" x="428.6346" y="133.0353">{</text><text fill="#000000" font-family="Verdana" font-size="13" lengthAdjust="spacing" textLength="150.1792" x="436.8993" y="148.1681">"path": "/api/v1/users",</text><text fill="#000000" font-family="Verdana" font-size="13" lengthAdjust="spacing" textLength="159.7705" x="436.8993" y="163.301">"endpoint": function_ref,</text><text fill="#000000" font-family="Verdana" font-size="13" lengthAdjust="spacing" textLength="173.4941" x="436.8993" y="178.4338">"method": ["GET", "POST"]</text><text fill="#000000" font-family="Verdana" font-size="13" lengthAdjust="spacing" textLength="8.271" x="428.6346" y="193.5666">}</text><text fill="#000000" font-family="Verdana" font-size="13" lengthAdjust="spacing" textLength="5.0718" x="420.37" y="208.6994">]</text><text fill="#000000" font-family="Verdana" font-size="13" lengthAdjust="spacing" textLength="4.1323" x="420.37" y="223.8322">&#160;</text><text fill="#000000" font-family="Verdana" font-size="13" font-weight="bold" lengthAdjust="spacing" textLength="111.8521" x="420.37" y="238.965">inject_routes():</text><text fill="#000000" font-family="Verdana" font-size="13" lengthAdjust="spacing" textLength="205.1753" x="420.37" y="254.0978">Final step that injects all stored</text><text fill="#000000" font-family="Verdana" font-size="13" lengthAdjust="spacing" textLength="210.2598" x="420.37" y="269.2306">routes into FastAPI app instance</text></g><!--link PathManager to PathConstants--><g class="link" data-entity-1="PathManager" data-entity-2="PathConstants" data-source-line="83" data-uid="lnk11" id="link_PathManager_PathConstants"><path codeLine="83" d="M203,302.2 C203,333.57 203,359.5 203,385.22" fill="none" id="PathManager-to-PathConstants" style="stroke:#000000;stroke-width:1;"/><polygon fill="#000000" points="203,391.22,207,382.22,203,386.22,199,382.22,203,391.22" style="stroke:#000000;stroke-width:1;"/><text fill="#000000" font-family="Verdana" font-size="13" lengthAdjust="spacing" textLength="29.7832" x="204" y="344.9269">uses</text></g><!--link PathManager to RuntimeManager--><g class="link" data-entity-1="PathManager" data-entity-2="RuntimeManager" data-source-line="84" data-uid="lnk12" id="link_PathManager_RuntimeManager"><path codeLine="84" d="M379.84,293.84 C385.57,296.66 391.29,299.34 397,301.86 C445.71,323.39 465.49,307.8 513,331.86 C547.32,349.24 576.4375,372.2061 601.9875,395.5161" fill="none" id="PathManager-to-RuntimeManager" style="stroke:#000000;stroke-width:1;"/><polygon fill="#000000" points="606.42,399.56,602.4672,390.5392,602.7263,396.1901,597.0753,396.4492,606.42,399.56" style="stroke:#000000;stroke-width:1;"/><text fill="#000000" font-family="Verdana" font-size="13" lengthAdjust="spacing" textLength="123.8364" x="539.36" y="344.9269">retrieves instances</text></g><!--link PathManager to RuntimeControl--><g class="link" data-entity-1="PathManager" data-entity-2="RuntimeControl" data-source-line="85" data-uid="lnk13" id="link_PathManager_RuntimeControl"><path codeLine="85" d="M379.69,295.07 C385.44,297.51 391.22,299.79 397,301.86 C565.51,362.27 638.77,271.29 796,356.86 C822.15,371.09 841.5336,391.2374 857.1836,410.9874" fill="none" id="PathManager-to-RuntimeControl" style="stroke:#000000;stroke-width:1;"/><polygon fill="#000000" points="860.91,415.69,858.4555,406.1519,857.8047,411.7712,852.1854,411.1204,860.91,415.69" style="stroke:#000000;stroke-width:1;"/><text fill="#000000" font-family="Verdana" font-size="13" lengthAdjust="spacing" textLength="139.1914" x="778.52" y="344.9269">accesses FastAPI app</text></g><!--link PathManager to EndpointManager--><g class="link" data-entity-1="PathManager" data-entity-2="EndpointManager" data-source-line="86" data-uid="lnk14" id="link_PathManager_EndpointManager"><path codeLine="86" d="M379.81,295.66 C385.52,297.92 391.26,300 397,301.86 C531.39,345.4 891.04,322.54 1032,331.86 C1040.18,332.4 1319.85,351.44 1326,356.86 C1329.7125,360.13 1332.7991,363.9344 1335.3575,368.0921 C1335.9971,369.1315 1336.6037,370.1931 1337.1789,371.2738 C1337.4664,371.8142 1335.0849,389.2788 1335.3569,389.8284" fill="none" id="PathManager-to-EndpointManager" style="stroke:#000000;stroke-width:1;"/><polygon fill="#000000" points="1338.0181,395.206,1337.6113,385.3655,1335.8005,390.7247,1330.4413,388.9138,1338.0181,395.206" style="stroke:#000000;stroke-width:1;"/><text fill="#000000" font-family="Verdana" font-size="13" lengthAdjust="spacing" textLength="114.7656" x="1254.93" y="344.9269">loads routes from</text></g><!--link PathManager to FinalClass--><g class="link" data-entity-1="PathManager" data-entity-2="FinalClass" data-source-line="87" data-uid="lnk15" id="link_PathManager_FinalClass"><path codeLine="87" d="M379.83,295.59 C385.54,297.87 391.27,299.97 397,301.86 C621.11,375.62 701.38,262.88 927,331.86 C969.31,344.8 992.2131,371.5054 1010.3131,400.6054" fill="none" id="PathManager-to-FinalClass" style="stroke:#000000;stroke-width:1;stroke-dasharray:7,7;"/><polygon fill="none" points="1019.82,415.89,1015.408,397.4364,1005.2182,403.7744,1019.82,415.89" style="stroke:#000000;stroke-width:1;"/><text fill="#000000" font-family="Verdana" font-size="13" lengthAdjust="spacing" textLength="65.9966" x="958.13" y="344.9269">metaclass</text></g><!--link PathManager to FastAPI--><g class="link" data-entity-1="PathManager" data-entity-2="FastAPI" data-source-line="88" data-uid="lnk17" id="link_PathManager_FastAPI"><path codeLine="88" d="M345.55,302.26 C362.9,319.96 379.83,338.42 395,356.86 C412.55,378.19 426.052,400.1542 436.522,418.7142" fill="none" id="PathManager-to-FastAPI" style="stroke:#000000;stroke-width:1;"/><polygon fill="#000000" points="439.47,423.94,438.5319,414.1359,437.0133,419.5851,431.5641,418.0666,439.47,423.94" style="stroke:#000000;stroke-width:1;"/><text fill="#000000" font-family="Verdana" font-size="13" lengthAdjust="spacing" textLength="117.0508" x="386.84" y="344.9269">injects routes into</text></g><!--SRC=[ZPHjJzim4CVVvrFSyggK5BIt4QjKqJBGW5QZqZHLo3BnfVMMsf7jC13Zk-_YF92aUteJHRxVFVX_TtxdThX7o3CkLH3aFFdEjmZXYhlT3LVqR-16YoB345u2W2JZraBNMfu2JC3emg6DuLfQjvdBn6siCn7CrFFzVOCKoiazidtbogIIJl9CMXGnVAwCTTZQ0vN8jLJEzjb5VTo7c_29LixexBVXpokRzpW6vXd6HhP84hGs0ZH6KzK27uhjKKrn8LXEDnwLdwYjAO8zkfqM3RRZbZMsVw2Pve89J7cHEH-wTxzHWqdr3HF7AcNhqpTDs2FXug-P9i0U2fc9_wkBw5GgKUMZWWG-3VYMswFPKX-zintX4_LSgcq42d-Kp6lG6nKItJfENQo7vHXMi_Kb-xJu6WCD2No0iCmJriR5xNorlBfTzu2cX0QwMQmlb_CUKfNJ0BFhw-MNnPnLu5qzc8JU-m9VEyD-harllFkZs1QzHJVo07FFEHwzdJAPCg-1xTZB8V8DRi03Og1KVqBRh3pFOxZWrirMLts72wbuTkv_A_ZiZ2JWtZYT7jnoi3JT2mzCRUx30VGXk-i_cKm7FOwXi6WFe86eCHXqHk8ZMafJkYP_TceqYO7xFIMVMf5IdWEluNLYlt2sVg8WDNhVypav-JdjgXb3g-D1xB1E719LoTF6fOmw29Hs24PkTmvqsdqfIRtn-4evD9G8xfmsPLj6bVDHF1uJCCUKNY0KJKWQro9nXS6OZ1lVbQetKAzC3E4fp-Nfu_jJKjtOC6hCxSB4a1OgSL8hPZ1jxVMsnB09FoxMOKHl_l9k7LPlzIjzopzVys0AgagzN5GVvk1stBLQyAmyfOKI17M4wJQiRNX0HK8fMF0B]--></g></svg>