<svg xmlns="http://www.w3.org/2000/svg" xmlns:xlink="http://www.w3.org/1999/xlink" contentStyleType="text/css" data-diagram-type="SEQUENCE" height="1061px" preserveAspectRatio="none" style="width:1074px;height:1061px;background:#FFFFFF;" version="1.1" viewBox="0 0 1074 1061" width="1074px" zoomAndPan="magnify"><defs/><g><g><title>EndpointManager</title><rect fill="#FFFFFF" height="285.0625" style="stroke:#000000;stroke-width:1;" width="10" x="206.0615" y="255.2266"/></g><g><title>PathManager</title><rect fill="#FFFFFF" height="129.5313" style="stroke:#000000;stroke-width:1;" width="10" x="553.8643" y="67.4297"/></g><g><title>PathManager</title><rect fill="#FFFFFF" height="498.8594" style="stroke:#000000;stroke-width:1;" width="10" x="553.8643" y="226.0938"/></g><g><title>PathManager</title><rect fill="#FFFFFF" height="155.5313" style="stroke:#000000;stroke-width:1;" width="10" x="558.8643" y="284.3594"/></g><g><title>PathManager</title><rect fill="#FFFFFF" height="174.7969" style="stroke:#000000;stroke-width:1;" width="10" x="553.8643" y="783.2188"/></g><g><title>Application</title><rect fill="#000000" fill-opacity="0.00000" height="989.9844" width="8" x="62.1118" y="36.2969"/><line style="stroke:#000000;stroke-width:1;stroke-dasharray:5,5;" x1="66" x2="66" y1="36.2969" y2="1026.2813"/></g><g><title>EndpointManager</title><rect fill="#000000" fill-opacity="0.00000" height="989.9844" width="8" x="207.0615" y="36.2969"/><line style="stroke:#000000;stroke-width:1;stroke-dasharray:5,5;" x1="210.2236" x2="210.2236" y1="36.2969" y2="1026.2813"/></g><g><title>PathManager</title><rect fill="#000000" fill-opacity="0.00000" height="989.9844" width="8" x="554.8643" y="36.2969"/><line style="stroke:#000000;stroke-width:1;stroke-dasharray:5,5;" x1="558.4893" x2="558.4893" y1="36.2969" y2="1026.2813"/></g><g><title>RuntimeControl</title><rect fill="#000000" fill-opacity="0.00000" height="989.9844" width="8" x="854.2534" y="36.2969"/><line style="stroke:#000000;stroke-width:1;stroke-dasharray:5,5;" x1="858.2446" x2="858.2446" y1="36.2969" y2="1026.2813"/></g><g><title>FastAPI</title><rect fill="#000000" fill-opacity="0.00000" height="989.9844" width="8" x="1032.1548" y="36.2969"/><line style="stroke:#000000;stroke-width:1;stroke-dasharray:5,5;" x1="1035.373" x2="1035.373" y1="36.2969" y2="1026.2813"/></g><g class="participant participant-head" data-participant="App"><rect fill="#FFFFFF" height="30.2969" rx="2.5" ry="2.5" style="stroke:#000000;stroke-width:1;" width="92.2236" x="20" y="5"/><text fill="#000000" font-family="Verdana" font-size="14" lengthAdjust="spacing" textLength="78.2236" x="27" y="24.9951">Application</text></g><g class="participant participant-tail" data-participant="App"><rect fill="#FFFFFF" height="30.2969" rx="2.5" ry="2.5" style="stroke:#000000;stroke-width:1;" width="92.2236" x="20" y="1025.2813"/><text fill="#000000" font-family="Verdana" font-size="14" lengthAdjust="spacing" textLength="78.2236" x="27" y="1045.2764">Application</text></g><g class="participant participant-head" data-participant="EM"><rect fill="#FFFFFF" height="30.2969" rx="2.5" ry="2.5" style="stroke:#000000;stroke-width:1;" width="137.6758" x="142.2236" y="5"/><text fill="#000000" font-family="Verdana" font-size="14" lengthAdjust="spacing" textLength="123.6758" x="149.2236" y="24.9951">EndpointManager</text></g><g class="participant participant-tail" data-participant="EM"><rect fill="#FFFFFF" height="30.2969" rx="2.5" ry="2.5" style="stroke:#000000;stroke-width:1;" width="137.6758" x="142.2236" y="1025.2813"/><text fill="#000000" font-family="Verdana" font-size="14" lengthAdjust="spacing" textLength="123.6758" x="149.2236" y="1045.2764">EndpointManager</text></g><g class="participant participant-head" data-participant="PM"><rect fill="#FFFFFF" height="30.2969" rx="2.5" ry="2.5" style="stroke:#000000;stroke-width:1;" width="106.75" x="505.4893" y="5"/><text fill="#000000" font-family="Verdana" font-size="14" lengthAdjust="spacing" textLength="92.75" x="512.4893" y="24.9951">PathManager</text></g><g class="participant participant-tail" data-participant="PM"><rect fill="#FFFFFF" height="30.2969" rx="2.5" ry="2.5" style="stroke:#000000;stroke-width:1;" width="106.75" x="505.4893" y="1025.2813"/><text fill="#000000" font-family="Verdana" font-size="14" lengthAdjust="spacing" textLength="92.75" x="512.4893" y="1045.2764">PathManager</text></g><g class="participant participant-head" data-participant="RC"><rect fill="#FFFFFF" height="30.2969" rx="2.5" ry="2.5" style="stroke:#000000;stroke-width:1;" width="124.0176" x="796.2446" y="5"/><text fill="#000000" font-family="Verdana" font-size="14" lengthAdjust="spacing" textLength="110.0176" x="803.2446" y="24.9951">RuntimeControl</text></g><g class="participant participant-tail" data-participant="RC"><rect fill="#FFFFFF" height="30.2969" rx="2.5" ry="2.5" style="stroke:#000000;stroke-width:1;" width="124.0176" x="796.2446" y="1025.2813"/><text fill="#000000" font-family="Verdana" font-size="14" lengthAdjust="spacing" textLength="110.0176" x="803.2446" y="1045.2764">RuntimeControl</text></g><g class="participant participant-head" data-participant="FA"><rect fill="#FFFFFF" height="30.2969" rx="2.5" ry="2.5" style="stroke:#000000;stroke-width:1;" width="65.5635" x="1003.373" y="5"/><text fill="#000000" font-family="Verdana" font-size="14" lengthAdjust="spacing" textLength="51.5635" x="1010.373" y="24.9951">FastAPI</text></g><g class="participant participant-tail" data-participant="FA"><rect fill="#FFFFFF" height="30.2969" rx="2.5" ry="2.5" style="stroke:#000000;stroke-width:1;" width="65.5635" x="1003.373" y="1025.2813"/><text fill="#000000" font-family="Verdana" font-size="14" lengthAdjust="spacing" textLength="51.5635" x="1010.373" y="1045.2764">FastAPI</text></g><g><title>EndpointManager</title><rect fill="#FFFFFF" height="285.0625" style="stroke:#000000;stroke-width:1;" width="10" x="206.0615" y="255.2266"/></g><g><title>PathManager</title><rect fill="#FFFFFF" height="129.5313" style="stroke:#000000;stroke-width:1;" width="10" x="553.8643" y="67.4297"/></g><g><title>PathManager</title><rect fill="#FFFFFF" height="498.8594" style="stroke:#000000;stroke-width:1;" width="10" x="553.8643" y="226.0938"/></g><g><title>PathManager</title><rect fill="#FFFFFF" height="155.5313" style="stroke:#000000;stroke-width:1;" width="10" x="558.8643" y="284.3594"/></g><g><title>PathManager</title><rect fill="#FFFFFF" height="174.7969" style="stroke:#000000;stroke-width:1;" width="10" x="553.8643" y="783.2188"/></g><g class="message" data-participant-1="App" data-participant-2="PM"><polygon fill="#000000" points="541.8643,63.4297,551.8643,67.4297,541.8643,71.4297,545.8643,67.4297" style="stroke:#000000;stroke-width:1;"/><line style="stroke:#000000;stroke-width:1;" x1="66.1118" x2="547.8643" y1="67.4297" y2="67.4297"/><text fill="#000000" font-family="Verdana" font-size="13" lengthAdjust="spacing" text-decoration="underline" textLength="20.5601" x="73.1118" y="62.3638">init</text><text fill="#000000" font-family="Verdana" font-size="13" lengthAdjust="spacing" textLength="10.1436" x="93.6719" y="62.3638">()</text></g><g class="message" data-participant-1="PM" data-participant-2="PM"><line style="stroke:#000000;stroke-width:1;" x1="563.8643" x2="605.8643" y1="96.5625" y2="96.5625"/><line style="stroke:#000000;stroke-width:1;" x1="605.8643" x2="605.8643" y1="96.5625" y2="109.5625"/><line style="stroke:#000000;stroke-width:1;" x1="564.8643" x2="605.8643" y1="109.5625" y2="109.5625"/><polygon fill="#000000" points="574.8643,105.5625,564.8643,109.5625,574.8643,113.5625,570.8643,109.5625" style="stroke:#000000;stroke-width:1;"/><text fill="#000000" font-family="Verdana" font-size="13" lengthAdjust="spacing" textLength="70.7065" x="570.8643" y="91.4966">routes = []</text></g><g class="message" data-participant-1="PM" data-participant-2="RC"><polygon fill="#000000" points="846.2534,134.6953,856.2534,138.6953,846.2534,142.6953,850.2534,138.6953" style="stroke:#000000;stroke-width:1;"/><line style="stroke:#000000;stroke-width:1;" x1="563.8643" x2="852.2534" y1="138.6953" y2="138.6953"/><text fill="#000000" font-family="Verdana" font-size="13" lengthAdjust="spacing" textLength="127.6387" x="570.8643" y="133.6294">get RuntimeControl</text></g><g class="message" data-participant-1="PM" data-participant-2="EM"><polygon fill="#000000" points="222.0615,163.8281,212.0615,167.8281,222.0615,171.8281,218.0615,167.8281" style="stroke:#000000;stroke-width:1;"/><line style="stroke:#000000;stroke-width:1;" x1="216.0615" x2="552.8643" y1="167.8281" y2="167.8281"/><text fill="#000000" font-family="Verdana" font-size="13" lengthAdjust="spacing" textLength="204.8643" x="228.0615" y="162.7622">get EndpointManager (if exists)</text></g><g class="message" data-participant-1="PM" data-participant-2="App"><polygon fill="#000000" points="77.1118,192.9609,67.1118,196.9609,77.1118,200.9609,73.1118,196.9609" style="stroke:#000000;stroke-width:1;"/><line style="stroke:#000000;stroke-width:1;stroke-dasharray:2,2;" x1="71.1118" x2="557.8643" y1="196.9609" y2="196.9609"/><text fill="#000000" font-family="Verdana" font-size="13" lengthAdjust="spacing" textLength="145.3296" x="83.1118" y="191.895">PathManager instance</text></g><g class="message" data-participant-1="App" data-participant-2="PM"><polygon fill="#000000" points="541.8643,222.0938,551.8643,226.0938,541.8643,230.0938,545.8643,226.0938" style="stroke:#000000;stroke-width:1;"/><line style="stroke:#000000;stroke-width:1;" x1="66.1118" x2="547.8643" y1="226.0938" y2="226.0938"/><text fill="#000000" font-family="Verdana" font-size="13" lengthAdjust="spacing" textLength="201.8809" x="73.1118" y="221.0278">load_default_paths_initialised()</text></g><g class="message" data-participant-1="PM" data-participant-2="EM"><polygon fill="#000000" points="227.0615,251.2266,217.0615,255.2266,227.0615,259.2266,223.0615,255.2266" style="stroke:#000000;stroke-width:1;"/><line style="stroke:#000000;stroke-width:1;" x1="221.0615" x2="552.8643" y1="255.2266" y2="255.2266"/><text fill="#000000" font-family="Verdana" font-size="13" lengthAdjust="spacing" textLength="93.7549" x="233.0615" y="250.1606">inject_routes()</text></g><g class="message" data-participant-1="EM" data-participant-2="PM"><polygon fill="#000000" points="546.8643,280.3594,556.8643,284.3594,546.8643,288.3594,550.8643,284.3594" style="stroke:#000000;stroke-width:1;"/><line style="stroke:#000000;stroke-width:1;" x1="216.0615" x2="552.8643" y1="284.3594" y2="284.3594"/><text fill="#000000" font-family="Verdana" font-size="13" lengthAdjust="spacing" textLength="313.8027" x="223.0615" y="279.2935">add_path("/api/v1/login", login_handler, "POST")</text></g><g class="message" data-participant-1="PM" data-participant-2="PM"><line style="stroke:#000000;stroke-width:1;" x1="568.8643" x2="610.8643" y1="313.4922" y2="313.4922"/><line style="stroke:#000000;stroke-width:1;" x1="610.8643" x2="610.8643" y1="313.4922" y2="326.4922"/><line style="stroke:#000000;stroke-width:1;" x1="569.8643" x2="610.8643" y1="326.4922" y2="326.4922"/><polygon fill="#000000" points="579.8643,322.4922,569.8643,326.4922,579.8643,330.4922,575.8643,326.4922" style="stroke:#000000;stroke-width:1;"/><text fill="#000000" font-family="Verdana" font-size="13" lengthAdjust="spacing" textLength="105.4219" x="575.8643" y="308.4263">endpoint_valid()</text></g><g class="message" data-participant-1="PM" data-participant-2="PM"><line style="stroke:#000000;stroke-width:1;" x1="568.8643" x2="610.8643" y1="355.625" y2="355.625"/><line style="stroke:#000000;stroke-width:1;" x1="610.8643" x2="610.8643" y1="355.625" y2="368.625"/><line style="stroke:#000000;stroke-width:1;" x1="569.8643" x2="610.8643" y1="368.625" y2="368.625"/><polygon fill="#000000" points="579.8643,364.625,569.8643,368.625,579.8643,372.625,575.8643,368.625" style="stroke:#000000;stroke-width:1;"/><text fill="#000000" font-family="Verdana" font-size="13" lengthAdjust="spacing" textLength="112.7534" x="575.8643" y="350.5591">_build_endpoint()</text></g><g class="message" data-participant-1="PM" data-participant-2="PM"><line style="stroke:#000000;stroke-width:1;" x1="568.8643" x2="610.8643" y1="397.7578" y2="397.7578"/><line style="stroke:#000000;stroke-width:1;" x1="610.8643" x2="610.8643" y1="397.7578" y2="410.7578"/><line style="stroke:#000000;stroke-width:1;" x1="569.8643" x2="610.8643" y1="410.7578" y2="410.7578"/><polygon fill="#000000" points="579.8643,406.7578,569.8643,410.7578,579.8643,414.7578,575.8643,410.7578" style="stroke:#000000;stroke-width:1;"/><text fill="#000000" font-family="Verdana" font-size="13" lengthAdjust="spacing" textLength="133.5801" x="575.8643" y="392.6919">routes.append({...})</text></g><g class="message" data-participant-1="PM" data-participant-2="EM"><polygon fill="#000000" points="227.0615,435.8906,217.0615,439.8906,227.0615,443.8906,223.0615,439.8906" style="stroke:#000000;stroke-width:1;"/><line style="stroke:#000000;stroke-width:1;stroke-dasharray:2,2;" x1="221.0615" x2="552.8643" y1="439.8906" y2="439.8906"/><text fill="#000000" font-family="Verdana" font-size="13" lengthAdjust="spacing" textLength="50.8511" x="233.0615" y="434.8247">success</text></g><g class="message" data-participant-1="EM" data-participant-2="PM"><polygon fill="#000000" points="541.8643,465.0234,551.8643,469.0234,541.8643,473.0234,545.8643,469.0234" style="stroke:#000000;stroke-width:1;"/><line style="stroke:#000000;stroke-width:1;" x1="216.0615" x2="547.8643" y1="469.0234" y2="469.0234"/><text fill="#000000" font-family="Verdana" font-size="13" lengthAdjust="spacing" textLength="284.3813" x="223.0615" y="463.9575">add_path("/api/v1/users", get_users, "GET")</text></g><g class="message" data-participant-1="PM" data-participant-2="PM"><line style="stroke:#000000;stroke-width:1;" x1="563.8643" x2="605.8643" y1="498.1563" y2="498.1563"/><line style="stroke:#000000;stroke-width:1;" x1="605.8643" x2="605.8643" y1="498.1563" y2="511.1563"/><line style="stroke:#000000;stroke-width:1;" x1="564.8643" x2="605.8643" y1="511.1563" y2="511.1563"/><polygon fill="#000000" points="574.8643,507.1563,564.8643,511.1563,574.8643,515.1563,570.8643,511.1563" style="stroke:#000000;stroke-width:1;"/><text fill="#000000" font-family="Verdana" font-size="13" lengthAdjust="spacing" textLength="133.5801" x="570.8643" y="493.0903">routes.append({...})</text></g><g class="message" data-participant-1="EM" data-participant-2="PM"><polygon fill="#000000" points="541.8643,536.2891,551.8643,540.2891,541.8643,544.2891,545.8643,540.2891" style="stroke:#000000;stroke-width:1;"/><line style="stroke:#000000;stroke-width:1;stroke-dasharray:2,2;" x1="211.0615" x2="547.8643" y1="540.2891" y2="540.2891"/><text fill="#000000" font-family="Verdana" font-size="13" lengthAdjust="spacing" textLength="50.8511" x="218.0615" y="535.2231">success</text></g><g class="message" data-participant-1="EM" data-participant-2="PM"><polygon fill="#000000" points="541.8643,565.4219,551.8643,569.4219,541.8643,573.4219,545.8643,569.4219" style="stroke:#000000;stroke-width:1;"/><line style="stroke:#000000;stroke-width:1;" x1="211.0615" x2="547.8643" y1="569.4219" y2="569.4219"/><text fill="#000000" font-family="Verdana" font-size="13" lengthAdjust="spacing" textLength="305.8491" x="218.0615" y="564.356">add_path("/api/v1/users", create_user, "POST")</text></g><g class="message" data-participant-1="PM" data-participant-2="PM"><line style="stroke:#000000;stroke-width:1;" x1="563.8643" x2="605.8643" y1="598.5547" y2="598.5547"/><line style="stroke:#000000;stroke-width:1;" x1="605.8643" x2="605.8643" y1="598.5547" y2="611.5547"/><line style="stroke:#000000;stroke-width:1;" x1="564.8643" x2="605.8643" y1="611.5547" y2="611.5547"/><polygon fill="#000000" points="574.8643,607.5547,564.8643,611.5547,574.8643,615.5547,570.8643,611.5547" style="stroke:#000000;stroke-width:1;"/><text fill="#000000" font-family="Verdana" font-size="13" lengthAdjust="spacing" textLength="124.7505" x="570.8643" y="593.4888">_find_route_index()</text></g><g class="message" data-participant-1="PM" data-participant-2="PM"><line style="stroke:#000000;stroke-width:1;" x1="563.8643" x2="605.8643" y1="640.6875" y2="640.6875"/><line style="stroke:#000000;stroke-width:1;" x1="605.8643" x2="605.8643" y1="640.6875" y2="653.6875"/><line style="stroke:#000000;stroke-width:1;" x1="564.8643" x2="605.8643" y1="653.6875" y2="653.6875"/><polygon fill="#000000" points="574.8643,649.6875,564.8643,653.6875,574.8643,657.6875,570.8643,653.6875" style="stroke:#000000;stroke-width:1;"/><text fill="#000000" font-family="Verdana" font-size="13" lengthAdjust="spacing" textLength="235.3394" x="570.8643" y="635.6216">_merge_methods(["GET"], ["POST"])</text></g><g class="message" data-participant-1="PM" data-participant-2="PM"><line style="stroke:#000000;stroke-width:1;" x1="563.8643" x2="605.8643" y1="682.8203" y2="682.8203"/><line style="stroke:#000000;stroke-width:1;" x1="605.8643" x2="605.8643" y1="682.8203" y2="695.8203"/><line style="stroke:#000000;stroke-width:1;" x1="564.8643" x2="605.8643" y1="695.8203" y2="695.8203"/><polygon fill="#000000" points="574.8643,691.8203,564.8643,695.8203,574.8643,699.8203,570.8643,695.8203" style="stroke:#000000;stroke-width:1;"/><text fill="#000000" font-family="Verdana" font-size="13" lengthAdjust="spacing" textLength="265.3892" x="570.8643" y="677.7544">routes[idx]["method"] = ["GET", "POST"]</text></g><g class="message" data-participant-1="PM" data-participant-2="App"><polygon fill="#000000" points="77.1118,720.9531,67.1118,724.9531,77.1118,728.9531,73.1118,724.9531" style="stroke:#000000;stroke-width:1;"/><line style="stroke:#000000;stroke-width:1;stroke-dasharray:2,2;" x1="71.1118" x2="557.8643" y1="724.9531" y2="724.9531"/><text fill="#000000" font-family="Verdana" font-size="13" lengthAdjust="spacing" textLength="50.8511" x="83.1118" y="719.8872">success</text></g><g class="message" data-participant-1="App" data-participant-2="PM"><polygon fill="#000000" points="546.8643,750.0859,556.8643,754.0859,546.8643,758.0859,550.8643,754.0859" style="stroke:#000000;stroke-width:1;"/><line style="stroke:#000000;stroke-width:1;stroke-dasharray:2,2;" x1="66.1118" x2="552.8643" y1="754.0859" y2="754.0859"/><text fill="#000000" font-family="Verdana" font-size="13" lengthAdjust="spacing" textLength="131.5298" x="73.1118" y="749.02">all routes registered</text></g><g class="message" data-participant-1="App" data-participant-2="PM"><polygon fill="#000000" points="541.8643,779.2188,551.8643,783.2188,541.8643,787.2188,545.8643,783.2188" style="stroke:#000000;stroke-width:1;"/><line style="stroke:#000000;stroke-width:1;" x1="66.1118" x2="547.8643" y1="783.2188" y2="783.2188"/><text fill="#000000" font-family="Verdana" font-size="13" lengthAdjust="spacing" textLength="93.7549" x="73.1118" y="778.1528">inject_routes()</text></g><g class="message" data-participant-1="PM" data-participant-2="RC"><polygon fill="#000000" points="846.2534,808.3516,856.2534,812.3516,846.2534,816.3516,850.2534,812.3516" style="stroke:#000000;stroke-width:1;"/><line style="stroke:#000000;stroke-width:1;" x1="563.8643" x2="852.2534" y1="812.3516" y2="812.3516"/><text fill="#000000" font-family="Verdana" font-size="13" lengthAdjust="spacing" textLength="109.1543" x="570.8643" y="807.2856">get app instance</text></g><g class="message" data-participant-1="RC" data-participant-2="PM"><polygon fill="#000000" points="574.8643,837.4844,564.8643,841.4844,574.8643,845.4844,570.8643,841.4844" style="stroke:#000000;stroke-width:1;"/><line style="stroke:#000000;stroke-width:1;stroke-dasharray:2,2;" x1="568.8643" x2="857.2534" y1="841.4844" y2="841.4844"/><text fill="#000000" font-family="Verdana" font-size="13" lengthAdjust="spacing" textLength="76.4829" x="580.8643" y="836.4185">FastAPI app</text></g><g class="message" data-participant-1="PM" data-participant-2="FA"><polygon fill="#000000" points="1024.1548,866.6172,1034.1548,870.6172,1024.1548,874.6172,1028.1548,870.6172" style="stroke:#000000;stroke-width:1;"/><line style="stroke:#000000;stroke-width:1;" x1="563.8643" x2="1030.1548" y1="870.6172" y2="870.6172"/><text fill="#000000" font-family="Verdana" font-size="13" lengthAdjust="spacing" textLength="423.2236" x="570.8643" y="865.5513">add_api_route("/api/v1/login", login_handler, methods=["POST"])</text></g><g class="message" data-participant-1="PM" data-participant-2="FA"><polygon fill="#000000" points="1024.1548,895.75,1034.1548,899.75,1024.1548,903.75,1028.1548,899.75" style="stroke:#000000;stroke-width:1;"/><line style="stroke:#000000;stroke-width:1;" x1="563.8643" x2="1030.1548" y1="899.75" y2="899.75"/><text fill="#000000" font-family="Verdana" font-size="13" lengthAdjust="spacing" textLength="448.2905" x="570.8643" y="894.6841">add_api_route("/api/v1/users", get_users, methods=["GET", "POST"])</text></g><g class="message" data-participant-1="PM" data-participant-2="FA"><polygon fill="#000000" points="1024.1548,924.8828,1034.1548,928.8828,1024.1548,932.8828,1028.1548,928.8828" style="stroke:#000000;stroke-width:1;"/><line style="stroke:#000000;stroke-width:1;" x1="563.8643" x2="1030.1548" y1="928.8828" y2="928.8828"/><text fill="#000000" font-family="Verdana" font-size="13" lengthAdjust="spacing" textLength="126.166" x="570.8643" y="923.8169">... (all other routes)</text></g><g class="message" data-participant-1="PM" data-participant-2="App"><polygon fill="#000000" points="77.1118,954.0156,67.1118,958.0156,77.1118,962.0156,73.1118,958.0156" style="stroke:#000000;stroke-width:1;"/><line style="stroke:#000000;stroke-width:1;stroke-dasharray:2,2;" x1="71.1118" x2="557.8643" y1="958.0156" y2="958.0156"/><text fill="#000000" font-family="Verdana" font-size="13" lengthAdjust="spacing" textLength="97.4937" x="83.1118" y="952.9497">routes injected</text></g><path d="M456,971.0156 L456,1011.0156 L661,1011.0156 L661,981.0156 L651,971.0156 L456,971.0156" fill="#FFFFFF" style="stroke:#000000;stroke-width:1;"/><path d="M651,971.0156 L651,981.0156 L661,981.0156 L651,971.0156" fill="#FFFFFF" style="stroke:#000000;stroke-width:1;"/><text fill="#000000" font-family="Verdana" font-size="13" lengthAdjust="spacing" textLength="157.1299" x="462" y="988.0825">Routes are now live and</text><text fill="#000000" font-family="Verdana" font-size="13" lengthAdjust="spacing" textLength="184.4121" x="462" y="1003.2153">FastAPI can handle requests</text><!--SRC=[jPH1Zzem48Nl-HNJdB8I2-grqbP22AeUK17j3KMM6mymbR5Jsw58LVzx9uu32MAtfrw0-3sFttoUy2uSyOHGQqacoshf0bLKInCWdzUrfae6iYO7wO6VnuQbKRKb4zRIo0EwQ5gknvwD3CUXlhdJjuq9TCA5DS5P7ItRnTYoaZxCDv-Zjffd6UU0vuzS2Jw046Ge254yPR8AT9O1soDOwntEDW4zlC2kJClR1IyVCC3uxAGkrqczwmuAsWDUo0V_b3aCZJCmQ0x8-21DXUDysaeb5EvbeuEesUvZO9AQFAg7gMC0CZ-m2g8BFxGnt-MjEQbKh5haCrdJxFn-fks1J3w1-2sEqYYDRiBtyENhj_nLI9Xw5MSEriOQQE9xGrg9tZ8Mku1JMTUi5x-dq-cVAntVL1Lw_tRUngFpd9U9Y_YRitvQjb7_nocLGsu-7dHZCknrJqPrrFcU55xkK9pG7P0_mz4gN-nYqd82kwvK-I3qZjIbtENTbhnivp3kweylx_j8ZrBhVdGT7dZgqA4QpzQhCtAzs-kaCxdRWFBgSryZlLkj8UrPpHD1HjVL_kTm9HulznZUAlNWtczbHe16rVZgeMZPMFxVSedGTHOIi0vCYyjOnc7Fx6Gc0DjEbmx1s5-WwOp0JR3ISwYaWQulnlwpGNxRCvuvQ0jbVm40]--></g></svg>