<svg xmlns="http://www.w3.org/2000/svg" xmlns:xlink="http://www.w3.org/1999/xlink" contentStyleType="text/css" data-diagram-type="CLASS" height="1084px" preserveAspectRatio="none" style="width:1827px;height:1084px;background:#FFFFFF;" version="1.1" viewBox="0 0 1827 1084" width="1827px" zoomAndPan="magnify"><defs/><g><!--cluster Boilerplates Module--><g class="cluster" data-entity="Boilerplates Module" data-source-line="36" data-uid="ent0002" id="cluster_Boilerplates Module"><path d="M451.05,49.04 L609.8303,49.04 A3.75,3.75 0 0 1 612.3303,51.54 L619.3303,71.3369 L1317.05,71.3369 A2.5,2.5 0 0 1 1319.55,73.8369 L1319.55,767.74 A2.5,2.5 0 0 1 1317.05,770.24 L451.05,770.24 A2.5,2.5 0 0 1 448.55,767.74 L448.55,51.54 A2.5,2.5 0 0 1 451.05,49.04" fill="#FFFFFF" style="stroke:#000000;stroke-width:1;"/><line style="stroke:#000000;stroke-width:1;" x1="448.55" x2="619.3303" y1="71.3369" y2="71.3369"/><text fill="#000000" font-family="Verdana" font-size="14" font-weight="bold" lengthAdjust="spacing" textLength="157.7803" x="452.55" y="64.0351">Boilerplates Module</text></g><!--cluster Dependencies--><g class="cluster" data-entity="Dependencies" data-source-line="89" data-uid="ent0006" id="cluster_Dependencies"><path d="M44.05,819.24 L156.0588,819.24 A3.75,3.75 0 0 1 158.5588,821.74 L165.5588,841.5369 L945.05,841.5369 A2.5,2.5 0 0 1 947.55,844.0369 L947.55,1074.71 A2.5,2.5 0 0 1 945.05,1077.21 L44.05,1077.21 A2.5,2.5 0 0 1 41.55,1074.71 L41.55,821.74 A2.5,2.5 0 0 1 44.05,819.24" fill="#FFFFFF" style="stroke:#000000;stroke-width:1;"/><line style="stroke:#000000;stroke-width:1;" x1="41.55" x2="165.5588" y1="841.5369" y2="841.5369"/><text fill="#000000" font-family="Verdana" font-size="14" font-weight="bold" lengthAdjust="spacing" textLength="111.0088" x="45.55" y="834.2351">Dependencies</text></g><!--cluster Core--><g class="cluster" data-entity="Core" data-source-line="125" data-uid="ent0011" id="cluster_Core"><path d="M1231.05,884.43 L1268.342,884.43 A3.75,3.75 0 0 1 1270.842,886.93 L1277.842,906.7269 L1673.05,906.7269 A2.5,2.5 0 0 1 1675.55,909.2269 L1675.55,1009.52 A2.5,2.5 0 0 1 1673.05,1012.02 L1231.05,1012.02 A2.5,2.5 0 0 1 1228.55,1009.52 L1228.55,886.93 A2.5,2.5 0 0 1 1231.05,884.43" fill="#FFFFFF" style="stroke:#000000;stroke-width:1;"/><line style="stroke:#000000;stroke-width:1;" x1="1228.55" x2="1277.842" y1="906.7269" y2="906.7269"/><text fill="#000000" font-family="Verdana" font-size="14" font-weight="bold" lengthAdjust="spacing" textLength="36.292" x="1232.55" y="899.4251">Core</text></g><!--class BoilerplateResponses--><g class="entity" data-entity="BoilerplateResponses" data-source-line="37" data-uid="ent0003" id="entity_BoilerplateResponses"><rect fill="#FFFFFF" height="337.3438" rx="2.5" ry="2.5" style="stroke:#000000;stroke-width:1;" width="412.4043" x="464.35" y="84.04"/><ellipse cx="591.3334" cy="98.04" fill="#FFFFFF" rx="9" ry="9" style="stroke:#000000;stroke-width:1;"/><path d="M594.3021,103.6806 Q593.724,103.9775 593.0834,104.1181 Q592.4428,104.2744 591.7396,104.2744 Q589.2396,104.2744 587.9115,102.6338 Q586.599,100.9775 586.599,97.8525 Q586.599,94.7275 587.9115,93.0713 Q589.2396,91.415 591.7396,91.415 Q592.4428,91.415 593.0834,91.5713 Q593.7396,91.7275 594.3021,92.0244 L594.3021,94.7431 Q593.6771,94.165 593.0834,93.8994 Q592.4896,93.6181 591.8646,93.6181 Q590.5209,93.6181 589.8334,94.6963 Q589.1459,95.7588 589.1459,97.8525 Q589.1459,99.9463 589.8334,101.0244 Q590.5209,102.0869 591.8646,102.0869 Q592.4896,102.0869 593.0834,101.8213 Q593.6771,101.54 594.3021,100.9619 L594.3021,103.6806 Z " fill="#000000"/><text fill="#000000" font-family="Verdana" font-size="14" lengthAdjust="spacing" textLength="150.9375" x="608.8334" y="102.8867">BoilerplateResponses</text><line style="stroke:#000000;stroke-width:1;" x1="465.35" x2="875.7543" y1="112.04" y2="112.04"/><rect fill="none" height="6" style="stroke:#000000;stroke-width:1;" width="6" x="472.35" y="122.6884"/><text fill="#000000" font-family="Verdana" font-size="14" lengthAdjust="spacing" textLength="295.4629" x="482.35" y="129.0351">server_headers_initialised: ServerHeaders</text><rect fill="none" height="6" style="stroke:#000000;stroke-width:1;" width="6" x="472.35" y="138.9853"/><text fill="#000000" font-family="Verdana" font-size="14" lengthAdjust="spacing" textLength="367.2197" x="482.35" y="145.332">boilerplate_non_http_initialised: BoilerplateNonHTTP</text><rect fill="none" height="6" style="stroke:#000000;stroke-width:1;" width="6" x="472.35" y="155.2822"/><text fill="#000000" font-family="Verdana" font-size="14" lengthAdjust="spacing" textLength="254.6934" x="482.35" y="161.6289">runtime_manager: RuntimeManager</text><line style="stroke:#000000;stroke-width:1;" x1="465.35" x2="875.7543" y1="168.9306" y2="168.9306"/><ellipse cx="475.35" cy="182.5791" fill="#FFFFFF" rx="3" ry="3" style="stroke:#000000;stroke-width:1;"/><text fill="#000000" font-family="Verdana" font-size="14" lengthAdjust="spacing" textLength="105.2119" x="482.35" y="185.9257">__init__(debug)</text><ellipse cx="475.35" cy="198.8759" fill="#FFFFFF" rx="3" ry="3" style="stroke:#000000;stroke-width:1;"/><text fill="#000000" font-family="Verdana" font-size="14" lengthAdjust="spacing" textLength="388.4043" x="482.35" y="202.2226">build_response_body(title, message, resp, token, error)</text><ellipse cx="475.35" cy="215.1728" fill="#FFFFFF" rx="3" ry="3" style="stroke:#000000;stroke-width:1;"/><text fill="#000000" font-family="Verdana" font-size="14" lengthAdjust="spacing" textLength="131.2363" x="482.35" y="218.5195">invalid_token(title)</text><ellipse cx="475.35" cy="231.4697" fill="#FFFFFF" rx="3" ry="3" style="stroke:#000000;stroke-width:1;"/><text fill="#000000" font-family="Verdana" font-size="14" lengthAdjust="spacing" textLength="205.1055" x="482.35" y="234.8164">no_access_token(title, token)</text><ellipse cx="475.35" cy="247.7666" fill="#FFFFFF" rx="3" ry="3" style="stroke:#000000;stroke-width:1;"/><text fill="#000000" font-family="Verdana" font-size="14" lengthAdjust="spacing" textLength="135.7139" x="482.35" y="251.1132">not_logged_in(title)</text><ellipse cx="475.35" cy="264.0634" fill="#FFFFFF" rx="3" ry="3" style="stroke:#000000;stroke-width:1;"/><text fill="#000000" font-family="Verdana" font-size="14" lengthAdjust="spacing" textLength="118.1865" x="482.35" y="267.4101">login_failed(title)</text><ellipse cx="475.35" cy="280.3603" fill="#FFFFFF" rx="3" ry="3" style="stroke:#000000;stroke-width:1;"/><text fill="#000000" font-family="Verdana" font-size="14" lengthAdjust="spacing" textLength="206.9443" x="482.35" y="283.707">insuffisant_rights(title, token)</text><ellipse cx="475.35" cy="296.6572" fill="#FFFFFF" rx="3" ry="3" style="stroke:#000000;stroke-width:1;"/><text fill="#000000" font-family="Verdana" font-size="14" lengthAdjust="spacing" textLength="173.7217" x="482.35" y="300.0039">bad_request(title, token)</text><ellipse cx="475.35" cy="312.9541" fill="#FFFFFF" rx="3" ry="3" style="stroke:#000000;stroke-width:1;"/><text fill="#000000" font-family="Verdana" font-size="14" lengthAdjust="spacing" textLength="233.5703" x="482.35" y="316.3007">internal_server_error(title, token)</text><ellipse cx="475.35" cy="329.2509" fill="#FFFFFF" rx="3" ry="3" style="stroke:#000000;stroke-width:1;"/><text fill="#000000" font-family="Verdana" font-size="14" lengthAdjust="spacing" textLength="179.4639" x="482.35" y="332.5976">unauthorized(title, token)</text><ellipse cx="475.35" cy="345.5478" fill="#FFFFFF" rx="3" ry="3" style="stroke:#000000;stroke-width:1;"/><text fill="#000000" font-family="Verdana" font-size="14" lengthAdjust="spacing" textLength="222.5371" x="482.35" y="348.8945">provider_not_found(title, token)</text><ellipse cx="475.35" cy="361.8447" fill="#FFFFFF" rx="3" ry="3" style="stroke:#000000;stroke-width:1;"/><text fill="#000000" font-family="Verdana" font-size="14" lengthAdjust="spacing" textLength="220.958" x="482.35" y="365.1914">provider_not_given(title, token)</text><ellipse cx="475.35" cy="378.1416" fill="#FFFFFF" rx="3" ry="3" style="stroke:#000000;stroke-width:1;"/><text fill="#000000" font-family="Verdana" font-size="14" lengthAdjust="spacing" textLength="259.3555" x="482.35" y="381.4882">invalid_verification_code(title, token)</text><ellipse cx="475.35" cy="394.4384" fill="#FFFFFF" rx="3" ry="3" style="stroke:#000000;stroke-width:1;"/><text fill="#000000" font-family="Verdana" font-size="14" lengthAdjust="spacing" textLength="194.4346" x="482.35" y="397.7851">user_not_found(title, token)</text><ellipse cx="475.35" cy="410.7353" fill="#FFFFFF" rx="3" ry="3" style="stroke:#000000;stroke-width:1;"/><text fill="#000000" font-family="Verdana" font-size="14" lengthAdjust="spacing" textLength="265.4736" x="482.35" y="414.082">missing_variable_in_body(title, token)</text></g><!--class BoilerplateIncoming--><g class="entity" data-entity="BoilerplateIncoming" data-source-line="58" data-uid="ent0004" id="entity_BoilerplateIncoming"><rect fill="#FFFFFF" height="223.2656" rx="2.5" ry="2.5" style="stroke:#000000;stroke-width:1;" width="391.2197" x="911.94" y="141.08"/><ellipse cx="1033.6358" cy="155.08" fill="#FFFFFF" rx="9" ry="9" style="stroke:#000000;stroke-width:1;"/><path d="M1036.6046,160.7206 Q1036.0264,161.0175 1035.3858,161.1581 Q1034.7452,161.3144 1034.0421,161.3144 Q1031.5421,161.3144 1030.2139,159.6738 Q1028.9014,158.0175 1028.9014,154.8925 Q1028.9014,151.7675 1030.2139,150.1113 Q1031.5421,148.455 1034.0421,148.455 Q1034.7452,148.455 1035.3858,148.6113 Q1036.0421,148.7675 1036.6046,149.0644 L1036.6046,151.7831 Q1035.9796,151.205 1035.3858,150.9394 Q1034.7921,150.6581 1034.1671,150.6581 Q1032.8233,150.6581 1032.1358,151.7363 Q1031.4483,152.7988 1031.4483,154.8925 Q1031.4483,156.9863 1032.1358,158.0644 Q1032.8233,159.1269 1034.1671,159.1269 Q1034.7921,159.1269 1035.3858,158.8613 Q1035.9796,158.58 1036.6046,158.0019 L1036.6046,160.7206 Z " fill="#000000"/><text fill="#000000" font-family="Verdana" font-size="14" lengthAdjust="spacing" textLength="140.3281" x="1051.1358" y="159.9267">BoilerplateIncoming</text><line style="stroke:#000000;stroke-width:1;" x1="912.94" x2="1302.1597" y1="169.08" y2="169.08"/><rect fill="none" height="6" style="stroke:#000000;stroke-width:1;" width="6" x="919.94" y="179.7284"/><text fill="#000000" font-family="Verdana" font-size="14" lengthAdjust="spacing" textLength="133.54" x="929.94" y="186.0751">database_link: SQL</text><rect fill="none" height="6" style="stroke:#000000;stroke-width:1;" width="6" x="919.94" y="196.0253"/><text fill="#000000" font-family="Verdana" font-size="14" lengthAdjust="spacing" textLength="367.2197" x="929.94" y="202.372">boilerplate_non_http_initialised: BoilerplateNonHTTP</text><rect fill="none" height="6" style="stroke:#000000;stroke-width:1;" width="6" x="919.94" y="212.3222"/><text fill="#000000" font-family="Verdana" font-size="14" lengthAdjust="spacing" textLength="254.6934" x="929.94" y="218.6689">runtime_manager: RuntimeManager</text><line style="stroke:#000000;stroke-width:1;" x1="912.94" x2="1302.1597" y1="225.9706" y2="225.9706"/><ellipse cx="922.94" cy="239.6191" fill="#FFFFFF" rx="3" ry="3" style="stroke:#000000;stroke-width:1;"/><text fill="#000000" font-family="Verdana" font-size="14" lengthAdjust="spacing" textLength="212.2217" x="929.94" y="242.9657">__init__(error, success, debug)</text><ellipse cx="922.94" cy="255.9159" fill="#FFFFFF" rx="3" ry="3" style="stroke:#000000;stroke-width:1;"/><text fill="#000000" font-family="Verdana" font-size="14" lengthAdjust="spacing" textLength="160.6719" x="929.94" y="259.2626">token_correct(request)</text><ellipse cx="922.94" cy="272.2128" fill="#FFFFFF" rx="3" ry="3" style="stroke:#000000;stroke-width:1;"/><text fill="#000000" font-family="Verdana" font-size="14" lengthAdjust="spacing" textLength="131.9404" x="929.94" y="275.5595">logged_in(request)</text><ellipse cx="922.94" cy="288.5097" fill="#FFFFFF" rx="3" ry="3" style="stroke:#000000;stroke-width:1;"/><text fill="#000000" font-family="Verdana" font-size="14" lengthAdjust="spacing" textLength="210.4307" x="929.94" y="291.8564">get_token_if_present(request)</text><ellipse cx="922.94" cy="304.8066" fill="#FFFFFF" rx="3" ry="3" style="stroke:#000000;stroke-width:1;"/><text fill="#000000" font-family="Verdana" font-size="14" lengthAdjust="spacing" textLength="128.1738" x="929.94" y="308.1532">log_user_in(email)</text><ellipse cx="922.94" cy="321.1034" fill="#FFFFFF" rx="3" ry="3" style="stroke:#000000;stroke-width:1;"/><text fill="#000000" font-family="Verdana" font-size="14" lengthAdjust="spacing" textLength="139.3779" x="929.94" y="324.4501">log_user_out(token)</text><ellipse cx="922.94" cy="337.4003" fill="#FFFFFF" rx="3" ry="3" style="stroke:#000000;stroke-width:1;"/><text fill="#000000" font-family="Verdana" font-size="14" lengthAdjust="spacing" textLength="129.0625" x="929.94" y="340.747">get_body(request)</text><rect fill="#FFFFFF" height="6" style="stroke:#000000;stroke-width:1;" width="6" x="919.94" y="350.6972"/><text fill="#000000" font-family="Verdana" font-size="14" lengthAdjust="spacing" textLength="273.7383" x="929.94" y="357.0439">_insert_login_into_database(user_data)</text></g><!--class BoilerplateNonHTTP--><g class="entity" data-entity="BoilerplateNonHTTP" data-source-line="72" data-uid="ent0005" id="entity_BoilerplateNonHTTP"><rect fill="#FFFFFF" height="255.8594" rx="2.5" ry="2.5" style="stroke:#000000;stroke-width:1;" width="347.7979" x="949.65" y="498.38"/><ellipse cx="1049.9186" cy="512.38" fill="#FFFFFF" rx="9" ry="9" style="stroke:#000000;stroke-width:1;"/><path d="M1052.8873,518.0206 Q1052.3092,518.3175 1051.6686,518.4581 Q1051.0279,518.6144 1050.3248,518.6144 Q1047.8248,518.6144 1046.4967,516.9738 Q1045.1842,515.3175 1045.1842,512.1925 Q1045.1842,509.0675 1046.4967,507.4113 Q1047.8248,505.755 1050.3248,505.755 Q1051.0279,505.755 1051.6686,505.9113 Q1052.3248,506.0675 1052.8873,506.3644 L1052.8873,509.0831 Q1052.2623,508.505 1051.6686,508.2394 Q1051.0748,507.9581 1050.4498,507.9581 Q1049.1061,507.9581 1048.4186,509.0363 Q1047.7311,510.0988 1047.7311,512.1925 Q1047.7311,514.2863 1048.4186,515.3644 Q1049.1061,516.4269 1050.4498,516.4269 Q1051.0748,516.4269 1051.6686,516.1613 Q1052.2623,515.88 1052.8873,515.3019 L1052.8873,518.0206 Z " fill="#000000"/><text fill="#000000" font-family="Verdana" font-size="14" lengthAdjust="spacing" textLength="139.7607" x="1067.4186" y="517.2267">BoilerplateNonHTTP</text><line style="stroke:#000000;stroke-width:1;" x1="950.65" x2="1296.4479" y1="526.38" y2="526.38"/><rect fill="none" height="6" style="stroke:#000000;stroke-width:1;" width="6" x="957.65" y="537.0284"/><text fill="#000000" font-family="Verdana" font-size="14" lengthAdjust="spacing" textLength="133.54" x="967.65" y="543.3751">database_link: SQL</text><rect fill="none" height="6" style="stroke:#000000;stroke-width:1;" width="6" x="957.65" y="553.3253"/><text fill="#000000" font-family="Verdana" font-size="14" lengthAdjust="spacing" textLength="254.6934" x="967.65" y="559.672">runtime_manager: RuntimeManager</text><line style="stroke:#000000;stroke-width:1;" x1="950.65" x2="1296.4479" y1="566.9738" y2="566.9738"/><ellipse cx="960.65" cy="580.6222" fill="#FFFFFF" rx="3" ry="3" style="stroke:#000000;stroke-width:1;"/><text fill="#000000" font-family="Verdana" font-size="14" lengthAdjust="spacing" textLength="212.2217" x="967.65" y="583.9689">__init__(success, error, debug)</text><ellipse cx="960.65" cy="596.9191" fill="#FFFFFF" rx="3" ry="3" style="stroke:#000000;stroke-width:1;"/><text fill="#000000" font-family="Verdana" font-size="14" lengthAdjust="spacing" textLength="164.9785" x="967.65" y="600.2657">is_token_correct(token)</text><ellipse cx="960.65" cy="613.2159" fill="#FFFFFF" rx="3" ry="3" style="stroke:#000000;stroke-width:1;"/><text fill="#000000" font-family="Verdana" font-size="14" lengthAdjust="spacing" textLength="159.2705" x="967.65" y="616.5626">is_token_admin(token)</text><ellipse cx="960.65" cy="629.5128" fill="#FFFFFF" rx="3" ry="3" style="stroke:#000000;stroke-width:1;"/><text fill="#000000" font-family="Verdana" font-size="14" lengthAdjust="spacing" textLength="120.9961" x="967.65" y="632.8595">generate_token()</text><ellipse cx="960.65" cy="645.8097" fill="#FFFFFF" rx="3" ry="3" style="stroke:#000000;stroke-width:1;"/><text fill="#000000" font-family="Verdana" font-size="14" lengthAdjust="spacing" textLength="151.498" x="967.65" y="649.1564">set_lifespan(seconds)</text><ellipse cx="960.65" cy="662.1066" fill="#FFFFFF" rx="3" ry="3" style="stroke:#000000;stroke-width:1;"/><text fill="#000000" font-family="Verdana" font-size="14" lengthAdjust="spacing" textLength="242.7783" x="967.65" y="665.4532">generate_check_token(token_size)</text><ellipse cx="960.65" cy="678.4034" fill="#FFFFFF" rx="3" ry="3" style="stroke:#000000;stroke-width:1;"/><text fill="#000000" font-family="Verdana" font-size="14" lengthAdjust="spacing" textLength="122.0488" x="967.65" y="681.7501">check_date(date)</text><ellipse cx="960.65" cy="694.7003" fill="#FFFFFF" rx="3" ry="3" style="stroke:#000000;stroke-width:1;"/><text fill="#000000" font-family="Verdana" font-size="14" lengthAdjust="spacing" textLength="154.9092" x="967.65" y="698.047">hide_api_key(api_key)</text><ellipse cx="960.65" cy="710.9972" fill="#FFFFFF" rx="3" ry="3" style="stroke:#000000;stroke-width:1;"/><text fill="#000000" font-family="Verdana" font-size="14" lengthAdjust="spacing" textLength="313.3252" x="967.65" y="714.3439">update_single_data(table, column_finder, ...)</text><ellipse cx="960.65" cy="727.2941" fill="#FFFFFF" rx="3" ry="3" style="stroke:#000000;stroke-width:1;"/><text fill="#000000" font-family="Verdana" font-size="14" lengthAdjust="spacing" textLength="323.7979" x="967.65" y="730.6407">server_show_item_content(function_name, ...)</text><ellipse cx="960.65" cy="743.5909" fill="#FFFFFF" rx="3" ry="3" style="stroke:#000000;stroke-width:1;"/><text fill="#000000" font-family="Verdana" font-size="14" lengthAdjust="spacing" textLength="53.1699" x="967.65" y="746.9376">pause()</text></g><!--class SQL--><g class="entity" data-entity="SQL" data-source-line="90" data-uid="ent0007" id="entity_SQL"><rect fill="#FFFFFF" height="125.4844" rx="2.5" ry="2.5" style="stroke:#000000;stroke-width:1;" width="267.2979" x="663.9" y="894.98"/><ellipse cx="779.9459" cy="908.98" fill="#FFFFFF" rx="9" ry="9" style="stroke:#000000;stroke-width:1;"/><path d="M782.9146,914.6206 Q782.3365,914.9175 781.6959,915.0581 Q781.0553,915.2144 780.3521,915.2144 Q777.8521,915.2144 776.524,913.5738 Q775.2115,911.9175 775.2115,908.7925 Q775.2115,905.6675 776.524,904.0113 Q777.8521,902.355 780.3521,902.355 Q781.0553,902.355 781.6959,902.5113 Q782.3521,902.6675 782.9146,902.9644 L782.9146,905.6831 Q782.2896,905.105 781.6959,904.8394 Q781.1021,904.5581 780.4771,904.5581 Q779.1334,904.5581 778.4459,905.6363 Q777.7584,906.6988 777.7584,908.7925 Q777.7584,910.8863 778.4459,911.9644 Q779.1334,913.0269 780.4771,913.0269 Q781.1021,913.0269 781.6959,912.7613 Q782.2896,912.48 782.9146,911.9019 L782.9146,914.6206 Z " fill="#000000"/><text fill="#000000" font-family="Verdana" font-size="14" lengthAdjust="spacing" textLength="27.7061" x="797.4459" y="913.8267">SQL</text><line style="stroke:#000000;stroke-width:1;" x1="664.9" x2="930.1979" y1="922.98" y2="922.98"/><line style="stroke:#000000;stroke-width:1;" x1="664.9" x2="930.1979" y1="930.98" y2="930.98"/><ellipse cx="674.9" cy="944.6284" fill="#FFFFFF" rx="3" ry="3" style="stroke:#000000;stroke-width:1;"/><text fill="#000000" font-family="Verdana" font-size="14" lengthAdjust="spacing" textLength="154.793" x="681.9" y="947.9751">get_data_from_table()</text><ellipse cx="674.9" cy="960.9253" fill="#FFFFFF" rx="3" ry="3" style="stroke:#000000;stroke-width:1;"/><text fill="#000000" font-family="Verdana" font-size="14" lengthAdjust="spacing" textLength="243.2979" x="681.9" y="964.272">insert_or_update_data_into_table()</text><ellipse cx="674.9" cy="977.2222" fill="#FFFFFF" rx="3" ry="3" style="stroke:#000000;stroke-width:1;"/><text fill="#000000" font-family="Verdana" font-size="14" lengthAdjust="spacing" textLength="161.0068" x="681.9" y="980.5689">update_data_in_table()</text><ellipse cx="674.9" cy="993.5191" fill="#FFFFFF" rx="3" ry="3" style="stroke:#000000;stroke-width:1;"/><text fill="#000000" font-family="Verdana" font-size="14" lengthAdjust="spacing" textLength="185.2744" x="681.9" y="996.8657">remove_data_from_table()</text><ellipse cx="674.9" cy="1009.8159" fill="#FFFFFF" rx="3" ry="3" style="stroke:#000000;stroke-width:1;"/><text fill="#000000" font-family="Verdana" font-size="14" lengthAdjust="spacing" textLength="142.3652" x="681.9" y="1013.1626">datetime_to_string()</text></g><!--class ServerHeaders--><g class="entity" data-entity="ServerHeaders" data-source-line="98" data-uid="ent0008" id="entity_ServerHeaders"><rect fill="#FFFFFF" height="60.2969" rx="2.5" ry="2.5" style="stroke:#000000;stroke-width:1;" width="132.1797" x="274.46" y="927.58"/><ellipse cx="287.46" cy="941.58" fill="#FFFFFF" rx="9" ry="9" style="stroke:#000000;stroke-width:1;"/><path d="M290.4288,947.2206 Q289.8506,947.5175 289.21,947.6581 Q288.5694,947.8144 287.8663,947.8144 Q285.3663,947.8144 284.0381,946.1738 Q282.7256,944.5175 282.7256,941.3925 Q282.7256,938.2675 284.0381,936.6113 Q285.3663,934.955 287.8663,934.955 Q288.5694,934.955 289.21,935.1113 Q289.8663,935.2675 290.4288,935.5644 L290.4288,938.2831 Q289.8038,937.705 289.21,937.4394 Q288.6163,937.1581 287.9913,937.1581 Q286.6475,937.1581 285.96,938.2363 Q285.2725,939.2988 285.2725,941.3925 Q285.2725,943.4863 285.96,944.5644 Q286.6475,945.6269 287.9913,945.6269 Q288.6163,945.6269 289.21,945.3613 Q289.8038,945.08 290.4288,944.5019 L290.4288,947.2206 Z " fill="#000000"/><text fill="#000000" font-family="Verdana" font-size="14" lengthAdjust="spacing" textLength="104.1797" x="299.46" y="946.4267">ServerHeaders</text><line style="stroke:#000000;stroke-width:1;" x1="275.46" x2="405.6397" y1="955.58" y2="955.58"/><line style="stroke:#000000;stroke-width:1;" x1="275.46" x2="405.6397" y1="963.58" y2="963.58"/><ellipse cx="285.46" cy="977.2284" fill="#FFFFFF" rx="3" ry="3" style="stroke:#000000;stroke-width:1;"/><text fill="#000000" font-family="Verdana" font-size="14" lengthAdjust="spacing" textLength="65.7959" x="292.46" y="980.5751">for_json()</text></g><!--class HCI--><g class="entity" data-entity="HCI" data-source-line="102" data-uid="ent0009" id="entity_HCI"><rect fill="#FFFFFF" height="141.7813" rx="2.5" ry="2.5" style="stroke:#000000;stroke-width:1;" width="181.6504" x="57.72" y="886.83"/><ellipse cx="132.5794" cy="900.83" fill="#FFFFFF" rx="9" ry="9" style="stroke:#000000;stroke-width:1;"/><path d="M135.5481,906.4706 Q134.97,906.7675 134.3294,906.9081 Q133.6888,907.0644 132.9856,907.0644 Q130.4856,907.0644 129.1575,905.4238 Q127.845,903.7675 127.845,900.6425 Q127.845,897.5175 129.1575,895.8613 Q130.4856,894.205 132.9856,894.205 Q133.6888,894.205 134.3294,894.3613 Q134.9856,894.5175 135.5481,894.8144 L135.5481,897.5331 Q134.9231,896.955 134.3294,896.6894 Q133.7356,896.4081 133.1106,896.4081 Q131.7669,896.4081 131.0794,897.4863 Q130.3919,898.5488 130.3919,900.6425 Q130.3919,902.7363 131.0794,903.8144 Q131.7669,904.8769 133.1106,904.8769 Q133.7356,904.8769 134.3294,904.6113 Q134.9231,904.33 135.5481,903.7519 L135.5481,906.4706 Z " fill="#000000"/><text fill="#000000" font-family="Verdana" font-size="14" lengthAdjust="spacing" textLength="24.4316" x="150.0794" y="905.6767">HCI</text><line style="stroke:#000000;stroke-width:1;" x1="58.72" x2="238.3704" y1="914.83" y2="914.83"/><line style="stroke:#000000;stroke-width:1;" x1="58.72" x2="238.3704" y1="922.83" y2="922.83"/><ellipse cx="68.72" cy="936.4784" fill="#FFFFFF" rx="3" ry="3" style="stroke:#000000;stroke-width:1;"/><text fill="#000000" font-family="Verdana" font-size="14" lengthAdjust="spacing" textLength="97.8018" x="75.72" y="939.8251">bad_request()</text><ellipse cx="68.72" cy="952.7753" fill="#FFFFFF" rx="3" ry="3" style="stroke:#000000;stroke-width:1;"/><text fill="#000000" font-family="Verdana" font-size="14" lengthAdjust="spacing" textLength="103.5439" x="75.72" y="956.122">unauthorized()</text><ellipse cx="68.72" cy="969.0722" fill="#FFFFFF" rx="3" ry="3" style="stroke:#000000;stroke-width:1;"/><text fill="#000000" font-family="Verdana" font-size="14" lengthAdjust="spacing" textLength="78.21" x="75.72" y="972.4189">forbidden()</text><ellipse cx="68.72" cy="985.3691" fill="#FFFFFF" rx="3" ry="3" style="stroke:#000000;stroke-width:1;"/><text fill="#000000" font-family="Verdana" font-size="14" lengthAdjust="spacing" textLength="80.9785" x="75.72" y="988.7157">not_found()</text><ellipse cx="68.72" cy="1001.6659" fill="#FFFFFF" rx="3" ry="3" style="stroke:#000000;stroke-width:1;"/><text fill="#000000" font-family="Verdana" font-size="14" lengthAdjust="spacing" textLength="157.6504" x="75.72" y="1005.0126">internal_server_error()</text><ellipse cx="68.72" cy="1017.9628" fill="#FFFFFF" rx="3" ry="3" style="stroke:#000000;stroke-width:1;"/><text fill="#000000" font-family="Verdana" font-size="14" lengthAdjust="spacing" textLength="103.8652" x="75.72" y="1021.3095">invalid_token()</text></g><!--class Constants--><g class="entity" data-entity="Constants" data-source-line="111" data-uid="ent0010" id="entity_Constants"><rect fill="#FFFFFF" height="206.9688" rx="2.5" ry="2.5" style="stroke:#000000;stroke-width:1;" width="187.0303" x="442.03" y="854.24"/><ellipse cx="496.6789" cy="868.24" fill="#FFFFFF" rx="9" ry="9" style="stroke:#000000;stroke-width:1;"/><path d="M499.6477,873.8806 Q499.0696,874.1775 498.4289,874.3181 Q497.7883,874.4744 497.0852,874.4744 Q494.5852,874.4744 493.2571,872.8338 Q491.9446,871.1775 491.9446,868.0525 Q491.9446,864.9275 493.2571,863.2713 Q494.5852,861.615 497.0852,861.615 Q497.7883,861.615 498.4289,861.7713 Q499.0852,861.9275 499.6477,862.2244 L499.6477,864.9431 Q499.0227,864.365 498.4289,864.0994 Q497.8352,863.8181 497.2102,863.8181 Q495.8664,863.8181 495.1789,864.8963 Q494.4914,865.9588 494.4914,868.0525 Q494.4914,870.1463 495.1789,871.2244 Q495.8664,872.2869 497.2102,872.2869 Q497.8352,872.2869 498.4289,872.0213 Q499.0227,871.74 499.6477,871.1619 L499.6477,873.8806 Z " fill="#000000"/><text fill="#000000" font-family="Verdana" font-size="14" lengthAdjust="spacing" textLength="70.2324" x="514.1789" y="873.0867">Constants</text><line style="stroke:#000000;stroke-width:1;" x1="443.03" x2="628.0603" y1="882.24" y2="882.24"/><ellipse cx="453.03" cy="895.8884" fill="none" rx="3" ry="3" style="stroke:#000000;stroke-width:1;"/><text fill="#000000" font-family="Verdana" font-size="14" lengthAdjust="spacing" textLength="79.3857" x="460.03" y="899.2351">JSON_TITLE</text><ellipse cx="453.03" cy="912.1853" fill="none" rx="3" ry="3" style="stroke:#000000;stroke-width:1;"/><text fill="#000000" font-family="Verdana" font-size="14" lengthAdjust="spacing" textLength="109.4775" x="460.03" y="915.532">JSON_MESSAGE</text><ellipse cx="453.03" cy="928.4822" fill="none" rx="3" ry="3" style="stroke:#000000;stroke-width:1;"/><text fill="#000000" font-family="Verdana" font-size="14" lengthAdjust="spacing" textLength="77.4102" x="460.03" y="931.8289">JSON_RESP</text><ellipse cx="453.03" cy="944.7791" fill="none" rx="3" ry="3" style="stroke:#000000;stroke-width:1;"/><text fill="#000000" font-family="Verdana" font-size="14" lengthAdjust="spacing" textLength="90.5557" x="460.03" y="948.1257">JSON_ERROR</text><ellipse cx="453.03" cy="961.0759" fill="none" rx="3" ry="3" style="stroke:#000000;stroke-width:1;"/><text fill="#000000" font-family="Verdana" font-size="14" lengthAdjust="spacing" textLength="123.252" x="460.03" y="964.4226">JSON_LOGGED_IN</text><ellipse cx="453.03" cy="977.3728" fill="none" rx="3" ry="3" style="stroke:#000000;stroke-width:1;"/><text fill="#000000" font-family="Verdana" font-size="14" lengthAdjust="spacing" textLength="154.7725" x="460.03" y="980.7195">REQUEST_TOKEN_KEY</text><ellipse cx="453.03" cy="993.6697" fill="none" rx="3" ry="3" style="stroke:#000000;stroke-width:1;"/><text fill="#000000" font-family="Verdana" font-size="14" lengthAdjust="spacing" textLength="163.0303" x="460.03" y="997.0164">REQUEST_BEARER_KEY</text><ellipse cx="453.03" cy="1009.9666" fill="none" rx="3" ry="3" style="stroke:#000000;stroke-width:1;"/><text fill="#000000" font-family="Verdana" font-size="14" lengthAdjust="spacing" textLength="138.1543" x="460.03" y="1013.3132">TAB_CONNECTIONS</text><ellipse cx="453.03" cy="1026.2634" fill="none" rx="3" ry="3" style="stroke:#000000;stroke-width:1;"/><text fill="#000000" font-family="Verdana" font-size="14" lengthAdjust="spacing" textLength="113.0391" x="460.03" y="1029.6101">TAB_ACCOUNTS</text><ellipse cx="453.03" cy="1042.5603" fill="none" rx="3" ry="3" style="stroke:#000000;stroke-width:1;"/><text fill="#000000" font-family="Verdana" font-size="14" lengthAdjust="spacing" textLength="148.1006" x="460.03" y="1045.907">UA_TOKEN_LIFESPAN</text><line style="stroke:#000000;stroke-width:1;" x1="443.03" x2="628.0603" y1="1053.2088" y2="1053.2088"/></g><!--class RuntimeManager--><g class="entity" data-entity="RuntimeManager" data-source-line="126" data-uid="ent0012" id="entity_RuntimeManager"><rect fill="#FFFFFF" height="76.5938" rx="2.5" ry="2.5" style="stroke:#000000;stroke-width:1;" width="252.7852" x="1244.16" y="919.43"/><ellipse cx="1306.5677" cy="933.43" fill="#FFFFFF" rx="9" ry="9" style="stroke:#000000;stroke-width:1;"/><path d="M1309.5365,939.0706 Q1308.9583,939.3675 1308.3177,939.5081 Q1307.6771,939.6644 1306.974,939.6644 Q1304.474,939.6644 1303.1458,938.0238 Q1301.8333,936.3675 1301.8333,933.2425 Q1301.8333,930.1175 1303.1458,928.4613 Q1304.474,926.805 1306.974,926.805 Q1307.6771,926.805 1308.3177,926.9613 Q1308.974,927.1175 1309.5365,927.4144 L1309.5365,930.1331 Q1308.9115,929.555 1308.3177,929.2894 Q1307.724,929.0081 1307.099,929.0081 Q1305.7552,929.0081 1305.0677,930.0863 Q1304.3802,931.1488 1304.3802,933.2425 Q1304.3802,935.3363 1305.0677,936.4144 Q1305.7552,937.4769 1307.099,937.4769 Q1307.724,937.4769 1308.3177,937.2113 Q1308.9115,936.93 1309.5365,936.3519 L1309.5365,939.0706 Z " fill="#000000"/><text fill="#000000" font-family="Verdana" font-size="14" lengthAdjust="spacing" textLength="120.4697" x="1324.0677" y="938.2767">RuntimeManager</text><line style="stroke:#000000;stroke-width:1;" x1="1245.16" x2="1495.9452" y1="947.43" y2="947.43"/><line style="stroke:#000000;stroke-width:1;" x1="1245.16" x2="1495.9452" y1="955.43" y2="955.43"/><ellipse cx="1255.16" cy="969.0784" fill="#FFFFFF" rx="3" ry="3" style="stroke:#000000;stroke-width:1;"/><text fill="#000000" font-family="Verdana" font-size="14" lengthAdjust="spacing" textLength="106.9414" x="1262.16" y="972.4251">get(class_type)</text><ellipse cx="1255.16" cy="985.3753" fill="#FFFFFF" rx="3" ry="3" style="stroke:#000000;stroke-width:1;"/><text fill="#000000" font-family="Verdana" font-size="14" lengthAdjust="spacing" textLength="228.7852" x="1262.16" y="988.722">get_if_exists(class_type, default)</text></g><!--class FinalSingleton--><g class="entity" data-entity="FinalSingleton" data-source-line="131" data-uid="ent0013" id="entity_FinalSingleton"><rect fill="#FFFFFF" height="60.2969" rx="2.5" ry="2.5" style="stroke:#000000;stroke-width:1;" width="127.251" x="1531.92" y="927.58"/><ellipse cx="1544.92" cy="941.58" fill="#FFFFFF" rx="9" ry="9" style="stroke:#000000;stroke-width:1;"/><path d="M1547.8887,947.2206 Q1547.3106,947.5175 1546.67,947.6581 Q1546.0294,947.8144 1545.3262,947.8144 Q1542.8262,947.8144 1541.4981,946.1738 Q1540.1856,944.5175 1540.1856,941.3925 Q1540.1856,938.2675 1541.4981,936.6113 Q1542.8262,934.955 1545.3262,934.955 Q1546.0294,934.955 1546.67,935.1113 Q1547.3262,935.2675 1547.8887,935.5644 L1547.8887,938.2831 Q1547.2637,937.705 1546.67,937.4394 Q1546.0762,937.1581 1545.4512,937.1581 Q1544.1075,937.1581 1543.42,938.2363 Q1542.7325,939.2988 1542.7325,941.3925 Q1542.7325,943.4863 1543.42,944.5644 Q1544.1075,945.6269 1545.4512,945.6269 Q1546.0762,945.6269 1546.67,945.3613 Q1547.2637,945.08 1547.8887,944.5019 L1547.8887,947.2206 Z " fill="#000000"/><text fill="#000000" font-family="Verdana" font-size="14" lengthAdjust="spacing" textLength="99.251" x="1556.92" y="946.4267">FinalSingleton</text><line style="stroke:#000000;stroke-width:1;" x1="1532.92" x2="1658.171" y1="955.58" y2="955.58"/><text fill="#000000" font-family="Verdana" font-size="14" lengthAdjust="spacing" textLength="88.2041" x="1537.92" y="972.5751">&#171;metaclass&#187;</text><line style="stroke:#000000;stroke-width:1;" x1="1532.92" x2="1658.171" y1="979.8769" y2="979.8769"/></g><g class="entity" data-entity="GMN27" data-source-line="153" data-uid="ent0028" id="entity_GMN27"><path d="M1338.39,225.01 L1338.39,280.4084 L1562.7181,280.4084 L1562.7181,235.01 L1552.7181,225.01 L1338.39,225.01" fill="#FFFFFF" style="stroke:#000000;stroke-width:1;"/><path d="M1552.7181,225.01 L1552.7181,235.01 L1562.7181,235.01 L1552.7181,225.01" fill="#FFFFFF" style="stroke:#000000;stroke-width:1;"/><text fill="#000000" font-family="Verdana" font-size="13" lengthAdjust="spacing" textLength="168.8794" x="1344.39" y="242.0769">Singleton pattern ensures</text><text fill="#000000" font-family="Verdana" font-size="13" lengthAdjust="spacing" textLength="203.3281" x="1344.39" y="257.2097">consistent response formatting</text><text fill="#000000" font-family="Verdana" font-size="13" lengthAdjust="spacing" textLength="129.8286" x="1344.39" y="272.3425">across all endpoints</text></g><g class="entity" data-entity="GMN30" data-source-line="159" data-uid="ent0031" id="entity_GMN30"><path d="M965.73,937.59 L965.73,977.8556 A0,0 0 0 0 965.73,977.8556 L1209.374,977.8556 A0,0 0 0 0 1209.374,977.8556 L1209.374,947.59 L1199.374,937.59 L1093.67,937.59 L1109.63,754.67 L1085.67,937.59 L965.73,937.59 A0,0 0 0 0 965.73,937.59" fill="#FFFFFF" style="stroke:#000000;stroke-width:1;"/><path d="M1199.374,937.59 L1199.374,947.59 L1209.374,947.59 L1199.374,937.59" fill="#FFFFFF" style="stroke:#000000;stroke-width:1;"/><text fill="#000000" font-family="Verdana" font-size="13" lengthAdjust="spacing" textLength="171.0313" x="971.73" y="954.6569">Utility functions shared by</text><text fill="#000000" font-family="Verdana" font-size="13" lengthAdjust="spacing" textLength="222.644" x="971.73" y="969.7897">both HTTP and non-HTTP contexts</text></g><!--link BoilerplateResponses to HCI--><g class="link" data-entity-1="BoilerplateResponses" data-entity-2="HCI" data-source-line="136" data-uid="lnk14" id="link_BoilerplateResponses_HCI"><path codeLine="136" d="M464.04,282.27 C332.76,312.29 172.41,373.58 89.55,498.38 C11,616.69 66.8067,785.0435 110.2467,881.0535" fill="none" id="BoilerplateResponses-to-HCI" style="stroke:#000000;stroke-width:1;"/><polygon fill="#000000" points="112.72,886.52,112.6543,876.6714,110.6589,881.9646,105.3657,879.9691,112.72,886.52" style="stroke:#000000;stroke-width:1;"/><text fill="#000000" font-family="Verdana" font-size="13" lengthAdjust="spacing" textLength="156.1904" x="90.55" y="630.8769">creates HTTP responses</text></g><!--link BoilerplateResponses to ServerHeaders--><g class="link" data-entity-1="BoilerplateResponses" data-entity-2="ServerHeaders" data-source-line="137" data-uid="lnk15" id="link_BoilerplateResponses_ServerHeaders"><path codeLine="137" d="M464.01,336.3 C395.58,374.75 327.1,427.91 288.55,498.38 C209.57,642.76 288.3922,845.2392 323.5522,921.6592" fill="none" id="BoilerplateResponses-to-ServerHeaders" style="stroke:#000000;stroke-width:1;"/><polygon fill="#000000" points="326.06,927.11,325.9321,917.262,323.9701,922.5677,318.6644,920.6058,326.06,927.11" style="stroke:#000000;stroke-width:1;"/><text fill="#000000" font-family="Verdana" font-size="13" lengthAdjust="spacing" textLength="87.9468" x="289.55" y="630.8769">adds headers</text></g><!--link BoilerplateResponses to BoilerplateNonHTTP--><g class="link" data-entity-1="BoilerplateResponses" data-entity-2="BoilerplateNonHTTP" data-source-line="138" data-uid="lnk16" id="link_BoilerplateResponses_BoilerplateNonHTTP"><path codeLine="138" d="M875.51,421.84 C906.67,447.4 933.7409,469.6149 963.6109,494.1149" fill="none" id="BoilerplateResponses-to-BoilerplateNonHTTP" style="stroke:#000000;stroke-width:1;"/><polygon fill="#000000" points="968.25,497.92,963.8281,489.1196,964.3841,494.7491,958.7546,495.3051,968.25,497.92" style="stroke:#000000;stroke-width:1;"/><text fill="#000000" font-family="Verdana" font-size="13" lengthAdjust="spacing" textLength="106.6914" x="925.17" y="464.4469">validates tokens</text></g><!--link BoilerplateResponses to RuntimeManager--><g class="link" data-entity-1="BoilerplateResponses" data-entity-2="RuntimeManager" data-source-line="139" data-uid="lnk17" id="link_BoilerplateResponses_RuntimeManager"><path codeLine="139" d="M876.93,414.03 C882.78,416.66 888.65,419.12 894.55,421.38 C1071.79,489.22 1209.6,340.26 1314.55,498.38 C1402.99,631.63 1388.3912,829.6024 1377.2812,913.1224" fill="none" id="BoilerplateResponses-to-RuntimeManager" style="stroke:#000000;stroke-width:1;"/><polygon fill="#000000" points="1376.49,919.07,1381.6418,910.676,1377.1493,914.1137,1373.7117,909.6211,1376.49,919.07" style="stroke:#000000;stroke-width:1;"/><text fill="#000000" font-family="Verdana" font-size="13" lengthAdjust="spacing" textLength="123.8364" x="1385.95" y="630.8769">retrieves instances</text></g><!--link BoilerplateResponses to FinalSingleton--><g class="link" data-entity-1="BoilerplateResponses" data-entity-2="FinalSingleton" data-source-line="140" data-uid="lnk18" id="link_BoilerplateResponses_FinalSingleton"><path codeLine="140" d="M877.22,414.3 C882.97,416.85 888.75,419.21 894.55,421.38 C1025.23,470.2 1421.95,396.79 1517.55,498.38 C1560.72,544.25 1551.82,716.17 1562.55,778.24 C1571.62,830.72 1579.7276,874.0087 1586.4776,909.3987" fill="none" id="BoilerplateResponses-to-FinalSingleton" style="stroke:#000000;stroke-width:1;stroke-dasharray:7,7;"/><polygon fill="none" points="1589.85,927.08,1592.3714,908.2746,1580.5839,910.5229,1589.85,927.08" style="stroke:#000000;stroke-width:1;"/><text fill="#000000" font-family="Verdana" font-size="13" lengthAdjust="spacing" textLength="65.9966" x="1563.55" y="630.8769">metaclass</text></g><!--link BoilerplateResponses to Constants--><g class="link" data-entity-1="BoilerplateResponses" data-entity-2="Constants" data-source-line="141" data-uid="lnk19" id="link_BoilerplateResponses_Constants"><path codeLine="141" d="M464.15,421.59 C445.39,445.37 429.12,471.1 417.55,498.38 C368.99,612.89 381.74,659.13 417.55,778.24 C425.41,804.39 435.3242,825.1332 449.9642,848.7032" fill="none" id="BoilerplateResponses-to-Constants" style="stroke:#000000;stroke-width:1;"/><polygon fill="#000000" points="453.13,853.8,451.7792,844.0442,450.4918,849.5526,444.9834,848.2653,453.13,853.8" style="stroke:#000000;stroke-width:1;"/><text fill="#000000" font-family="Verdana" font-size="13" lengthAdjust="spacing" textLength="100.0835" x="418.55" y="630.8769">uses JSON keys</text></g><!--link BoilerplateIncoming to SQL--><g class="link" data-entity-1="BoilerplateIncoming" data-entity-2="SQL" data-source-line="143" data-uid="lnk20" id="link_BoilerplateIncoming_SQL"><path codeLine="143" d="M966.73,364.54 C897.84,420.24 827.69,479.8 818.55,498.38 C785.16,566.29 789.5063,779.8754 794.1063,888.5854" fill="none" id="BoilerplateIncoming-to-SQL" style="stroke:#000000;stroke-width:1;"/><polygon fill="#000000" points="794.36,894.58,797.9759,885.4189,794.1486,889.5845,789.9831,885.7572,794.36,894.58" style="stroke:#000000;stroke-width:1;"/><text fill="#000000" font-family="Verdana" font-size="13" lengthAdjust="spacing" textLength="112.6201" x="819.55" y="630.8769">queries database</text></g><!--link BoilerplateIncoming to BoilerplateNonHTTP--><g class="link" data-entity-1="BoilerplateIncoming" data-entity-2="BoilerplateNonHTTP" data-source-line="144" data-uid="lnk21" id="link_BoilerplateIncoming_BoilerplateNonHTTP"><path codeLine="144" d="M1112.33,364.7 C1114.13,406.62 1115.9412,448.6356 1117.8112,491.9456" fill="none" id="BoilerplateIncoming-to-BoilerplateNonHTTP" style="stroke:#000000;stroke-width:1;"/><polygon fill="#000000" points="1118.07,497.94,1121.678,488.7758,1117.8543,492.9447,1113.6855,489.1209,1118.07,497.94" style="stroke:#000000;stroke-width:1;"/><text fill="#000000" font-family="Verdana" font-size="13" lengthAdjust="spacing" textLength="106.6914" x="1117.51" y="464.4469">validates tokens</text></g><!--link BoilerplateIncoming to RuntimeManager--><g class="link" data-entity-1="BoilerplateIncoming" data-entity-2="RuntimeManager" data-source-line="145" data-uid="lnk22" id="link_BoilerplateIncoming_RuntimeManager"><path codeLine="145" d="M1230.53,364.79 C1258.64,385.99 1289.44,406.26 1320.55,421.38 C1450.94,484.78 1547.94,384.4 1637.55,498.38 C1714.42,596.16 1713.25,679.55 1637.55,778.24 C1603.1,823.15 1563.49,782.81 1514.55,811.24 C1467.23,838.73 1428.4642,881.1036 1402.1142,914.2436" fill="none" id="BoilerplateIncoming-to-RuntimeManager" style="stroke:#000000;stroke-width:1;"/><polygon fill="#000000" points="1398.38,918.94,1407.1122,914.3849,1401.4918,915.0263,1400.8503,909.406,1398.38,918.94" style="stroke:#000000;stroke-width:1;"/><text fill="#000000" font-family="Verdana" font-size="13" lengthAdjust="spacing" textLength="123.8364" x="1695.77" y="630.8769">retrieves instances</text></g><!--link BoilerplateIncoming to Constants--><g class="link" data-entity-1="BoilerplateIncoming" data-entity-2="Constants" data-source-line="146" data-uid="lnk23" id="link_BoilerplateIncoming_Constants"><path codeLine="146" d="M983.35,364.71 C955.5,385.73 925.1,405.93 894.55,421.38 C779.75,479.42 702.02,403.14 615.55,498.38 C528.13,594.67 518.7224,745.1379 524.0024,847.9979" fill="none" id="BoilerplateIncoming-to-Constants" style="stroke:#000000;stroke-width:1;"/><polygon fill="#000000" points="524.31,853.99,527.8434,844.7968,524.0537,848.9966,519.8539,845.2069,524.31,853.99" style="stroke:#000000;stroke-width:1;"/><text fill="#000000" font-family="Verdana" font-size="13" lengthAdjust="spacing" textLength="166.8481" x="616.55" y="630.8769">uses table/column names</text></g><!--link BoilerplateNonHTTP to SQL--><g class="link" data-entity-1="BoilerplateNonHTTP" data-entity-2="SQL" data-source-line="148" data-uid="lnk24" id="link_BoilerplateNonHTTP_SQL"><path codeLine="148" d="M997.51,754.67 C950.03,802.65 902.3504,850.8252 863.3304,890.2552" fill="none" id="BoilerplateNonHTTP-to-SQL" style="stroke:#000000;stroke-width:1;"/><polygon fill="#000000" points="859.11,894.52,868.2838,890.9365,862.627,890.966,862.5974,885.3093,859.11,894.52" style="stroke:#000000;stroke-width:1;"/><text fill="#000000" font-family="Verdana" font-size="13" lengthAdjust="spacing" textLength="112.6201" x="966.44" y="799.3069">queries database</text></g><!--link BoilerplateNonHTTP to RuntimeManager--><g class="link" data-entity-1="BoilerplateNonHTTP" data-entity-2="RuntimeManager" data-source-line="149" data-uid="lnk25" id="link_BoilerplateNonHTTP_RuntimeManager"><path codeLine="149" d="M1182.56,754.37 C1192.83,771.53 1204.22,788.33 1216.55,803.24 C1220.18,807.63 1222.32,807.43 1226.55,811.24 C1265.39,846.18 1302.9748,884.6131 1331.4648,914.7031" fill="none" id="BoilerplateNonHTTP-to-RuntimeManager" style="stroke:#000000;stroke-width:1;"/><polygon fill="#000000" points="1335.59,919.06,1332.3068,909.7745,1332.1523,915.4293,1326.4976,915.2748,1335.59,919.06" style="stroke:#000000;stroke-width:1;"/><text fill="#000000" font-family="Verdana" font-size="13" lengthAdjust="spacing" textLength="123.8364" x="1217.55" y="799.3069">retrieves instances</text></g><!--link BoilerplateNonHTTP to Constants--><g class="link" data-entity-1="BoilerplateNonHTTP" data-entity-2="Constants" data-source-line="150" data-uid="lnk26" id="link_BoilerplateNonHTTP_Constants"><path codeLine="150" d="M971.49,754.66 C955.62,763.85 939.19,771.96 922.55,778.24 C901.28,786.28 843.15,783.73 820.55,786.24 C742.9,794.86 713.92,771.69 646.55,811.24 C628.06,822.1 615.5059,832.7854 601.2959,849.3554" fill="none" id="BoilerplateNonHTTP-to-Constants" style="stroke:#000000;stroke-width:1;"/><polygon fill="#000000" points="597.39,853.91,606.2852,849.6821,600.6449,850.1145,600.2124,844.4742,597.39,853.91" style="stroke:#000000;stroke-width:1;"/><text fill="#000000" font-family="Verdana" font-size="13" lengthAdjust="spacing" textLength="120.1484" x="821.55" y="799.3069">uses configuration</text></g><!--link BoilerplateResponses to GMN27--><g class="link" data-entity-1="BoilerplateResponses" data-entity-2="GMN27" data-source-line="153" data-uid="lnk29" id="link_BoilerplateResponses_GMN27"><path d="M815.39,83.56 C844.68,59.68 877.26,38.91 912.05,26.04 C952.69,11 1261.41,11 1302.05,26.04 C1387.65,57.7 1428.79,171.55 1443.7,224.84" fill="none" id="BoilerplateResponses-GMN27" style="stroke:#000000;stroke-width:1;stroke-dasharray:7,7;"/></g><!--SRC=[lLTDSzis4BthLw0vCLD9lMiodf4LnbPZIuaa7th2GEHIGaK2B02gKTFyzox0Jr1K4bzwiKti1nOFRz_2lvWZP43ob74n6kKiEh43a3VtagUWSDM09iyoBb9uGxwE28bIfZNfc3UWSoaqkbap8HEYGPr1qIEm69IcN733MSern3EoTRR7qbJvxzjaL4X1ZyRaVbHdkvKKZxlTfofK5SBm36Z619QjPcHJBZoNtyxhLq9TDag36FR5uMsrkYzu6bDLbK_tChu4XfiKnYG3hJ5-JAnrJ8myWHWJK4ggEfgBCrONKsShusgJa9H54QRe6giihO-XgJmS8CRQ_71Sve8c38yS-nOkT94aN3DXgEA7ez63kVVC7kkl0hGPj7DXG0cMqkgYtBa6FGl12dEKYlzJbz9po9KySxnAQi-Jo4ByXDk1ds-0KcEAHV64HynmP4CaOnWkJlzmtunhpSM1dfdYR9y2OktTS-FyRJH4xQM8P8Rn3RDZPjYU8LbIBav8vizF_pk5tMMDYIuSmyR4exGx3oAc54Gcg3ZGuLL5jvxX0APaAkK9pP7o88Q2gGCSmo53RbuPP85iwu9lqpgmlLGJWYdGtz4VhmF9A6cDQ-0osQ_RbrAXz-CxUIMm3Q8LmXwmlEhb1bkVjxMLnPdjPXy50ShIejI2UbaZE2bFK5wO23H4KiJwAYGwGdIgHSHjeB4JQxVIYiU7mFwebu_OQ9Jbd9xW4bI_cvR9hIUrFO7DO94BZEsBCObaMcIeEbnWcux9T3fjAtKYeO_oRyeDP0W1wWSo92b4v3fKi0oya9pXFGRb5Nxh39Nta0Fc5n47tPqcU6VLTPQiiONHHCcCkkg2ZlvPuaX5guCuHySWtz4tzumACdc6cvlOICSRpAgDGgY27Xcz6TOKdc1PVsef-jwFYsNZqrNcGOrzsoRRypZk4AOLkk_B-F1ywjMqm8bdS8gqrV- -NQ_eRhbx2hiBp-5sEt_mbZRXzbFtEznirflkmjFwuI5yJvUhQd4JVdu9jpkwMtyCL_HZ-4Tl_JwSRy9Dnx2RtzF5UhKA5xlbUhNjhCuNY_NBQbSllSohf4_B3rZLV7L5k8LKthF5Lu0kvmBdGCqbXwv-eI325wvnqBPsAmq9ArBJ0_K3nylOkjOoKbJ9txtBm33dS7TNrpVuUffCxXnNPYHIu9vTJkRgzuc-7UNpSKPO76jIlRvkHmr8wemuphZD7M- -4zw3SeQ5OhF06StSaIkwLV9q-kzT7wmPQM2wlMNBsfaT_jhnZQ2yQG_IPcexR51QPWGx3clJpQouwVvgKBpersBY1L-TpidIRwKm4wkn_Z7h-dxkb5tlrvRPZRsg4gT1mW-5Se-rqGXb2eXxcnAP3FwRW4tGtdlEZ1KnWgWMojamdyQ6mm7JKD-gOOQE68KEB58IkusbAKR5kKGPr2FyooeaL0NifJ4owrNGFhjU34-vkP1wWccYZqn1JFONj6BmiUmzvhAAYVjmO-zBTw__0000]--></g></svg>