<svg xmlns="http://www.w3.org/2000/svg" xmlns:xlink="http://www.w3.org/1999/xlink" contentStyleType="text/css" data-diagram-type="SEQUENCE" height="1416px" preserveAspectRatio="none" style="width:968px;height:1416px;background:#FEFEFE;" version="1.1" viewBox="0 0 968 1416" width="968px" zoomAndPan="magnify"><title>Configuration Loading Sequence</title><defs/><g><rect fill="#FEFEFE" height="1416" style="stroke:none;stroke-width:1;" width="968" x="0" y="0"/><text fill="#000000" font-family="Verdana" font-size="22" font-weight="bold" lengthAdjust="spacing" textLength="404.6904" x="280.3306" y="35.4209">Configuration Loading Sequence</text><g><title>TOMLLoader</title><rect fill="#FFFFFF" height="646.6563" style="stroke:#000000;stroke-width:1;" width="10" x="207.0894" y="511.3672"/></g><g><title>TOMLLoader</title><rect fill="#FFFFFF" height="78.3984" style="stroke:#000000;stroke-width:1;" width="10" x="212.0894" y="606.7656"/></g><g><title>TOMLLoader</title><rect fill="#FFFFFF" height="40.1328" style="stroke:#000000;stroke-width:1;" width="10" x="212.0894" y="722.2969"/></g><g><title>TOMLLoader</title><rect fill="#FFFFFF" height="40.1328" style="stroke:#000000;stroke-width:1;" width="10" x="212.0894" y="806.5625"/></g><g><title>TOMLLoader</title><rect fill="#FFFFFF" height="63.2656" style="stroke:#000000;stroke-width:1;" width="10" x="212.0894" y="890.8281"/></g><g><title>TOMLLoader</title><rect fill="#FFFFFF" height="87.3984" style="stroke:#000000;stroke-width:1;" width="10" x="207.0894" y="1230.2891"/></g><g><title>EnvLoader</title><rect fill="#FFFFFF" height="232.9297" style="stroke:#000000;stroke-width:1;" width="10" x="415.1421" y="206.1719"/></g><g><title>EnvLoader</title><rect fill="#FFFFFF" height="156.6641" style="stroke:#000000;stroke-width:1;" width="10" x="420.1421" y="246.3047"/></g><g><title>File System</title><rect fill="#FFFFFF" height="29.1328" style="stroke:#000000;stroke-width:1;" width="10" x="673.8262" y="656.0313"/></g><g><title>File System</title><rect fill="#FFFFFF" height="29.1328" style="stroke:#000000;stroke-width:1;" width="10" x="673.8262" y="924.9609"/></g><g><title>File System</title><rect fill="#FFFFFF" height="29.1328" style="stroke:#000000;stroke-width:1;" width="10" x="673.8262" y="983.2266"/></g><g><title>tomli.tomllib</title><rect fill="#FFFFFF" height="29.1328" style="stroke:#000000;stroke-width:1;" width="10" x="802.5952" y="1041.4922"/></g><g><title>Cache</title><rect fill="#FFFFFF" height="29.1328" style="stroke:#000000;stroke-width:1;" width="10" x="912.5825" y="540.5"/></g><g><title>Cache</title><rect fill="#FFFFFF" height="29.1328" style="stroke:#000000;stroke-width:1;" width="10" x="912.5825" y="1099.7578"/></g><g><title>Cache</title><rect fill="#FFFFFF" height="29.1328" style="stroke:#000000;stroke-width:1;" width="10" x="912.5825" y="1259.4219"/></g><g><title>Application</title><rect fill="#000000" fill-opacity="0.00000" height="1206.7813" width="8" x="48.1118" y="128.9063"/><line style="stroke:#000000;stroke-width:1;stroke-dasharray:5,5;" x1="52" x2="52" y1="128.9063" y2="1335.6875"/></g><g><title>TOMLLoader</title><rect fill="#000000" fill-opacity="0.00000" height="1206.7813" width="8" x="208.0894" y="128.9063"/><line style="stroke:#000000;stroke-width:1;stroke-dasharray:5,5;" x1="211.2642" x2="211.2642" y1="128.9063" y2="1335.6875"/></g><g><title>EnvLoader</title><rect fill="#000000" fill-opacity="0.00000" height="1206.7813" width="8" x="416.1421" y="128.9063"/><line style="stroke:#000000;stroke-width:1;stroke-dasharray:5,5;" x1="420.04" x2="420.04" y1="128.9063" y2="1335.6875"/></g><g><title>File System</title><rect fill="#000000" fill-opacity="0.00000" height="1206.7813" width="8" x="674.8262" y="128.9063"/><line style="stroke:#000000;stroke-width:1;stroke-dasharray:5,5;" x1="678.2754" x2="678.2754" y1="128.9063" y2="1335.6875"/></g><g><title>tomli.tomllib</title><rect fill="#000000" fill-opacity="0.00000" height="1206.7813" width="8" x="803.5952" y="128.9063"/><line style="stroke:#000000;stroke-width:1;stroke-dasharray:5,5;" x1="807.377" x2="807.377" y1="128.9063" y2="1335.6875"/></g><g><title>Cache</title><rect fill="#000000" fill-opacity="0.00000" height="1206.7813" width="8" x="913.5825" y="128.9063"/><line style="stroke:#000000;stroke-width:1;stroke-dasharray:5,5;" x1="916.8135" x2="916.8135" y1="128.9063" y2="1335.6875"/></g><g class="participant participant-head" data-participant="Application"><text fill="#000000" font-family="Verdana" font-size="14" lengthAdjust="spacing" textLength="78.2236" x="10" y="125.6045">Application</text><ellipse cx="52.1118" cy="60.6094" fill="#FFFFFF" rx="8" ry="8" style="stroke:#000000;stroke-width:1;"/><path d="M52.1118,68.6094 L52.1118,95.6094 M39.1118,76.6094 L65.1118,76.6094 M52.1118,95.6094 L39.1118,110.6094 M52.1118,95.6094 L65.1118,110.6094" fill="none" style="stroke:#000000;stroke-width:1;"/></g><g class="participant participant-tail" data-participant="Application"><text fill="#000000" font-family="Verdana" font-size="14" lengthAdjust="spacing" textLength="78.2236" x="10" y="1347.6826">Application</text><ellipse cx="52.1118" cy="1359.9844" fill="#FFFFFF" rx="8" ry="8" style="stroke:#000000;stroke-width:1;"/><path d="M52.1118,1367.9844 L52.1118,1394.9844 M39.1118,1375.9844 L65.1118,1375.9844 M52.1118,1394.9844 L39.1118,1409.9844 M52.1118,1394.9844 L65.1118,1409.9844" fill="none" style="stroke:#000000;stroke-width:1;"/></g><g class="participant participant-head" data-participant="toml_loader"><rect fill="#FFFFFF" height="30.2969" rx="2.5" ry="2.5" style="stroke:#000000;stroke-width:1;" width="101.6504" x="161.2642" y="97.6094"/><text fill="#000000" font-family="Verdana" font-size="14" lengthAdjust="spacing" textLength="87.6504" x="168.2642" y="117.6045">TOMLLoader</text></g><g class="participant participant-tail" data-participant="toml_loader"><rect fill="#FFFFFF" height="30.2969" rx="2.5" ry="2.5" style="stroke:#000000;stroke-width:1;" width="101.6504" x="161.2642" y="1334.6875"/><text fill="#000000" font-family="Verdana" font-size="14" lengthAdjust="spacing" textLength="87.6504" x="168.2642" y="1354.6826">TOMLLoader</text></g><g class="participant participant-head" data-participant="env_loader"><rect fill="#FFFFFF" height="30.2969" rx="2.5" ry="2.5" style="stroke:#000000;stroke-width:1;" width="88.2041" x="376.04" y="97.6094"/><text fill="#000000" font-family="Verdana" font-size="14" lengthAdjust="spacing" textLength="74.2041" x="383.04" y="117.6045">EnvLoader</text></g><g class="participant participant-tail" data-participant="env_loader"><rect fill="#FFFFFF" height="30.2969" rx="2.5" ry="2.5" style="stroke:#000000;stroke-width:1;" width="88.2041" x="376.04" y="1334.6875"/><text fill="#000000" font-family="Verdana" font-size="14" lengthAdjust="spacing" textLength="74.2041" x="383.04" y="1354.6826">EnvLoader</text></g><g class="participant participant-head" data-participant="fs"><rect fill="#FFFFFF" height="30.2969" rx="2.5" ry="2.5" style="stroke:#000000;stroke-width:1;" width="95.1016" x="631.2754" y="97.6094"/><text fill="#000000" font-family="Verdana" font-size="14" lengthAdjust="spacing" textLength="81.1016" x="638.2754" y="117.6045">File System</text></g><g class="participant participant-tail" data-participant="fs"><rect fill="#FFFFFF" height="30.2969" rx="2.5" ry="2.5" style="stroke:#000000;stroke-width:1;" width="95.1016" x="631.2754" y="1334.6875"/><text fill="#000000" font-family="Verdana" font-size="14" lengthAdjust="spacing" textLength="81.1016" x="638.2754" y="1354.6826">File System</text></g><g class="participant participant-head" data-participant="toml"><rect fill="#FFFFFF" height="30.2969" rx="2.5" ry="2.5" style="stroke:#000000;stroke-width:1;" width="102.4365" x="756.377" y="97.6094"/><text fill="#000000" font-family="Verdana" font-size="14" lengthAdjust="spacing" textLength="88.4365" x="763.377" y="117.6045">tomli/tomllib</text></g><g class="participant participant-tail" data-participant="toml"><rect fill="#FFFFFF" height="30.2969" rx="2.5" ry="2.5" style="stroke:#000000;stroke-width:1;" width="102.4365" x="756.377" y="1334.6875"/><text fill="#000000" font-family="Verdana" font-size="14" lengthAdjust="spacing" textLength="88.4365" x="763.377" y="1354.6826">tomli/tomllib</text></g><g class="participant participant-head" data-participant="cache"><rect fill="#FFFFFF" height="30.2969" rx="2.5" ry="2.5" style="stroke:#000000;stroke-width:1;" width="57.5381" x="888.8135" y="97.6094"/><text fill="#000000" font-family="Verdana" font-size="14" lengthAdjust="spacing" textLength="43.5381" x="895.8135" y="117.6045">Cache</text></g><g class="participant participant-tail" data-participant="cache"><rect fill="#FFFFFF" height="30.2969" rx="2.5" ry="2.5" style="stroke:#000000;stroke-width:1;" width="57.5381" x="888.8135" y="1334.6875"/><text fill="#000000" font-family="Verdana" font-size="14" lengthAdjust="spacing" textLength="43.5381" x="895.8135" y="1354.6826">Cache</text></g><g><title>TOMLLoader</title><rect fill="#FFFFFF" height="646.6563" style="stroke:#000000;stroke-width:1;" width="10" x="207.0894" y="511.3672"/></g><g><title>TOMLLoader</title><rect fill="#FFFFFF" height="78.3984" style="stroke:#000000;stroke-width:1;" width="10" x="212.0894" y="606.7656"/></g><g><title>TOMLLoader</title><rect fill="#FFFFFF" height="40.1328" style="stroke:#000000;stroke-width:1;" width="10" x="212.0894" y="722.2969"/></g><g><title>TOMLLoader</title><rect fill="#FFFFFF" height="40.1328" style="stroke:#000000;stroke-width:1;" width="10" x="212.0894" y="806.5625"/></g><g><title>TOMLLoader</title><rect fill="#FFFFFF" height="63.2656" style="stroke:#000000;stroke-width:1;" width="10" x="212.0894" y="890.8281"/></g><g><title>TOMLLoader</title><rect fill="#FFFFFF" height="87.3984" style="stroke:#000000;stroke-width:1;" width="10" x="207.0894" y="1230.2891"/></g><g><title>EnvLoader</title><rect fill="#FFFFFF" height="232.9297" style="stroke:#000000;stroke-width:1;" width="10" x="415.1421" y="206.1719"/></g><g><title>EnvLoader</title><rect fill="#FFFFFF" height="156.6641" style="stroke:#000000;stroke-width:1;" width="10" x="420.1421" y="246.3047"/></g><g><title>File System</title><rect fill="#FFFFFF" height="29.1328" style="stroke:#000000;stroke-width:1;" width="10" x="673.8262" y="656.0313"/></g><g><title>File System</title><rect fill="#FFFFFF" height="29.1328" style="stroke:#000000;stroke-width:1;" width="10" x="673.8262" y="924.9609"/></g><g><title>File System</title><rect fill="#FFFFFF" height="29.1328" style="stroke:#000000;stroke-width:1;" width="10" x="673.8262" y="983.2266"/></g><g><title>tomli.tomllib</title><rect fill="#FFFFFF" height="29.1328" style="stroke:#000000;stroke-width:1;" width="10" x="802.5952" y="1041.4922"/></g><g><title>Cache</title><rect fill="#FFFFFF" height="29.1328" style="stroke:#000000;stroke-width:1;" width="10" x="912.5825" y="540.5"/></g><g><title>Cache</title><rect fill="#FFFFFF" height="29.1328" style="stroke:#000000;stroke-width:1;" width="10" x="912.5825" y="1099.7578"/></g><g><title>Cache</title><rect fill="#FFFFFF" height="29.1328" style="stroke:#000000;stroke-width:1;" width="10" x="912.5825" y="1259.4219"/></g><rect fill="#FFFFFF" height="3" style="stroke:#FFFFFF;stroke-width:1;" width="956.3516" x="5" y="159.4727"/><line style="stroke:#000000;stroke-width:0.5;" x1="5" x2="961.3516" y1="159.4727" y2="159.4727"/><line style="stroke:#000000;stroke-width:0.5;" x1="5" x2="961.3516" y1="162.4727" y2="162.4727"/><rect fill="#FFFFFF" height="23.1328" style="stroke:#000000;stroke-width:1;" width="220.6289" x="372.8613" y="148.9063"/><text fill="#000000" font-family="Verdana" font-size="13" font-weight="bold" lengthAdjust="spacing" textLength="202.103" x="378.8613" y="164.9731">Active Loading (EnvLoader)</text><g class="message" data-participant-1="Application" data-participant-2="env_loader"><polygon fill="#000000" points="403.1421,202.1719,413.1421,206.1719,403.1421,210.1719,407.1421,206.1719" style="stroke:#000000;stroke-width:1;"/><line style="stroke:#000000;stroke-width:1;" x1="52.1118" x2="409.1421" y1="206.1719" y2="206.1719"/><text fill="#000000" font-family="Verdana" font-size="13" lengthAdjust="spacing" textLength="79.0474" x="59.1118" y="201.106">EnvLoader()</text></g><path d="M430,187.0391 L430,212.0391 L597,212.0391 L597,197.0391 L587,187.0391 L430,187.0391" fill="#FFFFFF" style="stroke:#000000;stroke-width:1;"/><path d="M587,187.0391 L587,197.0391 L597,197.0391 L587,187.0391" fill="#FFFFFF" style="stroke:#000000;stroke-width:1;"/><text fill="#000000" font-family="Verdana" font-size="13" lengthAdjust="spacing" text-decoration="underline" textLength="20.5601" x="436" y="204.106">init</text><text fill="#000000" font-family="Verdana" font-size="13" lengthAdjust="spacing" textLength="121.7036" x="460.6924" y="204.106">actively loads .env</text><g class="message" data-participant-1="env_loader" data-participant-2="env_loader"><line style="stroke:#000000;stroke-width:1;" x1="425.1421" x2="472.1421" y1="233.3047" y2="233.3047"/><line style="stroke:#000000;stroke-width:1;" x1="472.1421" x2="472.1421" y1="233.3047" y2="246.3047"/><line style="stroke:#000000;stroke-width:1;" x1="431.1421" x2="472.1421" y1="246.3047" y2="246.3047"/><polygon fill="#000000" points="441.1421,242.3047,431.1421,246.3047,441.1421,250.3047,437.1421,246.3047" style="stroke:#000000;stroke-width:1;"/><text fill="#000000" font-family="Verdana" font-size="13" lengthAdjust="spacing" textLength="94.6563" x="437.1421" y="228.2388">load_env_file()</text></g><g class="message" data-participant-1="env_loader" data-participant-2="fs"><polygon fill="#000000" points="666.8262,276.4375,676.8262,280.4375,666.8262,284.4375,670.8262,280.4375" style="stroke:#000000;stroke-width:1;"/><line style="stroke:#000000;stroke-width:1;" x1="430.1421" x2="672.8262" y1="280.4375" y2="280.4375"/><text fill="#000000" font-family="Verdana" font-size="13" lengthAdjust="spacing" textLength="129.6191" x="437.1421" y="275.3716">Find .env (cwd first)</text></g><g class="message" data-participant-1="fs" data-participant-2="env_loader"><polygon fill="#000000" points="441.1421,305.5703,431.1421,309.5703,441.1421,313.5703,437.1421,309.5703" style="stroke:#000000;stroke-width:1;"/><line style="stroke:#000000;stroke-width:1;stroke-dasharray:2,2;" x1="435.1421" x2="677.8262" y1="309.5703" y2="309.5703"/><text fill="#000000" font-family="Verdana" font-size="13" lengthAdjust="spacing" textLength="61.75" x="447.1421" y="304.5044">.env path</text></g><g class="message" data-participant-1="env_loader" data-participant-2="fs"><polygon fill="#000000" points="666.8262,334.7031,676.8262,338.7031,666.8262,342.7031,670.8262,338.7031" style="stroke:#000000;stroke-width:1;"/><line style="stroke:#000000;stroke-width:1;" x1="430.1421" x2="672.8262" y1="338.7031" y2="338.7031"/><text fill="#000000" font-family="Verdana" font-size="13" lengthAdjust="spacing" textLength="65.4443" x="437.1421" y="333.6372">Read .env</text></g><g class="message" data-participant-1="fs" data-participant-2="env_loader"><polygon fill="#000000" points="441.1421,363.8359,431.1421,367.8359,441.1421,371.8359,437.1421,367.8359" style="stroke:#000000;stroke-width:1;"/><line style="stroke:#000000;stroke-width:1;stroke-dasharray:2,2;" x1="435.1421" x2="677.8262" y1="367.8359" y2="367.8359"/><text fill="#000000" font-family="Verdana" font-size="13" lengthAdjust="spacing" textLength="83.3765" x="447.1421" y="362.77">File contents</text></g><g class="message" data-participant-1="env_loader" data-participant-2="env_loader"><line style="stroke:#000000;stroke-width:1;" x1="430.1421" x2="472.1421" y1="401.9688" y2="401.9688"/><line style="stroke:#000000;stroke-width:1;" x1="472.1421" x2="472.1421" y1="401.9688" y2="414.9688"/><line style="stroke:#000000;stroke-width:1;" x1="425.1421" x2="472.1421" y1="414.9688" y2="414.9688"/><polygon fill="#000000" points="435.1421,410.9688,425.1421,414.9688,435.1421,418.9688,431.1421,414.9688" style="stroke:#000000;stroke-width:1;"/><text fill="#000000" font-family="Verdana" font-size="13" lengthAdjust="spacing" textLength="214.6841" x="437.1421" y="396.9028">Parse and merge with os.environ</text></g><g class="message" data-participant-1="env_loader" data-participant-2="Application"><polygon fill="#000000" points="63.1118,435.1016,53.1118,439.1016,63.1118,443.1016,59.1118,439.1016" style="stroke:#000000;stroke-width:1;"/><line style="stroke:#000000;stroke-width:1;stroke-dasharray:2,2;" x1="57.1118" x2="419.1421" y1="439.1016" y2="439.1016"/><text fill="#000000" font-family="Verdana" font-size="13" lengthAdjust="spacing" textLength="128.1084" x="69.1118" y="434.0356">EnvLoader instance</text></g><rect fill="#FFFFFF" height="3" style="stroke:#FFFFFF;stroke-width:1;" width="956.3516" x="5" y="467.668"/><line style="stroke:#000000;stroke-width:0.5;" x1="5" x2="961.3516" y1="467.668" y2="467.668"/><line style="stroke:#000000;stroke-width:0.5;" x1="5" x2="961.3516" y1="470.668" y2="470.668"/><rect fill="#FFFFFF" height="23.1328" style="stroke:#000000;stroke-width:1;" width="222.5269" x="371.9124" y="457.1016"/><text fill="#000000" font-family="Verdana" font-size="13" font-weight="bold" lengthAdjust="spacing" textLength="204.001" x="377.9124" y="473.1685">Lazy Loading (TOMLLoader)</text><g class="message" data-participant-1="Application" data-participant-2="toml_loader"><polygon fill="#000000" points="195.0894,507.3672,205.0894,511.3672,195.0894,515.3672,199.0894,511.3672" style="stroke:#000000;stroke-width:1;"/><line style="stroke:#000000;stroke-width:1;" x1="52.1118" x2="201.0894" y1="511.3672" y2="511.3672"/><text fill="#000000" font-family="Verdana" font-size="13" lengthAdjust="spacing" textLength="73.7534" x="59.1118" y="506.3013">load_toml()</text></g><g class="message" data-participant-1="toml_loader" data-participant-2="cache"><polygon fill="#000000" points="900.5825,536.5,910.5825,540.5,900.5825,544.5,904.5825,540.5" style="stroke:#000000;stroke-width:1;"/><line style="stroke:#000000;stroke-width:1;" x1="217.0894" x2="906.5825" y1="540.5" y2="540.5"/><text fill="#000000" font-family="Verdana" font-size="13" lengthAdjust="spacing" textLength="126.2295" x="224.0894" y="535.4341">Check _config_toml</text></g><g class="message" data-participant-1="cache" data-participant-2="toml_loader"><polygon fill="#000000" points="228.0894,565.6328,218.0894,569.6328,228.0894,573.6328,224.0894,569.6328" style="stroke:#000000;stroke-width:1;"/><line style="stroke:#000000;stroke-width:1;stroke-dasharray:2,2;" x1="222.0894" x2="916.5825" y1="569.6328" y2="569.6328"/><text fill="#000000" font-family="Verdana" font-size="13" lengthAdjust="spacing" textLength="120.3643" x="234.0894" y="564.5669">None (not cached)</text></g><g class="message" data-participant-1="toml_loader" data-participant-2="toml_loader"><line style="stroke:#000000;stroke-width:1;" x1="217.0894" x2="264.0894" y1="593.7656" y2="593.7656"/><line style="stroke:#000000;stroke-width:1;" x1="264.0894" x2="264.0894" y1="593.7656" y2="606.7656"/><line style="stroke:#000000;stroke-width:1;" x1="223.0894" x2="264.0894" y1="606.7656" y2="606.7656"/><polygon fill="#000000" points="233.0894,602.7656,223.0894,606.7656,233.0894,610.7656,229.0894,606.7656" style="stroke:#000000;stroke-width:1;"/><text fill="#000000" font-family="Verdana" font-size="13" lengthAdjust="spacing" textLength="126.0771" x="229.0894" y="588.6997">_find_project_root()</text></g><g class="message" data-participant-1="toml_loader" data-participant-2="fs"><polygon fill="#000000" points="661.8262,652.0313,671.8262,656.0313,661.8262,660.0313,665.8262,656.0313" style="stroke:#000000;stroke-width:1;"/><line style="stroke:#000000;stroke-width:1;" x1="222.0894" x2="667.8262" y1="656.0313" y2="656.0313"/><text fill="#000000" font-family="Verdana" font-size="13" lengthAdjust="spacing" textLength="119.7485" x="229.0894" y="635.8325">Check for markers</text><text fill="#000000" font-family="Verdana" font-size="13" lengthAdjust="spacing" textLength="98.4775" x="229.0894" y="650.9653">(cwd first, then</text><text fill="#000000" font-family="Verdana" font-size="13" lengthAdjust="spacing" text-decoration="underline" textLength="19.7983" x="331.6992" y="650.9653">file</text><text fill="#000000" font-family="Verdana" font-size="13" lengthAdjust="spacing" textLength="5.0718" x="351.4976" y="650.9653">)</text></g><g class="message" data-participant-1="fs" data-participant-2="toml_loader"><polygon fill="#000000" points="228.0894,681.1641,218.0894,685.1641,228.0894,689.1641,224.0894,685.1641" style="stroke:#000000;stroke-width:1;"/><line style="stroke:#000000;stroke-width:1;stroke-dasharray:2,2;" x1="222.0894" x2="677.8262" y1="685.1641" y2="685.1641"/><text fill="#000000" font-family="Verdana" font-size="13" lengthAdjust="spacing" textLength="109.1606" x="234.0894" y="680.0981">Project root path</text></g><g class="message" data-participant-1="toml_loader" data-participant-2="toml_loader"><line style="stroke:#000000;stroke-width:1;" x1="217.0894" x2="264.0894" y1="709.2969" y2="709.2969"/><line style="stroke:#000000;stroke-width:1;" x1="264.0894" x2="264.0894" y1="709.2969" y2="722.2969"/><line style="stroke:#000000;stroke-width:1;" x1="223.0894" x2="264.0894" y1="722.2969" y2="722.2969"/><polygon fill="#000000" points="233.0894,718.2969,223.0894,722.2969,233.0894,726.2969,229.0894,722.2969" style="stroke:#000000;stroke-width:1;"/><text fill="#000000" font-family="Verdana" font-size="13" lengthAdjust="spacing" textLength="174.0527" x="229.0894" y="704.231">Check sys.argv for --config</text></g><g class="message" data-participant-1="toml_loader" data-participant-2="toml_loader"><line style="stroke:#000000;stroke-width:1;stroke-dasharray:2,2;" x1="222.0894" x2="264.0894" y1="761.4297" y2="761.4297"/><line style="stroke:#000000;stroke-width:1;stroke-dasharray:2,2;" x1="264.0894" x2="264.0894" y1="761.4297" y2="774.4297"/><line style="stroke:#000000;stroke-width:1;stroke-dasharray:2,2;" x1="217.0894" x2="264.0894" y1="774.4297" y2="774.4297"/><polygon fill="#000000" points="227.0894,770.4297,217.0894,774.4297,227.0894,778.4297,223.0894,774.4297" style="stroke:#000000;stroke-width:1;"/><text fill="#000000" font-family="Verdana" font-size="13" lengthAdjust="spacing" textLength="103.3716" x="229.0894" y="756.3638">No custom path</text></g><g class="message" data-participant-1="toml_loader" data-participant-2="toml_loader"><line style="stroke:#000000;stroke-width:1;" x1="217.0894" x2="264.0894" y1="793.5625" y2="793.5625"/><line style="stroke:#000000;stroke-width:1;" x1="264.0894" x2="264.0894" y1="793.5625" y2="806.5625"/><line style="stroke:#000000;stroke-width:1;" x1="223.0894" x2="264.0894" y1="806.5625" y2="806.5625"/><polygon fill="#000000" points="233.0894,802.5625,223.0894,806.5625,233.0894,810.5625,229.0894,806.5625" style="stroke:#000000;stroke-width:1;"/><text fill="#000000" font-family="Verdana" font-size="13" lengthAdjust="spacing" textLength="171.9326" x="229.0894" y="788.4966">Check ENV['CONFIG_FILE']</text></g><g class="message" data-participant-1="toml_loader" data-participant-2="toml_loader"><line style="stroke:#000000;stroke-width:1;stroke-dasharray:2,2;" x1="222.0894" x2="264.0894" y1="845.6953" y2="845.6953"/><line style="stroke:#000000;stroke-width:1;stroke-dasharray:2,2;" x1="264.0894" x2="264.0894" y1="845.6953" y2="858.6953"/><line style="stroke:#000000;stroke-width:1;stroke-dasharray:2,2;" x1="217.0894" x2="264.0894" y1="858.6953" y2="858.6953"/><polygon fill="#000000" points="227.0894,854.6953,217.0894,858.6953,227.0894,862.6953,223.0894,858.6953" style="stroke:#000000;stroke-width:1;"/><text fill="#000000" font-family="Verdana" font-size="13" lengthAdjust="spacing" textLength="70.8779" x="229.0894" y="840.6294">No env var</text></g><g class="message" data-participant-1="toml_loader" data-participant-2="toml_loader"><line style="stroke:#000000;stroke-width:1;" x1="217.0894" x2="264.0894" y1="877.8281" y2="877.8281"/><line style="stroke:#000000;stroke-width:1;" x1="264.0894" x2="264.0894" y1="877.8281" y2="890.8281"/><line style="stroke:#000000;stroke-width:1;" x1="223.0894" x2="264.0894" y1="890.8281" y2="890.8281"/><polygon fill="#000000" points="233.0894,886.8281,223.0894,890.8281,233.0894,894.8281,229.0894,890.8281" style="stroke:#000000;stroke-width:1;"/><text fill="#000000" font-family="Verdana" font-size="13" lengthAdjust="spacing" textLength="148.0083" x="229.0894" y="872.7622">_find_file('config.toml')</text></g><g class="message" data-participant-1="toml_loader" data-participant-2="fs"><polygon fill="#000000" points="661.8262,920.9609,671.8262,924.9609,661.8262,928.9609,665.8262,924.9609" style="stroke:#000000;stroke-width:1;"/><line style="stroke:#000000;stroke-width:1;" x1="222.0894" x2="667.8262" y1="924.9609" y2="924.9609"/><text fill="#000000" font-family="Verdana" font-size="13" lengthAdjust="spacing" textLength="204.9531" x="229.0894" y="919.895">Search project_root/config.toml</text></g><g class="message" data-participant-1="fs" data-participant-2="toml_loader"><polygon fill="#000000" points="228.0894,950.0938,218.0894,954.0938,228.0894,958.0938,224.0894,954.0938" style="stroke:#000000;stroke-width:1;"/><line style="stroke:#000000;stroke-width:1;stroke-dasharray:2,2;" x1="222.0894" x2="677.8262" y1="954.0938" y2="954.0938"/><text fill="#000000" font-family="Verdana" font-size="13" lengthAdjust="spacing" textLength="64.0923" x="234.0894" y="949.0278">File found</text></g><g class="message" data-participant-1="toml_loader" data-participant-2="fs"><polygon fill="#000000" points="661.8262,979.2266,671.8262,983.2266,661.8262,987.2266,665.8262,983.2266" style="stroke:#000000;stroke-width:1;"/><line style="stroke:#000000;stroke-width:1;" x1="217.0894" x2="667.8262" y1="983.2266" y2="983.2266"/><text fill="#000000" font-family="Verdana" font-size="13" lengthAdjust="spacing" textLength="147.4307" x="224.0894" y="978.1606">open(config_path, 'rb')</text></g><g class="message" data-participant-1="fs" data-participant-2="toml_loader"><polygon fill="#000000" points="228.0894,1008.3594,218.0894,1012.3594,228.0894,1016.3594,224.0894,1012.3594" style="stroke:#000000;stroke-width:1;"/><line style="stroke:#000000;stroke-width:1;stroke-dasharray:2,2;" x1="222.0894" x2="677.8262" y1="1012.3594" y2="1012.3594"/><text fill="#000000" font-family="Verdana" font-size="13" lengthAdjust="spacing" textLength="71.1382" x="234.0894" y="1007.2935">File handle</text></g><g class="message" data-participant-1="toml_loader" data-participant-2="toml"><polygon fill="#000000" points="790.5952,1037.4922,800.5952,1041.4922,790.5952,1045.4922,794.5952,1041.4922" style="stroke:#000000;stroke-width:1;"/><line style="stroke:#000000;stroke-width:1;" x1="217.0894" x2="796.5952" y1="1041.4922" y2="1041.4922"/><text fill="#000000" font-family="Verdana" font-size="13" lengthAdjust="spacing" textLength="108.5322" x="224.0894" y="1036.4263">load(file_handle)</text></g><g class="message" data-participant-1="toml" data-participant-2="toml_loader"><polygon fill="#000000" points="228.0894,1066.625,218.0894,1070.625,228.0894,1074.625,224.0894,1070.625" style="stroke:#000000;stroke-width:1;"/><line style="stroke:#000000;stroke-width:1;stroke-dasharray:2,2;" x1="222.0894" x2="806.5952" y1="1070.625" y2="1070.625"/><text fill="#000000" font-family="Verdana" font-size="13" lengthAdjust="spacing" textLength="72.4141" x="234.0894" y="1065.5591">Parsed dict</text></g><g class="message" data-participant-1="toml_loader" data-participant-2="cache"><polygon fill="#000000" points="900.5825,1095.7578,910.5825,1099.7578,900.5825,1103.7578,904.5825,1099.7578" style="stroke:#000000;stroke-width:1;"/><line style="stroke:#000000;stroke-width:1;" x1="217.0894" x2="906.5825" y1="1099.7578" y2="1099.7578"/><text fill="#000000" font-family="Verdana" font-size="13" lengthAdjust="spacing" textLength="120.8848" x="224.0894" y="1094.6919">Store _config_toml</text></g><g class="message" data-participant-1="cache" data-participant-2="toml_loader"><polygon fill="#000000" points="228.0894,1124.8906,218.0894,1128.8906,228.0894,1132.8906,224.0894,1128.8906" style="stroke:#000000;stroke-width:1;"/><line style="stroke:#000000;stroke-width:1;stroke-dasharray:2,2;" x1="222.0894" x2="916.5825" y1="1128.8906" y2="1128.8906"/><text fill="#000000" font-family="Verdana" font-size="13" lengthAdjust="spacing" textLength="48.6802" x="234.0894" y="1123.8247">Cached</text></g><g class="message" data-participant-1="toml_loader" data-participant-2="Application"><polygon fill="#000000" points="63.1118,1154.0234,53.1118,1158.0234,63.1118,1162.0234,59.1118,1158.0234" style="stroke:#000000;stroke-width:1;"/><line style="stroke:#000000;stroke-width:1;stroke-dasharray:2,2;" x1="57.1118" x2="211.0894" y1="1158.0234" y2="1158.0234"/><text fill="#000000" font-family="Verdana" font-size="13" lengthAdjust="spacing" textLength="69.9512" x="69.1118" y="1152.9575">Config dict</text></g><rect fill="#FFFFFF" height="3" style="stroke:#FFFFFF;stroke-width:1;" width="956.3516" x="5" y="1186.5898"/><line style="stroke:#000000;stroke-width:0.5;" x1="5" x2="961.3516" y1="1186.5898" y2="1186.5898"/><line style="stroke:#000000;stroke-width:0.5;" x1="5" x2="961.3516" y1="1189.5898" y2="1189.5898"/><rect fill="#FFFFFF" height="23.1328" style="stroke:#000000;stroke-width:1;" width="207.4067" x="379.4724" y="1176.0234"/><text fill="#000000" font-family="Verdana" font-size="13" font-weight="bold" lengthAdjust="spacing" textLength="188.8809" x="385.4724" y="1192.0903">Subsequent Call (Cached)</text><g class="message" data-participant-1="Application" data-participant-2="toml_loader"><polygon fill="#000000" points="195.0894,1226.2891,205.0894,1230.2891,195.0894,1234.2891,199.0894,1230.2891" style="stroke:#000000;stroke-width:1;"/><line style="stroke:#000000;stroke-width:1;" x1="52.1118" x2="201.0894" y1="1230.2891" y2="1230.2891"/><text fill="#000000" font-family="Verdana" font-size="13" lengthAdjust="spacing" textLength="73.7534" x="59.1118" y="1225.2231">load_toml()</text></g><g class="message" data-participant-1="toml_loader" data-participant-2="cache"><polygon fill="#000000" points="900.5825,1255.4219,910.5825,1259.4219,900.5825,1263.4219,904.5825,1259.4219" style="stroke:#000000;stroke-width:1;"/><line style="stroke:#000000;stroke-width:1;" x1="217.0894" x2="906.5825" y1="1259.4219" y2="1259.4219"/><text fill="#000000" font-family="Verdana" font-size="13" lengthAdjust="spacing" textLength="126.2295" x="224.0894" y="1254.356">Check _config_toml</text></g><g class="message" data-participant-1="cache" data-participant-2="toml_loader"><polygon fill="#000000" points="228.0894,1284.5547,218.0894,1288.5547,228.0894,1292.5547,224.0894,1288.5547" style="stroke:#000000;stroke-width:1;"/><line style="stroke:#000000;stroke-width:1;stroke-dasharray:2,2;" x1="222.0894" x2="916.5825" y1="1288.5547" y2="1288.5547"/><text fill="#000000" font-family="Verdana" font-size="13" lengthAdjust="spacing" textLength="76.9209" x="234.0894" y="1283.4888">Cached dict</text></g><g class="message" data-participant-1="toml_loader" data-participant-2="Application"><polygon fill="#000000" points="63.1118,1313.6875,53.1118,1317.6875,63.1118,1321.6875,59.1118,1317.6875" style="stroke:#000000;stroke-width:1;"/><line style="stroke:#000000;stroke-width:1;stroke-dasharray:2,2;" x1="57.1118" x2="211.0894" y1="1317.6875" y2="1317.6875"/><text fill="#000000" font-family="Verdana" font-size="13" lengthAdjust="spacing" textLength="130.9775" x="69.1118" y="1312.6216">Config dict (cached)</text></g><!--SRC=[pLNVRzem47xFNt7h7W9IeUz8JAeGJ9KOhSQqbssAZ7D9F18xiqqgzjVFFn0u8IqjJnDIY9sxxxwx-tp-e0ki4EgIC1wfBUCraQI23Q7RN8eTJsUY518-BkRs5qMQwH9X9dZ6yfqacWaEIq5IndDOuvyTSefHHAWsJlTrNJBgR283gnbbDU4QRhuzVbbQ9vGtG1HeKPL9wTPjkpbl0ZFaJQ_LWXb6wxtIM3cxJBM_MtXsPvybsnm3jcrcX1Relb7x5aNJATnJpHeyPZSuiXd2T1e5oS7eKq1k0aV3mT1MWZL4OyYU2xEMB2_q19A4SQQJ19mXbdkmHWh6nZuw-NH3sF_4RcGc-HV2jBqpDO45uwb3XW5zJY5ZKkbXb2aOTU2TJKrqqGFo5Oa7wNDqlQ22Q-HQlSB_YKY5G0oT2cMEyCnq0K9PM2QDN5Ayb94135eG51qOLvfO6VQ3sDOkoT_zgR4dEVPrDb3deUvs9wnvgDyeM5Xl9wS9p0gaMqYeEpSEuEJk5UUUBgrMm9NW20EZ66-M3iEi3bhjX6pv6u7mDAcb-8rK9r88_LRcjjUUTcRESaNa5gNwoK_AkGKpExXHiDLWaWImvWGUjD7YykHPW6NXrHNaOdp2vMlCMg2UejghCP5vuxYEHhxE_NcsmCxB3NIdpDOPltSIcg- -_uXdZwl5m-TayR2Snx-kOsCFOaFaLKnyxzs4Y7r5nlPx_0u1h958Ma2edxi0wcBBtJp8x3roPQyj2L6ZaPq_EhOjjn3BJJnyM_3239aIkz5xokOFzy29sJjrwkISUbHjHraAAQEwczHBqs1jRaUyPXguQogzD0Awez7VrhqCmw6utcsKky6rYLEMCF3Ht4pyluQY9tQMq3jhOIx1yv4Qqlu7]--></g></svg>