<svg xmlns="http://www.w3.org/2000/svg" xmlns:xlink="http://www.w3.org/1999/xlink" contentStyleType="text/css" data-diagram-type="CLASS" height="563px" preserveAspectRatio="none" style="width:1995px;height:563px;background:#FEFEFE;" version="1.1" viewBox="0 0 1995 563" width="1995px" zoomAndPan="magnify"><title>Configuration Module Class Diagram</title><defs/><g><rect fill="#FEFEFE" height="563" style="stroke:none;stroke-width:1;" width="1995" x="0" y="0"/><g class="title" data-source-line="38"><text fill="#000000" font-family="Verdana" font-size="22" font-weight="bold" lengthAdjust="spacing" textLength="453.5674" x="766.3635" y="35.4209">Configuration Module Class Diagram</text></g><!--class TOMLLoader--><g class="entity" data-entity="TOMLLoader" data-source-line="40" data-uid="ent0002" id="entity_TOMLLoader"><rect fill="#FFFFFF" height="321.0469" rx="2.5" ry="2.5" style="stroke:#000000;stroke-width:1;" width="763.0645" x="12" y="89.1994"/><ellipse cx="345.957" cy="103.1994" fill="#FFFFFF" rx="9" ry="9" style="stroke:#000000;stroke-width:1;"/><path d="M348.9258,108.84 Q348.3477,109.1369 347.707,109.2775 Q347.0664,109.4337 346.3633,109.4337 Q343.8633,109.4337 342.5352,107.7931 Q341.2227,106.1369 341.2227,103.0119 Q341.2227,99.8869 342.5352,98.2306 Q343.8633,96.5744 346.3633,96.5744 Q347.0664,96.5744 347.707,96.7306 Q348.3633,96.8869 348.9258,97.1837 L348.9258,99.9025 Q348.3008,99.3244 347.707,99.0587 Q347.1133,98.7775 346.4883,98.7775 Q345.1445,98.7775 344.457,99.8556 Q343.7695,100.9181 343.7695,103.0119 Q343.7695,105.1056 344.457,106.1837 Q345.1445,107.2462 346.4883,107.2462 Q347.1133,107.2462 347.707,106.9806 Q348.3008,106.6994 348.9258,106.1212 L348.9258,108.84 Z " fill="#000000"/><text fill="#000000" font-family="Verdana" font-size="14" lengthAdjust="spacing" textLength="87.6504" x="363.457" y="108.0461">TOMLLoader</text><line style="stroke:#000000;stroke-width:1;" x1="13" x2="774.0645" y1="117.1994" y2="117.1994"/><text fill="#000000" font-family="Verdana" font-size="14" lengthAdjust="spacing" text-decoration="underline" textLength="238.2939" x="18" y="134.1945">-_instance: Optional[TOMLLoader]</text><text fill="#000000" font-family="Verdana" font-size="14" lengthAdjust="spacing" text-decoration="underline" textLength="118.3643" x="18" y="150.4914">-_initialized: bool</text><text fill="#000000" font-family="Verdana" font-size="14" lengthAdjust="spacing" textLength="94.9512" x="18" y="166.7882">+debug: bool</text><text fill="#000000" font-family="Verdana" font-size="14" lengthAdjust="spacing" textLength="80.7051" x="18" y="183.0851">+disp: Disp</text><text fill="#000000" font-family="Verdana" font-size="14" lengthAdjust="spacing" textLength="265.7129" x="18" y="199.382">-_config_toml: Optional[Dict[str, Any]]</text><text fill="#000000" font-family="Verdana" font-size="14" lengthAdjust="spacing" textLength="206.9922" x="18" y="215.6789">-_project_root: Optional[Path]</text><line style="stroke:#000000;stroke-width:1;" x1="13" x2="774.0645" y1="222.9806" y2="222.9806"/><text fill="#000000" font-family="Verdana" font-size="14" lengthAdjust="spacing" textLength="190.5723" x="18" y="239.9757">+__new__(cls) TOMLLoader</text><text fill="#000000" font-family="Verdana" font-size="14" lengthAdjust="spacing" textLength="267.1074" x="18" y="256.2726">+__init__(debug: Optional[bool]) None</text><text fill="#000000" font-family="Verdana" font-size="14" lengthAdjust="spacing" textLength="176.6611" x="18" y="272.5695">-_find_project_root() Path</text><text fill="#000000" font-family="Verdana" font-size="14" lengthAdjust="spacing" textLength="751.0645" x="18" y="288.8664">-_search_directory_for_file(directory: Path, filename: str, current_depth: int, max_depth: int) Optional[Path]</text><text fill="#000000" font-family="Verdana" font-size="14" lengthAdjust="spacing" textLength="387.126" x="18" y="305.1632">-_find_file(filename: str, max_depth: int) Optional[Path]</text><text fill="#000000" font-family="Verdana" font-size="14" lengthAdjust="spacing" textLength="511.5947" x="18" y="321.4601">+load_toml(force_reload: bool, custom_path: Optional[str]) Dict[str, Any]</text><text fill="#000000" font-family="Verdana" font-size="14" lengthAdjust="spacing" textLength="561.4355" x="18" y="337.757">+load_config_toml(force_reload: bool, custom_path: Optional[str]) Dict[str, Any]</text><text fill="#000000" font-family="Verdana" font-size="14" lengthAdjust="spacing" textLength="321.7197" x="18" y="354.0539">+get_toml_value(*keys: str, default: Any) Any</text><text fill="#000000" font-family="Verdana" font-size="14" lengthAdjust="spacing" textLength="332.9785" x="18" y="370.3507">+get_config_value(*keys: str, default: Any) Any</text><text fill="#000000" font-family="Verdana" font-size="14" lengthAdjust="spacing" textLength="146.624" x="18" y="386.6476">+clear_cache() None</text><text fill="#000000" font-family="Verdana" font-size="14" lengthAdjust="spacing" textLength="172.751" x="18" y="402.9445">+get_project_root() Path</text></g><!--class EnvLoader--><g class="entity" data-entity="EnvLoader" data-source-line="61" data-uid="ent0003" id="entity_EnvLoader"><rect fill="#FFFFFF" height="382.2344" rx="2.5" ry="2.5" style="stroke:#000000;stroke-width:1;" width="714.1055" x="1103.48" y="58.6094"/><ellipse cx="1419.6807" cy="72.6094" fill="#FFFFFF" rx="9" ry="9" style="stroke:#000000;stroke-width:1;"/><path d="M1422.6494,78.25 Q1422.0713,78.5469 1421.4307,78.6875 Q1420.7901,78.8438 1420.0869,78.8438 Q1417.5869,78.8438 1416.2588,77.2031 Q1414.9463,75.5469 1414.9463,72.4219 Q1414.9463,69.2969 1416.2588,67.6406 Q1417.5869,65.9844 1420.0869,65.9844 Q1420.7901,65.9844 1421.4307,66.1406 Q1422.0869,66.2969 1422.6494,66.5938 L1422.6494,69.3125 Q1422.0244,68.7344 1421.4307,68.4688 Q1420.8369,68.1875 1420.2119,68.1875 Q1418.8682,68.1875 1418.1807,69.2656 Q1417.4932,70.3281 1417.4932,72.4219 Q1417.4932,74.5156 1418.1807,75.5938 Q1418.8682,76.6563 1420.2119,76.6563 Q1420.8369,76.6563 1421.4307,76.3906 Q1422.0244,76.1094 1422.6494,75.5313 L1422.6494,78.25 Z " fill="#000000"/><text fill="#000000" font-family="Verdana" font-size="14" lengthAdjust="spacing" textLength="74.2041" x="1437.1807" y="77.4561">EnvLoader</text><line style="stroke:#000000;stroke-width:1;" x1="1104.48" x2="1816.5855" y1="86.6094" y2="86.6094"/><text fill="#000000" font-family="Verdana" font-size="14" lengthAdjust="spacing" text-decoration="underline" textLength="224.8477" x="1109.48" y="103.6045">-_instance: Optional[EnvLoader]</text><text fill="#000000" font-family="Verdana" font-size="14" lengthAdjust="spacing" text-decoration="underline" textLength="118.3643" x="1109.48" y="119.9014">-_initialized: bool</text><text fill="#000000" font-family="Verdana" font-size="14" lengthAdjust="spacing" textLength="94.9512" x="1109.48" y="136.1982">+debug: bool</text><text fill="#000000" font-family="Verdana" font-size="14" lengthAdjust="spacing" textLength="80.7051" x="1109.48" y="152.4951">+disp: Disp</text><text fill="#000000" font-family="Verdana" font-size="14" lengthAdjust="spacing" textLength="238.7793" x="1109.48" y="168.792">-_env_vars: Optional[Dict[str, str]]</text><text fill="#000000" font-family="Verdana" font-size="14" lengthAdjust="spacing" textLength="206.9922" x="1109.48" y="185.0889">-_project_root: Optional[Path]</text><text fill="#000000" font-family="Verdana" font-size="14" lengthAdjust="spacing" textLength="4.4502" x="1109.48" y="201.3857">&#160;</text><text fill="#000000" font-family="Verdana" font-size="14" lengthAdjust="spacing" textLength="177.126" x="1109.48" y="217.6826">+__new__(cls) EnvLoader</text><text fill="#000000" font-family="Verdana" font-size="14" lengthAdjust="spacing" textLength="267.1074" x="1109.48" y="233.9795">+__init__(debug: Optional[bool]) None</text><text fill="#000000" font-family="Verdana" font-size="14" lengthAdjust="spacing" textLength="204.0596" x="1109.48" y="270.5732">+__init__ calls load_env_file()</text><text fill="#000000" font-family="Verdana" font-size="14" lengthAdjust="spacing" textLength="176.6611" x="1109.48" y="286.8701">-_find_project_root() Path</text><text fill="#000000" font-family="Verdana" font-size="14" lengthAdjust="spacing" textLength="657.8838" x="1109.48" y="303.167">-_search_directory_for_env(directory: Path, current_depth: int, max_depth: int) Optional[Path]</text><text fill="#000000" font-family="Verdana" font-size="14" lengthAdjust="spacing" textLength="216.5967" x="1109.48" y="319.4639">-_find_env_file() Optional[Path]</text><text fill="#000000" font-family="Verdana" font-size="14" lengthAdjust="spacing" textLength="702.1055" x="1109.48" y="335.7607">+load_env_file(force_reload: bool, merge_os_environ: bool, custom_path: Optional[str]) Dict[str, str]</text><text fill="#000000" font-family="Verdana" font-size="14" lengthAdjust="spacing" textLength="317.5566" x="1109.48" y="352.0576">-_parse_env_file(env_path: Path) Dict[str, str]</text><text fill="#000000" font-family="Verdana" font-size="14" lengthAdjust="spacing" textLength="425.4551" x="1109.48" y="368.3545">+get_env_value(key: str, default: Optional[str]) Optional[str]</text><text fill="#000000" font-family="Verdana" font-size="14" lengthAdjust="spacing" textLength="359.4678" x="1109.48" y="384.6514">+get_environment_variable(variable_name: str) str</text><text fill="#000000" font-family="Verdana" font-size="14" lengthAdjust="spacing" textLength="205.9258" x="1109.48" y="400.9482">+apply_to_os_environ() None</text><text fill="#000000" font-family="Verdana" font-size="14" lengthAdjust="spacing" textLength="146.624" x="1109.48" y="417.2451">+clear_cache() None</text><text fill="#000000" font-family="Verdana" font-size="14" lengthAdjust="spacing" textLength="172.751" x="1109.48" y="433.542">+get_project_root() Path</text><line style="stroke:#000000;stroke-width:1;" x1="1104.48" x2="1388.8443" y1="249.4297" y2="249.4297"/><text fill="#000000" font-family="Verdana" font-size="14" lengthAdjust="spacing" textLength="116.7852" x="1388.8443" y="253.7764">Active loading in</text><text fill="#000000" font-family="Verdana" font-size="14" lengthAdjust="spacing" text-decoration="underline" textLength="22.1416" x="1510.0796" y="253.7764">init</text><line style="stroke:#000000;stroke-width:1;" x1="1532.2212" x2="1816.5855" y1="249.4297" y2="249.4297"/></g><path d="M810.47,161.6294 L810.47,177.7622 L208.5723,235.1291 L810.47,185.7622 L810.47,201.895 A0,0 0 0 0 810.47,201.895 L1068.5867,201.895 A0,0 0 0 0 1068.5867,201.895 L1068.5867,171.6294 L1058.5867,161.6294 L810.47,161.6294 A0,0 0 0 0 810.47,161.6294" fill="#FFFFFF" style="stroke:#000000;stroke-width:1;"/><path d="M1058.5867,161.6294 L1058.5867,171.6294 L1068.5867,171.6294 L1058.5867,161.6294" fill="#FFFFFF" style="stroke:#000000;stroke-width:1;"/><text fill="#000000" font-family="Verdana" font-size="13" lengthAdjust="spacing" textLength="194.6445" x="816.47" y="178.6963">Implements Singleton pattern</text><text fill="#000000" font-family="Verdana" font-size="13" lengthAdjust="spacing" textLength="237.1167" x="816.47" y="193.8291">Returns same instance on every call</text><path d="M810.47,211.895 L810.47,265.8598 L194.6611,267.7228 L810.47,273.8598 L810.47,327.8247 A0,0 0 0 0 810.47,327.8247 L984.0169,327.8247 A0,0 0 0 0 984.0169,327.8247 L984.0169,221.895 L974.0169,211.895 L810.47,211.895 A0,0 0 0 0 810.47,211.895" fill="#FFFFFF" style="stroke:#000000;stroke-width:1;"/><path d="M974.0169,211.895 L974.0169,221.895 L984.0169,221.895 L974.0169,211.895" fill="#FFFFFF" style="stroke:#000000;stroke-width:1;"/><text fill="#000000" font-family="Verdana" font-size="13" lengthAdjust="spacing" textLength="143.8569" x="816.47" y="228.9619">Searches for markers:</text><text fill="#000000" font-family="Verdana" font-size="13" lengthAdjust="spacing" textLength="152.5469" x="816.47" y="244.0947">- docker-compose.yaml</text><text fill="#000000" font-family="Verdana" font-size="13" lengthAdjust="spacing" textLength="118.4028" x="816.47" y="259.2275">- requirements.txt</text><text fill="#000000" font-family="Verdana" font-size="13" lengthAdjust="spacing" textLength="68.5864" x="816.47" y="274.3603">- backend/</text><text fill="#000000" font-family="Verdana" font-size="13" lengthAdjust="spacing" textLength="29.9165" x="816.47" y="289.4931">- .git</text><text fill="#000000" font-family="Verdana" font-size="13" lengthAdjust="spacing" textLength="82.0625" x="816.47" y="304.626">- config.toml</text><text fill="#000000" font-family="Verdana" font-size="13" lengthAdjust="spacing" textLength="36.8862" x="816.47" y="319.7588">- .env</text><path d="M1852.77,201.8894 L1852.77,240.7214 L1427.0366,347.2109 L1852.77,248.7214 L1852.77,287.5534 A0,0 0 0 0 1852.77,287.5534 L1988.2944,287.5534 A0,0 0 0 0 1988.2944,287.5534 L1988.2944,211.8894 L1978.2944,201.8894 L1852.77,201.8894 A0,0 0 0 0 1852.77,201.8894" fill="#FFFFFF" style="stroke:#000000;stroke-width:1;"/><path d="M1978.2944,201.8894 L1978.2944,211.8894 L1988.2944,211.8894 L1978.2944,201.8894" fill="#FFFFFF" style="stroke:#000000;stroke-width:1;"/><text fill="#000000" font-family="Verdana" font-size="13" lengthAdjust="spacing" textLength="56.9956" x="1858.77" y="218.9563">Handles:</text><text fill="#000000" font-family="Verdana" font-size="13" lengthAdjust="spacing" textLength="114.5244" x="1858.77" y="234.0891">- key=value pairs</text><text fill="#000000" font-family="Verdana" font-size="13" lengthAdjust="spacing" textLength="104.457" x="1858.77" y="249.2219">- Comments (#)</text><text fill="#000000" font-family="Verdana" font-size="13" lengthAdjust="spacing" textLength="103.0098" x="1858.77" y="264.3547">- Quoted values</text><text fill="#000000" font-family="Verdana" font-size="13" lengthAdjust="spacing" textLength="85.1094" x="1858.77" y="279.4875">- Empty lines</text><g class="entity" data-entity="GMN8" data-source-line="109" data-uid="ent0009" id="entity_GMN8"><path d="M282.69,500.8394 L282.69,556.2378 A0,0 0 0 0 282.69,556.2378 L504.3775,556.2378 A0,0 0 0 0 504.3775,556.2378 L504.3775,510.8394 L494.3775,500.8394 L397.53,500.8394 L393.53,410.5494 L389.53,500.8394 L282.69,500.8394 A0,0 0 0 0 282.69,500.8394" fill="#FFFFFF" style="stroke:#000000;stroke-width:1;"/><path d="M494.3775,500.8394 L494.3775,510.8394 L504.3775,510.8394 L494.3775,500.8394" fill="#FFFFFF" style="stroke:#000000;stroke-width:1;"/><text fill="#000000" font-family="Verdana" font-size="13" font-weight="bold" lengthAdjust="spacing" textLength="164.0107" x="288.69" y="517.9063">Thread-Safe Singleton</text><text fill="#000000" font-family="Verdana" font-size="13" lengthAdjust="spacing" textLength="159.0024" x="288.69" y="533.0391">_initialized flag prevents</text><text fill="#000000" font-family="Verdana" font-size="13" lengthAdjust="spacing" textLength="200.6875" x="288.69" y="548.1719">re-initialization race conditions</text></g><g class="entity" data-entity="GMN11" data-source-line="115" data-uid="ent0012" id="entity_GMN11"><path d="M1349.69,500.8394 L1349.69,556.2378 A0,0 0 0 0 1349.69,556.2378 L1571.3775,556.2378 A0,0 0 0 0 1571.3775,556.2378 L1571.3775,510.8394 L1561.3775,500.8394 L1464.53,500.8394 L1460.53,441.0894 L1456.53,500.8394 L1349.69,500.8394 A0,0 0 0 0 1349.69,500.8394" fill="#FFFFFF" style="stroke:#000000;stroke-width:1;"/><path d="M1561.3775,500.8394 L1561.3775,510.8394 L1571.3775,510.8394 L1561.3775,500.8394" fill="#FFFFFF" style="stroke:#000000;stroke-width:1;"/><text fill="#000000" font-family="Verdana" font-size="13" font-weight="bold" lengthAdjust="spacing" textLength="164.0107" x="1355.69" y="517.9063">Thread-Safe Singleton</text><text fill="#000000" font-family="Verdana" font-size="13" lengthAdjust="spacing" textLength="159.0024" x="1355.69" y="533.0391">_initialized flag prevents</text><text fill="#000000" font-family="Verdana" font-size="13" lengthAdjust="spacing" textLength="200.6875" x="1355.69" y="548.1719">re-initialization race conditions</text></g><!--SRC=[lLRVJzim47xlNt4JBqqXtPuhxG41qv1WR6DlgB9SvvfwTUpCTZewnF- -ivEcIIa81behLRdVd-_kS_hEBx10A1MNUk2MKfVSyW9cN2npQogTdHXbB1nyEWlVZeTGtBbZxwsSLHxFXT7NyW_2Xy70IwyGJeoUoxoot4kZuT9aLL2683YLFASKWq7C0J-kBYyk3C_Gmjq0w7FdF4M9UqYPrFIi1KxWgWo9kBhPkayVUailkI8SsGHcngZeS9ZXhCfx2kdA2S5mPPHJ9Y9OvasXEfLEfV0tpjiZEDRhwRJnBQtvYS8pQuplE7_bVb6xr3KOq_YRiQ5GBkaSSMCCKCdQG6kp18pJ1BuOZKsvkTHPh-OmWL2hCJlaLYnO9YtPZLspkR4Ket3OgYRH_mY2LlE2UXdF92fhKNkMOUaN4v3Q7q71Rpjoikzq3Q9OOYVZCw8F5NKXzdb8G0KoYq5J3oTWScHZ9Gyvsd1AJZtfJwEJhJEyDqcQeu_9s8gh2eUZ9QvTSy8CvxnID7RoJiBFDg91yUmOeMXoJ72nm65du37Nld7VR-XofbSlO4lh_NPaGRsYOrgtbocXhQzXIeltfKH9ZuMNAuGmUQbpsa3O1ATfFna8hfIBdl4mSPUJL_2DaZoas-lujSNrE8rQdtrRNw3DaHaNlAGr-cLi2F9cYZHgtDOA3tLmWBCt9kvmlIM13CI5NIhirEs9lHG1UH6wI0id-OpgRnvOU_4auQUEucMfraJUphbxvFe7qcdZ4QpC5nxCl7EHJoRDtbA6yw9K660wkARTK-ZfbKTDycWrcR-Zhwnsu0WnR3WAv88hjEkuZGFK6OHIJnPyi9kK_3ek93gW9Q3ziaiaPf8-XSm84b9XYj8u7AzveQBUug-AbZNY7VjR7vNXXKyOtaTXdCjQMrzgut0RrWPgwgDGM-eIqlxIKEndhZE53JBQY8znDwX9qhgeEp55tS7XGH8LtohAda7qgrtEYjAlGKbDyWw8cV44ijymYXcDVYmiyYozvdFSpcOq8blt0eIvuZcKbWP24CXeCMtDzJyOosbcr8zC1l490DqRx7_K_mi0]--></g></svg>