<svg xmlns="http://www.w3.org/2000/svg" xmlns:xlink="http://www.w3.org/1999/xlink" contentStyleType="text/css" data-diagram-type="DESCRIPTION" height="588px" preserveAspectRatio="none" style="width:1026px;height:588px;background:#FEFEFE;" version="1.1" viewBox="0 0 1026 588" width="1026px" zoomAndPan="magnify"><title>Configuration Module Architecture</title><defs/><g><rect fill="#FEFEFE" height="588" style="stroke:none;stroke-width:1;" width="1026" x="0" y="0"/><g class="title" data-source-line="38"><text fill="#000000" font-family="Verdana" font-size="22" font-weight="bold" lengthAdjust="spacing" textLength="430.7188" x="293.3283" y="35.4209">Configuration Module Architecture</text></g><!--cluster backend/src/config/--><g class="cluster" data-entity="backend.src.config." data-source-line="40" data-uid="ent0002" id="cluster_backend.src.config."><path d="M285.5,193.9094 L440.7324,193.9094 A3.75,3.75 0 0 1 443.2324,196.4094 L450.2324,216.2062 L590.5,216.2062 A2.5,2.5 0 0 1 593,218.7062 L593,409.1194 A2.5,2.5 0 0 1 590.5,411.6194 L285.5,411.6194 A2.5,2.5 0 0 1 283,409.1194 L283,196.4094 A2.5,2.5 0 0 1 285.5,193.9094" fill="#FFFFFF" style="stroke:#000000;stroke-width:1;"/><line style="stroke:#000000;stroke-width:1;" x1="283" x2="450.2324" y1="216.2062" y2="216.2062"/><text fill="#000000" font-family="Verdana" font-size="14" font-weight="bold" lengthAdjust="spacing" textLength="154.2324" x="287" y="208.9045">backend/src/config/</text></g><!--cluster Application Code--><g class="cluster" data-entity="Application Code" data-source-line="46" data-uid="ent0006" id="cluster_Application Code"><path d="M213.5,57.6094 L348.0811,57.6094 A3.75,3.75 0 0 1 350.5811,60.1094 L357.5811,79.9063 L626.5,79.9063 A2.5,2.5 0 0 1 629,82.4063 L629,142.4094 A2.5,2.5 0 0 1 626.5,144.9094 L213.5,144.9094 A2.5,2.5 0 0 1 211,142.4094 L211,60.1094 A2.5,2.5 0 0 1 213.5,57.6094" fill="#FFFFFF" style="stroke:#000000;stroke-width:1;"/><line style="stroke:#000000;stroke-width:1;" x1="211" x2="357.5811" y1="79.9063" y2="79.9063"/><text fill="#000000" font-family="Verdana" font-size="14" font-weight="bold" lengthAdjust="spacing" textLength="133.5811" x="215" y="72.6045">Application Code</text></g><!--cluster File System--><g class="cluster" data-entity="File System" data-source-line="52" data-uid="ent0010" id="cluster_File System"><path d="M13.5,475.7294 L106.3477,475.7294 A3.75,3.75 0 0 1 108.8477,478.2294 L115.8477,498.0262 L374.5,498.0262 A2.5,2.5 0 0 1 377,500.5262 L377,578.5294 A2.5,2.5 0 0 1 374.5,581.0294 L13.5,581.0294 A2.5,2.5 0 0 1 11,578.5294 L11,478.2294 A2.5,2.5 0 0 1 13.5,475.7294" fill="#FFFFFF" style="stroke:#000000;stroke-width:1;"/><line style="stroke:#000000;stroke-width:1;" x1="11" x2="115.8477" y1="498.0262" y2="498.0262"/><text fill="#000000" font-family="Verdana" font-size="14" font-weight="bold" lengthAdjust="spacing" textLength="91.8477" x="15" y="490.7245">File System</text></g><!--cluster Python stdlib/packages--><g class="cluster" data-entity="Python stdlib.packages" data-source-line="58" data-uid="ent0014" id="cluster_Python stdlib.packages"><path d="M416.5,484.7294 L602.1592,484.7294 A3.75,3.75 0 0 1 604.6592,487.2294 L611.6592,507.0262 L785.5,507.0262 A2.5,2.5 0 0 1 788,509.5262 L788,569.5294 A2.5,2.5 0 0 1 785.5,572.0294 L416.5,572.0294 A2.5,2.5 0 0 1 414,569.5294 L414,487.2294 A2.5,2.5 0 0 1 416.5,484.7294" fill="#FFFFFF" style="stroke:#000000;stroke-width:1;"/><line style="stroke:#000000;stroke-width:1;" x1="414" x2="611.6592" y1="507.0262" y2="507.0262"/><text fill="#000000" font-family="Verdana" font-size="14" font-weight="bold" lengthAdjust="spacing" textLength="184.6592" x="418" y="499.7245">Python stdlib/packages</text></g><!--entity init--><g class="entity" data-entity="init" data-source-line="41" data-uid="ent0003" id="entity_init"><rect fill="#FFFFFF" height="36.2969" rx="2.5" ry="2.5" style="stroke:#000000;stroke-width:1;" width="63.7637" x="404.12" y="228.9094"/><text fill="#000000" font-family="Verdana" font-size="14" lengthAdjust="spacing" text-decoration="underline" textLength="22.1416" x="414.12" y="251.9045">init</text><text fill="#000000" font-family="Verdana" font-size="14" lengthAdjust="spacing" textLength="21.6221" x="436.2616" y="251.9045">.py</text></g><!--entity toml--><g class="entity" data-entity="toml" data-source-line="42" data-uid="ent0004" id="entity_toml"><rect fill="#FFFFFF" height="36.2969" rx="2.5" ry="2.5" style="stroke:#000000;stroke-width:1;" width="124.4941" x="452.75" y="359.3194"/><text fill="#000000" font-family="Verdana" font-size="14" lengthAdjust="spacing" textLength="104.4941" x="462.75" y="382.3145">toml_loader.py</text></g><!--entity env--><g class="entity" data-entity="env" data-source-line="43" data-uid="ent0005" id="entity_env"><rect fill="#FFFFFF" height="36.2969" rx="2.5" ry="2.5" style="stroke:#000000;stroke-width:1;" width="118.6836" x="298.66" y="359.3194"/><text fill="#000000" font-family="Verdana" font-size="14" lengthAdjust="spacing" textLength="98.6836" x="308.66" y="382.3145">env_loader.py</text></g><!--entity constants--><g class="entity" data-entity="constants" data-source-line="47" data-uid="ent0007" id="entity_constants"><rect fill="#FFFFFF" height="36.2969" rx="2.5" ry="2.5" style="stroke:#000000;stroke-width:1;" width="109.7764" x="227.11" y="92.6094"/><text fill="#000000" font-family="Verdana" font-size="14" lengthAdjust="spacing" textLength="89.7764" x="237.11" y="115.6045">constants.py</text></g><!--entity server--><g class="entity" data-entity="server" data-source-line="48" data-uid="ent0008" id="entity_server"><rect fill="#FFFFFF" height="36.2969" rx="2.5" ry="2.5" style="stroke:#000000;stroke-width:1;" width="127.9189" x="372.04" y="92.6094"/><text fill="#000000" font-family="Verdana" font-size="14" lengthAdjust="spacing" textLength="107.9189" x="382.04" y="115.6045">server_main.py</text></g><!--entity services--><g class="entity" data-entity="services" data-source-line="49" data-uid="ent0009" id="entity_services"><rect fill="#FFFFFF" height="36.2969" rx="2.5" ry="2.5" style="stroke:#000000;stroke-width:1;" width="77.4424" x="535.28" y="92.6094"/><text fill="#000000" font-family="Verdana" font-size="14" lengthAdjust="spacing" textLength="57.4424" x="545.28" y="115.6045">services</text></g><!--entity config_file--><g class="entity" data-entity="config_file" data-source-line="53" data-uid="ent0011" id="entity_config_file"><path d="M262.56,525.2294 C262.56,515.2294 311.9965,515.2294 311.9965,515.2294 C311.9965,515.2294 361.433,515.2294 361.433,525.2294 L361.433,550.5262 C361.433,560.5262 311.9965,560.5262 311.9965,560.5262 C311.9965,560.5262 262.56,560.5262 262.56,550.5262 L262.56,525.2294" fill="#FFFFFF" style="stroke:#000000;stroke-width:1;"/><path d="M262.56,525.2294 C262.56,535.2294 311.9965,535.2294 311.9965,535.2294 C311.9965,535.2294 361.433,535.2294 361.433,525.2294" fill="none" style="stroke:#000000;stroke-width:1;"/><text fill="#000000" font-family="Verdana" font-size="14" lengthAdjust="spacing" textLength="78.873" x="272.56" y="552.2245">config.toml</text></g><!--entity env_file--><g class="entity" data-entity="env_file" data-source-line="54" data-uid="ent0012" id="entity_env_file"><path d="M26.89,525.2294 C26.89,515.2294 52.0008,515.2294 52.0008,515.2294 C52.0008,515.2294 77.1117,515.2294 77.1117,525.2294 L77.1117,550.5262 C77.1117,560.5262 52.0008,560.5262 52.0008,560.5262 C52.0008,560.5262 26.89,560.5262 26.89,550.5262 L26.89,525.2294" fill="#FFFFFF" style="stroke:#000000;stroke-width:1;"/><path d="M26.89,525.2294 C26.89,535.2294 52.0008,535.2294 52.0008,535.2294 C52.0008,535.2294 77.1117,535.2294 77.1117,525.2294" fill="none" style="stroke:#000000;stroke-width:1;"/><text fill="#000000" font-family="Verdana" font-size="14" lengthAdjust="spacing" textLength="30.2217" x="36.89" y="552.2245">.env</text></g><!--entity root--><g class="entity" data-entity="root" data-source-line="55" data-uid="ent0013" id="entity_root"><path d="M114.87,510.7294 L155.87,510.7294 A3.75,3.75 0 0 1 158.37,513.2294 L165.37,531.7294 L225.121,531.7294 A2.5,2.5 0 0 1 227.621,534.2294 L227.621,562.5262 A2.5,2.5 0 0 1 225.121,565.0262 L114.87,565.0262 A2.5,2.5 0 0 1 112.37,562.5262 L112.37,513.2294 A2.5,2.5 0 0 1 114.87,510.7294" fill="#FFFFFF" style="stroke:#000000;stroke-width:1;"/><line style="stroke:#000000;stroke-width:1;" x1="112.37" x2="165.37" y1="531.7294" y2="531.7294"/><text fill="#000000" font-family="Verdana" font-size="14" lengthAdjust="spacing" textLength="85.251" x="122.37" y="551.7245">Project Root</text></g><!--entity tomli--><g class="entity" data-entity="tomli" data-source-line="59" data-uid="ent0015" id="entity_tomli"><rect fill="#FFFFFF" height="36.2969" rx="2.5" ry="2.5" style="stroke:#000000;stroke-width:1;" width="108.4365" x="663.78" y="519.7294"/><text fill="#000000" font-family="Verdana" font-size="14" lengthAdjust="spacing" textLength="88.4365" x="673.78" y="542.7245">tomllib/tomli</text></g><!--entity pathlib--><g class="entity" data-entity="pathlib" data-source-line="60" data-uid="ent0016" id="entity_pathlib"><rect fill="#FFFFFF" height="36.2969" rx="2.5" ry="2.5" style="stroke:#000000;stroke-width:1;" width="68.4941" x="429.75" y="519.7294"/><text fill="#000000" font-family="Verdana" font-size="14" lengthAdjust="spacing" textLength="48.4941" x="439.75" y="542.7245">pathlib</text></g><!--entity logger--><g class="entity" data-entity="logger" data-source-line="61" data-uid="ent0017" id="entity_logger"><rect fill="#FFFFFF" height="36.2969" rx="2.5" ry="2.5" style="stroke:#000000;stroke-width:1;" width="95.9746" x="533.01" y="519.7294"/><text fill="#000000" font-family="Verdana" font-size="14" lengthAdjust="spacing" textLength="75.9746" x="543.01" y="542.7245">display_tty</text></g><g class="entity" data-entity="GMN32" data-source-line="84" data-uid="ent0033" id="entity_GMN32"><path d="M828.62,342.1994 L828.62,412.7306 L1019.3754,412.7306 L1019.3754,352.1994 L1009.3754,342.1994 L828.62,342.1994" fill="#FFFFFF" style="stroke:#000000;stroke-width:1;"/><path d="M1009.3754,342.1994 L1009.3754,352.1994 L1019.3754,352.1994 L1009.3754,342.1994" fill="#FFFFFF" style="stroke:#000000;stroke-width:1;"/><text fill="#000000" font-family="Verdana" font-size="13" font-weight="bold" lengthAdjust="spacing" textLength="129.7905" x="834.62" y="359.2663">Singleton Pattern</text><text fill="#000000" font-family="Verdana" font-size="13" lengthAdjust="spacing" textLength="166.8101" x="834.62" y="374.3991">- Caches config.toml data</text><text fill="#000000" font-family="Verdana" font-size="13" lengthAdjust="spacing" textLength="150.7886" x="834.62" y="389.5319">- Smart path resolution</text><text fill="#000000" font-family="Verdana" font-size="13" lengthAdjust="spacing" textLength="169.7554" x="834.62" y="404.6647">- Thread-safe initialization</text></g><g class="entity" data-entity="GMN35" data-source-line="91" data-uid="ent0036" id="entity_GMN35"><path d="M612.41,342.1994 L612.41,412.7306 L793.5995,412.7306 L793.5995,352.1994 L783.5995,342.1994 L612.41,342.1994" fill="#FFFFFF" style="stroke:#000000;stroke-width:1;"/><path d="M783.5995,342.1994 L783.5995,352.1994 L793.5995,352.1994 L783.5995,342.1994" fill="#FFFFFF" style="stroke:#000000;stroke-width:1;"/><text fill="#000000" font-family="Verdana" font-size="13" font-weight="bold" lengthAdjust="spacing" textLength="129.7905" x="618.41" y="359.2663">Singleton Pattern</text><text fill="#000000" font-family="Verdana" font-size="13" lengthAdjust="spacing" textLength="151.5693" x="618.41" y="374.3991">- Caches .env variables</text><text fill="#000000" font-family="Verdana" font-size="13" lengthAdjust="spacing" textLength="160.1895" x="618.41" y="389.5319">- Merges with os.environ</text><text fill="#000000" font-family="Verdana" font-size="13" lengthAdjust="spacing" textLength="108.8877" x="618.41" y="404.6647">- Quote handling</text></g><!--link init to toml--><g class="link" data-entity-1="init" data-entity-2="toml" data-source-line="64" data-uid="lnk18" id="link_init_toml"><path d="M446.82,265.6394 C461.95,290.2294 486.1052,329.5096 501.1652,353.9796" fill="none" id="init-to-toml" style="stroke:#000000;stroke-width:1;stroke-dasharray:7,7;"/><polygon fill="#000000" points="504.31,359.0894,502.9993,349.3281,501.6893,354.8312,496.1862,353.5212,504.31,359.0894" style="stroke:#000000;stroke-width:1;"/><text fill="#000000" font-family="Verdana" font-size="13" lengthAdjust="spacing" textLength="49.1118" x="474.13" y="308.2663">exports</text></g><!--link init to env--><g class="link" data-entity-1="init" data-entity-2="env" data-source-line="65" data-uid="lnk19" id="link_init_env"><path d="M423.8,265.2994 C417.69,274.1294 410.26,285.1194 404,295.1994 C390.57,316.8294 379.172,337.216 370.152,353.836" fill="none" id="init-to-env" style="stroke:#000000;stroke-width:1;stroke-dasharray:7,7;"/><polygon fill="#000000" points="367.29,359.1094,375.0986,353.1072,369.675,354.7149,368.0674,349.2912,367.29,359.1094" style="stroke:#000000;stroke-width:1;"/><text fill="#000000" font-family="Verdana" font-size="13" lengthAdjust="spacing" textLength="49.1118" x="405" y="308.2663">exports</text></g><!--link toml to tomli--><g class="link" data-entity-1="toml" data-entity-2="tomli" data-source-line="67" data-uid="lnk20" id="link_toml_tomli"><path d="M550.8,395.9994 C573.35,407.7894 602.53,424.4894 626,442.7294 C656.31,466.2994 682.5577,494.9217 699.7077,514.9517" fill="none" id="toml-to-tomli" style="stroke:#000000;stroke-width:1;"/><polygon fill="#000000" points="703.61,519.5094,700.795,510.0714,700.3581,515.7114,694.7181,515.2745,703.61,519.5094" style="stroke:#000000;stroke-width:1;"/><text fill="#000000" font-family="Verdana" font-size="13" lengthAdjust="spacing" textLength="29.7832" x="646.25" y="455.7963">uses</text></g><!--link toml to pathlib--><g class="link" data-entity-1="toml" data-entity-2="pathlib" data-source-line="68" data-uid="lnk21" id="link_toml_pathlib"><path d="M527.56,396.0594 C538.36,413.5494 550.27,440.4794 537,459.7294 C531.33,467.9594 523.98,461.7294 516,467.7294 C497.52,481.6394 485.4832,498.6625 476.4132,514.1425" fill="none" id="toml-to-pathlib" style="stroke:#000000;stroke-width:1;"/><polygon fill="#000000" points="473.38,519.3194,481.381,513.5762,475.9077,515.0053,474.4786,509.532,473.38,519.3194" style="stroke:#000000;stroke-width:1;"/><text fill="#000000" font-family="Verdana" font-size="13" lengthAdjust="spacing" textLength="29.7832" x="543.68" y="455.7963">uses</text></g><!--link toml to logger--><g class="link" data-entity-1="toml" data-entity-2="logger" data-source-line="69" data-uid="lnk22" id="link_toml_logger"><path d="M542.09,396.0994 C556.89,407.4394 573.84,423.6094 582,442.7294 C592.64,467.6894 590.2141,493.9814 586.3841,513.5214" fill="none" id="toml-to-logger" style="stroke:#000000;stroke-width:1;"/><polygon fill="#000000" points="585.23,519.4094,590.8864,511.3468,586.1917,514.5027,583.0358,509.808,585.23,519.4094" style="stroke:#000000;stroke-width:1;"/><text fill="#000000" font-family="Verdana" font-size="13" lengthAdjust="spacing" textLength="29.7832" x="588.05" y="455.7963">uses</text></g><!--link toml to config_file--><g class="link" data-entity-1="toml" data-entity-2="config_file" data-source-line="70" data-uid="lnk23" id="link_toml_config_file"><path d="M489.74,396.0494 C471.75,408.7294 447.11,426.4194 426,442.7294 C394.92,466.7494 364.8439,491.7961 341.9939,511.1961" fill="none" id="toml-to-config_file" style="stroke:#000000;stroke-width:1;stroke-dasharray:7,7;"/><polygon fill="#000000" points="337.42,515.0794,346.8696,512.3037,341.2315,511.8433,341.6919,506.2052,337.42,515.0794" style="stroke:#000000;stroke-width:1;"/><text fill="#000000" font-family="Verdana" font-size="13" lengthAdjust="spacing" textLength="34.5566" x="427" y="455.7963">loads</text></g><!--link env to pathlib--><g class="link" data-entity-1="env" data-entity-2="pathlib" data-source-line="72" data-uid="lnk24" id="link_env_pathlib"><path d="M351.68,396.0394 C346.51,413.7694 341.96,441.1194 355,459.7294 C360.97,468.2494 367.92,462.6494 377,467.7294 C402.76,482.1494 424.3737,499.9897 441.1537,515.2697" fill="none" id="env-to-pathlib" style="stroke:#000000;stroke-width:1;"/><polygon fill="#000000" points="445.59,519.3094,441.6287,510.2923,441.8931,515.9429,436.2424,516.2073,445.59,519.3094" style="stroke:#000000;stroke-width:1;"/><text fill="#000000" font-family="Verdana" font-size="13" lengthAdjust="spacing" textLength="29.7832" x="356" y="455.7963">uses</text></g><!--link env to logger--><g class="link" data-entity-1="env" data-entity-2="logger" data-source-line="73" data-uid="lnk25" id="link_env_logger"><path d="M386.19,396.0394 C414.11,413.1494 458.33,439.4794 498,459.7294 C505.8,463.7094 508.86,462.6694 516,467.7294 C536.56,482.3194 552.0224,499.4757 564.1424,514.6957" fill="none" id="env-to-logger" style="stroke:#000000;stroke-width:1;"/><polygon fill="#000000" points="567.88,519.3894,565.4026,509.8572,564.7653,515.478,559.1445,514.8407,567.88,519.3894" style="stroke:#000000;stroke-width:1;"/><text fill="#000000" font-family="Verdana" font-size="13" lengthAdjust="spacing" textLength="29.7832" x="499" y="455.7963">uses</text></g><!--link env to env_file--><g class="link" data-entity-1="env" data-entity-2="env_file" data-source-line="74" data-uid="lnk26" id="link_env_env_file"><path d="M298.48,383.1694 C221.02,390.6194 91.88,407.9794 61,442.7294 C43.66,462.2494 43.536,487.9005 46.576,509.0405" fill="none" id="env-to-env_file" style="stroke:#000000;stroke-width:1;stroke-dasharray:7,7;"/><polygon fill="#000000" points="47.43,514.9794,50.1082,505.5017,46.7183,510.0303,42.1897,506.6404,47.43,514.9794" style="stroke:#000000;stroke-width:1;"/><text fill="#000000" font-family="Verdana" font-size="13" lengthAdjust="spacing" textLength="34.5566" x="62" y="455.7963">loads</text></g><!--link constants to init--><g class="link" data-entity-1="constants" data-entity-2="init" data-source-line="76" data-uid="lnk27" id="link_constants_init"><path d="M302.13,129.3094 C331.65,155.0494 381.8284,198.8054 411.3384,224.5454" fill="none" id="constants-to-init" style="stroke:#000000;stroke-width:1;"/><polygon fill="#000000" points="415.86,228.4894,411.7069,219.559,412.092,225.2027,406.4482,225.5878,415.86,228.4894" style="stroke:#000000;stroke-width:1;"/><text fill="#000000" font-family="Verdana" font-size="13" lengthAdjust="spacing" textLength="49.6958" x="355.38" y="173.9763">imports</text></g><!--link server to init--><g class="link" data-entity-1="server" data-entity-2="init" data-source-line="77" data-uid="lnk28" id="link_server_init"><path d="M436,129.3094 C436,155.0494 436,196.7494 436,222.4894" fill="none" id="server-to-init" style="stroke:#000000;stroke-width:1;"/><polygon fill="#000000" points="436,228.4894,440,219.4894,436,223.4894,432,219.4894,436,228.4894" style="stroke:#000000;stroke-width:1;"/><text fill="#000000" font-family="Verdana" font-size="13" lengthAdjust="spacing" textLength="49.6958" x="437" y="173.9763">imports</text></g><!--link services to init--><g class="link" data-entity-1="services" data-entity-2="init" data-source-line="78" data-uid="lnk29" id="link_services_init"><path d="M555.96,129.3094 C529.51,155.0494 484.8,198.5648 458.35,224.3048" fill="none" id="services-to-init" style="stroke:#000000;stroke-width:1;"/><polygon fill="#000000" points="454.05,228.4894,463.2896,225.0792,457.6333,225.0023,457.7102,219.3459,454.05,228.4894" style="stroke:#000000;stroke-width:1;"/><text fill="#000000" font-family="Verdana" font-size="13" lengthAdjust="spacing" textLength="49.6958" x="522.42" y="173.9763">imports</text></g><!--link toml to root--><g class="link" data-entity-1="toml" data-entity-2="root" data-source-line="80" data-uid="lnk30" id="link_toml_root"><path d="M486.77,396.0294 C471.9,404.4894 453.04,413.9894 435,419.6194 C359.27,443.2494 328.57,406.4894 258,442.7294 C227.75,458.2694 205.8679,504.6531 190.2579,526.6931" fill="none" id="toml-to-root" style="stroke:#000000;stroke-width:1;stroke-dasharray:7,7;"/><polygon fill="#000000" points="186.79,531.5894,195.256,526.5568,189.6799,527.5091,188.7276,521.933,186.79,531.5894" style="stroke:#000000;stroke-width:1;"/><text fill="#000000" font-family="Verdana" font-size="13" lengthAdjust="spacing" textLength="80.2471" x="259" y="455.7963">searches for</text></g><!--link env to root--><g class="link" data-entity-1="env" data-entity-2="root" data-source-line="81" data-uid="lnk31" id="link_env_root"><path d="M298.28,385.6294 C232.73,394.8694 133.73,413.3294 111,442.7294 C94.25,464.3994 109.8102,486.9416 130.9302,506.3316" fill="none" id="env-to-root" style="stroke:#000000;stroke-width:1;stroke-dasharray:7,7;"/><polygon fill="#000000" points="135.35,510.3894,131.4255,501.3562,131.6668,507.0079,126.0151,507.2493,135.35,510.3894" style="stroke:#000000;stroke-width:1;"/><text fill="#000000" font-family="Verdana" font-size="13" lengthAdjust="spacing" textLength="80.2471" x="112" y="455.7963">searches for</text></g><!--link toml to GMN32--><g class="link" data-entity-1="toml" data-entity-2="GMN32" data-source-line="84" data-uid="lnk34" id="link_toml_GMN32"><path d="M531.93,359.0194 C549.89,340.9494 580.1,314.5794 612.5,303.6994 C688.76,278.0994 715.7,283.2394 793.5,303.6994 C822.32,311.2794 851.46,326.8394 874.88,341.7194" fill="none" id="toml-GMN32" style="stroke:#000000;stroke-width:1;stroke-dasharray:7,7;"/></g><!--link env to GMN35--><g class="link" data-entity-1="env" data-entity-2="GMN35" data-source-line="91" data-uid="lnk37" id="link_env_GMN35"><path d="M374.29,359.0394 C391.61,340.9694 420.81,314.5994 452.5,303.6994 C504.19,285.9194 522.7,289.5294 575.5,303.6994 C603.78,311.2894 632.27,326.8494 655.12,341.7294" fill="none" id="env-GMN35" style="stroke:#000000;stroke-width:1;stroke-dasharray:7,7;"/></g><!--SRC=[ZLFBZjim3BpxAzJq5Y39VGy55a7tja3Qz5OK1cFBDhkoQ4XqshJelvUK7EUnMw3smTOCfHbIv3lkR6_Du01z4L_G3n2WDmUeNjf0ew-tv2YOzqyVzRsAgAWVo5lFUpuvQuAj67phR54miW1RyWssOm16ykQPwb70nr1ro18w1WaSH0HQQnQgPdszYQ7QL6dVPc5-5qQUhsM97hairyFfcu5eT9KPfjwLZg2suKmgb4dhZtUS8CMVAz77ON1OPNjRgksiA0wYvCBnl7C6CXzjEDfGzbAnSqI6BZHMDiw4BcwKdr1AiJz5jlrPj0Q60qGXS_vhpMGnYSkwR6JFNUHQCbfCcLtuXfmaRHQxGD-bqEOp4QUe83ytDdOdxYJtoBN3msQ2urm6TQ24Vd6kBcPo0Ew4JF3qduaQe_JIgMJEbN7Kjb8PqTMBC-lrXtICUJ3svq11QZhZaiOLNAImrIh7ep1Zb3hEwAJw2i-2Dx0UVbL6uRGpH48LtpZh3DyUfUXay-wOkJ_IhfJFWy4-vv5Rur-CziPRtCMuNfiGqOBCZWGt56OhRt659vPnnBPZGyrv8fRBFUfqibpu3fXjyCkbu2kpXRJrgkrIYoLktqFWL1sPxqXkr659p9SkMAXN4HgRh2Cu_9LcISpLHZtSEz7v-myZsjNc207Xu6nCpBCDqfZc1ueFYXg0OVBnQLID3hpqi6ylsdy1]--></g></svg>