<svg xmlns="http://www.w3.org/2000/svg" xmlns:xlink="http://www.w3.org/1999/xlink" contentStyleType="text/css" data-diagram-type="ACTIVITY" height="1988px" preserveAspectRatio="none" style="width:1369px;height:1988px;background:#FEFEFE;" version="1.1" viewBox="0 0 1369 1988" width="1369px" zoomAndPan="magnify"><title>Path Resolution Strategy</title><defs/><g><rect fill="#FEFEFE" height="1988" style="stroke:none;stroke-width:1;" width="1369" x="0" y="0"/><rect fill="#FFFFCC" height="49.9219" rx="2.5" ry="2.5" style="stroke:#FFDD88;stroke-width:3;" width="1358.4243" x="5" y="5"/><text fill="#000000" font-family="monospace" font-size="10" lengthAdjust="spacing" textLength="295.0049" x="10" y="20">The&#160;syntax&#160;using&#160;the&#160;/&#160;character&#160;is&#160;now&#160;obsolete.</text><text fill="#000000" font-family="monospace" font-size="10" lengthAdjust="spacing" textLength="258.8818" x="10" y="31.6406">Please&#160;use&#160;the&#160;&lt;&lt;save&gt;&gt;&#160;stereotype&#160;instead.</text><text fill="#000000" font-family="monospace" font-size="10" lengthAdjust="spacing" textLength="397.3535" x="10" y="43.2813">For&#160;more&#160;details,&#160;visit&#160;https://plantuml.com/activity-diagram-beta</text><g class="title" data-source-line="37"><text fill="#000000" font-family="Verdana" font-size="22" font-weight="bold" lengthAdjust="spacing" textLength="312.1572" x="519.6335" y="95.3428">Path Resolution Strategy</text></g><ellipse cx="360.342" cy="121.5313" fill="#FFFFFF" rx="10" ry="10" style="stroke:#000000;stroke-width:1;"/><rect fill="#FFFFFF" height="33.9688" rx="12.5" ry="12.5" style="stroke:#000000;stroke-width:1;" width="199.2793" x="260.7023" y="151.5313"/><text fill="#000000" font-family="Verdana" font-size="12" lengthAdjust="spacing" textLength="179.2793" x="270.7023" y="172.6699">Application calls load_config()</text><polygon fill="#FFFFFF" points="296.0849,205.5,424.5991,205.5,436.5991,217.5,424.5991,229.5,296.0849,229.5,284.0849,217.5,296.0849,205.5" style="stroke:#000000;stroke-width:1;"/><text fill="#000000" font-family="Verdana" font-size="11" lengthAdjust="spacing" textLength="128.5142" x="296.0849" y="221.3081">Custom path provided?</text><text fill="#000000" font-family="Verdana" font-size="11" lengthAdjust="spacing" textLength="19.0083" x="265.0766" y="214.9058">yes</text><text fill="#000000" font-family="Verdana" font-size="11" lengthAdjust="spacing" textLength="13.7017" x="436.5991" y="214.9058">no</text><rect fill="#FFFFFF" height="33.9688" rx="12.5" ry="12.5" style="stroke:#000000;stroke-width:1;" width="123.7051" x="54.8584" y="239.5"/><text fill="#000000" font-family="Verdana" font-size="12" lengthAdjust="spacing" textLength="103.7051" x="64.8584" y="260.6387">Use custom_path</text><rect fill="#FFFFFF" height="33.9688" rx="12.5" ry="12.5" style="stroke:#000000;stroke-width:1;" width="221.4219" x="6" y="308.4688"/><text fill="#000000" font-family="Verdana" font-size="12" lengthAdjust="spacing" textLength="201.4219" x="16" y="329.6074">config_path = Path(custom_path)</text><polygon fill="#FFFFFF" points="548.632,239.5,659.3141,239.5,671.3141,251.5,659.3141,263.5,548.632,263.5,536.632,251.5,548.632,239.5" style="stroke:#000000;stroke-width:1;"/><text fill="#000000" font-family="Verdana" font-size="11" lengthAdjust="spacing" textLength="110.6821" x="548.632" y="255.3081">--config in sys.argv?</text><text fill="#000000" font-family="Verdana" font-size="11" lengthAdjust="spacing" textLength="19.0083" x="517.6237" y="248.9058">yes</text><text fill="#000000" font-family="Verdana" font-size="11" lengthAdjust="spacing" textLength="13.7017" x="671.3141" y="248.9058">no</text><rect fill="#FFFFFF" height="33.9688" rx="12.5" ry="12.5" style="stroke:#000000;stroke-width:1;" width="135.3066" x="308.8555" y="273.5"/><text fill="#000000" font-family="Verdana" font-size="12" lengthAdjust="spacing" textLength="115.3066" x="318.8555" y="294.6387">Get path from argv</text><rect fill="#FFFFFF" height="33.9688" rx="12.5" ry="12.5" style="stroke:#000000;stroke-width:1;" width="238.1738" x="257.4219" y="342.4688"/><text fill="#000000" font-family="Verdana" font-size="12" lengthAdjust="spacing" textLength="218.1738" x="267.4219" y="363.6074">config_path = sys.argv[--config + 1]</text><polygon fill="#FFFFFF" points="760.4502,273.5,902.4243,273.5,914.4243,285.5,902.4243,297.5,760.4502,297.5,748.4502,285.5,760.4502,273.5" style="stroke:#000000;stroke-width:1;"/><text fill="#000000" font-family="Verdana" font-size="11" lengthAdjust="spacing" textLength="141.9741" x="760.4502" y="289.3081">CONFIG_FILE env var set?</text><text fill="#000000" font-family="Verdana" font-size="11" lengthAdjust="spacing" textLength="19.0083" x="729.4419" y="282.9058">yes</text><text fill="#000000" font-family="Verdana" font-size="11" lengthAdjust="spacing" textLength="13.7017" x="914.4243" y="282.9058">no</text><rect fill="#FFFFFF" height="33.9688" rx="12.5" ry="12.5" style="stroke:#000000;stroke-width:1;" width="130.3906" x="592.2051" y="307.5"/><text fill="#000000" font-family="Verdana" font-size="12" lengthAdjust="spacing" textLength="110.3906" x="602.2051" y="328.6387">Get path from env</text><rect fill="#FFFFFF" height="33.9688" rx="12.5" ry="12.5" style="stroke:#000000;stroke-width:1;" width="263.6094" x="525.5957" y="376.4688"/><text fill="#000000" font-family="Verdana" font-size="12" lengthAdjust="spacing" textLength="243.6094" x="535.5957" y="397.6074">config_path = os.environ['CONFIG_FILE']</text><rect fill="#FFFFFF" height="33.9688" rx="12.5" ry="12.5" style="stroke:#000000;stroke-width:1;" width="151.0449" x="929.9517" y="307.5"/><text fill="#000000" font-family="Verdana" font-size="12" lengthAdjust="spacing" textLength="131.0449" x="939.9517" y="328.6387">Execute smart search</text><rect fill="#FFFFFF" height="1278.4297" style="stroke:#000000;stroke-width:1;" width="539.2192" x="809.2051" y="376.4688"/><path d="M987.4238,376.4688 L987.4238,385.7656 L977.4238,395.7656 L809.2051,395.7656" fill="none" style="stroke:#000000;stroke-width:1;"/><text fill="#000000" font-family="Verdana" font-size="14" lengthAdjust="spacing" textLength="168.2188" x="812.2051" y="390.4639">Smart Search Algorithm</text><path d="M1104.2954,412.7656 L1104.2954,459.1641 L1084.2954,463.1641 L1104.2954,467.1641 L1104.2954,513.5625 A0,0 0 0 0 1104.2954,513.5625 L1338.4243,513.5625 A0,0 0 0 0 1338.4243,513.5625 L1338.4243,422.7656 L1328.4243,412.7656 L1104.2954,412.7656 A0,0 0 0 0 1104.2954,412.7656" fill="#FFFFFF" style="stroke:#000000;stroke-width:1;"/><path d="M1328.4243,412.7656 L1328.4243,422.7656 L1338.4243,422.7656 L1328.4243,412.7656" fill="#FFFFFF" style="stroke:#000000;stroke-width:1;"/><text fill="#000000" font-family="Verdana" font-size="13" font-weight="bold" lengthAdjust="spacing" textLength="161.6685" x="1110.2954" y="429.8325">Search order changed</text><text fill="#000000" font-family="Verdana" font-size="13" lengthAdjust="spacing" textLength="4.3799" x="1271.9639" y="429.8325">:</text><text fill="#000000" font-family="Verdana" font-size="13" lengthAdjust="spacing" textLength="211.6499" x="1110.2954" y="444.9653">1. cwd (working directory) FIRST</text><text fill="#000000" font-family="Verdana" font-size="13" lengthAdjust="spacing" textLength="12.4033" x="1110.2954" y="460.0981">2.</text><text fill="#000000" font-family="Verdana" font-size="13" lengthAdjust="spacing" text-decoration="underline" textLength="19.7983" x="1126.8311" y="460.0981">file</text><text fill="#000000" font-family="Verdana" font-size="13" lengthAdjust="spacing" textLength="114.5752" x="1150.7617" y="460.0981">(module location)</text><text fill="#000000" font-family="Verdana" font-size="13" lengthAdjust="spacing" textLength="4.1323" x="1110.2954" y="475.231">&#160;</text><text fill="#000000" font-family="Verdana" font-size="13" lengthAdjust="spacing" textLength="188.7222" x="1110.2954" y="490.3638">Prevents incorrect root when</text><text fill="#000000" font-family="Verdana" font-size="13" lengthAdjust="spacing" textLength="213.1289" x="1110.2954" y="505.4966">marker names match directories</text><rect fill="#FFFFFF" height="33.9688" rx="12.5" ry="12.5" style="stroke:#000000;stroke-width:1;" width="157.6426" x="926.6528" y="446.1797"/><text fill="#000000" font-family="Verdana" font-size="12" lengthAdjust="spacing" textLength="115.5527" x="936.6528" y="467.3184">Start from cwd and</text><text fill="#000000" font-family="Verdana" font-size="12" lengthAdjust="spacing" text-decoration="underline" textLength="18.2754" x="1056.02" y="467.3184">file</text><rect fill="#FFFFFF" height="33.9688" rx="12.5" ry="12.5" style="stroke:#000000;stroke-width:1;" width="162.2539" x="924.3472" y="577.5625"/><text fill="#000000" font-family="Verdana" font-size="12" lengthAdjust="spacing" textLength="142.2539" x="934.3472" y="598.7012">Check current directory</text><rect fill="#FFFFFF" height="33.9688" rx="12.5" ry="12.5" style="stroke:#000000;stroke-width:1;" width="262.2676" x="874.3403" y="631.5313"/><text fill="#000000" font-family="Verdana" font-size="12" lengthAdjust="spacing" textLength="242.2676" x="884.3403" y="652.6699">Check parent directories (up to 5 levels)</text><polygon fill="#FFFFFF" points="935.0679,729.5,1085.8804,729.5,1075.8804,805.375,925.0679,805.375" style="stroke:#000000;stroke-width:1;"/><text fill="#000000" font-family="Verdana" font-size="12" lengthAdjust="spacing" textLength="105.9844" x="935.0679" y="750.6387">Look for markers:</text><text fill="#000000" font-family="Verdana" font-size="12" lengthAdjust="spacing" textLength="140.8125" x="935.0679" y="764.6074">- docker-compose.yaml</text><text fill="#000000" font-family="Verdana" font-size="12" lengthAdjust="spacing" textLength="109.2949" x="935.0679" y="778.5762">- requirements.txt</text><text fill="#000000" font-family="Verdana" font-size="12" lengthAdjust="spacing" textLength="59.2676" x="935.0679" y="792.5449">- backend</text><rect fill="#FFFFFF" height="33.9688" rx="12.5" ry="12.5" style="stroke:#000000;stroke-width:1;" width="39.4707" x="985.7388" y="825.375"/><text fill="#000000" font-family="Verdana" font-size="12" lengthAdjust="spacing" textLength="19.4707" x="995.7388" y="846.5137">.git</text><rect fill="#FFFFFF" height="33.9688" rx="12.5" ry="12.5" style="stroke:#000000;stroke-width:1;" width="87.6055" x="961.6714" y="879.3438"/><text fill="#000000" font-family="Verdana" font-size="12" lengthAdjust="spacing" textLength="67.6055" x="971.6714" y="900.4824">config.toml</text><rect fill="#FFFFFF" height="33.9688" rx="12.5" ry="12.5" style="stroke:#000000;stroke-width:1;" width="49.9473" x="980.5005" y="933.3125"/><text fill="#000000" font-family="Verdana" font-size="12" lengthAdjust="spacing" textLength="29.9473" x="990.5005" y="954.4512">.env;</text><rect fill="#FFFFFF" height="33.9688" rx="12.5" ry="12.5" style="stroke:#000000;stroke-width:1;" width="115.7539" x="947.5972" y="1035.6836"/><text fill="#000000" font-family="Verdana" font-size="12" lengthAdjust="spacing" textLength="95.7539" x="957.5972" y="1056.8223">Set project_root</text><rect fill="#FFFFFF" height="33.9688" rx="12.5" ry="12.5" style="stroke:#000000;stroke-width:1;" width="54.8516" x="978.0483" y="1104.6523"/><text fill="#000000" font-family="Verdana" font-size="12" lengthAdjust="spacing" textLength="34.8516" x="988.0483" y="1125.791">Break</text><polygon fill="#FFFFFF" points="965.8354,987.2813,1045.1128,987.2813,1057.1128,999.2813,1045.1128,1011.2813,965.8354,1011.2813,953.8354,999.2813,965.8354,987.2813" style="stroke:#000000;stroke-width:1;"/><text fill="#000000" font-family="Verdana" font-size="11" lengthAdjust="spacing" textLength="19.0083" x="1009.4741" y="1021.4917">yes</text><text fill="#000000" font-family="Verdana" font-size="11" lengthAdjust="spacing" textLength="79.2773" x="965.8354" y="1003.0894">Marker found?</text><polygon fill="#FFFFFF" points="1005.4741,1158.6211,1017.4741,1170.6211,1005.4741,1182.6211,993.4741,1170.6211,1005.4741,1158.6211" style="stroke:#000000;stroke-width:1;"/><polygon fill="#FFFFFF" points="1005.4741,685.5,1017.4741,697.5,1005.4741,709.5,993.4741,697.5,1005.4741,685.5" style="stroke:#000000;stroke-width:1;"/><polygon fill="#FFFFFF" points="964.3665,1202.6211,1046.5818,1202.6211,1058.5818,1214.6211,1046.5818,1226.6211,964.3665,1226.6211,952.3665,1214.6211,964.3665,1202.6211" style="stroke:#000000;stroke-width:1;"/><text fill="#000000" font-family="Verdana" font-size="11" lengthAdjust="spacing" textLength="82.2153" x="964.3665" y="1218.4292">More markers?</text><polygon fill="#FFFFFF" points="1005.4741,533.5625,1017.4741,545.5625,1005.4741,557.5625,993.4741,545.5625,1005.4741,533.5625" style="stroke:#000000;stroke-width:1;"/><polygon fill="#FFFFFF" points="951.543,1246.6211,1059.4053,1246.6211,1071.4053,1258.6211,1059.4053,1270.6211,951.543,1270.6211,939.543,1258.6211,951.543,1246.6211" style="stroke:#000000;stroke-width:1;"/><text fill="#000000" font-family="Verdana" font-size="11" lengthAdjust="spacing" textLength="107.8623" x="951.543" y="1262.4292">More search paths?</text><rect fill="#FFFFFF" height="33.9688" rx="12.5" ry="12.5" style="stroke:#000000;stroke-width:1;" width="115.8184" x="947.5649" y="1339.0234"/><text fill="#000000" font-family="Verdana" font-size="12" lengthAdjust="spacing" textLength="95.8184" x="957.5649" y="1360.1621">Use cwd as root</text><polygon fill="#FFFFFF" points="964.6672,1290.6211,1046.281,1290.6211,1058.281,1302.6211,1046.281,1314.6211,964.6672,1314.6211,952.6672,1302.6211,964.6672,1290.6211" style="stroke:#000000;stroke-width:1;"/><text fill="#000000" font-family="Verdana" font-size="11" lengthAdjust="spacing" textLength="19.0083" x="1009.4741" y="1324.8315">yes</text><text fill="#000000" font-family="Verdana" font-size="11" lengthAdjust="spacing" textLength="81.6138" x="964.6672" y="1306.4292">No root found?</text><polygon fill="#FFFFFF" points="1005.4741,1392.9922,1017.4741,1404.9922,1005.4741,1416.9922,993.4741,1404.9922,1005.4741,1392.9922" style="stroke:#000000;stroke-width:1;"/><rect fill="#FFFFFF" height="33.9688" rx="12.5" ry="12.5" style="stroke:#000000;stroke-width:1;" width="152.293" x="929.3276" y="1436.9922"/><text fill="#000000" font-family="Verdana" font-size="12" lengthAdjust="spacing" textLength="132.293" x="939.3276" y="1458.1309">Search in project_root</text><rect fill="#FFFFFF" height="33.9688" rx="12.5" ry="12.5" style="stroke:#000000;stroke-width:1;" width="306.9277" x="852.0103" y="1490.9609"/><text fill="#000000" font-family="Verdana" font-size="12" lengthAdjust="spacing" textLength="286.9277" x="862.0103" y="1512.0996">Recursively check subdirectories (max depth 3)</text><polygon fill="#FFFFFF" points="954.0566,1544.9297,1056.8916,1544.9297,1068.8916,1556.9297,1056.8916,1568.9297,954.0566,1568.9297,942.0566,1556.9297,954.0566,1544.9297" style="stroke:#000000;stroke-width:1;"/><text fill="#000000" font-family="Verdana" font-size="11" lengthAdjust="spacing" textLength="102.835" x="954.0566" y="1560.7378">config.toml found?</text><text fill="#000000" font-family="Verdana" font-size="11" lengthAdjust="spacing" textLength="19.0083" x="923.0483" y="1554.3354">yes</text><text fill="#000000" font-family="Verdana" font-size="11" lengthAdjust="spacing" textLength="13.7017" x="1068.8916" y="1554.3354">no</text><rect fill="#FFFFFF" height="33.9688" rx="12.5" ry="12.5" style="stroke:#000000;stroke-width:1;" width="175.3613" x="829.2051" y="1578.9297"/><text fill="#000000" font-family="Verdana" font-size="12" lengthAdjust="spacing" textLength="155.3613" x="839.2051" y="1600.0684">config_path = found_path</text><rect fill="#FFFFFF" height="33.9688" rx="12.5" ry="12.5" style="stroke:#000000;stroke-width:1;" width="138.9922" x="1024.5664" y="1578.9297"/><text fill="#000000" font-family="Verdana" font-size="12" lengthAdjust="spacing" textLength="118.9922" x="1034.5664" y="1600.0684">config_path = None</text><polygon fill="#FFFFFF" points="1005.4741,1618.8984,1017.4741,1630.8984,1005.4741,1642.8984,993.4741,1630.8984,1005.4741,1618.8984" style="stroke:#000000;stroke-width:1;"/><polygon fill="#FFFFFF" points="831.4373,1660.8984,843.4373,1672.8984,831.4373,1684.8984,819.4373,1672.8984,831.4373,1660.8984" style="stroke:#000000;stroke-width:1;"/><polygon fill="#FFFFFF" points="603.973,1690.8984,615.973,1702.8984,603.973,1714.8984,591.973,1702.8984,603.973,1690.8984" style="stroke:#000000;stroke-width:1;"/><polygon fill="#FFFFFF" points="360.342,1720.8984,372.342,1732.8984,360.342,1744.8984,348.342,1732.8984,360.342,1720.8984" style="stroke:#000000;stroke-width:1;"/><polygon fill="#FFFFFF" points="307.5361,1764.8984,413.1479,1764.8984,425.1479,1776.8984,413.1479,1788.8984,307.5361,1788.8984,295.5361,1776.8984,307.5361,1764.8984" style="stroke:#000000;stroke-width:1;"/><text fill="#000000" font-family="Verdana" font-size="11" lengthAdjust="spacing" textLength="105.6118" x="307.5361" y="1780.7065">config_path exists?</text><text fill="#000000" font-family="Verdana" font-size="11" lengthAdjust="spacing" textLength="19.0083" x="276.5278" y="1774.3042">yes</text><text fill="#000000" font-family="Verdana" font-size="11" lengthAdjust="spacing" textLength="13.7017" x="425.1479" y="1774.3042">no</text><rect fill="#FFFFFF" height="33.9688" rx="12.5" ry="12.5" style="stroke:#000000;stroke-width:1;" width="134.832" x="207.9059" y="1798.8984"/><text fill="#000000" font-family="Verdana" font-size="12" lengthAdjust="spacing" textLength="114.832" x="217.9059" y="1820.0371">Load and parse file</text><rect fill="#FFFFFF" height="33.9688" rx="12.5" ry="12.5" style="stroke:#000000;stroke-width:1;" width="95.3457" x="227.6491" y="1852.8672"/><text fill="#000000" font-family="Verdana" font-size="12" lengthAdjust="spacing" textLength="75.3457" x="237.6491" y="1874.0059">Cache result</text><rect fill="#FFFFFF" height="33.9688" rx="12.5" ry="12.5" style="stroke:#000000;stroke-width:1;" width="127.1738" x="211.735" y="1906.8359"/><text fill="#000000" font-family="Verdana" font-size="12" lengthAdjust="spacing" textLength="107.1738" x="221.735" y="1927.9746">Return config dict</text><ellipse cx="275.322" cy="1971.8047" fill="none" rx="11" ry="11" style="stroke:#000000;stroke-width:1;"/><ellipse cx="275.322" cy="1971.8047" fill="#FFFFFF" rx="6" ry="6" style="stroke:#000000;stroke-width:1;"/><rect fill="#FFFFFF" height="33.9688" rx="12.5" ry="12.5" style="stroke:#000000;stroke-width:1;" width="165.248" x="362.738" y="1798.8984"/><text fill="#000000" font-family="Verdana" font-size="12" lengthAdjust="spacing" textLength="145.248" x="372.738" y="1820.0371">Raise FileNotFoundError</text><ellipse cx="445.362" cy="1863.8672" fill="none" rx="11" ry="11" style="stroke:#000000;stroke-width:1;"/><ellipse cx="445.362" cy="1863.8672" fill="#FFFFFF" rx="6" ry="6" style="stroke:#000000;stroke-width:1;"/><line style="stroke:#000000;stroke-width:1;" x1="360.342" x2="360.342" y1="131.5313" y2="151.5313"/><polygon fill="#000000" points="356.342,141.5313,360.342,151.5313,364.342,141.5313,360.342,145.5313" style="stroke:#000000;stroke-width:1;"/><line style="stroke:#000000;stroke-width:1;" x1="116.7109" x2="116.7109" y1="273.4688" y2="308.4688"/><polygon fill="#000000" points="112.7109,298.4688,116.7109,308.4688,120.7109,298.4688,116.7109,302.4688" style="stroke:#000000;stroke-width:1;"/><line style="stroke:#000000;stroke-width:1;" x1="376.5088" x2="376.5088" y1="307.4688" y2="342.4688"/><polygon fill="#000000" points="372.5088,332.4688,376.5088,342.4688,380.5088,332.4688,376.5088,336.4688" style="stroke:#000000;stroke-width:1;"/><line style="stroke:#000000;stroke-width:1;" x1="657.4004" x2="657.4004" y1="341.4688" y2="376.4688"/><polygon fill="#000000" points="653.4004,366.4688,657.4004,376.4688,661.4004,366.4688,657.4004,370.4688" style="stroke:#000000;stroke-width:1;"/><line style="stroke:#000000;stroke-width:1;" x1="1005.4741" x2="1005.4741" y1="611.5313" y2="631.5313"/><polygon fill="#000000" points="1001.4741,621.5313,1005.4741,631.5313,1009.4741,621.5313,1005.4741,625.5313" style="stroke:#000000;stroke-width:1;"/><line style="stroke:#000000;stroke-width:1;" x1="1005.4741" x2="1005.4741" y1="805.375" y2="825.375"/><polygon fill="#000000" points="1001.4741,815.375,1005.4741,825.375,1009.4741,815.375,1005.4741,819.375" style="stroke:#000000;stroke-width:1;"/><line style="stroke:#000000;stroke-width:1;" x1="1005.4741" x2="1005.4741" y1="859.3438" y2="879.3438"/><polygon fill="#000000" points="1001.4741,869.3438,1005.4741,879.3438,1009.4741,869.3438,1005.4741,873.3438" style="stroke:#000000;stroke-width:1;"/><line style="stroke:#000000;stroke-width:1;" x1="1005.4741" x2="1005.4741" y1="913.3125" y2="933.3125"/><polygon fill="#000000" points="1001.4741,923.3125,1005.4741,933.3125,1009.4741,923.3125,1005.4741,927.3125" style="stroke:#000000;stroke-width:1;"/><line style="stroke:#000000;stroke-width:1;" x1="1005.4741" x2="1005.4741" y1="1069.6523" y2="1104.6523"/><polygon fill="#000000" points="1001.4741,1094.6523,1005.4741,1104.6523,1009.4741,1094.6523,1005.4741,1098.6523" style="stroke:#000000;stroke-width:1;"/><line style="stroke:#000000;stroke-width:1;" x1="1005.4741" x2="1005.4741" y1="1011.2813" y2="1035.6836"/><polygon fill="#000000" points="1001.4741,1025.6836,1005.4741,1035.6836,1009.4741,1025.6836,1005.4741,1029.6836" style="stroke:#000000;stroke-width:1;"/><line style="stroke:#000000;stroke-width:1;" x1="1057.1128" x2="1073.3511" y1="999.2813" y2="999.2813"/><polygon fill="#000000" points="1069.3511,1077.1523,1073.3511,1087.1523,1077.3511,1077.1523,1073.3511,1081.1523" style="stroke:#000000;stroke-width:1;"/><line style="stroke:#000000;stroke-width:1;" x1="1073.3511" x2="1073.3511" y1="999.2813" y2="1170.6211"/><line style="stroke:#000000;stroke-width:1;" x1="1073.3511" x2="1017.4741" y1="1170.6211" y2="1170.6211"/><polygon fill="#000000" points="1027.4741,1166.6211,1017.4741,1170.6211,1027.4741,1174.6211,1023.4741,1170.6211" style="stroke:#000000;stroke-width:1;"/><line style="stroke:#000000;stroke-width:1;" x1="1005.4741" x2="1005.4741" y1="1138.6211" y2="1158.6211"/><polygon fill="#000000" points="1001.4741,1148.6211,1005.4741,1158.6211,1009.4741,1148.6211,1005.4741,1152.6211" style="stroke:#000000;stroke-width:1;"/><line style="stroke:#000000;stroke-width:1;" x1="1005.4741" x2="1005.4741" y1="967.2813" y2="987.2813"/><polygon fill="#000000" points="1001.4741,977.2813,1005.4741,987.2813,1009.4741,977.2813,1005.4741,981.2813" style="stroke:#000000;stroke-width:1;"/><line style="stroke:#000000;stroke-width:1;" x1="1005.4741" x2="1005.4741" y1="709.5" y2="729.5"/><polygon fill="#000000" points="1001.4741,719.5,1005.4741,729.5,1009.4741,719.5,1005.4741,723.5" style="stroke:#000000;stroke-width:1;"/><line style="stroke:#000000;stroke-width:1;" x1="1058.5818" x2="1097.8804" y1="1214.6211" y2="1214.6211"/><polygon fill="#000000" points="1093.8804,953.2617,1097.8804,943.2617,1101.8804,953.2617,1097.8804,949.2617" style="stroke:#000000;stroke-width:1;"/><line style="stroke:#000000;stroke-width:1;" x1="1097.8804" x2="1097.8804" y1="697.5" y2="1214.6211"/><line style="stroke:#000000;stroke-width:1;" x1="1097.8804" x2="1017.4741" y1="697.5" y2="697.5"/><polygon fill="#000000" points="1027.4741,693.5,1017.4741,697.5,1027.4741,701.5,1023.4741,697.5" style="stroke:#000000;stroke-width:1;"/><line style="stroke:#000000;stroke-width:1;" x1="1005.4741" x2="1005.4741" y1="1182.6211" y2="1202.6211"/><polygon fill="#000000" points="1001.4741,1192.6211,1005.4741,1202.6211,1009.4741,1192.6211,1005.4741,1196.6211" style="stroke:#000000;stroke-width:1;"/><line style="stroke:#000000;stroke-width:1;" x1="1005.4741" x2="1005.4741" y1="665.5" y2="685.5"/><polygon fill="#000000" points="1001.4741,675.5,1005.4741,685.5,1009.4741,675.5,1005.4741,679.5" style="stroke:#000000;stroke-width:1;"/><line style="stroke:#000000;stroke-width:1;" x1="1005.4741" x2="1005.4741" y1="557.5625" y2="577.5625"/><polygon fill="#000000" points="1001.4741,567.5625,1005.4741,577.5625,1009.4741,567.5625,1005.4741,571.5625" style="stroke:#000000;stroke-width:1;"/><line style="stroke:#000000;stroke-width:1;" x1="1071.4053" x2="1148.6079" y1="1258.6211" y2="1258.6211"/><polygon fill="#000000" points="1144.6079,899.293,1148.6079,889.293,1152.6079,899.293,1148.6079,895.293" style="stroke:#000000;stroke-width:1;"/><line style="stroke:#000000;stroke-width:1;" x1="1148.6079" x2="1148.6079" y1="545.5625" y2="1258.6211"/><line style="stroke:#000000;stroke-width:1;" x1="1148.6079" x2="1017.4741" y1="545.5625" y2="545.5625"/><polygon fill="#000000" points="1027.4741,541.5625,1017.4741,545.5625,1027.4741,549.5625,1023.4741,545.5625" style="stroke:#000000;stroke-width:1;"/><line style="stroke:#000000;stroke-width:1;" x1="1005.4741" x2="1005.4741" y1="1226.6211" y2="1246.6211"/><polygon fill="#000000" points="1001.4741,1236.6211,1005.4741,1246.6211,1009.4741,1236.6211,1005.4741,1240.6211" style="stroke:#000000;stroke-width:1;"/><line style="stroke:#000000;stroke-width:1;" x1="1005.4741" x2="1005.4741" y1="480.1484" y2="533.5625"/><polygon fill="#000000" points="1001.4741,523.5625,1005.4741,533.5625,1009.4741,523.5625,1005.4741,527.5625" style="stroke:#000000;stroke-width:1;"/><line style="stroke:#000000;stroke-width:1;" x1="1005.4741" x2="1005.4741" y1="1314.6211" y2="1339.0234"/><polygon fill="#000000" points="1001.4741,1329.0234,1005.4741,1339.0234,1009.4741,1329.0234,1005.4741,1333.0234" style="stroke:#000000;stroke-width:1;"/><line style="stroke:#000000;stroke-width:1;" x1="1058.281" x2="1073.3833" y1="1302.6211" y2="1302.6211"/><polygon fill="#000000" points="1069.3833,1346.0078,1073.3833,1356.0078,1077.3833,1346.0078,1073.3833,1350.0078" style="stroke:#000000;stroke-width:1;"/><line style="stroke:#000000;stroke-width:1;" x1="1073.3833" x2="1073.3833" y1="1302.6211" y2="1404.9922"/><line style="stroke:#000000;stroke-width:1;" x1="1073.3833" x2="1017.4741" y1="1404.9922" y2="1404.9922"/><polygon fill="#000000" points="1027.4741,1400.9922,1017.4741,1404.9922,1027.4741,1408.9922,1023.4741,1404.9922" style="stroke:#000000;stroke-width:1;"/><line style="stroke:#000000;stroke-width:1;" x1="1005.4741" x2="1005.4741" y1="1372.9922" y2="1392.9922"/><polygon fill="#000000" points="1001.4741,1382.9922,1005.4741,1392.9922,1009.4741,1382.9922,1005.4741,1386.9922" style="stroke:#000000;stroke-width:1;"/><line style="stroke:#000000;stroke-width:1;" x1="1005.4741" x2="1005.4741" y1="1270.6211" y2="1290.6211"/><polygon fill="#000000" points="1001.4741,1280.6211,1005.4741,1290.6211,1009.4741,1280.6211,1005.4741,1284.6211" style="stroke:#000000;stroke-width:1;"/><line style="stroke:#000000;stroke-width:1;" x1="1005.4741" x2="1005.4741" y1="1416.9922" y2="1436.9922"/><polygon fill="#000000" points="1001.4741,1426.9922,1005.4741,1436.9922,1009.4741,1426.9922,1005.4741,1430.9922" style="stroke:#000000;stroke-width:1;"/><line style="stroke:#000000;stroke-width:1;" x1="1005.4741" x2="1005.4741" y1="1470.9609" y2="1490.9609"/><polygon fill="#000000" points="1001.4741,1480.9609,1005.4741,1490.9609,1009.4741,1480.9609,1005.4741,1484.9609" style="stroke:#000000;stroke-width:1;"/><line style="stroke:#000000;stroke-width:1;" x1="942.0566" x2="916.8857" y1="1556.9297" y2="1556.9297"/><line style="stroke:#000000;stroke-width:1;" x1="916.8857" x2="916.8857" y1="1556.9297" y2="1578.9297"/><polygon fill="#000000" points="912.8857,1568.9297,916.8857,1578.9297,920.8857,1568.9297,916.8857,1572.9297" style="stroke:#000000;stroke-width:1;"/><line style="stroke:#000000;stroke-width:1;" x1="1068.8916" x2="1094.0625" y1="1556.9297" y2="1556.9297"/><line style="stroke:#000000;stroke-width:1;" x1="1094.0625" x2="1094.0625" y1="1556.9297" y2="1578.9297"/><polygon fill="#000000" points="1090.0625,1568.9297,1094.0625,1578.9297,1098.0625,1568.9297,1094.0625,1572.9297" style="stroke:#000000;stroke-width:1;"/><line style="stroke:#000000;stroke-width:1;" x1="916.8857" x2="916.8857" y1="1612.8984" y2="1630.8984"/><line style="stroke:#000000;stroke-width:1;" x1="916.8857" x2="993.4741" y1="1630.8984" y2="1630.8984"/><polygon fill="#000000" points="983.4741,1626.8984,993.4741,1630.8984,983.4741,1634.8984,987.4741,1630.8984" style="stroke:#000000;stroke-width:1;"/><line style="stroke:#000000;stroke-width:1;" x1="1094.0625" x2="1094.0625" y1="1612.8984" y2="1630.8984"/><line style="stroke:#000000;stroke-width:1;" x1="1094.0625" x2="1017.4741" y1="1630.8984" y2="1630.8984"/><polygon fill="#000000" points="1027.4741,1626.8984,1017.4741,1630.8984,1027.4741,1634.8984,1023.4741,1630.8984" style="stroke:#000000;stroke-width:1;"/><line style="stroke:#000000;stroke-width:1;" x1="1005.4741" x2="1005.4741" y1="1524.9297" y2="1544.9297"/><polygon fill="#000000" points="1001.4741,1534.9297,1005.4741,1544.9297,1009.4741,1534.9297,1005.4741,1538.9297" style="stroke:#000000;stroke-width:1;"/><line style="stroke:#000000;stroke-width:1;" x1="1005.4741" x2="1005.4741" y1="341.4688" y2="446.1797"/><polygon fill="#000000" points="1001.4741,436.1797,1005.4741,446.1797,1009.4741,436.1797,1005.4741,440.1797" style="stroke:#000000;stroke-width:1;"/><line style="stroke:#000000;stroke-width:1;" x1="748.4502" x2="657.4004" y1="285.5" y2="285.5"/><line style="stroke:#000000;stroke-width:1;" x1="657.4004" x2="657.4004" y1="285.5" y2="307.5"/><polygon fill="#000000" points="653.4004,297.5,657.4004,307.5,661.4004,297.5,657.4004,301.5" style="stroke:#000000;stroke-width:1;"/><line style="stroke:#000000;stroke-width:1;" x1="914.4243" x2="1005.4741" y1="285.5" y2="285.5"/><line style="stroke:#000000;stroke-width:1;" x1="1005.4741" x2="1005.4741" y1="285.5" y2="307.5"/><polygon fill="#000000" points="1001.4741,297.5,1005.4741,307.5,1009.4741,297.5,1005.4741,301.5" style="stroke:#000000;stroke-width:1;"/><line style="stroke:#000000;stroke-width:1;" x1="657.4004" x2="657.4004" y1="410.4375" y2="1672.8984"/><line style="stroke:#000000;stroke-width:1;" x1="657.4004" x2="819.4373" y1="1672.8984" y2="1672.8984"/><polygon fill="#000000" points="809.4373,1668.8984,819.4373,1672.8984,809.4373,1676.8984,813.4373,1672.8984" style="stroke:#000000;stroke-width:1;"/><line style="stroke:#000000;stroke-width:1;" x1="1005.4741" x2="1005.4741" y1="1642.8984" y2="1672.8984"/><line style="stroke:#000000;stroke-width:1;" x1="1005.4741" x2="843.4373" y1="1672.8984" y2="1672.8984"/><polygon fill="#000000" points="853.4373,1668.8984,843.4373,1672.8984,853.4373,1676.8984,849.4373,1672.8984" style="stroke:#000000;stroke-width:1;"/><line style="stroke:#000000;stroke-width:1;" x1="536.632" x2="376.5088" y1="251.5" y2="251.5"/><line style="stroke:#000000;stroke-width:1;" x1="376.5088" x2="376.5088" y1="251.5" y2="273.5"/><polygon fill="#000000" points="372.5088,263.5,376.5088,273.5,380.5088,263.5,376.5088,267.5" style="stroke:#000000;stroke-width:1;"/><line style="stroke:#000000;stroke-width:1;" x1="671.3141" x2="831.4373" y1="251.5" y2="251.5"/><line style="stroke:#000000;stroke-width:1;" x1="831.4373" x2="831.4373" y1="251.5" y2="273.5"/><polygon fill="#000000" points="827.4373,263.5,831.4373,273.5,835.4373,263.5,831.4373,267.5" style="stroke:#000000;stroke-width:1;"/><line style="stroke:#000000;stroke-width:1;" x1="376.5088" x2="376.5088" y1="376.4375" y2="1702.8984"/><line style="stroke:#000000;stroke-width:1;" x1="376.5088" x2="591.973" y1="1702.8984" y2="1702.8984"/><polygon fill="#000000" points="581.973,1698.8984,591.973,1702.8984,581.973,1706.8984,585.973,1702.8984" style="stroke:#000000;stroke-width:1;"/><line style="stroke:#000000;stroke-width:1;" x1="831.4373" x2="831.4373" y1="1684.8984" y2="1702.8984"/><line style="stroke:#000000;stroke-width:1;" x1="831.4373" x2="615.973" y1="1702.8984" y2="1702.8984"/><polygon fill="#000000" points="625.973,1698.8984,615.973,1702.8984,625.973,1706.8984,621.973,1702.8984" style="stroke:#000000;stroke-width:1;"/><line style="stroke:#000000;stroke-width:1;" x1="284.0849" x2="116.7109" y1="217.5" y2="217.5"/><line style="stroke:#000000;stroke-width:1;" x1="116.7109" x2="116.7109" y1="217.5" y2="239.5"/><polygon fill="#000000" points="112.7109,229.5,116.7109,239.5,120.7109,229.5,116.7109,233.5" style="stroke:#000000;stroke-width:1;"/><line style="stroke:#000000;stroke-width:1;" x1="436.5991" x2="603.973" y1="217.5" y2="217.5"/><line style="stroke:#000000;stroke-width:1;" x1="603.973" x2="603.973" y1="217.5" y2="239.5"/><polygon fill="#000000" points="599.973,229.5,603.973,239.5,607.973,229.5,603.973,233.5" style="stroke:#000000;stroke-width:1;"/><line style="stroke:#000000;stroke-width:1;" x1="116.7109" x2="116.7109" y1="342.4375" y2="1732.8984"/><line style="stroke:#000000;stroke-width:1;" x1="116.7109" x2="348.342" y1="1732.8984" y2="1732.8984"/><polygon fill="#000000" points="338.342,1728.8984,348.342,1732.8984,338.342,1736.8984,342.342,1732.8984" style="stroke:#000000;stroke-width:1;"/><line style="stroke:#000000;stroke-width:1;" x1="603.973" x2="603.973" y1="1714.8984" y2="1732.8984"/><line style="stroke:#000000;stroke-width:1;" x1="603.973" x2="372.342" y1="1732.8984" y2="1732.8984"/><polygon fill="#000000" points="382.342,1728.8984,372.342,1732.8984,382.342,1736.8984,378.342,1732.8984" style="stroke:#000000;stroke-width:1;"/><line style="stroke:#000000;stroke-width:1;" x1="360.342" x2="360.342" y1="185.5" y2="205.5"/><polygon fill="#000000" points="356.342,195.5,360.342,205.5,364.342,195.5,360.342,199.5" style="stroke:#000000;stroke-width:1;"/><line style="stroke:#000000;stroke-width:1;" x1="275.322" x2="275.322" y1="1832.8672" y2="1852.8672"/><polygon fill="#000000" points="271.322,1842.8672,275.322,1852.8672,279.322,1842.8672,275.322,1846.8672" style="stroke:#000000;stroke-width:1;"/><line style="stroke:#000000;stroke-width:1;" x1="275.322" x2="275.322" y1="1886.8359" y2="1906.8359"/><polygon fill="#000000" points="271.322,1896.8359,275.322,1906.8359,279.322,1896.8359,275.322,1900.8359" style="stroke:#000000;stroke-width:1;"/><line style="stroke:#000000;stroke-width:1;" x1="275.322" x2="275.322" y1="1940.8047" y2="1960.8047"/><polygon fill="#000000" points="271.322,1950.8047,275.322,1960.8047,279.322,1950.8047,275.322,1954.8047" style="stroke:#000000;stroke-width:1;"/><line style="stroke:#000000;stroke-width:1;" x1="445.362" x2="445.362" y1="1832.8672" y2="1852.8672"/><polygon fill="#000000" points="441.362,1842.8672,445.362,1852.8672,449.362,1842.8672,445.362,1846.8672" style="stroke:#000000;stroke-width:1;"/><line style="stroke:#000000;stroke-width:1;" x1="295.5361" x2="275.322" y1="1776.8984" y2="1776.8984"/><line style="stroke:#000000;stroke-width:1;" x1="275.322" x2="275.322" y1="1776.8984" y2="1798.8984"/><polygon fill="#000000" points="271.322,1788.8984,275.322,1798.8984,279.322,1788.8984,275.322,1792.8984" style="stroke:#000000;stroke-width:1;"/><line style="stroke:#000000;stroke-width:1;" x1="425.1479" x2="445.362" y1="1776.8984" y2="1776.8984"/><line style="stroke:#000000;stroke-width:1;" x1="445.362" x2="445.362" y1="1776.8984" y2="1798.8984"/><polygon fill="#000000" points="441.362,1788.8984,445.362,1798.8984,449.362,1788.8984,445.362,1792.8984" style="stroke:#000000;stroke-width:1;"/><line style="stroke:#000000;stroke-width:1;" x1="360.342" x2="360.342" y1="1744.8984" y2="1764.8984"/><polygon fill="#000000" points="356.342,1754.8984,360.342,1764.8984,364.342,1754.8984,360.342,1758.8984" style="stroke:#000000;stroke-width:1;"/><!--SRC=[ZLRVRzem47xFNt7h7WfCpRHDUm5DLOUWgjHrLTcUgWgvoH4y4bzcEnGqxN_VEOQM39C24YBnTtUVl_jXlx5pB13AN4WLcOLKfT2YW4UHB39DbKg7b9E6j-EH-qQHbJP7k1Ls3dTeAA-i90KJguN5R1r5nWfjewX_KPQvJ4IzceWyDv2JIAS9gPdCEjr15CaPT8QLiLH0wToLcfOonVIy2yn9GMUDfXi1V_e_3K9IGwSEEl1llQ_w3NofANLsG1m2SxRhAF9UNBopCsy4Ke5PcrZeRBaVh_P-YTRpccbcw823byLcwAsd-sVtx-33WuStEMnv3B_VZAykf-Ehwn6WMi9IQ31emrG2TDXcq5nlCY8JCqHgKlUdEx5E7rwizedLVaOhJ2gBO0hE8tCIEfatGpKUk5gu8boIJoQrnQIsW8iy8otjl3Y1Fms3EiZ45OdVIVAKWb0fJASpcUDqEjX3As8wMcPpkxS4qEjj0f9EKKCo5oh3jDVh1x0VuZfQvuaqrta6gTIOMDBhBeolxYO_0YOVusTYq2aehRZsS_9btGtW0wzkDIvHMSCbbv1s4K4JMNZYH0VWBEA2Dw94WOOVB6zjorEYsJD0biu95BtAH6E98YGXvsCunsJ17SRqb7tHPT26viplWfaSTAeIBC5do7dBkUc6xOClMzZLCQ-95Z3ZGUJrCVs3q3D8AM48js9Hai5uBOgy1QtnTyLxA5oEOhkoBL0t55dmzosGE9Dj7doNnZoZsYZ5U-tzgdxRmVBDby_CJUx3qsI_8TrqqVIBKpbrrJbeXt_LA1Q7CQoHdBMacMkVMuh9aiPjGi-xnnLBm8CVKlLq3Bc9GZhTaE_28uNo9v0RLGR2-eJt71XzdYoVF-rwz-zu3ciZkP7MFDPSnvdgiT5jXLX1YYKF_4-1LWjkUwV-ZjvwysIfhNPEuOO6mIFbWACRKdYCZ7-Z_JN_p_z6B_lohd4bZJM1MyGrNq3giuP75nDrOtrpanWALfXBorJv9XKilwsqsZGiJxbaiy3tY_A_YqN_JaX-7hE_6x9Z9z18QzAx1ZNLVm00]--></g></svg>