<svg xmlns="http://www.w3.org/2000/svg" xmlns:xlink="http://www.w3.org/1999/xlink" contentStyleType="text/css" data-diagram-type="SEQUENCE" height="1505px" preserveAspectRatio="none" style="width:837px;height:1505px;background:#FEFEFE;" version="1.1" viewBox="0 0 837 1505" width="837px" zoomAndPan="magnify"><title>Singleton Pattern Implementation</title><defs/><g><rect fill="#FEFEFE" height="1505" style="stroke:none;stroke-width:1;" width="837" x="0" y="0"/><text fill="#000000" font-family="Verdana" font-size="22" font-weight="bold" lengthAdjust="spacing" textLength="424.3271" x="204.9878" y="35.4209">Singleton Pattern Implementation</text><g><title>ConfigLoader</title><rect fill="#FFFFFF" height="585.7969" style="stroke:#000000;stroke-width:1;" width="10" x="488.1475" y="157.1719"/></g><g><title>ConfigLoader</title><rect fill="#FFFFFF" height="213.7969" style="stroke:#000000;stroke-width:1;" width="10" x="493.1475" y="194.3047"/></g><g><title>ConfigLoader</title><rect fill="#FFFFFF" height="98.3984" style="stroke:#000000;stroke-width:1;" width="10" x="498.1475" y="260.5703"/></g><g><title>ConfigLoader</title><rect fill="#FFFFFF" height="269.6016" style="stroke:#000000;stroke-width:1;" width="10" x="493.1475" y="452.2344"/></g><g><title>ConfigLoader</title><rect fill="#FFFFFF" height="302.0625" style="stroke:#000000;stroke-width:1;" width="10" x="488.1475" y="815.2344"/></g><g><title>ConfigLoader</title><rect fill="#FFFFFF" height="86.2656" style="stroke:#000000;stroke-width:1;" width="10" x="493.1475" y="852.3672"/></g><g><title>ConfigLoader</title><rect fill="#FFFFFF" height="128.3984" style="stroke:#000000;stroke-width:1;" width="10" x="493.1475" y="967.7656"/></g><g><title>ConfigLoader</title><rect fill="#FFFFFF" height="197.6641" style="stroke:#000000;stroke-width:1;" width="10" x="488.1475" y="1189.5625"/></g><g><title>ConfigLoader</title><rect fill="#FFFFFF" height="40.1328" style="stroke:#000000;stroke-width:1;" width="10" x="493.1475" y="1226.6953"/></g><g><title>ConfigLoader</title><rect fill="#FFFFFF" height="40.1328" style="stroke:#000000;stroke-width:1;" width="10" x="493.1475" y="1310.9609"/></g><g><title>Class Instance</title><rect fill="#FFFFFF" height="29.1328" style="stroke:#000000;stroke-width:1;" width="10" x="737.8877" y="294.7031"/></g><rect fill="#FFFFFF" height="159.6641" style="stroke:#000000;stroke-width:1;" width="400.7148" x="419.5879" y="214.3047"/><rect fill="#FFFFFF" height="242.6016" style="stroke:#000000;stroke-width:1;" width="323.2998" x="419.5879" y="472.2344"/><rect fill="#FFFFFF" height="99.0703" style="stroke:none;stroke-width:1;" width="323.2998" x="419.5879" y="615.7656"/><rect fill="#FFFFFF" height="59.2656" style="stroke:#000000;stroke-width:1;" width="289.0796" x="419.5879" y="872.3672"/><rect fill="#FFFFFF" height="101.3984" style="stroke:#000000;stroke-width:1;" width="323.2998" x="419.5879" y="987.7656"/><g><title>Module A</title><rect fill="#000000" fill-opacity="0.00000" height="1387.7188" width="8" x="55.4673" y="82.9063"/><line style="stroke:#000000;stroke-width:1;stroke-dasharray:5,5;" x1="59" x2="59" y1="82.9063" y2="1470.625"/></g><g><title>Module B</title><rect fill="#000000" fill-opacity="0.00000" height="1387.7188" width="8" x="164.4155" y="82.9063"/><line style="stroke:#000000;stroke-width:1;stroke-dasharray:5,5;" x1="167.9346" x2="167.9346" y1="82.9063" y2="1470.625"/></g><g><title>Module C</title><rect fill="#000000" fill-opacity="0.00000" height="1387.7188" width="8" x="273.4629" y="82.9063"/><line style="stroke:#000000;stroke-width:1;stroke-dasharray:5,5;" x1="276.8965" x2="276.8965" y1="82.9063" y2="1470.625"/></g><g><title>ConfigLoader</title><rect fill="#000000" fill-opacity="0.00000" height="1387.7188" width="8" x="489.1475" y="82.9063"/><line style="stroke:#000000;stroke-width:1;stroke-dasharray:5,5;" x1="492.5879" x2="492.5879" y1="82.9063" y2="1470.625"/></g><g><title>Class Instance</title><rect fill="#000000" fill-opacity="0.00000" height="1387.7188" width="8" x="738.8877" y="82.9063"/><line style="stroke:#000000;stroke-width:1;stroke-dasharray:5,5;" x1="742.4727" x2="742.4727" y1="82.9063" y2="1470.625"/></g><g class="participant participant-head" data-participant="A"><rect fill="#FFFFFF" height="30.2969" rx="2.5" ry="2.5" style="stroke:#000000;stroke-width:1;" width="78.9346" x="20" y="51.6094"/><text fill="#000000" font-family="Verdana" font-size="14" lengthAdjust="spacing" textLength="64.9346" x="27" y="71.6045">Module A</text></g><g class="participant participant-tail" data-participant="A"><rect fill="#FFFFFF" height="30.2969" rx="2.5" ry="2.5" style="stroke:#000000;stroke-width:1;" width="78.9346" x="20" y="1469.625"/><text fill="#000000" font-family="Verdana" font-size="14" lengthAdjust="spacing" textLength="64.9346" x="27" y="1489.6201">Module A</text></g><g class="participant participant-head" data-participant="B"><rect fill="#FFFFFF" height="30.2969" rx="2.5" ry="2.5" style="stroke:#000000;stroke-width:1;" width="78.9619" x="128.9346" y="51.6094"/><text fill="#000000" font-family="Verdana" font-size="14" lengthAdjust="spacing" textLength="64.9619" x="135.9346" y="71.6045">Module B</text></g><g class="participant participant-tail" data-participant="B"><rect fill="#FFFFFF" height="30.2969" rx="2.5" ry="2.5" style="stroke:#000000;stroke-width:1;" width="78.9619" x="128.9346" y="1469.625"/><text fill="#000000" font-family="Verdana" font-size="14" lengthAdjust="spacing" textLength="64.9619" x="135.9346" y="1489.6201">Module B</text></g><g class="participant participant-head" data-participant="C"><rect fill="#FFFFFF" height="30.2969" rx="2.5" ry="2.5" style="stroke:#000000;stroke-width:1;" width="79.1328" x="237.8965" y="51.6094"/><text fill="#000000" font-family="Verdana" font-size="14" lengthAdjust="spacing" textLength="65.1328" x="244.8965" y="71.6045">Module C</text></g><g class="participant participant-tail" data-participant="C"><rect fill="#FFFFFF" height="30.2969" rx="2.5" ry="2.5" style="stroke:#000000;stroke-width:1;" width="79.1328" x="237.8965" y="1469.625"/><text fill="#000000" font-family="Verdana" font-size="14" lengthAdjust="spacing" textLength="65.1328" x="244.8965" y="1489.6201">Module C</text></g><g class="participant participant-head" data-participant="loader"><rect fill="#FFFFFF" height="30.2969" rx="2.5" ry="2.5" style="stroke:#000000;stroke-width:1;" width="107.1191" x="439.5879" y="51.6094"/><text fill="#000000" font-family="Verdana" font-size="14" lengthAdjust="spacing" textLength="93.1191" x="446.5879" y="71.6045">ConfigLoader</text></g><g class="participant participant-tail" data-participant="loader"><rect fill="#FFFFFF" height="30.2969" rx="2.5" ry="2.5" style="stroke:#000000;stroke-width:1;" width="107.1191" x="439.5879" y="1469.625"/><text fill="#000000" font-family="Verdana" font-size="14" lengthAdjust="spacing" textLength="93.1191" x="446.5879" y="1489.6201">ConfigLoader</text></g><g class="participant participant-head" data-participant="instance"><rect fill="#FFFFFF" height="30.2969" rx="2.5" ry="2.5" style="stroke:#000000;stroke-width:1;" width="114.8301" x="685.4727" y="51.6094"/><text fill="#000000" font-family="Verdana" font-size="14" lengthAdjust="spacing" textLength="100.8301" x="692.4727" y="71.6045">Class Instance</text></g><g class="participant participant-tail" data-participant="instance"><rect fill="#FFFFFF" height="30.2969" rx="2.5" ry="2.5" style="stroke:#000000;stroke-width:1;" width="114.8301" x="685.4727" y="1469.625"/><text fill="#000000" font-family="Verdana" font-size="14" lengthAdjust="spacing" textLength="100.8301" x="692.4727" y="1489.6201">Class Instance</text></g><g><title>ConfigLoader</title><rect fill="#FFFFFF" height="585.7969" style="stroke:#000000;stroke-width:1;" width="10" x="488.1475" y="157.1719"/></g><g><title>ConfigLoader</title><rect fill="#FFFFFF" height="213.7969" style="stroke:#000000;stroke-width:1;" width="10" x="493.1475" y="194.3047"/></g><g><title>ConfigLoader</title><rect fill="#FFFFFF" height="98.3984" style="stroke:#000000;stroke-width:1;" width="10" x="498.1475" y="260.5703"/></g><g><title>ConfigLoader</title><rect fill="#FFFFFF" height="269.6016" style="stroke:#000000;stroke-width:1;" width="10" x="493.1475" y="452.2344"/></g><g><title>ConfigLoader</title><rect fill="#FFFFFF" height="302.0625" style="stroke:#000000;stroke-width:1;" width="10" x="488.1475" y="815.2344"/></g><g><title>ConfigLoader</title><rect fill="#FFFFFF" height="86.2656" style="stroke:#000000;stroke-width:1;" width="10" x="493.1475" y="852.3672"/></g><g><title>ConfigLoader</title><rect fill="#FFFFFF" height="128.3984" style="stroke:#000000;stroke-width:1;" width="10" x="493.1475" y="967.7656"/></g><g><title>ConfigLoader</title><rect fill="#FFFFFF" height="197.6641" style="stroke:#000000;stroke-width:1;" width="10" x="488.1475" y="1189.5625"/></g><g><title>ConfigLoader</title><rect fill="#FFFFFF" height="40.1328" style="stroke:#000000;stroke-width:1;" width="10" x="493.1475" y="1226.6953"/></g><g><title>ConfigLoader</title><rect fill="#FFFFFF" height="40.1328" style="stroke:#000000;stroke-width:1;" width="10" x="493.1475" y="1310.9609"/></g><g><title>Class Instance</title><rect fill="#FFFFFF" height="29.1328" style="stroke:#000000;stroke-width:1;" width="10" x="737.8877" y="294.7031"/></g><rect fill="#FFFFFF" height="3" style="stroke:#FFFFFF;stroke-width:1;" width="825.3027" x="5" y="113.4727"/><line style="stroke:#000000;stroke-width:0.5;" x1="5" x2="830.3027" y1="113.4727" y2="113.4727"/><line style="stroke:#000000;stroke-width:0.5;" x1="5" x2="830.3027" y1="116.4727" y2="116.4727"/><rect fill="#FFFFFF" height="23.1328" style="stroke:#000000;stroke-width:1;" width="191.2139" x="322.0444" y="102.9063"/><text fill="#000000" font-family="Verdana" font-size="13" font-weight="bold" lengthAdjust="spacing" textLength="172.688" x="328.0444" y="118.9731">First Access (Module A)</text><g class="message" data-participant-1="A" data-participant-2="loader"><polygon fill="#000000" points="476.1475,153.1719,486.1475,157.1719,476.1475,161.1719,480.1475,157.1719" style="stroke:#000000;stroke-width:1;"/><line style="stroke:#000000;stroke-width:1;" x1="59.4673" x2="482.1475" y1="157.1719" y2="157.1719"/><text fill="#000000" font-family="Verdana" font-size="13" lengthAdjust="spacing" textLength="96.6113" x="66.4673" y="152.106">ConfigLoader()</text></g><g class="message" data-participant-1="loader" data-participant-2="loader"><line style="stroke:#000000;stroke-width:1;" x1="498.1475" x2="545.1475" y1="181.3047" y2="181.3047"/><line style="stroke:#000000;stroke-width:1;" x1="545.1475" x2="545.1475" y1="181.3047" y2="194.3047"/><line style="stroke:#000000;stroke-width:1;" x1="504.1475" x2="545.1475" y1="194.3047" y2="194.3047"/><polygon fill="#000000" points="514.1475,190.3047,504.1475,194.3047,514.1475,198.3047,510.1475,194.3047" style="stroke:#000000;stroke-width:1;"/><text fill="#000000" font-family="Verdana" font-size="13" lengthAdjust="spacing" text-decoration="underline" textLength="26.8696" x="510.1475" y="176.2388">new</text><text fill="#000000" font-family="Verdana" font-size="13" lengthAdjust="spacing" textLength="10.1436" x="537.0171" y="176.2388">()</text></g><path d="M419.5879,214.3047 L484.0308,214.3047 L484.0308,221.4375 L474.0308,231.4375 L419.5879,231.4375 L419.5879,214.3047" fill="#FFFFFF" style="stroke:#000000;stroke-width:1;"/><rect fill="none" height="159.6641" style="stroke:#000000;stroke-width:1;" width="400.7148" x="419.5879" y="214.3047"/><text fill="#000000" font-family="Verdana" font-size="13" font-weight="bold" lengthAdjust="spacing" textLength="19.4429" x="434.5879" y="227.3716">alt</text><text fill="#000000" font-family="Verdana" font-size="11" font-weight="bold" lengthAdjust="spacing" textLength="118.2285" x="499.0308" y="226.5151">[_instance is None]</text><g class="message" data-participant-1="loader" data-participant-2="loader"><line style="stroke:#000000;stroke-width:1;" x1="503.1475" x2="550.1475" y1="247.5703" y2="247.5703"/><line style="stroke:#000000;stroke-width:1;" x1="550.1475" x2="550.1475" y1="247.5703" y2="260.5703"/><line style="stroke:#000000;stroke-width:1;" x1="509.1475" x2="550.1475" y1="260.5703" y2="260.5703"/><polygon fill="#000000" points="519.1475,256.5703,509.1475,260.5703,519.1475,264.5703,515.1475,260.5703" style="stroke:#000000;stroke-width:1;"/><text fill="#000000" font-family="Verdana" font-size="13" lengthAdjust="spacing" textLength="50.8828" x="515.1475" y="242.5044">super().</text><text fill="#000000" font-family="Verdana" font-size="13" lengthAdjust="spacing" text-decoration="underline" textLength="26.8696" x="566.0303" y="242.5044">new</text><text fill="#000000" font-family="Verdana" font-size="13" lengthAdjust="spacing" textLength="10.1436" x="592.8999" y="242.5044">()</text></g><g class="message" data-participant-1="loader" data-participant-2="instance"><polygon fill="#000000" points="725.8877,290.7031,735.8877,294.7031,725.8877,298.7031,729.8877,294.7031" style="stroke:#000000;stroke-width:1;"/><line style="stroke:#000000;stroke-width:1;" x1="508.1475" x2="731.8877" y1="294.7031" y2="294.7031"/><text fill="#000000" font-family="Verdana" font-size="13" lengthAdjust="spacing" textLength="133.688" x="515.1475" y="289.6372">Create new instance</text></g><g class="message" data-participant-1="instance" data-participant-2="loader"><polygon fill="#000000" points="519.1475,319.8359,509.1475,323.8359,519.1475,327.8359,515.1475,323.8359" style="stroke:#000000;stroke-width:1;"/><line style="stroke:#000000;stroke-width:1;stroke-dasharray:2,2;" x1="513.1475" x2="741.8877" y1="323.8359" y2="323.8359"/><text fill="#000000" font-family="Verdana" font-size="13" lengthAdjust="spacing" textLength="121.8496" x="525.1475" y="318.77">instance reference</text></g><g class="message" data-participant-1="loader" data-participant-2="loader"><line style="stroke:#000000;stroke-width:1;" x1="508.1475" x2="550.1475" y1="357.9688" y2="357.9688"/><line style="stroke:#000000;stroke-width:1;" x1="550.1475" x2="550.1475" y1="357.9688" y2="370.9688"/><line style="stroke:#000000;stroke-width:1;" x1="503.1475" x2="550.1475" y1="370.9688" y2="370.9688"/><polygon fill="#000000" points="513.1475,366.9688,503.1475,370.9688,513.1475,374.9688,509.1475,370.9688" style="stroke:#000000;stroke-width:1;"/><text fill="#000000" font-family="Verdana" font-size="13" lengthAdjust="spacing" textLength="135.8018" x="515.1475" y="352.9028">_instance = instance</text></g><g class="message" data-participant-1="loader" data-participant-2="loader"><line style="stroke:#000000;stroke-width:1;stroke-dasharray:2,2;" x1="503.1475" x2="545.1475" y1="407.1016" y2="407.1016"/><line style="stroke:#000000;stroke-width:1;stroke-dasharray:2,2;" x1="545.1475" x2="545.1475" y1="407.1016" y2="420.1016"/><line style="stroke:#000000;stroke-width:1;stroke-dasharray:2,2;" x1="498.1475" x2="545.1475" y1="420.1016" y2="420.1016"/><polygon fill="#000000" points="508.1475,416.1016,498.1475,420.1016,508.1475,424.1016,504.1475,420.1016" style="stroke:#000000;stroke-width:1;"/><text fill="#000000" font-family="Verdana" font-size="13" lengthAdjust="spacing" textLength="105.9678" x="510.1475" y="402.0356">return _instance</text></g><g class="message" data-participant-1="loader" data-participant-2="loader"><line style="stroke:#000000;stroke-width:1;" x1="498.1475" x2="545.1475" y1="439.2344" y2="439.2344"/><line style="stroke:#000000;stroke-width:1;" x1="545.1475" x2="545.1475" y1="439.2344" y2="452.2344"/><line style="stroke:#000000;stroke-width:1;" x1="504.1475" x2="545.1475" y1="452.2344" y2="452.2344"/><polygon fill="#000000" points="514.1475,448.2344,504.1475,452.2344,514.1475,456.2344,510.1475,452.2344" style="stroke:#000000;stroke-width:1;"/><text fill="#000000" font-family="Verdana" font-size="13" lengthAdjust="spacing" text-decoration="underline" textLength="20.5601" x="510.1475" y="434.1685">init</text><text fill="#000000" font-family="Verdana" font-size="13" lengthAdjust="spacing" textLength="10.1436" x="530.7075" y="434.1685">()</text></g><path d="M419.5879,472.2344 L484.0308,472.2344 L484.0308,479.3672 L474.0308,489.3672 L419.5879,489.3672 L419.5879,472.2344" fill="#FFFFFF" style="stroke:#000000;stroke-width:1;"/><rect fill="none" height="242.6016" style="stroke:#000000;stroke-width:1;" width="323.2998" x="419.5879" y="472.2344"/><text fill="#000000" font-family="Verdana" font-size="13" font-weight="bold" lengthAdjust="spacing" textLength="19.4429" x="434.5879" y="485.3013">alt</text><text fill="#000000" font-family="Verdana" font-size="11" font-weight="bold" lengthAdjust="spacing" textLength="101.1323" x="499.0308" y="484.4448">[not _initialized]</text><g class="message" data-participant-1="loader" data-participant-2="loader"><line style="stroke:#000000;stroke-width:1;" x1="503.1475" x2="545.1475" y1="510.5" y2="510.5"/><line style="stroke:#000000;stroke-width:1;" x1="545.1475" x2="545.1475" y1="510.5" y2="523.5"/><line style="stroke:#000000;stroke-width:1;" x1="504.1475" x2="545.1475" y1="523.5" y2="523.5"/><polygon fill="#000000" points="514.1475,519.5,504.1475,523.5,514.1475,527.5,510.1475,523.5" style="stroke:#000000;stroke-width:1;"/><text fill="#000000" font-family="Verdana" font-size="13" lengthAdjust="spacing" textLength="122.2495" x="510.1475" y="505.4341">Set up debug, disp</text></g><g class="message" data-participant-1="loader" data-participant-2="loader"><line style="stroke:#000000;stroke-width:1;" x1="503.1475" x2="545.1475" y1="552.6328" y2="552.6328"/><line style="stroke:#000000;stroke-width:1;" x1="545.1475" x2="545.1475" y1="552.6328" y2="565.6328"/><line style="stroke:#000000;stroke-width:1;" x1="504.1475" x2="545.1475" y1="565.6328" y2="565.6328"/><polygon fill="#000000" points="514.1475,561.6328,504.1475,565.6328,514.1475,569.6328,510.1475,565.6328" style="stroke:#000000;stroke-width:1;"/><text fill="#000000" font-family="Verdana" font-size="13" lengthAdjust="spacing" textLength="103.8096" x="510.1475" y="547.5669">Initialize caches</text></g><g class="message" data-participant-1="loader" data-participant-2="loader"><line style="stroke:#000000;stroke-width:1;" x1="503.1475" x2="545.1475" y1="594.7656" y2="594.7656"/><line style="stroke:#000000;stroke-width:1;" x1="545.1475" x2="545.1475" y1="594.7656" y2="607.7656"/><line style="stroke:#000000;stroke-width:1;" x1="504.1475" x2="545.1475" y1="607.7656" y2="607.7656"/><polygon fill="#000000" points="514.1475,603.7656,504.1475,607.7656,514.1475,611.7656,510.1475,607.7656" style="stroke:#000000;stroke-width:1;"/><text fill="#000000" font-family="Verdana" font-size="13" lengthAdjust="spacing" textLength="117.6157" x="510.1475" y="589.6997">_initialized = True</text></g><line style="stroke:#000000;stroke-width:1;stroke-dasharray:2,2;" x1="419.5879" x2="742.8877" y1="616.7656" y2="616.7656"/><text fill="#000000" font-family="Verdana" font-size="11" font-weight="bold" lengthAdjust="spacing" textLength="76.6563" x="424.5879" y="626.9761">[_initialized]</text><g class="message" data-participant-1="loader" data-participant-2="loader"><line style="stroke:#000000;stroke-width:1;" x1="503.1475" x2="545.1475" y1="651.7031" y2="651.7031"/><line style="stroke:#000000;stroke-width:1;" x1="545.1475" x2="545.1475" y1="651.7031" y2="664.7031"/><line style="stroke:#000000;stroke-width:1;" x1="504.1475" x2="545.1475" y1="664.7031" y2="664.7031"/><polygon fill="#000000" points="514.1475,660.7031,504.1475,664.7031,514.1475,668.7031,510.1475,664.7031" style="stroke:#000000;stroke-width:1;"/><text fill="#000000" font-family="Verdana" font-size="13" lengthAdjust="spacing" textLength="205.7402" x="510.1475" y="646.6372">log_debug("Already initialized")</text></g><g class="message" data-participant-1="loader" data-participant-2="loader"><line style="stroke:#000000;stroke-width:1;" x1="503.1475" x2="545.1475" y1="693.8359" y2="693.8359"/><line style="stroke:#000000;stroke-width:1;" x1="545.1475" x2="545.1475" y1="693.8359" y2="706.8359"/><line style="stroke:#000000;stroke-width:1;" x1="504.1475" x2="545.1475" y1="706.8359" y2="706.8359"/><polygon fill="#000000" points="514.1475,702.8359,504.1475,706.8359,514.1475,710.8359,510.1475,706.8359" style="stroke:#000000;stroke-width:1;"/><text fill="#000000" font-family="Verdana" font-size="13" lengthAdjust="spacing" textLength="77.0098" x="510.1475" y="688.77">return early</text></g><g class="message" data-participant-1="loader" data-participant-2="A"><polygon fill="#000000" points="70.4673,738.9688,60.4673,742.9688,70.4673,746.9688,66.4673,742.9688" style="stroke:#000000;stroke-width:1;"/><line style="stroke:#000000;stroke-width:1;stroke-dasharray:2,2;" x1="64.4673" x2="492.1475" y1="742.9688" y2="742.9688"/><text fill="#000000" font-family="Verdana" font-size="13" lengthAdjust="spacing" textLength="145.6724" x="76.4673" y="737.9028">ConfigLoader instance</text></g><rect fill="#FFFFFF" height="3" style="stroke:#FFFFFF;stroke-width:1;" width="825.3027" x="5" y="771.5352"/><line style="stroke:#000000;stroke-width:0.5;" x1="5" x2="830.3027" y1="771.5352" y2="771.5352"/><line style="stroke:#000000;stroke-width:0.5;" x1="5" x2="830.3027" y1="774.5352" y2="774.5352"/><rect fill="#FFFFFF" height="23.1328" style="stroke:#000000;stroke-width:1;" width="210.7393" x="312.2817" y="760.9688"/><text fill="#000000" font-family="Verdana" font-size="13" font-weight="bold" lengthAdjust="spacing" textLength="192.2134" x="318.2817" y="777.0356">Second Access (Module B)</text><g class="message" data-participant-1="B" data-participant-2="loader"><polygon fill="#000000" points="476.1475,811.2344,486.1475,815.2344,476.1475,819.2344,480.1475,815.2344" style="stroke:#000000;stroke-width:1;"/><line style="stroke:#000000;stroke-width:1;" x1="168.4155" x2="482.1475" y1="815.2344" y2="815.2344"/><text fill="#000000" font-family="Verdana" font-size="13" lengthAdjust="spacing" textLength="96.6113" x="175.4155" y="810.1685">ConfigLoader()</text></g><g class="message" data-participant-1="loader" data-participant-2="loader"><line style="stroke:#000000;stroke-width:1;" x1="498.1475" x2="545.1475" y1="839.3672" y2="839.3672"/><line style="stroke:#000000;stroke-width:1;" x1="545.1475" x2="545.1475" y1="839.3672" y2="852.3672"/><line style="stroke:#000000;stroke-width:1;" x1="504.1475" x2="545.1475" y1="852.3672" y2="852.3672"/><polygon fill="#000000" points="514.1475,848.3672,504.1475,852.3672,514.1475,856.3672,510.1475,852.3672" style="stroke:#000000;stroke-width:1;"/><text fill="#000000" font-family="Verdana" font-size="13" lengthAdjust="spacing" text-decoration="underline" textLength="26.8696" x="510.1475" y="834.3013">new</text><text fill="#000000" font-family="Verdana" font-size="13" lengthAdjust="spacing" textLength="10.1436" x="537.0171" y="834.3013">()</text></g><path d="M419.5879,872.3672 L484.0308,872.3672 L484.0308,879.5 L474.0308,889.5 L419.5879,889.5 L419.5879,872.3672" fill="#FFFFFF" style="stroke:#000000;stroke-width:1;"/><rect fill="none" height="59.2656" style="stroke:#000000;stroke-width:1;" width="289.0796" x="419.5879" y="872.3672"/><text fill="#000000" font-family="Verdana" font-size="13" font-weight="bold" lengthAdjust="spacing" textLength="19.4429" x="434.5879" y="885.4341">alt</text><text fill="#000000" font-family="Verdana" font-size="11" font-weight="bold" lengthAdjust="spacing" textLength="142.7046" x="499.0308" y="884.5776">[_instance is not None]</text><g class="message" data-participant-1="loader" data-participant-2="loader"><line style="stroke:#000000;stroke-width:1;stroke-dasharray:2,2;" x1="503.1475" x2="545.1475" y1="910.6328" y2="910.6328"/><line style="stroke:#000000;stroke-width:1;stroke-dasharray:2,2;" x1="545.1475" x2="545.1475" y1="910.6328" y2="923.6328"/><line style="stroke:#000000;stroke-width:1;stroke-dasharray:2,2;" x1="504.1475" x2="545.1475" y1="923.6328" y2="923.6328"/><polygon fill="#000000" points="514.1475,919.6328,504.1475,923.6328,514.1475,927.6328,510.1475,923.6328" style="stroke:#000000;stroke-width:1;"/><text fill="#000000" font-family="Verdana" font-size="13" lengthAdjust="spacing" textLength="171.52" x="510.1475" y="905.5669">return _instance (existing)</text></g><g class="message" data-participant-1="loader" data-participant-2="loader"><line style="stroke:#000000;stroke-width:1;" x1="498.1475" x2="545.1475" y1="954.7656" y2="954.7656"/><line style="stroke:#000000;stroke-width:1;" x1="545.1475" x2="545.1475" y1="954.7656" y2="967.7656"/><line style="stroke:#000000;stroke-width:1;" x1="504.1475" x2="545.1475" y1="967.7656" y2="967.7656"/><polygon fill="#000000" points="514.1475,963.7656,504.1475,967.7656,514.1475,971.7656,510.1475,967.7656" style="stroke:#000000;stroke-width:1;"/><text fill="#000000" font-family="Verdana" font-size="13" lengthAdjust="spacing" text-decoration="underline" textLength="20.5601" x="510.1475" y="949.6997">init</text><text fill="#000000" font-family="Verdana" font-size="13" lengthAdjust="spacing" textLength="10.1436" x="530.7075" y="949.6997">()</text></g><path d="M419.5879,987.7656 L484.0308,987.7656 L484.0308,994.8984 L474.0308,1004.8984 L419.5879,1004.8984 L419.5879,987.7656" fill="#FFFFFF" style="stroke:#000000;stroke-width:1;"/><rect fill="none" height="101.3984" style="stroke:#000000;stroke-width:1;" width="323.2998" x="419.5879" y="987.7656"/><text fill="#000000" font-family="Verdana" font-size="13" font-weight="bold" lengthAdjust="spacing" textLength="19.4429" x="434.5879" y="1000.8325">alt</text><text fill="#000000" font-family="Verdana" font-size="11" font-weight="bold" lengthAdjust="spacing" textLength="76.6563" x="499.0308" y="999.9761">[_initialized]</text><g class="message" data-participant-1="loader" data-participant-2="loader"><line style="stroke:#000000;stroke-width:1;" x1="503.1475" x2="545.1475" y1="1026.0313" y2="1026.0313"/><line style="stroke:#000000;stroke-width:1;" x1="545.1475" x2="545.1475" y1="1026.0313" y2="1039.0313"/><line style="stroke:#000000;stroke-width:1;" x1="504.1475" x2="545.1475" y1="1039.0313" y2="1039.0313"/><polygon fill="#000000" points="514.1475,1035.0313,504.1475,1039.0313,514.1475,1043.0313,510.1475,1039.0313" style="stroke:#000000;stroke-width:1;"/><text fill="#000000" font-family="Verdana" font-size="13" lengthAdjust="spacing" textLength="205.7402" x="510.1475" y="1020.9653">log_debug("Already initialized")</text></g><g class="message" data-participant-1="loader" data-participant-2="loader"><line style="stroke:#000000;stroke-width:1;" x1="503.1475" x2="545.1475" y1="1068.1641" y2="1068.1641"/><line style="stroke:#000000;stroke-width:1;" x1="545.1475" x2="545.1475" y1="1068.1641" y2="1081.1641"/><line style="stroke:#000000;stroke-width:1;" x1="504.1475" x2="545.1475" y1="1081.1641" y2="1081.1641"/><polygon fill="#000000" points="514.1475,1077.1641,504.1475,1081.1641,514.1475,1085.1641,510.1475,1081.1641" style="stroke:#000000;stroke-width:1;"/><text fill="#000000" font-family="Verdana" font-size="13" lengthAdjust="spacing" textLength="77.0098" x="510.1475" y="1063.0981">return early</text></g><g class="message" data-participant-1="loader" data-participant-2="B"><polygon fill="#000000" points="179.4155,1113.2969,169.4155,1117.2969,179.4155,1121.2969,175.4155,1117.2969" style="stroke:#000000;stroke-width:1;"/><line style="stroke:#000000;stroke-width:1;stroke-dasharray:2,2;" x1="173.4155" x2="492.1475" y1="1117.2969" y2="1117.2969"/><text fill="#000000" font-family="Verdana" font-size="13" lengthAdjust="spacing" textLength="186.6846" x="185.4155" y="1112.231">Same ConfigLoader instance</text></g><rect fill="#FFFFFF" height="3" style="stroke:#FFFFFF;stroke-width:1;" width="825.3027" x="5" y="1145.8633"/><line style="stroke:#000000;stroke-width:0.5;" x1="5" x2="830.3027" y1="1145.8633" y2="1145.8633"/><line style="stroke:#000000;stroke-width:0.5;" x1="5" x2="830.3027" y1="1148.8633" y2="1148.8633"/><rect fill="#FFFFFF" height="23.1328" style="stroke:#000000;stroke-width:1;" width="195.2891" x="320.0068" y="1135.2969"/><text fill="#000000" font-family="Verdana" font-size="13" font-weight="bold" lengthAdjust="spacing" textLength="176.7632" x="326.0068" y="1151.3638">Third Access (Module C)</text><g class="message" data-participant-1="C" data-participant-2="loader"><polygon fill="#000000" points="476.1475,1185.5625,486.1475,1189.5625,476.1475,1193.5625,480.1475,1189.5625" style="stroke:#000000;stroke-width:1;"/><line style="stroke:#000000;stroke-width:1;" x1="277.4629" x2="482.1475" y1="1189.5625" y2="1189.5625"/><text fill="#000000" font-family="Verdana" font-size="13" lengthAdjust="spacing" textLength="96.6113" x="284.4629" y="1184.4966">ConfigLoader()</text></g><g class="message" data-participant-1="loader" data-participant-2="loader"><line style="stroke:#000000;stroke-width:1;" x1="498.1475" x2="545.1475" y1="1213.6953" y2="1213.6953"/><line style="stroke:#000000;stroke-width:1;" x1="545.1475" x2="545.1475" y1="1213.6953" y2="1226.6953"/><line style="stroke:#000000;stroke-width:1;" x1="504.1475" x2="545.1475" y1="1226.6953" y2="1226.6953"/><polygon fill="#000000" points="514.1475,1222.6953,504.1475,1226.6953,514.1475,1230.6953,510.1475,1226.6953" style="stroke:#000000;stroke-width:1;"/><text fill="#000000" font-family="Verdana" font-size="13" lengthAdjust="spacing" text-decoration="underline" textLength="26.8696" x="510.1475" y="1208.6294">new</text><text fill="#000000" font-family="Verdana" font-size="13" lengthAdjust="spacing" textLength="10.1436" x="537.0171" y="1208.6294">()</text></g><g class="message" data-participant-1="loader" data-participant-2="loader"><line style="stroke:#000000;stroke-width:1;stroke-dasharray:2,2;" x1="503.1475" x2="545.1475" y1="1265.8281" y2="1265.8281"/><line style="stroke:#000000;stroke-width:1;stroke-dasharray:2,2;" x1="545.1475" x2="545.1475" y1="1265.8281" y2="1278.8281"/><line style="stroke:#000000;stroke-width:1;stroke-dasharray:2,2;" x1="498.1475" x2="545.1475" y1="1278.8281" y2="1278.8281"/><polygon fill="#000000" points="508.1475,1274.8281,498.1475,1278.8281,508.1475,1282.8281,504.1475,1278.8281" style="stroke:#000000;stroke-width:1;"/><text fill="#000000" font-family="Verdana" font-size="13" lengthAdjust="spacing" textLength="171.52" x="510.1475" y="1260.7622">return _instance (existing)</text></g><g class="message" data-participant-1="loader" data-participant-2="loader"><line style="stroke:#000000;stroke-width:1;" x1="498.1475" x2="545.1475" y1="1297.9609" y2="1297.9609"/><line style="stroke:#000000;stroke-width:1;" x1="545.1475" x2="545.1475" y1="1297.9609" y2="1310.9609"/><line style="stroke:#000000;stroke-width:1;" x1="504.1475" x2="545.1475" y1="1310.9609" y2="1310.9609"/><polygon fill="#000000" points="514.1475,1306.9609,504.1475,1310.9609,514.1475,1314.9609,510.1475,1310.9609" style="stroke:#000000;stroke-width:1;"/><text fill="#000000" font-family="Verdana" font-size="13" lengthAdjust="spacing" text-decoration="underline" textLength="20.5601" x="510.1475" y="1292.895">init</text><text fill="#000000" font-family="Verdana" font-size="13" lengthAdjust="spacing" textLength="10.1436" x="530.7075" y="1292.895">()</text></g><g class="message" data-participant-1="loader" data-participant-2="loader"><line style="stroke:#000000;stroke-width:1;" x1="503.1475" x2="545.1475" y1="1350.0938" y2="1350.0938"/><line style="stroke:#000000;stroke-width:1;" x1="545.1475" x2="545.1475" y1="1350.0938" y2="1363.0938"/><line style="stroke:#000000;stroke-width:1;" x1="498.1475" x2="545.1475" y1="1363.0938" y2="1363.0938"/><polygon fill="#000000" points="508.1475,1359.0938,498.1475,1363.0938,508.1475,1367.0938,504.1475,1363.0938" style="stroke:#000000;stroke-width:1;"/><text fill="#000000" font-family="Verdana" font-size="13" lengthAdjust="spacing" textLength="160.2212" x="510.1475" y="1345.0278">return early (_initialized)</text></g><g class="message" data-participant-1="loader" data-participant-2="C"><polygon fill="#000000" points="288.4629,1383.2266,278.4629,1387.2266,288.4629,1391.2266,284.4629,1387.2266" style="stroke:#000000;stroke-width:1;"/><line style="stroke:#000000;stroke-width:1;stroke-dasharray:2,2;" x1="282.4629" x2="492.1475" y1="1387.2266" y2="1387.2266"/><text fill="#000000" font-family="Verdana" font-size="13" lengthAdjust="spacing" textLength="186.6846" x="294.4629" y="1382.1606">Same ConfigLoader instance</text></g><path d="M12,1400.2266 L12,1455.2266 L324,1455.2266 L324,1410.2266 L314,1400.2266 L12,1400.2266" fill="#FFFFFF" style="stroke:#000000;stroke-width:1;"/><path d="M314,1400.2266 L314,1410.2266 L324,1410.2266 L314,1400.2266" fill="#FFFFFF" style="stroke:#000000;stroke-width:1;"/><text fill="#000000" font-family="Verdana" font-size="13" lengthAdjust="spacing" textLength="155.0034" x="61.8696" y="1417.2935">All three modules share</text><text fill="#000000" font-family="Verdana" font-size="13" lengthAdjust="spacing" textLength="152.9595" x="61.8696" y="1432.4263">the SAME instance with</text><text fill="#000000" font-family="Verdana" font-size="13" lengthAdjust="spacing" textLength="203.29" x="61.8696" y="1447.5591">the SAME cached configuration</text><!--SRC=[pLN1Rfj04BtlLqpTYoqb_O1ALC8eaImbLINdZZOmCQEiTz7ka3Jz-WxOnc30YbkrYdqmPjwy6TwRMJvnWLk4qcYoAZoJBRNNMtZKsVF6kyhcYJFEm-VRc_gh51CRX3NPZK5s5dvePlGMLjlI295bpUIiKaB3b56fBSFitkMLPCKpq07YqTYoYIr7OqaJI_gnnDadsjmvdQDlugQvF04P7GAiR61jCsnWjF-ZL1J1BVd046SP2cn-Q7C1KQHK3DVVzgHVeLjjlb0wOthHZ8UYQlVRpKXJYwzfEWRMXY4zz04KuBkpg40-GvfGbNN5BqUw6dTAsSyzK4lR7ckKf1wVkvVVkzksTDrfeBtfyGaz7h0vZdEC2D4oH7reXsB_66ZpevGT2ezSoOorJ6gOEke0MU9f2wnhR20cRUWNvXFzhv6XAgNRnsfp1Jc5SWAuQgaWqrc1OLgGjgPeyk0hL6W2lgSPupPfqyby5XinDt-3Jj9iCP6s5n2rDsyxbOSATdIF-mCFvtINBLfZvcn-kaRBtHej_zyQrOOELkdC6C4SVr9WESiMKwBymLXz61UNChjQplPBh7meo0-SJ7PE9l_AoGkj-bkNpWiByww1Pwi9GtAfnZAZ2Ev5KF6LlD80OcE02uy8sqRj0A7GlfvXUJF3Ehw_EHx1hyH5Dz0SCpbaJV7AxrwzCXZr9g3w3G00]--></g></svg>