<svg xmlns="http://www.w3.org/2000/svg" xmlns:xlink="http://www.w3.org/1999/xlink" contentStyleType="text/css" data-diagram-type="SEQUENCE" height="1336px" preserveAspectRatio="none" style="width:1518px;height:1336px;background:#FFFFFF;" version="1.1" viewBox="0 0 1518 1336" width="1518px" zoomAndPan="magnify"><defs/><g><g><title>PathManager</title><rect fill="#FFFFFF" height="1007.1875" style="stroke:#000000;stroke-width:1;" width="10" x="311.9927" y="226.0938"/></g><g><title>EndpointManager</title><rect fill="#FFFFFF" height="129.5313" style="stroke:#000000;stroke-width:1;" width="10" x="881.4937" y="67.4297"/></g><g><title>EndpointManager</title><rect fill="#FFFFFF" height="948.9219" style="stroke:#000000;stroke-width:1;" width="10" x="881.4937" y="255.2266"/></g><rect fill="#FFFFFF" height="46.2656" style="stroke:#000000;stroke-width:1;" width="950.3315" x="25" y="341.4922"/><rect fill="#FFFFFF" height="221.0625" style="stroke:#000000;stroke-width:1;" width="731.7139" x="243.6177" y="401.7578"/><rect fill="#FFFFFF" height="281.3281" style="stroke:#000000;stroke-width:1;" width="1243.4575" x="15" y="636.8203"/><rect fill="#FFFFFF" height="46.2656" style="stroke:#000000;stroke-width:1;" width="950.3315" x="25" y="690.0859"/><rect fill="#FFFFFF" height="243.8672" style="stroke:#000000;stroke-width:1;" width="1278.96" x="233.6177" y="932.1484"/><rect fill="#FFFFFF" height="183.6016" style="stroke:#000000;stroke-width:1;" width="958.0313" x="243.6177" y="985.4141"/><rect fill="#FFFFFF" height="14.8047" style="stroke:none;stroke-width:1;" width="958.0313" x="243.6177" y="1154.2109"/><g><title>Application</title><rect fill="#000000" fill-opacity="0.00000" height="1265.25" width="8" x="87.1118" y="36.2969"/><line style="stroke:#000000;stroke-width:1;stroke-dasharray:5,5;" x1="91" x2="91" y1="36.2969" y2="1301.5469"/></g><g><title>PathManager</title><rect fill="#000000" fill-opacity="0.00000" height="1265.25" width="8" x="312.9927" y="36.2969"/><line style="stroke:#000000;stroke-width:1;stroke-dasharray:5,5;" x1="316.6177" x2="316.6177" y1="36.2969" y2="1301.5469"/></g><g><title>EndpointManager</title><rect fill="#000000" fill-opacity="0.00000" height="1265.25" width="8" x="882.4937" y="36.2969"/><line style="stroke:#000000;stroke-width:1;stroke-dasharray:5,5;" x1="885.6558" x2="885.6558" y1="36.2969" y2="1301.5469"/></g><g><title>Bonus</title><rect fill="#000000" fill-opacity="0.00000" height="1265.25" width="8" x="1085.208" y="36.2969"/><line style="stroke:#000000;stroke-width:1;stroke-dasharray:5,5;" x1="1088.603" x2="1088.603" y1="36.2969" y2="1301.5469"/></g><g><title>OAuthAuth</title><rect fill="#000000" fill-opacity="0.00000" height="1265.25" width="8" x="1189.1353" y="36.2969"/><line style="stroke:#000000;stroke-width:1;stroke-dasharray:5,5;" x1="1192.813" x2="1192.813" y1="36.2969" y2="1301.5469"/></g><g><title>TestingEndpoints</title><rect fill="#000000" fill-opacity="0.00000" height="1265.25" width="8" x="1332.0581" y="36.2969"/><line style="stroke:#000000;stroke-width:1;stroke-dasharray:5,5;" x1="1335.4575" x2="1335.4575" y1="36.2969" y2="1301.5469"/></g><g><title>Config</title><rect fill="#000000" fill-opacity="0.00000" height="1265.25" width="8" x="1459.1182" y="36.2969"/><line style="stroke:#000000;stroke-width:1;stroke-dasharray:5,5;" x1="1462.6587" x2="1462.6587" y1="36.2969" y2="1301.5469"/></g><g class="participant participant-head" data-participant="App"><rect fill="#FFFFFF" height="30.2969" rx="2.5" ry="2.5" style="stroke:#000000;stroke-width:1;" width="92.2236" x="45" y="5"/><text fill="#000000" font-family="Verdana" font-size="14" lengthAdjust="spacing" textLength="78.2236" x="52" y="24.9951">Application</text></g><g class="participant participant-tail" data-participant="App"><rect fill="#FFFFFF" height="30.2969" rx="2.5" ry="2.5" style="stroke:#000000;stroke-width:1;" width="92.2236" x="45" y="1300.5469"/><text fill="#000000" font-family="Verdana" font-size="14" lengthAdjust="spacing" textLength="78.2236" x="52" y="1320.542">Application</text></g><g class="participant participant-head" data-participant="PM"><rect fill="#FFFFFF" height="30.2969" rx="2.5" ry="2.5" style="stroke:#000000;stroke-width:1;" width="106.75" x="263.6177" y="5"/><text fill="#000000" font-family="Verdana" font-size="14" lengthAdjust="spacing" textLength="92.75" x="270.6177" y="24.9951">PathManager</text></g><g class="participant participant-tail" data-participant="PM"><rect fill="#FFFFFF" height="30.2969" rx="2.5" ry="2.5" style="stroke:#000000;stroke-width:1;" width="106.75" x="263.6177" y="1300.5469"/><text fill="#000000" font-family="Verdana" font-size="14" lengthAdjust="spacing" textLength="92.75" x="270.6177" y="1320.542">PathManager</text></g><g class="participant participant-head" data-participant="EM"><rect fill="#FFFFFF" height="30.2969" rx="2.5" ry="2.5" style="stroke:#000000;stroke-width:1;" width="137.6758" x="817.6558" y="5"/><text fill="#000000" font-family="Verdana" font-size="14" lengthAdjust="spacing" textLength="123.6758" x="824.6558" y="24.9951">EndpointManager</text></g><g class="participant participant-tail" data-participant="EM"><rect fill="#FFFFFF" height="30.2969" rx="2.5" ry="2.5" style="stroke:#000000;stroke-width:1;" width="137.6758" x="817.6558" y="1300.5469"/><text fill="#000000" font-family="Verdana" font-size="14" lengthAdjust="spacing" textLength="123.6758" x="824.6558" y="1320.542">EndpointManager</text></g><g class="participant participant-head" data-participant="Bonus"><rect fill="#FFFFFF" height="30.2969" rx="2.5" ry="2.5" style="stroke:#000000;stroke-width:1;" width="57.21" x="1060.603" y="5"/><text fill="#000000" font-family="Verdana" font-size="14" lengthAdjust="spacing" textLength="43.21" x="1067.603" y="24.9951">Bonus</text></g><g class="participant participant-tail" data-participant="Bonus"><rect fill="#FFFFFF" height="30.2969" rx="2.5" ry="2.5" style="stroke:#000000;stroke-width:1;" width="57.21" x="1060.603" y="1300.5469"/><text fill="#000000" font-family="Verdana" font-size="14" lengthAdjust="spacing" textLength="43.21" x="1067.603" y="1320.542">Bonus</text></g><g class="participant participant-head" data-participant="OAuth"><rect fill="#FFFFFF" height="30.2969" rx="2.5" ry="2.5" style="stroke:#000000;stroke-width:1;" width="90.6445" x="1147.813" y="5"/><text fill="#000000" font-family="Verdana" font-size="14" lengthAdjust="spacing" textLength="76.6445" x="1154.813" y="24.9951">OAuthAuth</text></g><g class="participant participant-tail" data-participant="OAuth"><rect fill="#FFFFFF" height="30.2969" rx="2.5" ry="2.5" style="stroke:#000000;stroke-width:1;" width="90.6445" x="1147.813" y="1300.5469"/><text fill="#000000" font-family="Verdana" font-size="14" lengthAdjust="spacing" textLength="76.6445" x="1154.813" y="1320.542">OAuthAuth</text></g><g class="participant participant-head" data-participant="Test"><rect fill="#FFFFFF" height="30.2969" rx="2.5" ry="2.5" style="stroke:#000000;stroke-width:1;" width="135.2012" x="1268.4575" y="5"/><text fill="#000000" font-family="Verdana" font-size="14" lengthAdjust="spacing" textLength="121.2012" x="1275.4575" y="24.9951">TestingEndpoints</text></g><g class="participant participant-tail" data-participant="Test"><rect fill="#FFFFFF" height="30.2969" rx="2.5" ry="2.5" style="stroke:#000000;stroke-width:1;" width="135.2012" x="1268.4575" y="1300.5469"/><text fill="#000000" font-family="Verdana" font-size="14" lengthAdjust="spacing" textLength="121.2012" x="1275.4575" y="1320.542">TestingEndpoints</text></g><g class="participant participant-head" data-participant="Cfg"><rect fill="#FFFFFF" height="30.2969" rx="2.5" ry="2.5" style="stroke:#000000;stroke-width:1;" width="58.9189" x="1433.6587" y="5"/><text fill="#000000" font-family="Verdana" font-size="14" lengthAdjust="spacing" textLength="44.9189" x="1440.6587" y="24.9951">Config</text></g><g class="participant participant-tail" data-participant="Cfg"><rect fill="#FFFFFF" height="30.2969" rx="2.5" ry="2.5" style="stroke:#000000;stroke-width:1;" width="58.9189" x="1433.6587" y="1300.5469"/><text fill="#000000" font-family="Verdana" font-size="14" lengthAdjust="spacing" textLength="44.9189" x="1440.6587" y="1320.542">Config</text></g><g><title>PathManager</title><rect fill="#FFFFFF" height="1007.1875" style="stroke:#000000;stroke-width:1;" width="10" x="311.9927" y="226.0938"/></g><g><title>EndpointManager</title><rect fill="#FFFFFF" height="129.5313" style="stroke:#000000;stroke-width:1;" width="10" x="881.4937" y="67.4297"/></g><g><title>EndpointManager</title><rect fill="#FFFFFF" height="948.9219" style="stroke:#000000;stroke-width:1;" width="10" x="881.4937" y="255.2266"/></g><g class="message" data-participant-1="App" data-participant-2="EM"><polygon fill="#000000" points="869.4937,63.4297,879.4937,67.4297,869.4937,71.4297,873.4937,67.4297" style="stroke:#000000;stroke-width:1;"/><line style="stroke:#000000;stroke-width:1;" x1="91.1118" x2="875.4937" y1="67.4297" y2="67.4297"/><text fill="#000000" font-family="Verdana" font-size="13" lengthAdjust="spacing" text-decoration="underline" textLength="20.5601" x="98.1118" y="62.3638">init</text><text fill="#000000" font-family="Verdana" font-size="13" lengthAdjust="spacing" textLength="10.1436" x="118.6719" y="62.3638">()</text></g><g class="message" data-participant-1="EM" data-participant-2="EM"><line style="stroke:#000000;stroke-width:1;" x1="891.4937" x2="933.4937" y1="96.5625" y2="96.5625"/><line style="stroke:#000000;stroke-width:1;" x1="933.4937" x2="933.4937" y1="96.5625" y2="109.5625"/><line style="stroke:#000000;stroke-width:1;" x1="892.4937" x2="933.4937" y1="109.5625" y2="109.5625"/><polygon fill="#000000" points="902.4937,105.5625,892.4937,109.5625,902.4937,113.5625,898.4937,109.5625" style="stroke:#000000;stroke-width:1;"/><text fill="#000000" font-family="Verdana" font-size="13" lengthAdjust="spacing" textLength="168.7144" x="898.4937" y="91.4966">_retrieve_path_manager()</text></g><g class="message" data-participant-1="EM" data-participant-2="Bonus"><polygon fill="#000000" points="1077.208,134.6953,1087.208,138.6953,1077.208,142.6953,1081.208,138.6953" style="stroke:#000000;stroke-width:1;"/><line style="stroke:#000000;stroke-width:1;" x1="891.4937" x2="1083.208" y1="138.6953" y2="138.6953"/><text fill="#000000" font-family="Verdana" font-size="13" lengthAdjust="spacing" textLength="81.269" x="898.4937" y="133.6294">new Bonus()</text></g><g class="message" data-participant-1="EM" data-participant-2="Test"><polygon fill="#000000" points="1324.0581,163.8281,1334.0581,167.8281,1324.0581,171.8281,1328.0581,167.8281" style="stroke:#000000;stroke-width:1;"/><line style="stroke:#000000;stroke-width:1;" x1="891.4937" x2="1330.0581" y1="167.8281" y2="167.8281"/><text fill="#000000" font-family="Verdana" font-size="13" lengthAdjust="spacing" textLength="153.6895" x="898.4937" y="162.7622">new TestingEndpoints()</text></g><g class="message" data-participant-1="EM" data-participant-2="App"><polygon fill="#000000" points="102.1118,192.9609,92.1118,196.9609,102.1118,200.9609,98.1118,196.9609" style="stroke:#000000;stroke-width:1;"/><line style="stroke:#000000;stroke-width:1;stroke-dasharray:2,2;" x1="96.1118" x2="885.4937" y1="196.9609" y2="196.9609"/><text fill="#000000" font-family="Verdana" font-size="13" lengthAdjust="spacing" textLength="174.0464" x="108.1118" y="191.895">EndpointManager instance</text></g><g class="message" data-participant-1="App" data-participant-2="PM"><polygon fill="#000000" points="299.9927,222.0938,309.9927,226.0938,299.9927,230.0938,303.9927,226.0938" style="stroke:#000000;stroke-width:1;"/><line style="stroke:#000000;stroke-width:1;" x1="91.1118" x2="305.9927" y1="226.0938" y2="226.0938"/><text fill="#000000" font-family="Verdana" font-size="13" lengthAdjust="spacing" textLength="201.8809" x="98.1118" y="221.0278">load_default_paths_initialised()</text></g><g class="message" data-participant-1="PM" data-participant-2="EM"><polygon fill="#000000" points="869.4937,251.2266,879.4937,255.2266,869.4937,259.2266,873.4937,255.2266" style="stroke:#000000;stroke-width:1;"/><line style="stroke:#000000;stroke-width:1;" x1="321.9927" x2="875.4937" y1="255.2266" y2="255.2266"/><text fill="#000000" font-family="Verdana" font-size="13" lengthAdjust="spacing" textLength="93.7549" x="328.9927" y="250.1606">inject_routes()</text></g><g class="message" data-participant-1="EM" data-participant-2="EM"><line style="stroke:#000000;stroke-width:1;" x1="891.4937" x2="933.4937" y1="284.3594" y2="284.3594"/><line style="stroke:#000000;stroke-width:1;" x1="933.4937" x2="933.4937" y1="284.3594" y2="297.3594"/><line style="stroke:#000000;stroke-width:1;" x1="892.4937" x2="933.4937" y1="297.3594" y2="297.3594"/><polygon fill="#000000" points="902.4937,293.3594,892.4937,297.3594,902.4937,301.3594,898.4937,297.3594" style="stroke:#000000;stroke-width:1;"/><text fill="#000000" font-family="Verdana" font-size="13" lengthAdjust="spacing" textLength="168.7144" x="898.4937" y="279.2935">_retrieve_path_manager()</text></g><g class="message" data-participant-1="EM" data-participant-2="PM"><polygon fill="#000000" points="332.9927,322.4922,322.9927,326.4922,332.9927,330.4922,328.9927,326.4922" style="stroke:#000000;stroke-width:1;"/><line style="stroke:#000000;stroke-width:1;" x1="326.9927" x2="880.4937" y1="326.4922" y2="326.4922"/><text fill="#000000" font-family="Verdana" font-size="13" lengthAdjust="spacing" textLength="169.2539" x="338.9927" y="321.4263">verify PathManager exists</text></g><path d="M25,341.4922 L89.4429,341.4922 L89.4429,348.625 L79.4429,358.625 L25,358.625 L25,341.4922" fill="#FFFFFF" style="stroke:#000000;stroke-width:1;"/><rect fill="none" height="46.2656" style="stroke:#000000;stroke-width:1;" width="950.3315" x="25" y="341.4922"/><text fill="#000000" font-family="Verdana" font-size="13" font-weight="bold" lengthAdjust="spacing" textLength="19.4429" x="40" y="354.5591">alt</text><text fill="#000000" font-family="Verdana" font-size="11" font-weight="bold" lengthAdjust="spacing" textLength="157.1958" x="104.4429" y="353.7026">[PathManager not found]</text><g class="message" data-participant-1="EM" data-participant-2="App"><polygon fill="#000000" points="102.1118,375.7578,92.1118,379.7578,102.1118,383.7578,98.1118,379.7578" style="stroke:#000000;stroke-width:1;"/><line style="stroke:#000000;stroke-width:1;stroke-dasharray:2,2;" x1="96.1118" x2="880.4937" y1="379.7578" y2="379.7578"/><text fill="#000000" font-family="Verdana" font-size="13" lengthAdjust="spacing" textLength="87.0835" x="108.1118" y="374.6919">RuntimeError</text></g><path d="M243.6177,401.7578 L389.1963,401.7578 L389.1963,408.8906 L379.1963,418.8906 L243.6177,418.8906 L243.6177,401.7578" fill="#FFFFFF" style="stroke:#000000;stroke-width:1;"/><rect fill="none" height="221.0625" style="stroke:#000000;stroke-width:1;" width="731.7139" x="243.6177" y="401.7578"/><text fill="#000000" font-family="Verdana" font-size="13" font-weight="bold" lengthAdjust="spacing" textLength="100.5786" x="258.6177" y="414.8247">Bonus Routes</text><g class="message" data-participant-1="EM" data-participant-2="PM"><polygon fill="#000000" points="332.9927,436.0234,322.9927,440.0234,332.9927,444.0234,328.9927,440.0234" style="stroke:#000000;stroke-width:1;"/><line style="stroke:#000000;stroke-width:1;" x1="326.9927" x2="880.4937" y1="440.0234" y2="440.0234"/><text fill="#000000" font-family="Verdana" font-size="13" lengthAdjust="spacing" textLength="352.0791" x="338.9927" y="434.9575">add_path("", bonus.get_welcome, ["GET", "POST", ...])</text></g><g class="message" data-participant-1="EM" data-participant-2="PM"><polygon fill="#000000" points="332.9927,465.1563,322.9927,469.1563,332.9927,473.1563,328.9927,469.1563" style="stroke:#000000;stroke-width:1;"/><line style="stroke:#000000;stroke-width:1;" x1="326.9927" x2="880.4937" y1="469.1563" y2="469.1563"/><text fill="#000000" font-family="Verdana" font-size="13" lengthAdjust="spacing" textLength="356.459" x="338.9927" y="464.0903">add_path("/", bonus.get_welcome, ["GET", "POST", ...])</text></g><g class="message" data-participant-1="EM" data-participant-2="PM"><polygon fill="#000000" points="332.9927,494.2891,322.9927,498.2891,332.9927,502.2891,328.9927,498.2891" style="stroke:#000000;stroke-width:1;"/><line style="stroke:#000000;stroke-width:1;" x1="326.9927" x2="880.4937" y1="498.2891" y2="498.2891"/><text fill="#000000" font-family="Verdana" font-size="13" lengthAdjust="spacing" textLength="315.7197" x="338.9927" y="493.2231">add_path("/api/v1/", bonus.get_welcome, "GET")</text></g><g class="message" data-participant-1="EM" data-participant-2="PM"><polygon fill="#000000" points="332.9927,523.4219,322.9927,527.4219,332.9927,531.4219,328.9927,527.4219" style="stroke:#000000;stroke-width:1;"/><line style="stroke:#000000;stroke-width:1;" x1="326.9927" x2="880.4937" y1="527.4219" y2="527.4219"/><text fill="#000000" font-family="Verdana" font-size="13" lengthAdjust="spacing" textLength="367.3135" x="338.9927" y="522.356">add_path("/api/v1/stop", bonus.post_stop_server, "PUT")</text></g><g class="message" data-participant-1="EM" data-participant-2="PM"><polygon fill="#000000" points="332.9927,552.5547,322.9927,556.5547,332.9927,560.5547,328.9927,556.5547" style="stroke:#000000;stroke-width:1;"/><line style="stroke:#000000;stroke-width:1;" x1="326.9927" x2="880.4937" y1="556.5547" y2="556.5547"/><text fill="#000000" font-family="Verdana" font-size="13" lengthAdjust="spacing" textLength="295.4644" x="338.9927" y="551.4888">add_path("/health", bonus.get_health, "GET")</text></g><g class="message" data-participant-1="EM" data-participant-2="PM"><polygon fill="#000000" points="332.9927,581.6875,322.9927,585.6875,332.9927,589.6875,328.9927,585.6875" style="stroke:#000000;stroke-width:1;"/><line style="stroke:#000000;stroke-width:1;" x1="326.9927" x2="880.4937" y1="585.6875" y2="585.6875"/><text fill="#000000" font-family="Verdana" font-size="13" lengthAdjust="spacing" textLength="330.3828" x="338.9927" y="580.6216">add_path("/favicon.ico", bonus.get_favicon, "GET")</text></g><g class="message" data-participant-1="EM" data-participant-2="PM"><polygon fill="#000000" points="332.9927,610.8203,322.9927,614.8203,332.9927,618.8203,328.9927,614.8203" style="stroke:#000000;stroke-width:1;"/><line style="stroke:#000000;stroke-width:1;" x1="326.9927" x2="880.4937" y1="614.8203" y2="614.8203"/><text fill="#000000" font-family="Verdana" font-size="13" lengthAdjust="spacing" textLength="379.8438" x="338.9927" y="609.7544">add_path("/static/logo.png", bonus.get_static_logo, "GET")</text></g><path d="M15,636.8203 L161.3276,636.8203 L161.3276,643.9531 L151.3276,653.9531 L15,653.9531 L15,636.8203" fill="#FFFFFF" style="stroke:#000000;stroke-width:1;"/><rect fill="none" height="281.3281" style="stroke:#000000;stroke-width:1;" width="1243.4575" x="15" y="636.8203"/><text fill="#000000" font-family="Verdana" font-size="13" font-weight="bold" lengthAdjust="spacing" textLength="101.3276" x="30" y="649.8872">OAuth Routes</text><g class="message" data-participant-1="EM" data-participant-2="OAuth"><polygon fill="#000000" points="1181.1353,671.0859,1191.1353,675.0859,1181.1353,679.0859,1185.1353,675.0859" style="stroke:#000000;stroke-width:1;"/><line style="stroke:#000000;stroke-width:1;" x1="891.4937" x2="1187.1353" y1="675.0859" y2="675.0859"/><text fill="#000000" font-family="Verdana" font-size="13" lengthAdjust="spacing" textLength="138.2012" x="898.4937" y="670.02">verify instance exists</text></g><path d="M25,690.0859 L89.4429,690.0859 L89.4429,697.2188 L79.4429,707.2188 L25,707.2188 L25,690.0859" fill="#FFFFFF" style="stroke:#000000;stroke-width:1;"/><rect fill="none" height="46.2656" style="stroke:#000000;stroke-width:1;" width="950.3315" x="25" y="690.0859"/><text fill="#000000" font-family="Verdana" font-size="13" font-weight="bold" lengthAdjust="spacing" textLength="19.4429" x="40" y="703.1528">alt</text><text fill="#000000" font-family="Verdana" font-size="11" font-weight="bold" lengthAdjust="spacing" textLength="113.0239" x="104.4429" y="702.2964">[OAuth not found]</text><g class="message" data-participant-1="EM" data-participant-2="App"><polygon fill="#000000" points="102.1118,724.3516,92.1118,728.3516,102.1118,732.3516,98.1118,728.3516" style="stroke:#000000;stroke-width:1;"/><line style="stroke:#000000;stroke-width:1;stroke-dasharray:2,2;" x1="96.1118" x2="880.4937" y1="728.3516" y2="728.3516"/><text fill="#000000" font-family="Verdana" font-size="13" lengthAdjust="spacing" textLength="87.0835" x="108.1118" y="723.2856">RuntimeError</text></g><g class="message" data-participant-1="EM" data-participant-2="PM"><polygon fill="#000000" points="332.9927,760.4844,322.9927,764.4844,332.9927,768.4844,328.9927,764.4844" style="stroke:#000000;stroke-width:1;"/><line style="stroke:#000000;stroke-width:1;" x1="326.9927" x2="880.4937" y1="764.4844" y2="764.4844"/><text fill="#000000" font-family="Verdana" font-size="13" lengthAdjust="spacing" textLength="385.1504" x="338.9927" y="759.4185">add_path("/api/v1/oauth/login", oauth.oauth_login, "POST")</text></g><g class="message" data-participant-1="EM" data-participant-2="PM"><polygon fill="#000000" points="332.9927,789.6172,322.9927,793.6172,332.9927,797.6172,328.9927,793.6172" style="stroke:#000000;stroke-width:1;"/><line style="stroke:#000000;stroke-width:1;" x1="326.9927" x2="880.4937" y1="793.6172" y2="793.6172"/><text fill="#000000" font-family="Verdana" font-size="13" lengthAdjust="spacing" textLength="428.2764" x="338.9927" y="788.5513">add_path("/api/v1/oauth/callback", oauth.oauth_callback, "POST")</text></g><g class="message" data-participant-1="EM" data-participant-2="PM"><polygon fill="#000000" points="332.9927,818.75,322.9927,822.75,332.9927,826.75,328.9927,822.75" style="stroke:#000000;stroke-width:1;"/><line style="stroke:#000000;stroke-width:1;" x1="326.9927" x2="880.4937" y1="822.75" y2="822.75"/><text fill="#000000" font-family="Verdana" font-size="13" lengthAdjust="spacing" textLength="478.2261" x="338.9927" y="817.6841">add_path("/api/v1/oauth/{provider}", oauth.add_oauth_provider, "POST")</text></g><g class="message" data-participant-1="EM" data-participant-2="PM"><polygon fill="#000000" points="332.9927,847.8828,322.9927,851.8828,332.9927,855.8828,328.9927,851.8828" style="stroke:#000000;stroke-width:1;"/><line style="stroke:#000000;stroke-width:1;" x1="326.9927" x2="880.4937" y1="851.8828" y2="851.8828"/><text fill="#000000" font-family="Verdana" font-size="13" lengthAdjust="spacing" textLength="526.373" x="338.9927" y="846.8169">add_path("/api/v1/oauth/{provider}", oauth.update_oauth_provider_data, "PUT")</text></g><g class="message" data-participant-1="EM" data-participant-2="PM"><polygon fill="#000000" points="332.9927,877.0156,322.9927,881.0156,332.9927,885.0156,328.9927,881.0156" style="stroke:#000000;stroke-width:1;"/><line style="stroke:#000000;stroke-width:1;" x1="326.9927" x2="880.4937" y1="881.0156" y2="881.0156"/><text fill="#000000" font-family="Verdana" font-size="13" lengthAdjust="spacing" textLength="535.501" x="338.9927" y="875.9497">add_path("/api/v1/oauth/{provider}", oauth.patch_oauth_provider_data, "PATCH")</text></g><g class="message" data-participant-1="EM" data-participant-2="PM"><polygon fill="#000000" points="332.9927,906.1484,322.9927,910.1484,332.9927,914.1484,328.9927,910.1484" style="stroke:#000000;stroke-width:1;"/><line style="stroke:#000000;stroke-width:1;" x1="326.9927" x2="880.4937" y1="910.1484" y2="910.1484"/><text fill="#000000" font-family="Verdana" font-size="13" lengthAdjust="spacing" textLength="510.2817" x="338.9927" y="905.0825">add_path("/api/v1/oauth/{provider}", oauth.delete_oauth_provider, "DELETE")</text></g><path d="M233.6177,932.1484 L488.7441,932.1484 L488.7441,939.2813 L478.7441,949.2813 L233.6177,949.2813 L233.6177,932.1484" fill="#FFFFFF" style="stroke:#000000;stroke-width:1;"/><rect fill="none" height="243.8672" style="stroke:#000000;stroke-width:1;" width="1278.96" x="233.6177" y="932.1484"/><text fill="#000000" font-family="Verdana" font-size="13" font-weight="bold" lengthAdjust="spacing" textLength="210.1265" x="248.6177" y="945.2153">Testing Routes (Conditional)</text><g class="message" data-participant-1="EM" data-participant-2="Cfg"><polygon fill="#000000" points="1451.1182,966.4141,1461.1182,970.4141,1451.1182,974.4141,1455.1182,970.4141" style="stroke:#000000;stroke-width:1;"/><line style="stroke:#000000;stroke-width:1;" x1="891.4937" x2="1457.1182" y1="970.4141" y2="970.4141"/><text fill="#000000" font-family="Verdana" font-size="13" lengthAdjust="spacing" textLength="276.999" x="898.4937" y="965.3481">check TEST_ENABLE_TESTING_ENDPOINTS</text></g><path d="M243.6177,985.4141 L308.0605,985.4141 L308.0605,992.5469 L298.0605,1002.5469 L243.6177,1002.5469 L243.6177,985.4141" fill="#FFFFFF" style="stroke:#000000;stroke-width:1;"/><rect fill="none" height="183.6016" style="stroke:#000000;stroke-width:1;" width="958.0313" x="243.6177" y="985.4141"/><text fill="#000000" font-family="Verdana" font-size="13" font-weight="bold" lengthAdjust="spacing" textLength="19.4429" x="258.6177" y="998.481">alt</text><text fill="#000000" font-family="Verdana" font-size="11" font-weight="bold" lengthAdjust="spacing" textLength="109.8228" x="323.0605" y="997.6245">[Testing enabled]</text><g class="message" data-participant-1="EM" data-participant-2="PM"><polygon fill="#000000" points="332.9927,1019.6797,322.9927,1023.6797,332.9927,1027.6797,328.9927,1023.6797" style="stroke:#000000;stroke-width:1;"/><line style="stroke:#000000;stroke-width:1;" x1="326.9927" x2="880.4937" y1="1023.6797" y2="1023.6797"/><text fill="#000000" font-family="Verdana" font-size="13" lengthAdjust="spacing" textLength="350.5303" x="338.9927" y="1018.6138">add_path("/testing/sql/tables", test.get_tables, "GET")</text></g><g class="message" data-participant-1="EM" data-participant-2="PM"><polygon fill="#000000" points="332.9927,1048.8125,322.9927,1052.8125,332.9927,1056.8125,328.9927,1052.8125" style="stroke:#000000;stroke-width:1;"/><line style="stroke:#000000;stroke-width:1;" x1="326.9927" x2="880.4937" y1="1052.8125" y2="1052.8125"/><text fill="#000000" font-family="Verdana" font-size="13" lengthAdjust="spacing" textLength="457.1201" x="338.9927" y="1047.7466">add_path("/testing/sql/table/columns", test.get_table_columns, "GET")</text></g><g class="message" data-participant-1="EM" data-participant-2="PM"><polygon fill="#000000" points="332.9927,1077.9453,322.9927,1081.9453,332.9927,1085.9453,328.9927,1081.9453" style="stroke:#000000;stroke-width:1;"/><line style="stroke:#000000;stroke-width:1;" x1="326.9927" x2="880.4937" y1="1081.9453" y2="1081.9453"/><text fill="#000000" font-family="Verdana" font-size="13" lengthAdjust="spacing" textLength="439.5879" x="338.9927" y="1076.8794">add_path("/testing/sql/connected", test.test_sql_connection, "GET")</text></g><g class="message" data-participant-1="EM" data-participant-2="PM"><polygon fill="#000000" points="332.9927,1107.0781,322.9927,1111.0781,332.9927,1115.0781,328.9927,1111.0781" style="stroke:#000000;stroke-width:1;"/><line style="stroke:#000000;stroke-width:1;" x1="326.9927" x2="880.4937" y1="1111.0781" y2="1111.0781"/><text fill="#000000" font-family="Verdana" font-size="13" lengthAdjust="spacing" textLength="398.8296" x="338.9927" y="1106.0122">add_path("/testing/bucket/buckets", test.get_buckets, "GET")</text></g><g class="message" data-participant-1="EM" data-participant-2="PM"><polygon fill="#000000" points="332.9927,1139.2109,322.9927,1143.2109,332.9927,1147.2109,328.9927,1143.2109" style="stroke:#000000;stroke-width:1;"/><line style="stroke:#000000;stroke-width:1;" x1="326.9927" x2="880.4937" y1="1143.2109" y2="1143.2109"/><text fill="#000000" font-family="Verdana" font-size="13" lengthAdjust="spacing" textLength="490.8389" x="338.9927" y="1138.145">add_path("/testing/bucket/connected", test.test_bucket_connection, "GET")</text></g><path d="M896,1124.0781 L896,1149.0781 L1191,1149.0781 L1191,1134.0781 L1181,1124.0781 L896,1124.0781" fill="#FFFFFF" style="stroke:#000000;stroke-width:1;"/><path d="M1181,1124.0781 L1181,1134.0781 L1191,1134.0781 L1181,1124.0781" fill="#FFFFFF" style="stroke:#000000;stroke-width:1;"/><text fill="#000000" font-family="Verdana" font-size="13" lengthAdjust="spacing" textLength="274.1553" x="902" y="1141.145">Many more testing endpoints registered...</text><line style="stroke:#000000;stroke-width:1;stroke-dasharray:2,2;" x1="243.6177" x2="1201.6489" y1="1155.2109" y2="1155.2109"/><text fill="#000000" font-family="Verdana" font-size="11" font-weight="bold" lengthAdjust="spacing" textLength="112.7231" x="248.6177" y="1165.4214">[Testing disabled]</text><g class="message" data-participant-1="EM" data-participant-2="PM"><polygon fill="#000000" points="332.9927,1200.1484,322.9927,1204.1484,332.9927,1208.1484,328.9927,1204.1484" style="stroke:#000000;stroke-width:1;"/><line style="stroke:#000000;stroke-width:1;stroke-dasharray:2,2;" x1="326.9927" x2="885.4937" y1="1204.1484" y2="1204.1484"/><text fill="#000000" font-family="Verdana" font-size="13" lengthAdjust="spacing" textLength="131.5298" x="338.9927" y="1199.0825">all routes registered</text></g><g class="message" data-participant-1="PM" data-participant-2="App"><polygon fill="#000000" points="102.1118,1229.2813,92.1118,1233.2813,102.1118,1237.2813,98.1118,1233.2813" style="stroke:#000000;stroke-width:1;"/><line style="stroke:#000000;stroke-width:1;stroke-dasharray:2,2;" x1="96.1118" x2="315.9927" y1="1233.2813" y2="1233.2813"/><text fill="#000000" font-family="Verdana" font-size="13" lengthAdjust="spacing" textLength="89.5718" x="108.1118" y="1228.2153">routes loaded</text></g><path d="M182,1246.2813 L182,1286.2813 L451,1286.2813 L451,1256.2813 L441,1246.2813 L182,1246.2813" fill="#FFFFFF" style="stroke:#000000;stroke-width:1;"/><path d="M441,1246.2813 L441,1256.2813 L451,1256.2813 L441,1246.2813" fill="#FFFFFF" style="stroke:#000000;stroke-width:1;"/><text fill="#000000" font-family="Verdana" font-size="13" lengthAdjust="spacing" textLength="248.5361" x="188" y="1263.3481">All routes now stored in PathManager,</text><text fill="#000000" font-family="Verdana" font-size="13" lengthAdjust="spacing" textLength="199.9512" x="188" y="1278.481">ready for injection into FastAPI</text><!--SRC=[hLNVRziW47xtNy7or4fjehtsOLBQUbsb_eXQxscQ4B4lDWi11ZXTDUr_tu6nOoTBqwfxY0Dt7n_VmN7tmLMm0g85up99D3EEvrmpwSXeghNWENDSoH5Xbk1y29WnLzqooKem0J2x7VfJMMZ5fUjZqYtCkPAr3Pum6ZhlfxMh_2y0mcm8oC0wBijseuR86uUm2oKNl0pEYqMP91W9EVs4MiWPePHBxYWzEavOxlYQEV0YqTSX33Z3OGrKOy1qrKI3-0OJT2DCmbCpxZnUI7Hi2qKCijP6agr38bnQnsGEdSgPro0KAsW12rOB5sJO89ipmIqKVUru2REDTYv_GEweKRK3knNY6s8C6jPW-EAPz6wTm2zkdKsOS0EpL8uiL2sBX7ZwKsJmmPoHXrewleBK66KIG7zIeZGTp_0Xg8nhugQiA8Aaez7eXCmzR5o2eqyWShM24_9jT9Lcw1hDxX_z_tWy_dwyZsBoFpYOvfFrnprKWUdWMkkKxjPhPHtr5ch1u1bx7LzV8ga0pxiQxD-O3cw_O6kUApd6ps1vj1zSZvc9ZseYLAd6MfO3ZiP7lQ_ZwTrmUBpRDzmOkyngKxzDAq9yOZMWVagzb5I4G9TsUyzVCQJqON29COJPE7nfiBMPSFmwdfm9CMVvSekgDR-HxRSsQiqBC7ywFWzjE5lV-pbhNM0PsAAbQ6C7y-yGDSBoQX_pDBluyWxk0WJio4RUo_GcpT9XoiMQ6vEE764NABZlPani160_G0Lv1VcIPEbZHjExwVbDIltu-kuAfvUp- -kxx35cOqiAaiq5RB9nDnJN82VsfvWu3xOOXJU6vz9OUY_krJIJN8bw9NVPQ7IyaHGVliGU0KLBw3yKFJHw-A0o7AASr_aINFmRY8ocjtFzMs7Zt2SIwmKGmylAdH5iIyzafGmGrzrUxCF4G8cr1WmKMFLzzH0MkaikkDtSSfyns-6nIwvrGFeC35aO6poM0TBqtzvchJCwV7j7Om7zDfw47HKMHpyZPBeXakg9OCj08YoQ_TPxWZW3h7Z6OcbYzyUZmP5Jv3EpRZgxzkf2DCbV]--></g></svg>