<svg xmlns="http://www.w3.org/2000/svg" xmlns:xlink="http://www.w3.org/1999/xlink" contentStyleType="text/css" data-diagram-type="CLASS" height="618px" preserveAspectRatio="none" style="width:2363px;height:618px;background:#FFFFFF;" version="1.1" viewBox="0 0 2363 618" width="2363px" zoomAndPan="magnify"><defs/><g><!--cluster EndpointManager Module--><g class="cluster" data-entity="EndpointManager Module" data-source-line="36" data-uid="ent0002" id="cluster_EndpointManager Module"><path d="M13.5,11 L217.0693,11 A3.75,3.75 0 0 1 219.5693,13.5 L226.5693,33.2969 L444.5,33.2969 A2.5,2.5 0 0 1 447,35.7969 L447,473.66 A2.5,2.5 0 0 1 444.5,476.16 L13.5,476.16 A2.5,2.5 0 0 1 11,473.66 L11,13.5 A2.5,2.5 0 0 1 13.5,11" fill="#FFFFFF" style="stroke:#000000;stroke-width:1;"/><line style="stroke:#000000;stroke-width:1;" x1="11" x2="226.5693" y1="33.2969" y2="33.2969"/><text fill="#000000" font-family="Verdana" font-size="14" font-weight="bold" lengthAdjust="spacing" textLength="202.5693" x="15" y="25.9951">EndpointManager Module</text></g><!--cluster Endpoint Sub-Modules--><g class="cluster" data-entity="Endpoint Sub-Modules" data-source-line="56" data-uid="ent0005" id="cluster_Endpoint Sub-Modules"><path d="M473.5,299.67 L652.0703,299.67 A3.75,3.75 0 0 1 654.5703,302.17 L661.5703,321.9669 L1054.5,321.9669 A2.5,2.5 0 0 1 1057,324.4669 L1057,506.25 A2.5,2.5 0 0 1 1054.5,508.75 L473.5,508.75 A2.5,2.5 0 0 1 471,506.25 L471,302.17 A2.5,2.5 0 0 1 473.5,299.67" fill="#FFFFFF" style="stroke:#000000;stroke-width:1;"/><line style="stroke:#000000;stroke-width:1;" x1="471" x2="661.5703" y1="321.9669" y2="321.9669"/><text fill="#000000" font-family="Verdana" font-size="14" font-weight="bold" lengthAdjust="spacing" textLength="177.5703" x="475" y="314.6651">Endpoint Sub-Modules</text></g><!--cluster PathManager--><g class="cluster" data-entity="PathManager" data-source-line="83" data-uid="ent0009" id="cluster_PathManager"><path d="M1091.5,340.56 L1198.0811,340.56 A3.75,3.75 0 0 1 1200.5811,343.06 L1207.5811,362.8569 L1419.5,362.8569 A2.5,2.5 0 0 1 1422,365.3569 L1422,465.36 A2.5,2.5 0 0 1 1419.5,467.86 L1091.5,467.86 A2.5,2.5 0 0 1 1089,465.36 L1089,343.06 A2.5,2.5 0 0 1 1091.5,340.56" fill="#FFFFFF" style="stroke:#000000;stroke-width:1;"/><line style="stroke:#000000;stroke-width:1;" x1="1089" x2="1207.5811" y1="362.8569" y2="362.8569"/><text fill="#000000" font-family="Verdana" font-size="14" font-weight="bold" lengthAdjust="spacing" textLength="105.5811" x="1093" y="355.5551">PathManager</text></g><!--cluster Authentication--><g class="cluster" data-entity="Authentication" data-source-line="89" data-uid="ent0011" id="cluster_Authentication"><path d="M1456.5,315.97 L1574.7363,315.97 A3.75,3.75 0 0 1 1577.2363,318.47 L1584.2363,338.2669 L1910.5,338.2669 A2.5,2.5 0 0 1 1913,340.7669 L1913,489.95 A2.5,2.5 0 0 1 1910.5,492.45 L1456.5,492.45 A2.5,2.5 0 0 1 1454,489.95 L1454,318.47 A2.5,2.5 0 0 1 1456.5,315.97" fill="#FFFFFF" style="stroke:#000000;stroke-width:1;"/><line style="stroke:#000000;stroke-width:1;" x1="1454" x2="1584.2363" y1="338.2669" y2="338.2669"/><text fill="#000000" font-family="Verdana" font-size="14" font-weight="bold" lengthAdjust="spacing" textLength="117.2363" x="1458" y="330.9651">Authentication</text></g><!--cluster Core--><g class="cluster" data-entity="Core" data-source-line="104" data-uid="ent0014" id="cluster_Core"><path d="M1939.5,340.42 L1976.792,340.42 A3.75,3.75 0 0 1 1979.292,342.92 L1986.292,362.7169 L2353.5,362.7169 A2.5,2.5 0 0 1 2356,365.2169 L2356,465.51 A2.5,2.5 0 0 1 2353.5,468.01 L1939.5,468.01 A2.5,2.5 0 0 1 1937,465.51 L1937,342.92 A2.5,2.5 0 0 1 1939.5,340.42" fill="#FFFFFF" style="stroke:#000000;stroke-width:1;"/><line style="stroke:#000000;stroke-width:1;" x1="1937" x2="1986.292" y1="362.7169" y2="362.7169"/><text fill="#000000" font-family="Verdana" font-size="14" font-weight="bold" lengthAdjust="spacing" textLength="36.292" x="1941" y="355.4151">Core</text></g><!--class EndpointManager--><g class="entity" data-entity="EndpointManager" data-source-line="37" data-uid="ent0003" id="entity_EndpointManager"><rect fill="#FFFFFF" height="190.6719" rx="2.5" ry="2.5" style="stroke:#000000;stroke-width:1;" width="403.1074" x="27.45" y="46"/><ellipse cx="163.4158" cy="60" fill="#FFFFFF" rx="9" ry="9" style="stroke:#000000;stroke-width:1;"/><path d="M166.3846,65.6406 Q165.8064,65.9375 165.1658,66.0781 Q164.5252,66.2344 163.8221,66.2344 Q161.3221,66.2344 159.9939,64.5938 Q158.6814,62.9375 158.6814,59.8125 Q158.6814,56.6875 159.9939,55.0313 Q161.3221,53.375 163.8221,53.375 Q164.5252,53.375 165.1658,53.5313 Q165.8221,53.6875 166.3846,53.9844 L166.3846,56.7031 Q165.7596,56.125 165.1658,55.8594 Q164.5721,55.5781 163.9471,55.5781 Q162.6033,55.5781 161.9158,56.6563 Q161.2283,57.7188 161.2283,59.8125 Q161.2283,61.9063 161.9158,62.9844 Q162.6033,64.0469 163.9471,64.0469 Q164.5721,64.0469 165.1658,63.7813 Q165.7596,63.5 166.3846,62.9219 L166.3846,65.6406 Z " fill="#000000"/><text fill="#000000" font-family="Verdana" font-size="14" lengthAdjust="spacing" textLength="123.6758" x="180.9158" y="64.8467">EndpointManager</text><line style="stroke:#000000;stroke-width:1;" x1="28.45" x2="429.5574" y1="74" y2="74"/><rect fill="none" height="6" style="stroke:#000000;stroke-width:1;" width="6" x="35.45" y="84.6484"/><text fill="#000000" font-family="Verdana" font-size="14" lengthAdjust="spacing" textLength="215.2227" x="45.45" y="90.9951">paths_initialised: PathManager</text><rect fill="none" height="6" style="stroke:#000000;stroke-width:1;" width="6" x="35.45" y="100.9453"/><text fill="#000000" font-family="Verdana" font-size="14" lengthAdjust="spacing" textLength="346.4863" x="45.45" y="107.292">password_handling_initialised: PasswordHandling</text><rect fill="none" height="6" style="stroke:#000000;stroke-width:1;" width="6" x="35.45" y="117.2422"/><text fill="#000000" font-family="Verdana" font-size="14" lengthAdjust="spacing" textLength="379.1074" x="45.45" y="123.5889">oauth_authentication_initialised: OAuthAuthentication</text><rect fill="none" height="6" style="stroke:#000000;stroke-width:1;" width="6" x="35.45" y="133.5391"/><text fill="#000000" font-family="Verdana" font-size="14" lengthAdjust="spacing" textLength="254.6934" x="45.45" y="139.8857">runtime_manager: RuntimeManager</text><rect fill="none" height="6" style="stroke:#000000;stroke-width:1;" width="6" x="35.45" y="149.8359"/><text fill="#000000" font-family="Verdana" font-size="14" lengthAdjust="spacing" textLength="94.8691" x="45.45" y="156.1826">bonus: Bonus</text><rect fill="none" height="6" style="stroke:#000000;stroke-width:1;" width="6" x="35.45" y="166.1328"/><text fill="#000000" font-family="Verdana" font-size="14" lengthAdjust="spacing" textLength="255.2744" x="45.45" y="172.4795">testing_endpoints: TestingEndpoints</text><line style="stroke:#000000;stroke-width:1;" x1="28.45" x2="429.5574" y1="179.7813" y2="179.7813"/><ellipse cx="38.45" cy="193.4297" fill="#FFFFFF" rx="3" ry="3" style="stroke:#000000;stroke-width:1;"/><text fill="#000000" font-family="Verdana" font-size="14" lengthAdjust="spacing" textLength="212.2217" x="45.45" y="196.7764">__init__(success, error, debug)</text><ellipse cx="38.45" cy="209.7266" fill="#FFFFFF" rx="3" ry="3" style="stroke:#000000;stroke-width:1;"/><text fill="#000000" font-family="Verdana" font-size="14" lengthAdjust="spacing" textLength="100.9668" x="45.45" y="213.0732">inject_routes()</text><rect fill="#FFFFFF" height="6" style="stroke:#000000;stroke-width:1;" width="6" x="35.45" y="223.0234"/><text fill="#000000" font-family="Verdana" font-size="14" lengthAdjust="spacing" textLength="181.6924" x="45.45" y="229.3701">_retrieve_path_manager()</text></g><!--class EndpointConstants--><g class="entity" data-entity="EndpointConstants" data-source-line="49" data-uid="ent0004" id="entity_EndpointConstants"><rect fill="#FFFFFF" height="92.8906" rx="2.5" ry="2.5" style="stroke:#000000;stroke-width:1;" width="387.0088" x="35.5" y="367.27"/><ellipse cx="158.9834" cy="381.27" fill="#FFFFFF" rx="9" ry="9" style="stroke:#000000;stroke-width:1;"/><path d="M161.9521,386.9106 Q161.374,387.2075 160.7334,387.3481 Q160.0928,387.5044 159.3896,387.5044 Q156.8896,387.5044 155.5615,385.8638 Q154.249,384.2075 154.249,381.0825 Q154.249,377.9575 155.5615,376.3013 Q156.8896,374.645 159.3896,374.645 Q160.0928,374.645 160.7334,374.8013 Q161.3896,374.9575 161.9521,375.2544 L161.9521,377.9731 Q161.3271,377.395 160.7334,377.1294 Q160.1396,376.8481 159.5146,376.8481 Q158.1709,376.8481 157.4834,377.9263 Q156.7959,378.9888 156.7959,381.0825 Q156.7959,383.1763 157.4834,384.2544 Q158.1709,385.3169 159.5146,385.3169 Q160.1396,385.3169 160.7334,385.0513 Q161.3271,384.77 161.9521,384.1919 L161.9521,386.9106 Z " fill="#000000"/><text fill="#000000" font-family="Verdana" font-size="14" lengthAdjust="spacing" textLength="132.542" x="176.4834" y="386.1167">EndpointConstants</text><line style="stroke:#000000;stroke-width:1;" x1="36.5" x2="421.5088" y1="395.27" y2="395.27"/><ellipse cx="46.5" cy="408.9184" fill="none" rx="3" ry="3" style="stroke:#000000;stroke-width:1;"/><text fill="#000000" font-family="Verdana" font-size="14" lengthAdjust="spacing" textLength="120.9004" x="53.5" y="412.2651">TOML_CONF: dict</text><ellipse cx="46.5" cy="425.2153" fill="none" rx="3" ry="3" style="stroke:#000000;stroke-width:1;"/><text fill="#000000" font-family="Verdana" font-size="14" lengthAdjust="spacing" textLength="291.9424" x="53.5" y="428.562">TEST_ENABLE_TESTING_ENDPOINTS: bool</text><line style="stroke:#000000;stroke-width:1;" x1="36.5" x2="421.5088" y1="435.8638" y2="435.8638"/><ellipse cx="46.5" cy="449.5122" fill="#FFFFFF" rx="3" ry="3" style="stroke:#000000;stroke-width:1;"/><text fill="#000000" font-family="Verdana" font-size="14" lengthAdjust="spacing" textLength="363.0088" x="53.5" y="452.8589">_get_toml_variable(toml_conf, section, key, default)</text></g><!--class Bonus--><g class="entity" data-entity="Bonus" data-source-line="57" data-uid="ent0006" id="entity_Bonus"><rect fill="#FFFFFF" height="125.4844" rx="2.5" ry="2.5" style="stroke:#000000;stroke-width:1;" width="153.7119" x="487.14" y="350.97"/><ellipse cx="538.641" cy="364.97" fill="#FFFFFF" rx="9" ry="9" style="stroke:#000000;stroke-width:1;"/><path d="M541.6097,370.6106 Q541.0316,370.9075 540.391,371.0481 Q539.7504,371.2044 539.0472,371.2044 Q536.5472,371.2044 535.2191,369.5637 Q533.9066,367.9075 533.9066,364.7825 Q533.9066,361.6575 535.2191,360.0012 Q536.5472,358.345 539.0472,358.345 Q539.7504,358.345 540.391,358.5012 Q541.0472,358.6575 541.6097,358.9544 L541.6097,361.6731 Q540.9847,361.095 540.391,360.8294 Q539.7972,360.5481 539.1722,360.5481 Q537.8285,360.5481 537.141,361.6262 Q536.4535,362.6887 536.4535,364.7825 Q536.4535,366.8762 537.141,367.9544 Q537.8285,369.0169 539.1722,369.0169 Q539.7972,369.0169 540.391,368.7512 Q540.9847,368.47 541.6097,367.8919 L541.6097,370.6106 Z " fill="#000000"/><text fill="#000000" font-family="Verdana" font-size="14" lengthAdjust="spacing" textLength="43.21" x="556.141" y="369.8167">Bonus</text><line style="stroke:#000000;stroke-width:1;" x1="488.14" x2="639.8519" y1="378.97" y2="378.97"/><line style="stroke:#000000;stroke-width:1;" x1="488.14" x2="639.8519" y1="386.97" y2="386.97"/><ellipse cx="498.14" cy="400.6184" fill="#FFFFFF" rx="3" ry="3" style="stroke:#000000;stroke-width:1;"/><text fill="#000000" font-family="Verdana" font-size="14" lengthAdjust="spacing" textLength="103.3799" x="505.14" y="403.9651">get_welcome()</text><ellipse cx="498.14" cy="416.9153" fill="#FFFFFF" rx="3" ry="3" style="stroke:#000000;stroke-width:1;"/><text fill="#000000" font-family="Verdana" font-size="14" lengthAdjust="spacing" textLength="129.7119" x="505.14" y="420.262">post_stop_server()</text><ellipse cx="498.14" cy="433.2122" fill="#FFFFFF" rx="3" ry="3" style="stroke:#000000;stroke-width:1;"/><text fill="#000000" font-family="Verdana" font-size="14" lengthAdjust="spacing" textLength="85.2305" x="505.14" y="436.5589">get_health()</text><ellipse cx="498.14" cy="449.5091" fill="#FFFFFF" rx="3" ry="3" style="stroke:#000000;stroke-width:1;"/><text fill="#000000" font-family="Verdana" font-size="14" lengthAdjust="spacing" textLength="91.7314" x="505.14" y="452.8557">get_favicon()</text><ellipse cx="498.14" cy="465.8059" fill="#FFFFFF" rx="3" ry="3" style="stroke:#000000;stroke-width:1;"/><text fill="#000000" font-family="Verdana" font-size="14" lengthAdjust="spacing" textLength="116.2588" x="505.14" y="469.1526">get_static_logo()</text></g><!--class TestingEndpoints--><g class="entity" data-entity="TestingEndpoints" data-source-line="65" data-uid="ent0007" id="entity_TestingEndpoints"><rect fill="#FFFFFF" height="158.0781" rx="2.5" ry="2.5" style="stroke:#000000;stroke-width:1;" width="200.6133" x="675.69" y="334.67"/><ellipse cx="711.8254" cy="348.67" fill="#FFFFFF" rx="9" ry="9" style="stroke:#000000;stroke-width:1;"/><path d="M714.7942,354.3106 Q714.2161,354.6075 713.5754,354.7481 Q712.9348,354.9044 712.2317,354.9044 Q709.7317,354.9044 708.4036,353.2637 Q707.0911,351.6075 707.0911,348.4825 Q707.0911,345.3575 708.4036,343.7012 Q709.7317,342.045 712.2317,342.045 Q712.9348,342.045 713.5754,342.2012 Q714.2317,342.3575 714.7942,342.6544 L714.7942,345.3731 Q714.1692,344.795 713.5754,344.5294 Q712.9817,344.2481 712.3567,344.2481 Q711.0129,344.2481 710.3254,345.3262 Q709.6379,346.3887 709.6379,348.4825 Q709.6379,350.5762 710.3254,351.6544 Q711.0129,352.7169 712.3567,352.7169 Q712.9817,352.7169 713.5754,352.4512 Q714.1692,352.17 714.7942,351.5919 L714.7942,354.3106 Z " fill="#000000"/><text fill="#000000" font-family="Verdana" font-size="14" lengthAdjust="spacing" textLength="121.2012" x="728.9667" y="353.5167">TestingEndpoints</text><line style="stroke:#000000;stroke-width:1;" x1="676.69" x2="875.3033" y1="362.67" y2="362.67"/><line style="stroke:#000000;stroke-width:1;" x1="676.69" x2="875.3033" y1="370.67" y2="370.67"/><ellipse cx="686.69" cy="384.3184" fill="#FFFFFF" rx="3" ry="3" style="stroke:#000000;stroke-width:1;"/><text fill="#000000" font-family="Verdana" font-size="14" lengthAdjust="spacing" textLength="83.665" x="693.69" y="387.6651">get_tables()</text><ellipse cx="686.69" cy="400.6153" fill="#FFFFFF" rx="3" ry="3" style="stroke:#000000;stroke-width:1;"/><text fill="#000000" font-family="Verdana" font-size="14" lengthAdjust="spacing" textLength="142.2012" x="693.69" y="403.962">get_table_columns()</text><ellipse cx="686.69" cy="416.9122" fill="#FFFFFF" rx="3" ry="3" style="stroke:#000000;stroke-width:1;"/><text fill="#000000" font-family="Verdana" font-size="14" lengthAdjust="spacing" textLength="113.0186" x="693.69" y="420.2589">describe_table()</text><ellipse cx="686.69" cy="433.2091" fill="#FFFFFF" rx="3" ry="3" style="stroke:#000000;stroke-width:1;"/><text fill="#000000" font-family="Verdana" font-size="14" lengthAdjust="spacing" textLength="149.0166" x="693.69" y="436.5557">test_sql_connection()</text><ellipse cx="686.69" cy="449.5059" fill="#FFFFFF" rx="3" ry="3" style="stroke:#000000;stroke-width:1;"/><text fill="#000000" font-family="Verdana" font-size="14" lengthAdjust="spacing" textLength="95.874" x="693.69" y="452.8526">get_buckets()</text><ellipse cx="686.69" cy="465.8028" fill="#FFFFFF" rx="3" ry="3" style="stroke:#000000;stroke-width:1;"/><text fill="#000000" font-family="Verdana" font-size="14" lengthAdjust="spacing" textLength="176.6133" x="693.69" y="469.1495">test_bucket_connection()</text><ellipse cx="686.69" cy="482.0997" fill="#FFFFFF" rx="3" ry="3" style="stroke:#000000;stroke-width:1;"/><text fill="#000000" font-family="Verdana" font-size="14" lengthAdjust="spacing" textLength="109.1221" x="693.69" y="485.4464">... (many more)</text></g><!--class UserEndpoints--><g class="entity" data-entity="UserEndpoints" data-source-line="75" data-uid="ent0008" id="entity_UserEndpoints"><rect fill="#FFFFFF" height="109.1875" rx="2.5" ry="2.5" style="stroke:#000000;stroke-width:1;" width="129.5137" x="911.24" y="359.12"/><ellipse cx="924.24" cy="373.12" fill="#FFFFFF" rx="9" ry="9" style="stroke:#000000;stroke-width:1;"/><path d="M927.2088,378.7606 Q926.6306,379.0575 925.99,379.1981 Q925.3494,379.3544 924.6463,379.3544 Q922.1463,379.3544 920.8181,377.7138 Q919.5056,376.0575 919.5056,372.9325 Q919.5056,369.8075 920.8181,368.1513 Q922.1463,366.495 924.6463,366.495 Q925.3494,366.495 925.99,366.6513 Q926.6463,366.8075 927.2088,367.1044 L927.2088,369.8231 Q926.5838,369.245 925.99,368.9794 Q925.3963,368.6981 924.7713,368.6981 Q923.4275,368.6981 922.74,369.7763 Q922.0525,370.8388 922.0525,372.9325 Q922.0525,375.0263 922.74,376.1044 Q923.4275,377.1669 924.7713,377.1669 Q925.3963,377.1669 925.99,376.9013 Q926.5838,376.62 927.2088,376.0419 L927.2088,378.7606 Z " fill="#000000"/><text fill="#000000" font-family="Verdana" font-size="14" lengthAdjust="spacing" textLength="101.5137" x="936.24" y="377.9667">UserEndpoints</text><line style="stroke:#000000;stroke-width:1;" x1="912.24" x2="1039.7537" y1="387.12" y2="387.12"/><line style="stroke:#000000;stroke-width:1;" x1="912.24" x2="1039.7537" y1="395.12" y2="395.12"/><ellipse cx="922.24" cy="408.7684" fill="#FFFFFF" rx="3" ry="3" style="stroke:#000000;stroke-width:1;"/><text fill="#000000" font-family="Verdana" font-size="14" lengthAdjust="spacing" textLength="93.208" x="929.24" y="412.1151">create_user()</text><ellipse cx="922.24" cy="425.0653" fill="#FFFFFF" rx="3" ry="3" style="stroke:#000000;stroke-width:1;"/><text fill="#000000" font-family="Verdana" font-size="14" lengthAdjust="spacing" textLength="71.4492" x="929.24" y="428.412">get_user()</text><ellipse cx="922.24" cy="441.3622" fill="#FFFFFF" rx="3" ry="3" style="stroke:#000000;stroke-width:1;"/><text fill="#000000" font-family="Verdana" font-size="14" lengthAdjust="spacing" textLength="97.7881" x="929.24" y="444.7089">update_user()</text><ellipse cx="922.24" cy="457.6591" fill="#FFFFFF" rx="3" ry="3" style="stroke:#000000;stroke-width:1;"/><text fill="#000000" font-family="Verdana" font-size="14" lengthAdjust="spacing" textLength="92.5654" x="929.24" y="461.0057">delete_user()</text></g><!--class PathManager--><g class="entity" data-entity="PathManager" data-source-line="84" data-uid="ent0010" id="entity_PathManager"><rect fill="#FFFFFF" height="60.2969" rx="2.5" ry="2.5" style="stroke:#000000;stroke-width:1;" width="265.876" x="1113.06" y="383.56"/><ellipse cx="1195.873" cy="397.56" fill="#FFFFFF" rx="9" ry="9" style="stroke:#000000;stroke-width:1;"/><path d="M1198.8417,403.2006 Q1198.2636,403.4975 1197.623,403.6381 Q1196.9824,403.7944 1196.2792,403.7944 Q1193.7792,403.7944 1192.4511,402.1537 Q1191.1386,400.4975 1191.1386,397.3725 Q1191.1386,394.2475 1192.4511,392.5912 Q1193.7792,390.935 1196.2792,390.935 Q1196.9824,390.935 1197.623,391.0912 Q1198.2792,391.2475 1198.8417,391.5444 L1198.8417,394.2631 Q1198.2167,393.685 1197.623,393.4194 Q1197.0292,393.1381 1196.4042,393.1381 Q1195.0605,393.1381 1194.373,394.2162 Q1193.6855,395.2787 1193.6855,397.3725 Q1193.6855,399.4662 1194.373,400.5444 Q1195.0605,401.6069 1196.4042,401.6069 Q1197.0292,401.6069 1197.623,401.3412 Q1198.2167,401.06 1198.8417,400.4819 L1198.8417,403.2006 Z " fill="#000000"/><text fill="#000000" font-family="Verdana" font-size="14" lengthAdjust="spacing" textLength="92.75" x="1213.373" y="402.4067">PathManager</text><line style="stroke:#000000;stroke-width:1;" x1="1114.06" x2="1377.936" y1="411.56" y2="411.56"/><line style="stroke:#000000;stroke-width:1;" x1="1114.06" x2="1377.936" y1="419.56" y2="419.56"/><ellipse cx="1124.06" cy="433.2084" fill="#FFFFFF" rx="3" ry="3" style="stroke:#000000;stroke-width:1;"/><text fill="#000000" font-family="Verdana" font-size="14" lengthAdjust="spacing" textLength="241.876" x="1131.06" y="436.5551">add_path(path, endpoint, method)</text></g><!--class OAuthAuthentication--><g class="entity" data-entity="OAuthAuthentication" data-source-line="90" data-uid="ent0012" id="entity_OAuthAuthentication"><rect fill="#FFFFFF" height="125.4844" rx="2.5" ry="2.5" style="stroke:#000000;stroke-width:1;" width="235.8047" x="1470.1" y="350.97"/><ellipse cx="1510.9506" cy="364.97" fill="#FFFFFF" rx="9" ry="9" style="stroke:#000000;stroke-width:1;"/><path d="M1513.9193,370.6106 Q1513.3412,370.9075 1512.7006,371.0481 Q1512.06,371.2044 1511.3568,371.2044 Q1508.8568,371.2044 1507.5287,369.5637 Q1506.2162,367.9075 1506.2162,364.7825 Q1506.2162,361.6575 1507.5287,360.0012 Q1508.8568,358.345 1511.3568,358.345 Q1512.06,358.345 1512.7006,358.5012 Q1513.3568,358.6575 1513.9193,358.9544 L1513.9193,361.6731 Q1513.2943,361.095 1512.7006,360.8294 Q1512.1068,360.5481 1511.4818,360.5481 Q1510.1381,360.5481 1509.4506,361.6262 Q1508.7631,362.6887 1508.7631,364.7825 Q1508.7631,366.8762 1509.4506,367.9544 Q1510.1381,369.0169 1511.4818,369.0169 Q1512.1068,369.0169 1512.7006,368.7512 Q1513.2943,368.47 1513.9193,367.8919 L1513.9193,370.6106 Z " fill="#000000"/><text fill="#000000" font-family="Verdana" font-size="14" lengthAdjust="spacing" textLength="146.6035" x="1528.4506" y="369.8167">OAuthAuthentication</text><line style="stroke:#000000;stroke-width:1;" x1="1471.1" x2="1704.9047" y1="378.97" y2="378.97"/><line style="stroke:#000000;stroke-width:1;" x1="1471.1" x2="1704.9047" y1="386.97" y2="386.97"/><ellipse cx="1481.1" cy="400.6184" fill="#FFFFFF" rx="3" ry="3" style="stroke:#000000;stroke-width:1;"/><text fill="#000000" font-family="Verdana" font-size="14" lengthAdjust="spacing" textLength="92.4082" x="1488.1" y="403.9651">oauth_login()</text><ellipse cx="1481.1" cy="416.9153" fill="#FFFFFF" rx="3" ry="3" style="stroke:#000000;stroke-width:1;"/><text fill="#000000" font-family="Verdana" font-size="14" lengthAdjust="spacing" textLength="115.6299" x="1488.1" y="420.262">oauth_callback()</text><ellipse cx="1481.1" cy="433.2122" fill="#FFFFFF" rx="3" ry="3" style="stroke:#000000;stroke-width:1;"/><text fill="#000000" font-family="Verdana" font-size="14" lengthAdjust="spacing" textLength="150.2949" x="1488.1" y="436.5589">add_oauth_provider()</text><ellipse cx="1481.1" cy="449.5091" fill="#FFFFFF" rx="3" ry="3" style="stroke:#000000;stroke-width:1;"/><text fill="#000000" font-family="Verdana" font-size="14" lengthAdjust="spacing" textLength="211.8047" x="1488.1" y="452.8557">update_oauth_provider_data()</text><ellipse cx="1481.1" cy="465.8059" fill="#FFFFFF" rx="3" ry="3" style="stroke:#000000;stroke-width:1;"/><text fill="#000000" font-family="Verdana" font-size="14" lengthAdjust="spacing" textLength="168.0479" x="1488.1" y="469.1526">delete_oauth_provider()</text></g><!--class PasswordHandling--><g class="entity" data-entity="PasswordHandling" data-source-line="98" data-uid="ent0013" id="entity_PasswordHandling"><rect fill="#FFFFFF" height="76.5938" rx="2.5" ry="2.5" style="stroke:#000000;stroke-width:1;" width="156.6729" x="1740.66" y="375.42"/><ellipse cx="1753.66" cy="389.42" fill="#FFFFFF" rx="9" ry="9" style="stroke:#000000;stroke-width:1;"/><path d="M1756.6288,395.0606 Q1756.0506,395.3575 1755.41,395.4981 Q1754.7694,395.6544 1754.0663,395.6544 Q1751.5663,395.6544 1750.2381,394.0137 Q1748.9256,392.3575 1748.9256,389.2325 Q1748.9256,386.1075 1750.2381,384.4512 Q1751.5663,382.795 1754.0663,382.795 Q1754.7694,382.795 1755.41,382.9512 Q1756.0663,383.1075 1756.6288,383.4044 L1756.6288,386.1231 Q1756.0038,385.545 1755.41,385.2794 Q1754.8163,384.9981 1754.1913,384.9981 Q1752.8475,384.9981 1752.16,386.0762 Q1751.4725,387.1387 1751.4725,389.2325 Q1751.4725,391.3262 1752.16,392.4044 Q1752.8475,393.4669 1754.1913,393.4669 Q1754.8163,393.4669 1755.41,393.2012 Q1756.0038,392.92 1756.6288,392.3419 L1756.6288,395.0606 Z " fill="#000000"/><text fill="#000000" font-family="Verdana" font-size="14" lengthAdjust="spacing" textLength="128.6729" x="1765.66" y="394.2667">PasswordHandling</text><line style="stroke:#000000;stroke-width:1;" x1="1741.66" x2="1896.3329" y1="403.42" y2="403.42"/><line style="stroke:#000000;stroke-width:1;" x1="1741.66" x2="1896.3329" y1="411.42" y2="411.42"/><ellipse cx="1751.66" cy="425.0684" fill="#FFFFFF" rx="3" ry="3" style="stroke:#000000;stroke-width:1;"/><text fill="#000000" font-family="Verdana" font-size="14" lengthAdjust="spacing" textLength="118.2549" x="1758.66" y="428.4151">hash_password()</text><ellipse cx="1751.66" cy="441.3653" fill="#FFFFFF" rx="3" ry="3" style="stroke:#000000;stroke-width:1;"/><text fill="#000000" font-family="Verdana" font-size="14" lengthAdjust="spacing" textLength="124.3936" x="1758.66" y="444.712">verify_password()</text></g><!--class RuntimeManager--><g class="entity" data-entity="RuntimeManager" data-source-line="105" data-uid="ent0015" id="entity_RuntimeManager"><rect fill="#FFFFFF" height="76.5938" rx="2.5" ry="2.5" style="stroke:#000000;stroke-width:1;" width="252.7852" x="1952.61" y="375.42"/><ellipse cx="2015.0177" cy="389.42" fill="#FFFFFF" rx="9" ry="9" style="stroke:#000000;stroke-width:1;"/><path d="M2017.9865,395.0606 Q2017.4083,395.3575 2016.7677,395.4981 Q2016.1271,395.6544 2015.424,395.6544 Q2012.924,395.6544 2011.5958,394.0137 Q2010.2833,392.3575 2010.2833,389.2325 Q2010.2833,386.1075 2011.5958,384.4512 Q2012.924,382.795 2015.424,382.795 Q2016.1271,382.795 2016.7677,382.9512 Q2017.424,383.1075 2017.9865,383.4044 L2017.9865,386.1231 Q2017.3615,385.545 2016.7677,385.2794 Q2016.174,384.9981 2015.549,384.9981 Q2014.2052,384.9981 2013.5177,386.0762 Q2012.8302,387.1387 2012.8302,389.2325 Q2012.8302,391.3262 2013.5177,392.4044 Q2014.2052,393.4669 2015.549,393.4669 Q2016.174,393.4669 2016.7677,393.2012 Q2017.3615,392.92 2017.9865,392.3419 L2017.9865,395.0606 Z " fill="#000000"/><text fill="#000000" font-family="Verdana" font-size="14" lengthAdjust="spacing" textLength="120.4697" x="2032.5177" y="394.2667">RuntimeManager</text><line style="stroke:#000000;stroke-width:1;" x1="1953.61" x2="2204.3952" y1="403.42" y2="403.42"/><line style="stroke:#000000;stroke-width:1;" x1="1953.61" x2="2204.3952" y1="411.42" y2="411.42"/><ellipse cx="1963.61" cy="425.0684" fill="#FFFFFF" rx="3" ry="3" style="stroke:#000000;stroke-width:1;"/><text fill="#000000" font-family="Verdana" font-size="14" lengthAdjust="spacing" textLength="106.9414" x="1970.61" y="428.4151">get(class_type)</text><ellipse cx="1963.61" cy="441.3653" fill="#FFFFFF" rx="3" ry="3" style="stroke:#000000;stroke-width:1;"/><text fill="#000000" font-family="Verdana" font-size="14" lengthAdjust="spacing" textLength="228.7852" x="1970.61" y="444.712">get_if_exists(class_type, default)</text></g><!--class FinalClass--><g class="entity" data-entity="FinalClass" data-source-line="110" data-uid="ent0016" id="entity_FinalClass"><rect fill="#FFFFFF" height="60.2969" rx="2.5" ry="2.5" style="stroke:#000000;stroke-width:1;" width="100.2041" x="2239.9" y="383.56"/><ellipse cx="2253.8396" cy="397.56" fill="#FFFFFF" rx="9" ry="9" style="stroke:#000000;stroke-width:1;"/><path d="M2256.8083,403.2006 Q2256.2302,403.4975 2255.5896,403.6381 Q2254.9489,403.7944 2254.2458,403.7944 Q2251.7458,403.7944 2250.4177,402.1537 Q2249.1052,400.4975 2249.1052,397.3725 Q2249.1052,394.2475 2250.4177,392.5912 Q2251.7458,390.935 2254.2458,390.935 Q2254.9489,390.935 2255.5896,391.0912 Q2256.2458,391.2475 2256.8083,391.5444 L2256.8083,394.2631 Q2256.1833,393.685 2255.5896,393.4194 Q2254.9958,393.1381 2254.3708,393.1381 Q2253.0271,393.1381 2252.3396,394.2162 Q2251.6521,395.2787 2251.6521,397.3725 Q2251.6521,399.4662 2252.3396,400.5444 Q2253.0271,401.6069 2254.3708,401.6069 Q2254.9958,401.6069 2255.5896,401.3412 Q2256.1833,401.06 2256.8083,400.4819 L2256.8083,403.2006 Z " fill="#000000"/><text fill="#000000" font-family="Verdana" font-size="14" lengthAdjust="spacing" textLength="70.1162" x="2266.0483" y="402.4067">FinalClass</text><line style="stroke:#000000;stroke-width:1;" x1="2240.9" x2="2339.1041" y1="411.56" y2="411.56"/><text fill="#000000" font-family="Verdana" font-size="14" lengthAdjust="spacing" textLength="88.2041" x="2245.9" y="428.5551">&#171;metaclass&#187;</text><line style="stroke:#000000;stroke-width:1;" x1="2240.9" x2="2339.1041" y1="435.8569" y2="435.8569"/></g><path d="M465.94,101.07 L465.94,132.3356 L146.4168,208.2266 L465.94,140.3356 L465.94,171.6013 A0,0 0 0 0 465.94,171.6013 L760.0543,171.6013 A0,0 0 0 0 760.0543,171.6013 L760.0543,111.07 L750.0543,101.07 L465.94,101.07 A0,0 0 0 0 465.94,101.07" fill="#FFFFFF" style="stroke:#000000;stroke-width:1;"/><path d="M750.0543,101.07 L750.0543,111.07 L760.0543,111.07 L750.0543,101.07" fill="#FFFFFF" style="stroke:#000000;stroke-width:1;"/><text fill="#000000" font-family="Verdana" font-size="13" lengthAdjust="spacing" textLength="197.0693" x="471.94" y="118.1369">Main entry point: orchestrates</text><text fill="#000000" font-family="Verdana" font-size="13" lengthAdjust="spacing" textLength="195.3047" x="471.94" y="133.2697">registration of ALL application</text><text fill="#000000" font-family="Verdana" font-size="13" lengthAdjust="spacing" textLength="273.1143" x="471.94" y="148.4025">routes by calling PathManager.add_path()</text><text fill="#000000" font-family="Verdana" font-size="13" lengthAdjust="spacing" textLength="115.1338" x="471.94" y="163.5353">for each endpoint</text><g class="entity" data-entity="GMN28" data-source-line="133" data-uid="ent0029" id="entity_GMN28"><path d="M648.1,555.75 L648.1,611.1484 A0,0 0 0 0 648.1,611.1484 L903.9062,611.1484 A0,0 0 0 0 903.9062,611.1484 L903.9062,565.75 L893.9062,555.75 L780,555.75 L776,493.18 L772,555.75 L648.1,555.75 A0,0 0 0 0 648.1,555.75" fill="#FFFFFF" style="stroke:#000000;stroke-width:1;"/><path d="M893.9062,555.75 L893.9062,565.75 L903.9062,565.75 L893.9062,555.75" fill="#FFFFFF" style="stroke:#000000;stroke-width:1;"/><text fill="#000000" font-family="Verdana" font-size="13" lengthAdjust="spacing" textLength="196.7837" x="654.1" y="572.8169">Conditionally loaded based on</text><text fill="#000000" font-family="Verdana" font-size="13" lengthAdjust="spacing" textLength="234.8062" x="654.1" y="587.9497">TEST_ENABLE_TESTING_ENDPOINTS</text><text fill="#000000" font-family="Verdana" font-size="13" lengthAdjust="spacing" textLength="125.874" x="654.1" y="603.0825">configuration value</text></g><!--link EndpointManager to PathManager--><g class="link" data-entity-1="EndpointManager" data-entity-2="PathManager" data-source-line="115" data-uid="lnk17" id="link_EndpointManager_PathManager"><path codeLine="115" d="M430.99,232.28 C436.68,233.87 442.36,235.34 448,236.67 C460.82,239.71 1385.24,282.82 1395,291.67 C1404.9275,300.6725 1411.1194,312.5744 1414.8131,325.4034 C1415.7366,328.6107 1416.5039,331.8759 1417.1344,335.1683 C1417.4496,336.8144 1416.8375,354.8311 1417.0868,356.487" fill="none" id="EndpointManager-to-PathManager" style="stroke:#000000;stroke-width:1;"/><polygon fill="#000000" points="1417.98,362.4202,1420.5957,352.925,1417.2357,357.4759,1412.6848,354.1159,1417.98,362.4202" style="stroke:#000000;stroke-width:1;"/><text fill="#000000" font-family="Verdana" font-size="13" lengthAdjust="spacing" textLength="119.9136" x="1295" y="279.7369">registers routes to</text></g><!--link EndpointManager to Bonus--><g class="link" data-entity-1="EndpointManager" data-entity-2="Bonus" data-source-line="116" data-uid="lnk18" id="link_EndpointManager_Bonus"><path codeLine="116" d="M375.96,236.98 C400.31,254.36 424.83,272.95 447,291.67 C468.21,309.59 485.6523,326.5349 504.4023,346.2249" fill="none" id="EndpointManager-to-Bonus" style="stroke:#000000;stroke-width:1;"/><polygon fill="#000000" points="508.54,350.57,505.2302,341.2939,505.092,346.9491,499.4368,346.8108,508.54,350.57" style="stroke:#000000;stroke-width:1;"/><text fill="#000000" font-family="Verdana" font-size="13" lengthAdjust="spacing" textLength="55.0278" x="437.06" y="279.7369">contains</text></g><!--link EndpointManager to TestingEndpoints--><g class="link" data-entity-1="EndpointManager" data-entity-2="TestingEndpoints" data-source-line="117" data-uid="lnk19" id="link_EndpointManager_TestingEndpoints"><path codeLine="117" d="M430.82,230.58 C436.59,232.69 442.32,234.72 448,236.67 C539.23,268.07 574.62,243.14 658,291.67 C677.4,302.97 691.4811,314.1038 707.6611,330.0838" fill="none" id="EndpointManager-to-TestingEndpoints" style="stroke:#000000;stroke-width:1;"/><polygon fill="#000000" points="711.93,334.3,708.3374,325.1298,708.3725,330.7865,702.7158,330.8217,711.93,334.3" style="stroke:#000000;stroke-width:1;"/><text fill="#000000" font-family="Verdana" font-size="13" lengthAdjust="spacing" textLength="55.0278" x="639.86" y="279.7369">contains</text></g><!--link EndpointManager to UserEndpoints--><g class="link" data-entity-1="EndpointManager" data-entity-2="UserEndpoints" data-source-line="118" data-uid="lnk20" id="link_EndpointManager_UserEndpoints"><path codeLine="118" d="M430.79,231.75 C436.56,233.5 442.3,235.15 448,236.67 C640.92,288.35 724.05,186.75 894,291.67 C919.49,307.41 935.9993,329.0978 949.5193,353.5778" fill="none" id="EndpointManager-to-UserEndpoints" style="stroke:#000000;stroke-width:1;"/><polygon fill="#000000" points="952.42,358.83,951.5704,349.0179,950.0027,354.4532,944.5674,352.8855,952.42,358.83" style="stroke:#000000;stroke-width:1;"/><text fill="#000000" font-family="Verdana" font-size="13" lengthAdjust="spacing" textLength="80.7104" x="875.01" y="279.7369">may contain</text></g><!--link EndpointManager to OAuthAuthentication--><g class="link" data-entity-1="EndpointManager" data-entity-2="OAuthAuthentication" data-source-line="119" data-uid="lnk21" id="link_EndpointManager_OAuthAuthentication"><path codeLine="119" d="M430.94,232.49 C436.65,234.01 442.34,235.42 448,236.67 C553.8,260.19 1322.25,226.71 1423,266.67 C1467.27,284.23 1503.3865,314.9015 1533.0365,346.2415" fill="none" id="EndpointManager-to-OAuthAuthentication" style="stroke:#000000;stroke-width:1;"/><polygon fill="#000000" points="1537.16,350.6,1533.8804,341.3132,1533.7238,346.9679,1528.0691,346.8112,1537.16,350.6" style="stroke:#000000;stroke-width:1;"/><text fill="#000000" font-family="Verdana" font-size="13" lengthAdjust="spacing" textLength="66.3774" x="1455.94" y="279.7369">integrates</text></g><!--link EndpointManager to PasswordHandling--><g class="link" data-entity-1="EndpointManager" data-entity-2="PasswordHandling" data-source-line="120" data-uid="lnk22" id="link_EndpointManager_PasswordHandling"><path codeLine="120" d="M430.93,232.51 C436.64,234.03 442.34,235.42 448,236.67 C683.1,288.56 1290.98,247.77 1531,266.67 C1616.79,273.43 1648.1,249.3 1723,291.67 C1756.85,310.82 1780.1002,341.9429 1796.5502,369.8129" fill="none" id="EndpointManager-to-PasswordHandling" style="stroke:#000000;stroke-width:1;"/><polygon fill="#000000" points="1799.6,374.98,1798.47,365.1962,1797.0585,370.6741,1791.5806,369.2626,1799.6,374.98" style="stroke:#000000;stroke-width:1;"/><text fill="#000000" font-family="Verdana" font-size="13" lengthAdjust="spacing" textLength="29.7832" x="1706.81" y="279.7369">uses</text></g><!--link EndpointManager to RuntimeManager--><g class="link" data-entity-1="EndpointManager" data-entity-2="RuntimeManager" data-source-line="121" data-uid="lnk23" id="link_EndpointManager_RuntimeManager"><path codeLine="121" d="M430.93,232.54 C436.64,234.05 442.34,235.44 448,236.67 C588.83,267.42 1601.38,254.37 1745,266.67 C1820.21,273.11 1843.15,263.05 1913,291.67 C1960.69,311.21 2002.913,343.3107 2034.583,371.0007" fill="none" id="EndpointManager-to-RuntimeManager" style="stroke:#000000;stroke-width:1;"/><polygon fill="#000000" points="2039.1,374.95,2034.9574,366.0147,2035.3359,371.6589,2029.6917,372.0373,2039.1,374.95" style="stroke:#000000;stroke-width:1;"/><text fill="#000000" font-family="Verdana" font-size="13" lengthAdjust="spacing" textLength="123.8364" x="1890.71" y="279.7369">retrieves instances</text></g><!--link EndpointManager to FinalClass--><g class="link" data-entity-1="EndpointManager" data-entity-2="FinalClass" data-source-line="122" data-uid="lnk24" id="link_EndpointManager_FinalClass"><path codeLine="122" d="M430.92,232.57 C436.63,234.08 442.34,235.45 448,236.67 C619.08,273.66 1848.42,254.13 2023,266.67 C2112.35,273.09 2148.8,241.48 2223,291.67 C2254.73,313.14 2267.3756,337.7184 2276.5856,366.1084" fill="none" id="EndpointManager-to-FinalClass" style="stroke:#000000;stroke-width:1;stroke-dasharray:7,7;"/><polygon fill="none" points="2282.14,383.23,2282.2928,364.2569,2270.8784,367.9599,2282.14,383.23" style="stroke:#000000;stroke-width:1;"/><text fill="#000000" font-family="Verdana" font-size="13" lengthAdjust="spacing" textLength="65.9966" x="2211.03" y="279.7369">metaclass</text></g><!--link EndpointManager to EndpointConstants--><g class="link" data-entity-1="EndpointManager" data-entity-2="EndpointConstants" data-source-line="123" data-uid="lnk25" id="link_EndpointManager_EndpointConstants"><path codeLine="123" d="M229,236.9 C229,281.06 229,325.6 229,361.12" fill="none" id="EndpointManager-to-EndpointConstants" style="stroke:#000000;stroke-width:1;"/><polygon fill="#000000" points="229,367.12,233,358.12,229,362.12,225,358.12,229,367.12" style="stroke:#000000;stroke-width:1;"/><text fill="#000000" font-family="Verdana" font-size="13" lengthAdjust="spacing" textLength="80.2471" x="230" y="279.7369">reads config</text></g><!--SRC=[XLRRRjim37tFLt1zIj4q7s0K1RgktGhqCgpTio1RZArLbZn9pXPi_VTHbkDOZhUzE3P9aOU75-MThx16Q1INUh5eUF7AIuIJ6oqQ8xL_u9g-BJmOqIeyWLyBW49nvs1g4JG0vz1mNpacjVIIA-bGPF2PHBtPOEJS3sC5gxWMIkfoUY2gF_NQ_fJXhQzOUA3sik1U6fqUVBeYvLLYq9-rBKbgP7N4aS6NA4XnvKQtBeFtuQSNUNG-0CG-NrA_HD6UWMXv1gp3mjZIjKM1pgq0hJLs1GBpjZpjhQJ-XeLdrhJaUNdQHs4MlPMuHHRuswFir6-B8ywlZNQUK-IUzJDuUNguPzTFZxSP25dulVJc-ONTF5wzlxzXuVtkyIDzVlZyTFVuyfnHjaRjiPVecJUrObjk9SyLBhklmkZD2XmX9YfNy8gxaCw6jyf7R6ypJGFFRNuUEyQDMwQZTO0S8lv0LPWQbtjo6kCySzuqpA7TzWJiZIlaobU9QCEtaY0cCcA6Qi-KASsKlsdX4Ym-PEqILvs8E51jhGyQWQwmCiUe7iIXKPZxtd6c8s69ixmjNj6xr3uAvuwirsjOKX_ie3OM9uby9NgEioWiSe-iTHFY4a7RY2CZWGh7ihIie_4TLtCa7X1m8Re6NeO7zNyFSGKr-ig8Oz_fh8xTpupo42Ok0ggmFF0LPGLNAYVdWpWWYgh6cgqKnqoaMaOoFYLcni6e6DDjDS2ikADJlNRmIMqjDxjKdf9oJGKVKv6kgd7JBZi3vdSDZWikDmn_IaVDTj1FvdPmVYirLzVTQtHySK75uftoydAFRRhjpyylamR8m6994T4wYAiDl9az5PT01jJodkuSDsjqDAZ_iK_d8OEQx_O7PktdcYkZrUonjDGJxY_vJkgS0KtClEsaP86UkDyTHGcxkvWvk5x_lXpN8uEX4hD1Zg-348SB5tBVo7AnqCOZM5bM7incUcLdMN8NKQaVY2yQMcztq1bcO6nHKIqYAT0NsKR2oEFL_Jtmfb67kxOlVaxyqoW6baPjiXxsGsZ2ZR60lAY6DR6W5mYGU-2vyNG9XJWpDoubBMG8Ic5se0mNA23dz3S0EY3_lFj2ztSKjNqkMwvQFCJ_0m00]--></g></svg>