<svg xmlns="http://www.w3.org/2000/svg" xmlns:xlink="http://www.w3.org/1999/xlink" contentStyleType="text/css" data-diagram-type="CLASS" height="507px" preserveAspectRatio="none" style="width:729px;height:507px;background:#FFFFFF;" version="1.1" viewBox="0 0 729 507" width="729px" zoomAndPan="magnify"><defs/><g><!--cluster Redis Module--><g class="cluster" data-entity="Redis Module" data-source-line="36" data-uid="ent0002" id="cluster_Redis Module"><path d="M13.5,11 L120.6348,11 A3.75,3.75 0 0 1 123.1348,13.5 L130.1348,33.2969 L471.5,33.2969 A2.5,2.5 0 0 1 474,35.7969 L474,497.52 A2.5,2.5 0 0 1 471.5,500.02 L13.5,500.02 A2.5,2.5 0 0 1 11,497.52 L11,13.5 A2.5,2.5 0 0 1 13.5,11" fill="#FFFFFF" style="stroke:#000000;stroke-width:1;"/><line style="stroke:#000000;stroke-width:1;" x1="11" x2="130.1348" y1="33.2969" y2="33.2969"/><text fill="#000000" font-family="Verdana" font-size="14" font-weight="bold" lengthAdjust="spacing" textLength="106.1348" x="15" y="25.9951">Redis Module</text></g><!--class RedisCaching--><g class="entity" data-entity="RedisCaching" data-source-line="37" data-uid="ent0003" id="entity_RedisCaching"><rect fill="#FFFFFF" height="223.2656" rx="2.5" ry="2.5" style="stroke:#000000;stroke-width:1;" width="228.0459" x="227.98" y="46"/><ellipse cx="290.7603" cy="60" fill="#FFFFFF" rx="9" ry="9" style="stroke:#000000;stroke-width:1;"/><path d="M293.729,65.6406 Q293.1509,65.9375 292.5103,66.0781 Q291.8696,66.2344 291.1665,66.2344 Q288.6665,66.2344 287.3384,64.5938 Q286.0259,62.9375 286.0259,59.8125 Q286.0259,56.6875 287.3384,55.0313 Q288.6665,53.375 291.1665,53.375 Q291.8696,53.375 292.5103,53.5313 Q293.1665,53.6875 293.729,53.9844 L293.729,56.7031 Q293.104,56.125 292.5103,55.8594 Q291.9165,55.5781 291.2915,55.5781 Q289.9478,55.5781 289.2603,56.6563 Q288.5728,57.7188 288.5728,59.8125 Q288.5728,61.9063 289.2603,62.9844 Q289.9478,64.0469 291.2915,64.0469 Q291.9165,64.0469 292.5103,63.7813 Q293.104,63.5 293.729,62.9219 L293.729,65.6406 Z " fill="#000000"/><text fill="#000000" font-family="Verdana" font-size="14" lengthAdjust="spacing" textLength="94.9854" x="308.2603" y="64.8467">RedisCaching</text><line style="stroke:#000000;stroke-width:1;" x1="228.98" x2="455.0259" y1="74" y2="74"/><rect fill="none" height="6" style="stroke:#000000;stroke-width:1;" width="6" x="235.98" y="84.6484"/><text fill="#000000" font-family="Verdana" font-size="14" lengthAdjust="spacing" textLength="86.0303" x="245.98" y="90.9951">client: Redis</text><rect fill="none" height="6" style="stroke:#000000;stroke-width:1;" width="6" x="235.98" y="100.9453"/><text fill="#000000" font-family="Verdana" font-size="14" lengthAdjust="spacing" textLength="108.4795" x="245.98" y="107.292">namespace: str</text><ellipse cx="238.98" cy="120.2422" fill="none" rx="3" ry="3" style="stroke:#000000;stroke-width:1;"/><text fill="#000000" font-family="Verdana" font-size="14" lengthAdjust="spacing" textLength="172.0605" x="245.98" y="123.5889">default_ttls: Dict[str, int]</text><line style="stroke:#000000;stroke-width:1;" x1="228.98" x2="455.0259" y1="130.8906" y2="130.8906"/><ellipse cx="238.98" cy="144.5391" fill="#FFFFFF" rx="3" ry="3" style="stroke:#000000;stroke-width:1;"/><text fill="#000000" font-family="Verdana" font-size="14" lengthAdjust="spacing" textLength="61.0654" x="245.98" y="147.8857">__init__()</text><ellipse cx="238.98" cy="160.8359" fill="#FFFFFF" rx="3" ry="3" style="stroke:#000000;stroke-width:1;"/><text fill="#000000" font-family="Verdana" font-size="14" lengthAdjust="spacing" textLength="164.9375" x="245.98" y="164.1826">get(key): Optional[Any]</text><ellipse cx="238.98" cy="177.1328" fill="#FFFFFF" rx="3" ry="3" style="stroke:#000000;stroke-width:1;"/><text fill="#000000" font-family="Verdana" font-size="14" lengthAdjust="spacing" textLength="167.3096" x="245.98" y="180.4795">set(key, value, ttl): bool</text><ellipse cx="238.98" cy="193.4297" fill="#FFFFFF" rx="3" ry="3" style="stroke:#000000;stroke-width:1;"/><text fill="#000000" font-family="Verdana" font-size="14" lengthAdjust="spacing" textLength="119.1094" x="245.98" y="196.7764">delete(key): bool</text><ellipse cx="238.98" cy="209.7266" fill="#FFFFFF" rx="3" ry="3" style="stroke:#000000;stroke-width:1;"/><text fill="#000000" font-family="Verdana" font-size="14" lengthAdjust="spacing" textLength="159.0039" x="245.98" y="213.0732">invalidate(pattern): int</text><ellipse cx="238.98" cy="226.0234" fill="#FFFFFF" rx="3" ry="3" style="stroke:#000000;stroke-width:1;"/><text fill="#000000" font-family="Verdana" font-size="14" lengthAdjust="spacing" textLength="204.0459" x="245.98" y="229.3701">get_data_from_table(...): Any</text><ellipse cx="238.98" cy="242.3203" fill="#FFFFFF" rx="3" ry="3" style="stroke:#000000;stroke-width:1;"/><text fill="#000000" font-family="Verdana" font-size="14" lengthAdjust="spacing" textLength="201.7764" x="245.98" y="245.667">update_data_in_table(...): int</text><ellipse cx="238.98" cy="258.6172" fill="#FFFFFF" rx="3" ry="3" style="stroke:#000000;stroke-width:1;"/><text fill="#000000" font-family="Verdana" font-size="14" lengthAdjust="spacing" textLength="190.7637" x="245.98" y="261.9639">check_cache_health(): bool</text></g><!--class RedisArgs--><g class="entity" data-entity="RedisArgs" data-source-line="52" data-uid="ent0004" id="entity_RedisArgs"><rect fill="#FFFFFF" height="125.4844" rx="2.5" ry="2.5" style="stroke:#000000;stroke-width:1;" width="192.5264" x="26.74" y="352.4"/><ellipse cx="84.2908" cy="366.4" fill="#FFFFFF" rx="9" ry="9" style="stroke:#000000;stroke-width:1;"/><path d="M87.2595,372.0406 Q86.6814,372.3375 86.0408,372.4781 Q85.4002,372.6344 84.697,372.6344 Q82.197,372.6344 80.8689,370.9938 Q79.5564,369.3375 79.5564,366.2125 Q79.5564,363.0875 80.8689,361.4313 Q82.197,359.775 84.697,359.775 Q85.4002,359.775 86.0408,359.9313 Q86.697,360.0875 87.2595,360.3844 L87.2595,363.1031 Q86.6345,362.525 86.0408,362.2594 Q85.447,361.9781 84.822,361.9781 Q83.4783,361.9781 82.7908,363.0563 Q82.1033,364.1188 82.1033,366.2125 Q82.1033,368.3063 82.7908,369.3844 Q83.4783,370.4469 84.822,370.4469 Q85.447,370.4469 86.0408,370.1813 Q86.6345,369.9 87.2595,369.3219 L87.2595,372.0406 Z " fill="#000000"/><text fill="#000000" font-family="Verdana" font-size="14" lengthAdjust="spacing" textLength="69.9248" x="101.7908" y="371.2467">RedisArgs</text><line style="stroke:#000000;stroke-width:1;" x1="27.74" x2="218.2664" y1="380.4" y2="380.4"/><ellipse cx="37.74" cy="394.0484" fill="none" rx="3" ry="3" style="stroke:#000000;stroke-width:1;"/><text fill="#000000" font-family="Verdana" font-size="14" lengthAdjust="spacing" textLength="112.3008" x="44.74" y="397.3951">socket_path: str</text><ellipse cx="37.74" cy="410.3453" fill="none" rx="3" ry="3" style="stroke:#000000;stroke-width:1;"/><text fill="#000000" font-family="Verdana" font-size="14" lengthAdjust="spacing" textLength="94.418" x="44.74" y="413.692">password: str</text><ellipse cx="37.74" cy="426.6422" fill="none" rx="3" ry="3" style="stroke:#000000;stroke-width:1;"/><text fill="#000000" font-family="Verdana" font-size="14" lengthAdjust="spacing" textLength="168.5264" x="44.74" y="429.9889">decode_responses: bool</text><line style="stroke:#000000;stroke-width:1;" x1="27.74" x2="218.2664" y1="437.2906" y2="437.2906"/><ellipse cx="37.74" cy="450.9391" fill="#FFFFFF" rx="3" ry="3" style="stroke:#000000;stroke-width:1;"/><text fill="#000000" font-family="Verdana" font-size="14" lengthAdjust="spacing" textLength="155.6748" x="44.74" y="454.2857">from_env(): RedisArgs</text><ellipse cx="37.74" cy="467.2359" fill="#FFFFFF" rx="3" ry="3" style="stroke:#000000;stroke-width:1;"/><text fill="#000000" font-family="Verdana" font-size="14" lengthAdjust="spacing" textLength="160.5146" x="44.74" y="470.5826">to_redis_kwargs(): Dict</text></g><!--class Redis--><g class="entity" data-entity="Redis" data-source-line="61" data-uid="ent0005" id="entity_Redis"><rect fill="#FFFFFF" height="137.75" rx="2.5" ry="2.5" style="stroke:#000000;stroke-width:1;" width="203.9355" x="254.03" y="346.27"/><ellipse cx="322.0066" cy="366.4028" fill="#FFFFFF" rx="9" ry="9" style="stroke:#000000;stroke-width:1;"/><path d="M324.9753,372.0434 Q324.3972,372.3403 323.7566,372.4809 Q323.1159,372.6372 322.4128,372.6372 Q319.9128,372.6372 318.5847,370.9966 Q317.2722,369.3403 317.2722,366.2153 Q317.2722,363.0903 318.5847,361.4341 Q319.9128,359.7778 322.4128,359.7778 Q323.1159,359.7778 323.7566,359.9341 Q324.4128,360.0903 324.9753,360.3872 L324.9753,363.1059 Q324.3503,362.5278 323.7566,362.2622 Q323.1628,361.9809 322.5378,361.9809 Q321.1941,361.9809 320.5066,363.0591 Q319.8191,364.1216 319.8191,366.2153 Q319.8191,368.3091 320.5066,369.3872 Q321.1941,370.4497 322.5378,370.4497 Q323.1628,370.4497 323.7566,370.1841 Q324.3503,369.9028 324.9753,369.3247 L324.9753,372.0434 Z " fill="#000000"/><text fill="#000000" font-family="Verdana" font-size="12" font-style="italic" lengthAdjust="spacing" textLength="64.4824" x="337.5066" y="362.4087">&#171;external&#187;</text><text fill="#000000" font-family="Verdana" font-size="14" lengthAdjust="spacing" textLength="38.4111" x="350.5422" y="378.2339">Redis</text><line style="stroke:#000000;stroke-width:1;" x1="255.03" x2="456.9655" y1="386.5356" y2="386.5356"/><line style="stroke:#000000;stroke-width:1;" x1="255.03" x2="456.9655" y1="394.5356" y2="394.5356"/><ellipse cx="265.03" cy="408.1841" fill="#FFFFFF" rx="3" ry="3" style="stroke:#000000;stroke-width:1;"/><text fill="#000000" font-family="Verdana" font-size="14" lengthAdjust="spacing" textLength="86.625" x="272.03" y="411.5307">get(key): str</text><ellipse cx="265.03" cy="424.4809" fill="#FFFFFF" rx="3" ry="3" style="stroke:#000000;stroke-width:1;"/><text fill="#000000" font-family="Verdana" font-size="14" lengthAdjust="spacing" textLength="169.3398" x="272.03" y="427.8276">set(key, value, ex): bool</text><ellipse cx="265.03" cy="440.7778" fill="#FFFFFF" rx="3" ry="3" style="stroke:#000000;stroke-width:1;"/><text fill="#000000" font-family="Verdana" font-size="14" lengthAdjust="spacing" textLength="121.748" x="272.03" y="444.1245">delete(*keys): int</text><ellipse cx="265.03" cy="457.0747" fill="#FFFFFF" rx="3" ry="3" style="stroke:#000000;stroke-width:1;"/><text fill="#000000" font-family="Verdana" font-size="14" lengthAdjust="spacing" textLength="179.9355" x="272.03" y="460.4214">scan_iter(match): Iterator</text><ellipse cx="265.03" cy="473.3716" fill="#FFFFFF" rx="3" ry="3" style="stroke:#000000;stroke-width:1;"/><text fill="#000000" font-family="Verdana" font-size="14" lengthAdjust="spacing" textLength="80.5342" x="272.03" y="476.7182">ping(): bool</text></g><g class="entity" data-entity="GMN8" data-source-line="74" data-uid="ent0009" id="entity_GMN8"><path d="M491.05,114.81 L491.05,153.64 L456.38,157.64 L491.05,161.64 L491.05,200.4741 A0,0 0 0 0 491.05,200.4741 L722.9445,200.4741 A0,0 0 0 0 722.9445,200.4741 L722.9445,124.81 L712.9445,114.81 L491.05,114.81 A0,0 0 0 0 491.05,114.81" fill="#FFFFFF" style="stroke:#000000;stroke-width:1;"/><path d="M712.9445,114.81 L712.9445,124.81 L722.9445,124.81 L712.9445,114.81" fill="#FFFFFF" style="stroke:#000000;stroke-width:1;"/><text fill="#000000" font-family="Verdana" font-size="13" lengthAdjust="spacing" textLength="87.0835" x="497.05" y="131.8769">Key Patterns:</text><text fill="#000000" font-family="Verdana" font-size="13" lengthAdjust="spacing" textLength="201.0493" x="497.05" y="147.0097">- sql:{db}:{category}:{name}</text><text fill="#000000" font-family="Verdana" font-size="13" lengthAdjust="spacing" textLength="210.8945" x="497.05" y="162.1425">- Uses SHA-256 hash for params</text><text fill="#000000" font-family="Verdana" font-size="13" lengthAdjust="spacing" textLength="123.6079" x="497.05" y="177.2753">- JSON serialization</text><text fill="#000000" font-family="Verdana" font-size="13" lengthAdjust="spacing" textLength="130.1523" x="497.05" y="192.4081">- Deterministic keys</text></g><g class="entity" data-entity="GMN11" data-source-line="82" data-uid="ent0012" id="entity_GMN11"><path d="M493.03,379.88 L493.03,450.4113 L708.9665,450.4113 L708.9665,389.88 L698.9665,379.88 L493.03,379.88" fill="#FFFFFF" style="stroke:#000000;stroke-width:1;"/><path d="M698.9665,379.88 L698.9665,389.88 L708.9665,389.88 L698.9665,379.88" fill="#FFFFFF" style="stroke:#000000;stroke-width:1;"/><text fill="#000000" font-family="Verdana" font-size="13" lengthAdjust="spacing" textLength="152.2231" x="499.03" y="396.9469">Environment Variables:</text><text fill="#000000" font-family="Verdana" font-size="13" lengthAdjust="spacing" textLength="147.856" x="499.03" y="412.0797">- REDIS_SOCKET_PATH</text><text fill="#000000" font-family="Verdana" font-size="13" lengthAdjust="spacing" textLength="130.0317" x="499.03" y="427.2125">- REDIS_PASSWORD</text><text fill="#000000" font-family="Verdana" font-size="13" lengthAdjust="spacing" textLength="194.9365" x="499.03" y="442.3453">- REDIS_DECODE_RESPONSES</text></g><!--link RedisCaching to Redis--><g class="link" data-entity-1="RedisCaching" data-entity-2="Redis" data-source-line="69" data-uid="lnk6" id="link_RedisCaching_Redis"><path codeLine="69" d="M348.08,269.59 C349.5,295.58 350.6509,316.529 351.9409,340.009" fill="none" id="RedisCaching-to-Redis" style="stroke:#000000;stroke-width:1;"/><polygon fill="#000000" points="352.27,346,355.7703,336.7941,351.9957,341.0075,347.7823,337.233,352.27,346" style="stroke:#000000;stroke-width:1;"/><text fill="#000000" font-family="Verdana" font-size="13" lengthAdjust="spacing" textLength="29.7832" x="351.25" y="312.3369">uses</text></g><!--link RedisCaching to RedisArgs--><g class="link" data-entity-1="RedisCaching" data-entity-2="RedisArgs" data-source-line="70" data-uid="lnk7" id="link_RedisCaching_RedisArgs"><path codeLine="70" d="M246.9,269.59 C222.66,297.87 201.3637,322.7136 180.0737,347.5636" fill="none" id="RedisCaching-to-RedisArgs" style="stroke:#000000;stroke-width:1;stroke-dasharray:7,7;"/><polygon fill="#000000" points="176.17,352.12,185.0632,347.8878,179.4231,348.323,178.9879,342.6829,176.17,352.12" style="stroke:#000000;stroke-width:1;"/><text fill="#000000" font-family="Verdana" font-size="13" lengthAdjust="spacing" textLength="86.2329" x="220.39" y="312.3369">configuration</text></g><!--link RedisArgs to GMN11--><g class="link" data-entity-1="RedisArgs" data-entity-2="GMN11" data-source-line="82" data-uid="lnk13" id="link_RedisArgs_GMN11"><path d="M182.65,352.03 C203.48,334.2 228.26,317.12 254.5,307.77 C339.07,277.63 371.27,279.57 456.5,307.77 C499.23,321.91 539.61,354.11 566.76,379.59" fill="none" id="RedisArgs-GMN11" style="stroke:#000000;stroke-width:1;stroke-dasharray:7,7;"/></g><!--SRC=[TLF1Rjf04Btp5TESIC4SAhK7Aq92O2bfr1ZXj3r4rMfP3_QAzQwxkqv24V_UCKRO9ebFCE_DxDltPZ_v70k4Kd6f1uEIYotF4AvMc4e7FqnQARo2_G3e4uex1qTapaKkTNO2wYyGIgBsOOEtPSqBT3GMGt3UdkkZ53UyKfvvhrm82ody4-5ZaDh_QRk3je4ngQLdR7ZTrZBqmotkhaE8Io-DvkfffdTj_yWrX34ySrNX6EWq8g-DKLqb2ZsUvlGXgQbFffpWadkFLXE55FOKCC8vsrXJCC_N2eUJoOHe9AIbLMKzf65AtUFrneaSnPO9SXTPZbpvVDWLTHXS1Z6pcUkaC796R4aIgSql32-fvyNOz4qEmgJ8B8Laj4DtOK4tWUCLKJ_Naiw7jx0tD8MgRFl22QXPTQmV28UR6toj7ULgEktUeCsqf_CoINpzACZFH7ENnZh1DPDqth3WNkG4tz4VxatN8Thez-pkRNmGJ4yN2A4Ylzuo9fDf9viGXD4RcLLq66teW6Pgun6ip78FPjFhFGwxnnqicsrpuR4IWFkhmdswFeHxGNkK6RkZd_NJEfm8FqaA9BUpuClNRv1pbyF6M2YvvOKxKRudyGCuj99M-byZfW4Mv9ejw7KvBmNKxWrGfr3BV5ViEVP8FqjhT47l7dvn6anRVPQyYXPt2KlY-Ntqo9QpnzjUVJbBaj_nQj4hBg9vl8ZOAagMyKCI9QsC_m00]--></g></svg>