<svg xmlns="http://www.w3.org/2000/svg" xmlns:xlink="http://www.w3.org/1999/xlink" contentStyleType="text/css" data-diagram-type="CLASS" height="1270px" preserveAspectRatio="none" style="width:2350px;height:1270px;background:#FFFFFF;" version="1.1" viewBox="0 0 2350 1270" width="2350px" zoomAndPan="magnify"><title>Crons Module Architecture</title><defs/><g><g class="title" data-source-line="36"><text fill="#000000" font-family="Verdana" font-size="22" font-weight="bold" lengthAdjust="spacing" textLength="331.6113" x="1005.1604" y="35.4209">Crons Module Architecture</text></g><!--cluster Crons Module--><g class="cluster" data-entity="Crons Module" data-source-line="38" data-uid="ent0002" id="cluster_Crons Module"><path d="M13.5,57.6094 L122.3027,57.6094 A3.75,3.75 0 0 1 124.8027,60.1094 L131.8027,79.9063 L992.5,79.9063 A2.5,2.5 0 0 1 995,82.4063 L995,849.7394 A2.5,2.5 0 0 1 992.5,852.2394 L13.5,852.2394 A2.5,2.5 0 0 1 11,849.7394 L11,60.1094 A2.5,2.5 0 0 1 13.5,57.6094" fill="#FFFFFF" style="stroke:#000000;stroke-width:1;"/><line style="stroke:#000000;stroke-width:1;" x1="11" x2="131.8027" y1="79.9063" y2="79.9063"/><text fill="#000000" font-family="Verdana" font-size="14" font-weight="bold" lengthAdjust="spacing" textLength="107.8027" x="15" y="72.6045">Crons Module</text></g><!--cluster APScheduler--><g class="cluster" data-entity="APScheduler" data-source-line="96" data-uid="ent0006" id="cluster_APScheduler"><path d="M120.5,901.2394 L221.626,901.2394 A3.75,3.75 0 0 1 224.126,903.7394 L231.126,923.5362 L427.5,923.5362 A2.5,2.5 0 0 1 430,926.0362 L430,1261.4094 A2.5,2.5 0 0 1 427.5,1263.9094 L120.5,1263.9094 A2.5,2.5 0 0 1 118,1261.4094 L118,903.7394 A2.5,2.5 0 0 1 120.5,901.2394" fill="#FFFFFF" style="stroke:#000000;stroke-width:1;"/><line style="stroke:#000000;stroke-width:1;" x1="118" x2="231.126" y1="923.5362" y2="923.5362"/><text fill="#000000" font-family="Verdana" font-size="14" font-weight="bold" lengthAdjust="spacing" textLength="100.126" x="122" y="916.2345">APScheduler</text></g><!--cluster Core Dependencies--><g class="cluster" data-entity="Core Dependencies" data-source-line="113" data-uid="ent0009" id="cluster_Core Dependencies"><path d="M1021.5,579.9894 L1174.6748,579.9894 A3.75,3.75 0 0 1 1177.1748,582.4894 L1184.1748,602.2863 L2076.5,602.2863 A2.5,2.5 0 0 1 2079,604.7863 L2079,737.6794 A2.5,2.5 0 0 1 2076.5,740.1794 L1021.5,740.1794 A2.5,2.5 0 0 1 1019,737.6794 L1019,582.4894 A2.5,2.5 0 0 1 1021.5,579.9894" fill="#FFFFFF" style="stroke:#000000;stroke-width:1;"/><line style="stroke:#000000;stroke-width:1;" x1="1019" x2="1184.1748" y1="602.2863" y2="602.2863"/><text fill="#000000" font-family="Verdana" font-size="14" font-weight="bold" lengthAdjust="spacing" textLength="152.1748" x="1023" y="594.9845">Core Dependencies</text></g><!--class BackgroundTasks--><g class="entity" data-entity="BackgroundTasks" data-source-line="39" data-uid="ent0003" id="entity_BackgroundTasks"><rect fill="#FFFFFF" height="333.3125" rx="2.5" ry="2.5" style="stroke:#000000;stroke-width:1;" width="494.4971" x="26.75" y="502.9294"/><ellipse cx="208.4209" cy="523.0622" fill="#FFFFFF" rx="9" ry="9" style="stroke:#000000;stroke-width:1;"/><path d="M211.3896,528.7028 Q210.8115,528.9997 210.1709,529.1403 Q209.5303,529.2966 208.8271,529.2966 Q206.3271,529.2966 204.999,527.6559 Q203.6865,525.9997 203.6865,522.8747 Q203.6865,519.7497 204.999,518.0934 Q206.3271,516.4372 208.8271,516.4372 Q209.5303,516.4372 210.1709,516.5934 Q210.8271,516.7497 211.3896,517.0466 L211.3896,519.7653 Q210.7646,519.1872 210.1709,518.9216 Q209.5771,518.6403 208.9521,518.6403 Q207.6084,518.6403 206.9209,519.7184 Q206.2334,520.7809 206.2334,522.8747 Q206.2334,524.9684 206.9209,526.0466 Q207.6084,527.1091 208.9521,527.1091 Q209.5771,527.1091 210.1709,526.8434 Q210.7646,526.5622 211.3896,525.9841 L211.3896,528.7028 Z " fill="#000000"/><text fill="#000000" font-family="Verdana" font-size="12" font-style="italic" lengthAdjust="spacing" textLength="43.2129" x="266.1421" y="519.068">&#171;Final&#187;</text><text fill="#000000" font-family="Verdana" font-size="14" lengthAdjust="spacing" textLength="123.6553" x="225.9209" y="534.8932">BackgroundTasks</text><line style="stroke:#000000;stroke-width:1;" x1="27.75" x2="520.2471" y1="543.195" y2="543.195"/><rect fill="none" height="6" style="stroke:#000000;stroke-width:1;" width="6" x="34.75" y="553.8434"/><text fill="#000000" font-family="Verdana" font-size="14" lengthAdjust="spacing" textLength="68.9746" x="44.75" y="560.1901">disp: Disp</text><rect fill="none" height="6" style="stroke:#000000;stroke-width:1;" width="6" x="34.75" y="570.1403"/><text fill="#000000" font-family="Verdana" font-size="14" lengthAdjust="spacing" textLength="231.5811" x="44.75" y="576.487">scheduler: BackgroundScheduler</text><rect fill="none" height="6" style="stroke:#000000;stroke-width:1;" width="6" x="34.75" y="586.4372"/><text fill="#000000" font-family="Verdana" font-size="14" lengthAdjust="spacing" textLength="82.1816" x="44.75" y="592.7839">success: int</text><rect fill="none" height="6" style="stroke:#000000;stroke-width:1;" width="6" x="34.75" y="602.7341"/><text fill="#000000" font-family="Verdana" font-size="14" lengthAdjust="spacing" textLength="61.8652" x="44.75" y="609.0807">error: int</text><rect fill="none" height="6" style="stroke:#000000;stroke-width:1;" width="6" x="34.75" y="619.0309"/><text fill="#000000" font-family="Verdana" font-size="14" lengthAdjust="spacing" textLength="83.2207" x="44.75" y="625.3776">debug: bool</text><line style="stroke:#000000;stroke-width:1;" x1="27.75" x2="520.2471" y1="632.6794" y2="632.6794"/><ellipse cx="37.75" cy="646.3278" fill="#FFFFFF" rx="3" ry="3" style="stroke:#000000;stroke-width:1;"/><text fill="#000000" font-family="Verdana" font-size="14" lengthAdjust="spacing" textLength="212.2217" x="44.75" y="649.6745">__init__(success, error, debug)</text><ellipse cx="37.75" cy="662.6247" fill="#FFFFFF" rx="3" ry="3" style="stroke:#000000;stroke-width:1;"/><text fill="#000000" font-family="Verdana" font-size="14" lengthAdjust="spacing" textLength="470.4971" x="44.75" y="665.9714">safe_add_task(func, args, kwargs, trigger, seconds): Union[int, Job]</text><ellipse cx="37.75" cy="678.9216" fill="#FFFFFF" rx="3" ry="3" style="stroke:#000000;stroke-width:1;"/><text fill="#000000" font-family="Verdana" font-size="14" lengthAdjust="spacing" textLength="107.3652" x="44.75" y="682.2682">safe_start(): int</text><ellipse cx="37.75" cy="695.2184" fill="#FFFFFF" rx="3" ry="3" style="stroke:#000000;stroke-width:1;"/><text fill="#000000" font-family="Verdana" font-size="14" lengthAdjust="spacing" textLength="159.25" x="44.75" y="698.5651">safe_pause(pause): int</text><ellipse cx="37.75" cy="711.5153" fill="#FFFFFF" rx="3" ry="3" style="stroke:#000000;stroke-width:1;"/><text fill="#000000" font-family="Verdana" font-size="14" lengthAdjust="spacing" textLength="127.5449" x="44.75" y="714.862">safe_resume(): int</text><ellipse cx="37.75" cy="727.8122" fill="#FFFFFF" rx="3" ry="3" style="stroke:#000000;stroke-width:1;"/><text fill="#000000" font-family="Verdana" font-size="14" lengthAdjust="spacing" textLength="134.4014" x="44.75" y="731.1589">safe_stop(wait): int</text><ellipse cx="37.75" cy="744.1091" fill="#FFFFFF" rx="3" ry="3" style="stroke:#000000;stroke-width:1;"/><text fill="#000000" font-family="Verdana" font-size="14" lengthAdjust="spacing" textLength="452.3545" x="44.75" y="747.4557">add_task(func, args, kwargs, trigger, seconds): Union[Job, None]</text><ellipse cx="37.75" cy="760.4059" fill="#FFFFFF" rx="3" ry="3" style="stroke:#000000;stroke-width:1;"/><text fill="#000000" font-family="Verdana" font-size="14" lengthAdjust="spacing" textLength="167.7471" x="44.75" y="763.7526">start(): Union[int, None]</text><ellipse cx="37.75" cy="776.7028" fill="#FFFFFF" rx="3" ry="3" style="stroke:#000000;stroke-width:1;"/><text fill="#000000" font-family="Verdana" font-size="14" lengthAdjust="spacing" textLength="219.6318" x="44.75" y="780.0495">pause(pause): Union[int, None]</text><ellipse cx="37.75" cy="792.9997" fill="#FFFFFF" rx="3" ry="3" style="stroke:#000000;stroke-width:1;"/><text fill="#000000" font-family="Verdana" font-size="14" lengthAdjust="spacing" textLength="187.9268" x="44.75" y="796.3464">resume(): Union[int, None]</text><ellipse cx="37.75" cy="809.2966" fill="#FFFFFF" rx="3" ry="3" style="stroke:#000000;stroke-width:1;"/><text fill="#000000" font-family="Verdana" font-size="14" lengthAdjust="spacing" textLength="194.7832" x="44.75" y="812.6432">stop(wait): Union[int, None]</text><rect fill="#FFFFFF" height="6" style="stroke:#000000;stroke-width:1;" width="6" x="34.75" y="822.5934"/><text fill="#000000" font-family="Verdana" font-size="14" lengthAdjust="spacing" textLength="131.6055" x="44.75" y="828.9401">_to_dict(data): dict</text></g><!--class Crons--><g class="entity" data-entity="Crons" data-source-line="60" data-uid="ent0004" id="entity_Crons"><rect fill="#FFFFFF" height="333.3125" rx="2.5" ry="2.5" style="stroke:#000000;stroke-width:1;" width="473.2236" x="505.39" y="92.6094"/><ellipse cx="718.12" cy="112.7422" fill="#FFFFFF" rx="9" ry="9" style="stroke:#000000;stroke-width:1;"/><path d="M721.0887,118.3828 Q720.5106,118.6797 719.87,118.8203 Q719.2294,118.9766 718.5262,118.9766 Q716.0262,118.9766 714.6981,117.3359 Q713.3856,115.6797 713.3856,112.5547 Q713.3856,109.4297 714.6981,107.7734 Q716.0262,106.1172 718.5262,106.1172 Q719.2294,106.1172 719.87,106.2734 Q720.5262,106.4297 721.0887,106.7266 L721.0887,109.4453 Q720.4637,108.8672 719.87,108.6016 Q719.2762,108.3203 718.6512,108.3203 Q717.3075,108.3203 716.62,109.3984 Q715.9325,110.4609 715.9325,112.5547 Q715.9325,114.6484 716.62,115.7266 Q717.3075,116.7891 718.6512,116.7891 Q719.2762,116.7891 719.87,116.5234 Q720.4637,116.2422 721.0887,115.6641 L721.0887,118.3828 Z " fill="#000000"/><text fill="#000000" font-family="Verdana" font-size="12" font-style="italic" lengthAdjust="spacing" textLength="43.2129" x="734.1454" y="108.748">&#171;Final&#187;</text><text fill="#000000" font-family="Verdana" font-size="14" lengthAdjust="spacing" textLength="40.2637" x="735.62" y="124.5732">Crons</text><line style="stroke:#000000;stroke-width:1;" x1="506.39" x2="977.6136" y1="132.875" y2="132.875"/><rect fill="none" height="6" style="stroke:#000000;stroke-width:1;" width="6" x="513.39" y="143.5234"/><text fill="#000000" font-family="Verdana" font-size="14" lengthAdjust="spacing" textLength="68.9746" x="523.39" y="149.8701">disp: Disp</text><rect fill="none" height="6" style="stroke:#000000;stroke-width:1;" width="6" x="513.39" y="159.8203"/><text fill="#000000" font-family="Verdana" font-size="14" lengthAdjust="spacing" textLength="61.8652" x="523.39" y="166.167">error: int</text><rect fill="none" height="6" style="stroke:#000000;stroke-width:1;" width="6" x="513.39" y="176.1172"/><text fill="#000000" font-family="Verdana" font-size="14" lengthAdjust="spacing" textLength="82.1816" x="523.39" y="182.4639">success: int</text><rect fill="none" height="6" style="stroke:#000000;stroke-width:1;" width="6" x="513.39" y="192.4141"/><text fill="#000000" font-family="Verdana" font-size="14" lengthAdjust="spacing" textLength="83.2207" x="523.39" y="198.7607">debug: bool</text><rect fill="none" height="6" style="stroke:#000000;stroke-width:1;" width="6" x="513.39" y="208.7109"/><text fill="#000000" font-family="Verdana" font-size="14" lengthAdjust="spacing" textLength="254.6934" x="523.39" y="215.0576">runtime_manager: RuntimeManager</text><rect fill="none" height="6" style="stroke:#000000;stroke-width:1;" width="6" x="513.39" y="225.0078"/><text fill="#000000" font-family="Verdana" font-size="14" lengthAdjust="spacing" textLength="259.6973" x="523.39" y="231.3545">background_tasks: BackgroundTasks</text><rect fill="none" height="6" style="stroke:#000000;stroke-width:1;" width="6" x="513.39" y="241.3047"/><text fill="#000000" font-family="Verdana" font-size="14" lengthAdjust="spacing" textLength="133.54" x="523.39" y="247.6514">database_link: SQL</text><rect fill="none" height="6" style="stroke:#000000;stroke-width:1;" width="6" x="513.39" y="257.6016"/><text fill="#000000" font-family="Verdana" font-size="14" lengthAdjust="spacing" textLength="449.2236" x="523.39" y="263.9482">oauth_authentication_initialised: Optional[OAuthAuthentication]</text><rect fill="none" height="6" style="stroke:#000000;stroke-width:1;" width="6" x="513.39" y="273.8984"/><text fill="#000000" font-family="Verdana" font-size="14" lengthAdjust="spacing" textLength="437.3359" x="523.39" y="280.2451">boilerplate_non_http_initialised: Optional[BoilerplateNonHTTP]</text><line style="stroke:#000000;stroke-width:1;" x1="506.39" x2="977.6136" y1="287.5469" y2="287.5469"/><ellipse cx="516.39" cy="301.1953" fill="#FFFFFF" rx="3" ry="3" style="stroke:#000000;stroke-width:1;"/><text fill="#000000" font-family="Verdana" font-size="14" lengthAdjust="spacing" textLength="212.2217" x="523.39" y="304.542">__init__(error, success, debug)</text><ellipse cx="516.39" cy="317.4922" fill="#FFFFFF" rx="3" ry="3" style="stroke:#000000;stroke-width:1;"/><text fill="#000000" font-family="Verdana" font-size="14" lengthAdjust="spacing" textLength="121.9805" x="523.39" y="320.8389">inject_crons(): int</text><ellipse cx="516.39" cy="333.7891" fill="#FFFFFF" rx="3" ry="3" style="stroke:#000000;stroke-width:1;"/><text fill="#000000" font-family="Verdana" font-size="14" lengthAdjust="spacing" textLength="154.9912" x="523.39" y="337.1357">check_actions(): None</text><ellipse cx="516.39" cy="350.0859" fill="#FFFFFF" rx="3" ry="3" style="stroke:#000000;stroke-width:1;"/><text fill="#000000" font-family="Verdana" font-size="14" lengthAdjust="spacing" textLength="208.1406" x="523.39" y="353.4326">clean_expired_tokens(): None</text><ellipse cx="516.39" cy="366.3828" fill="#FFFFFF" rx="3" ry="3" style="stroke:#000000;stroke-width:1;"/><text fill="#000000" font-family="Verdana" font-size="14" lengthAdjust="spacing" textLength="288.8867" x="523.39" y="369.7295">clean_expired_verification_nodes(): None</text><ellipse cx="516.39" cy="382.6797" fill="#FFFFFF" rx="3" ry="3" style="stroke:#000000;stroke-width:1;"/><text fill="#000000" font-family="Verdana" font-size="14" lengthAdjust="spacing" textLength="145.7217" x="523.39" y="386.0264">renew_oaths(): None</text><rect fill="#FFFFFF" height="6" style="stroke:#000000;stroke-width:1;" width="6" x="513.39" y="395.9766"/><text fill="#000000" font-family="Verdana" font-size="14" lengthAdjust="spacing" textLength="176.8799" x="523.39" y="402.3232">_test_hello_world(): None</text><rect fill="#FFFFFF" height="6" style="stroke:#000000;stroke-width:1;" width="6" x="513.39" y="412.2734"/><text fill="#000000" font-family="Verdana" font-size="14" lengthAdjust="spacing" textLength="224.6426" x="523.39" y="418.6201">_test_current_date(*args): None</text></g><!--class crons_constants--><g class="entity" data-entity="crons_constants" data-source-line="81" data-uid="ent0005" id="entity_crons_constants"><rect fill="#FFFFFF" height="223.2656" rx="2.5" ry="2.5" style="stroke:#000000;stroke-width:1;" width="422.9111" x="556.54" y="557.9494"/><ellipse cx="707.5756" cy="571.9494" fill="#FFFFFF" rx="9" ry="9" style="stroke:#000000;stroke-width:1;"/><path d="M710.5444,577.59 Q709.9663,577.8869 709.3256,578.0275 Q708.685,578.1837 707.9819,578.1837 Q705.4819,578.1837 704.1538,576.5431 Q702.8413,574.8869 702.8413,571.7619 Q702.8413,568.6369 704.1538,566.9806 Q705.4819,565.3244 707.9819,565.3244 Q708.685,565.3244 709.3256,565.4806 Q709.9819,565.6369 710.5444,565.9337 L710.5444,568.6525 Q709.9194,568.0744 709.3256,567.8087 Q708.7319,567.5275 708.1069,567.5275 Q706.7631,567.5275 706.0756,568.6056 Q705.3881,569.6681 705.3881,571.7619 Q705.3881,573.8556 706.0756,574.9337 Q706.7631,575.9962 708.1069,575.9962 Q708.7319,575.9962 709.3256,575.7306 Q709.9194,575.4494 710.5444,574.8712 L710.5444,577.59 Z " fill="#000000"/><text fill="#000000" font-family="Verdana" font-size="14" lengthAdjust="spacing" textLength="113.3398" x="725.0756" y="576.7961">crons_constants</text><line style="stroke:#000000;stroke-width:1;" x1="557.54" x2="978.4511" y1="585.9494" y2="585.9494"/><ellipse cx="567.54" cy="599.5978" fill="none" rx="3" ry="3" style="stroke:#000000;stroke-width:1;"/><text fill="#000000" font-family="Verdana" font-size="14" lengthAdjust="spacing" textLength="120.9004" x="574.54" y="602.9445">TOML_CONF: dict</text><ellipse cx="567.54" cy="615.8947" fill="none" rx="3" ry="3" style="stroke:#000000;stroke-width:1;"/><text fill="#000000" font-family="Verdana" font-size="14" lengthAdjust="spacing" textLength="192.9375" x="574.54" y="619.2414">ENABLE_TEST_CRONS: bool</text><ellipse cx="567.54" cy="632.1916" fill="none" rx="3" ry="3" style="stroke:#000000;stroke-width:1;"/><text fill="#000000" font-family="Verdana" font-size="14" lengthAdjust="spacing" textLength="149.502" x="574.54" y="635.5382">CLEAN_TOKENS: bool</text><ellipse cx="567.54" cy="648.4884" fill="none" rx="3" ry="3" style="stroke:#000000;stroke-width:1;"/><text fill="#000000" font-family="Verdana" font-size="14" lengthAdjust="spacing" textLength="190.5313" x="574.54" y="651.8351">CLEAN_VERIFICATION: bool</text><ellipse cx="567.54" cy="664.7853" fill="none" rx="3" ry="3" style="stroke:#000000;stroke-width:1;"/><text fill="#000000" font-family="Verdana" font-size="14" lengthAdjust="spacing" textLength="201.4414" x="574.54" y="668.132">RENEW_OATH_TOKENS: bool</text><ellipse cx="567.54" cy="681.0822" fill="none" rx="3" ry="3" style="stroke:#000000;stroke-width:1;"/><text fill="#000000" font-family="Verdana" font-size="14" lengthAdjust="spacing" textLength="220.6162" x="574.54" y="684.4289">CHECK_ACTIONS_INTERVAL: int</text><ellipse cx="567.54" cy="697.3791" fill="none" rx="3" ry="3" style="stroke:#000000;stroke-width:1;"/><text fill="#000000" font-family="Verdana" font-size="14" lengthAdjust="spacing" textLength="194.8174" x="574.54" y="700.7257">TEST_CRONS_INTERVAL: int</text><ellipse cx="567.54" cy="713.6759" fill="none" rx="3" ry="3" style="stroke:#000000;stroke-width:1;"/><text fill="#000000" font-family="Verdana" font-size="14" lengthAdjust="spacing" textLength="213.5273" x="574.54" y="717.0226">CLEAN_TOKENS_INTERVAL: int</text><ellipse cx="567.54" cy="729.9728" fill="none" rx="3" ry="3" style="stroke:#000000;stroke-width:1;"/><text fill="#000000" font-family="Verdana" font-size="14" lengthAdjust="spacing" textLength="254.5566" x="574.54" y="733.3195">CLEAN_VERIFICATION_INTERVAL: int</text><ellipse cx="567.54" cy="746.2697" fill="none" rx="3" ry="3" style="stroke:#000000;stroke-width:1;"/><text fill="#000000" font-family="Verdana" font-size="14" lengthAdjust="spacing" textLength="265.4668" x="574.54" y="749.6164">RENEW_OATH_TOKENS_INTERVAL: int</text><line style="stroke:#000000;stroke-width:1;" x1="557.54" x2="978.4511" y1="756.9181" y2="756.9181"/><ellipse cx="567.54" cy="770.5666" fill="#FFFFFF" rx="3" ry="3" style="stroke:#000000;stroke-width:1;"/><text fill="#000000" font-family="Verdana" font-size="14" lengthAdjust="spacing" textLength="398.9111" x="574.54" y="773.9132">_get_toml_variable(toml_conf, section, key, default): Any</text></g><!--class BackgroundScheduler--><g class="entity" data-entity="BackgroundScheduler" data-source-line="97" data-uid="ent0007" id="entity_BackgroundScheduler"><rect fill="#FFFFFF" height="125.4844" rx="2.5" ry="2.5" style="stroke:#000000;stroke-width:1;" width="279.8896" x="134.06" y="936.2394"/><ellipse cx="193.2958" cy="950.2394" fill="#FFFFFF" rx="9" ry="9" style="stroke:#000000;stroke-width:1;"/><path d="M196.2646,955.88 Q195.6865,956.1769 195.0458,956.3175 Q194.4052,956.4737 193.7021,956.4737 Q191.2021,956.4737 189.874,954.8331 Q188.5615,953.1769 188.5615,950.0519 Q188.5615,946.9269 189.874,945.2706 Q191.2021,943.6144 193.7021,943.6144 Q194.4052,943.6144 195.0458,943.7706 Q195.7021,943.9269 196.2646,944.2237 L196.2646,946.9425 Q195.6396,946.3644 195.0458,946.0987 Q194.4521,945.8175 193.8271,945.8175 Q192.4833,945.8175 191.7958,946.8956 Q191.1083,947.9581 191.1083,950.0519 Q191.1083,952.1456 191.7958,953.2237 Q192.4833,954.2862 193.8271,954.2862 Q194.4521,954.2862 195.0458,954.0206 Q195.6396,953.7394 196.2646,953.1612 L196.2646,955.88 Z " fill="#000000"/><text fill="#000000" font-family="Verdana" font-size="14" lengthAdjust="spacing" textLength="153.918" x="210.7958" y="955.0861">BackgroundScheduler</text><line style="stroke:#000000;stroke-width:1;" x1="135.06" x2="412.9496" y1="964.2394" y2="964.2394"/><line style="stroke:#000000;stroke-width:1;" x1="135.06" x2="412.9496" y1="972.2394" y2="972.2394"/><ellipse cx="145.06" cy="985.8878" fill="#FFFFFF" rx="3" ry="3" style="stroke:#000000;stroke-width:1;"/><text fill="#000000" font-family="Verdana" font-size="14" lengthAdjust="spacing" textLength="255.8896" x="152.06" y="989.2345">add_job(func, trigger, **kwargs): Job</text><ellipse cx="145.06" cy="1002.1847" fill="#FFFFFF" rx="3" ry="3" style="stroke:#000000;stroke-width:1;"/><text fill="#000000" font-family="Verdana" font-size="14" lengthAdjust="spacing" textLength="89.2227" x="152.06" y="1005.5314">start(): None</text><ellipse cx="145.06" cy="1018.4816" fill="#FFFFFF" rx="3" ry="3" style="stroke:#000000;stroke-width:1;"/><text fill="#000000" font-family="Verdana" font-size="14" lengthAdjust="spacing" textLength="98.8613" x="152.06" y="1021.8282">pause(): None</text><ellipse cx="145.06" cy="1034.7784" fill="#FFFFFF" rx="3" ry="3" style="stroke:#000000;stroke-width:1;"/><text fill="#000000" font-family="Verdana" font-size="14" lengthAdjust="spacing" textLength="109.4023" x="152.06" y="1038.1251">resume(): None</text><ellipse cx="145.06" cy="1051.0753" fill="#FFFFFF" rx="3" ry="3" style="stroke:#000000;stroke-width:1;"/><text fill="#000000" font-family="Verdana" font-size="14" lengthAdjust="spacing" textLength="154.3281" x="152.06" y="1054.422">shutdown(wait): None</text></g><!--class Job--><g class="entity" data-entity="Job" data-source-line="105" data-uid="ent0008" id="entity_Job"><rect fill="#FFFFFF" height="109.1875" rx="2.5" ry="2.5" style="stroke:#000000;stroke-width:1;" width="196.7578" x="175.62" y="1138.7194"/><ellipse cx="259.4584" cy="1152.7194" fill="#FFFFFF" rx="9" ry="9" style="stroke:#000000;stroke-width:1;"/><path d="M262.4271,1158.36 Q261.849,1158.6569 261.2084,1158.7975 Q260.5678,1158.9538 259.8646,1158.9538 Q257.3646,1158.9538 256.0365,1157.3131 Q254.724,1155.6569 254.724,1152.5319 Q254.724,1149.4069 256.0365,1147.7506 Q257.3646,1146.0944 259.8646,1146.0944 Q260.5678,1146.0944 261.2084,1146.2506 Q261.8646,1146.4069 262.4271,1146.7038 L262.4271,1149.4225 Q261.8021,1148.8444 261.2084,1148.5788 Q260.6146,1148.2975 259.9896,1148.2975 Q258.6459,1148.2975 257.9584,1149.3756 Q257.2709,1150.4381 257.2709,1152.5319 Q257.2709,1154.6256 257.9584,1155.7038 Q258.6459,1156.7663 259.9896,1156.7663 Q260.6146,1156.7663 261.2084,1156.5006 Q261.8021,1156.2194 262.4271,1155.6413 L262.4271,1158.36 Z " fill="#000000"/><text fill="#000000" font-family="Verdana" font-size="14" lengthAdjust="spacing" textLength="21.5811" x="276.9584" y="1157.5661">Job</text><line style="stroke:#000000;stroke-width:1;" x1="176.62" x2="371.3778" y1="1166.7194" y2="1166.7194"/><ellipse cx="186.62" cy="1180.3678" fill="none" rx="3" ry="3" style="stroke:#000000;stroke-width:1;"/><text fill="#000000" font-family="Verdana" font-size="14" lengthAdjust="spacing" textLength="40.4824" x="193.62" y="1183.7145">id: str</text><ellipse cx="186.62" cy="1196.6647" fill="none" rx="3" ry="3" style="stroke:#000000;stroke-width:1;"/><text fill="#000000" font-family="Verdana" font-size="14" lengthAdjust="spacing" textLength="67.4092" x="193.62" y="1200.0114">name: str</text><ellipse cx="186.62" cy="1212.9616" fill="none" rx="3" ry="3" style="stroke:#000000;stroke-width:1;"/><text fill="#000000" font-family="Verdana" font-size="14" lengthAdjust="spacing" textLength="172.7578" x="193.62" y="1216.3082">next_run_time: datetime</text><ellipse cx="186.62" cy="1229.2584" fill="none" rx="3" ry="3" style="stroke:#000000;stroke-width:1;"/><text fill="#000000" font-family="Verdana" font-size="14" lengthAdjust="spacing" textLength="106.7842" x="193.62" y="1232.6051">trigger: Trigger</text><line style="stroke:#000000;stroke-width:1;" x1="176.62" x2="371.3778" y1="1239.9069" y2="1239.9069"/></g><!--class RuntimeManager--><g class="entity" data-entity="RuntimeManager" data-source-line="114" data-uid="ent0010" id="entity_RuntimeManager"><rect fill="#FFFFFF" height="109.1875" rx="2.5" ry="2.5" style="stroke:#000000;stroke-width:1;" width="234.54" x="1034.73" y="614.9894"/><ellipse cx="1088.0152" cy="628.9894" fill="#FFFFFF" rx="9" ry="9" style="stroke:#000000;stroke-width:1;"/><path d="M1090.9839,634.63 Q1090.4058,634.9269 1089.7652,635.0675 Q1089.1245,635.2238 1088.4214,635.2238 Q1085.9214,635.2238 1084.5933,633.5831 Q1083.2808,631.9269 1083.2808,628.8019 Q1083.2808,625.6769 1084.5933,624.0206 Q1085.9214,622.3644 1088.4214,622.3644 Q1089.1245,622.3644 1089.7652,622.5206 Q1090.4214,622.6769 1090.9839,622.9738 L1090.9839,625.6925 Q1090.3589,625.1144 1089.7652,624.8488 Q1089.1714,624.5675 1088.5464,624.5675 Q1087.2027,624.5675 1086.5152,625.6456 Q1085.8277,626.7081 1085.8277,628.8019 Q1085.8277,630.8956 1086.5152,631.9738 Q1087.2027,633.0363 1088.5464,633.0363 Q1089.1714,633.0363 1089.7652,632.7706 Q1090.3589,632.4894 1090.9839,631.9113 L1090.9839,634.63 Z " fill="#000000"/><text fill="#000000" font-family="Verdana" font-size="14" lengthAdjust="spacing" textLength="120.4697" x="1105.5152" y="633.8361">RuntimeManager</text><line style="stroke:#000000;stroke-width:1;" x1="1035.73" x2="1268.27" y1="642.9894" y2="642.9894"/><line style="stroke:#000000;stroke-width:1;" x1="1035.73" x2="1268.27" y1="650.9894" y2="650.9894"/><ellipse cx="1045.73" cy="664.6378" fill="#FFFFFF" rx="3" ry="3" style="stroke:#000000;stroke-width:1;"/><text fill="#000000" font-family="Verdana" font-size="14" lengthAdjust="spacing" textLength="88.6963" x="1052.73" y="667.9845">get(cls): Any</text><ellipse cx="1045.73" cy="680.9347" fill="#FFFFFF" rx="3" ry="3" style="stroke:#000000;stroke-width:1;"/><text fill="#000000" font-family="Verdana" font-size="14" lengthAdjust="spacing" textLength="169.8662" x="1052.73" y="684.2814">set(cls, **kwargs): None</text><ellipse cx="1045.73" cy="697.2316" fill="#FFFFFF" rx="3" ry="3" style="stroke:#000000;stroke-width:1;"/><text fill="#000000" font-family="Verdana" font-size="14" lengthAdjust="spacing" textLength="210.54" x="1052.73" y="700.5782">get_if_exists(cls, default): Any</text><ellipse cx="1045.73" cy="713.5284" fill="#FFFFFF" rx="3" ry="3" style="stroke:#000000;stroke-width:1;"/><text fill="#000000" font-family="Verdana" font-size="14" lengthAdjust="spacing" textLength="109.7441" x="1052.73" y="716.8751">exists(cls): bool</text></g><!--class SQL--><g class="entity" data-entity="SQL" data-source-line="121" data-uid="ent0011" id="entity_SQL"><rect fill="#FFFFFF" height="92.8906" rx="2.5" ry="2.5" style="stroke:#000000;stroke-width:1;" width="290.957" x="1304.52" y="623.1394"/><ellipse cx="1432.3955" cy="637.1394" fill="#FFFFFF" rx="9" ry="9" style="stroke:#000000;stroke-width:1;"/><path d="M1435.3642,642.78 Q1434.7861,643.0769 1434.1455,643.2175 Q1433.5049,643.3738 1432.8017,643.3738 Q1430.3017,643.3738 1428.9736,641.7331 Q1427.6611,640.0769 1427.6611,636.9519 Q1427.6611,633.8269 1428.9736,632.1706 Q1430.3017,630.5144 1432.8017,630.5144 Q1433.5049,630.5144 1434.1455,630.6706 Q1434.8017,630.8269 1435.3642,631.1238 L1435.3642,633.8425 Q1434.7392,633.2644 1434.1455,632.9988 Q1433.5517,632.7175 1432.9267,632.7175 Q1431.583,632.7175 1430.8955,633.7956 Q1430.208,634.8581 1430.208,636.9519 Q1430.208,639.0456 1430.8955,640.1238 Q1431.583,641.1863 1432.9267,641.1863 Q1433.5517,641.1863 1434.1455,640.9206 Q1434.7392,640.6394 1435.3642,640.0613 L1435.3642,642.78 Z " fill="#000000"/><text fill="#000000" font-family="Verdana" font-size="14" lengthAdjust="spacing" textLength="27.7061" x="1449.8955" y="641.9861">SQL</text><line style="stroke:#000000;stroke-width:1;" x1="1305.52" x2="1594.477" y1="651.1394" y2="651.1394"/><line style="stroke:#000000;stroke-width:1;" x1="1305.52" x2="1594.477" y1="659.1394" y2="659.1394"/><ellipse cx="1315.52" cy="672.7878" fill="#FFFFFF" rx="3" ry="3" style="stroke:#000000;stroke-width:1;"/><text fill="#000000" font-family="Verdana" font-size="14" lengthAdjust="spacing" textLength="266.957" x="1322.52" y="676.1345">get_data_from_table(): Union[int, List]</text><ellipse cx="1315.52" cy="689.0847" fill="#FFFFFF" rx="3" ry="3" style="stroke:#000000;stroke-width:1;"/><text fill="#000000" font-family="Verdana" font-size="14" lengthAdjust="spacing" textLength="212.6934" x="1322.52" y="692.4314">remove_data_from_table(): int</text><ellipse cx="1315.52" cy="705.3816" fill="#FFFFFF" rx="3" ry="3" style="stroke:#000000;stroke-width:1;"/><text fill="#000000" font-family="Verdana" font-size="14" lengthAdjust="spacing" textLength="214.7305" x="1322.52" y="708.7282">string_to_datetime(): datetime</text></g><!--class OAuthAuthentication--><g class="entity" data-entity="OAuthAuthentication" data-source-line="127" data-uid="ent0012" id="entity_OAuthAuthentication"><rect fill="#FFFFFF" height="60.2969" rx="2.5" ry="2.5" style="stroke:#000000;stroke-width:1;" width="206.9707" x="1630.51" y="639.4294"/><ellipse cx="1658.0752" cy="653.4294" fill="#FFFFFF" rx="9" ry="9" style="stroke:#000000;stroke-width:1;"/><path d="M1661.044,659.07 Q1660.4659,659.3669 1659.8252,659.5075 Q1659.1846,659.6637 1658.4815,659.6637 Q1655.9815,659.6637 1654.6534,658.0231 Q1653.3409,656.3669 1653.3409,653.2419 Q1653.3409,650.1169 1654.6534,648.4606 Q1655.9815,646.8044 1658.4815,646.8044 Q1659.1846,646.8044 1659.8252,646.9606 Q1660.4815,647.1169 1661.044,647.4137 L1661.044,650.1325 Q1660.419,649.5544 1659.8252,649.2887 Q1659.2315,649.0075 1658.6065,649.0075 Q1657.2627,649.0075 1656.5752,650.0856 Q1655.8877,651.1481 1655.8877,653.2419 Q1655.8877,655.3356 1656.5752,656.4137 Q1657.2627,657.4762 1658.6065,657.4762 Q1659.2315,657.4762 1659.8252,657.2106 Q1660.419,656.9294 1661.044,656.3512 L1661.044,659.07 Z " fill="#000000"/><text fill="#000000" font-family="Verdana" font-size="14" lengthAdjust="spacing" textLength="146.6035" x="1673.312" y="658.2761">OAuthAuthentication</text><line style="stroke:#000000;stroke-width:1;" x1="1631.51" x2="1836.4807" y1="667.4294" y2="667.4294"/><line style="stroke:#000000;stroke-width:1;" x1="1631.51" x2="1836.4807" y1="675.4294" y2="675.4294"/><ellipse cx="1641.51" cy="689.0778" fill="#FFFFFF" rx="3" ry="3" style="stroke:#000000;stroke-width:1;"/><text fill="#000000" font-family="Verdana" font-size="14" lengthAdjust="spacing" textLength="182.9707" x="1648.51" y="692.4245">renew_oauth_tokens(): int</text></g><!--class BoilerplateNonHTTP--><g class="entity" data-entity="BoilerplateNonHTTP" data-source-line="131" data-uid="ent0013" id="entity_BoilerplateNonHTTP"><rect fill="#FFFFFF" height="60.2969" rx="2.5" ry="2.5" style="stroke:#000000;stroke-width:1;" width="190.6396" x="1872.68" y="639.4294"/><ellipse cx="1895.9755" cy="653.4294" fill="#FFFFFF" rx="9" ry="9" style="stroke:#000000;stroke-width:1;"/><path d="M1898.9443,659.07 Q1898.3661,659.3669 1897.7255,659.5075 Q1897.0849,659.6637 1896.3818,659.6637 Q1893.8818,659.6637 1892.5536,658.0231 Q1891.2411,656.3669 1891.2411,653.2419 Q1891.2411,650.1169 1892.5536,648.4606 Q1893.8818,646.8044 1896.3818,646.8044 Q1897.0849,646.8044 1897.7255,646.9606 Q1898.3818,647.1169 1898.9443,647.4137 L1898.9443,650.1325 Q1898.3193,649.5544 1897.7255,649.2887 Q1897.1318,649.0075 1896.5068,649.0075 Q1895.163,649.0075 1894.4755,650.0856 Q1893.788,651.1481 1893.788,653.2419 Q1893.788,655.3356 1894.4755,656.4137 Q1895.163,657.4762 1896.5068,657.4762 Q1897.1318,657.4762 1897.7255,657.2106 Q1898.3193,656.9294 1898.9443,656.3512 L1898.9443,659.07 Z " fill="#000000"/><text fill="#000000" font-family="Verdana" font-size="14" lengthAdjust="spacing" textLength="139.7607" x="1910.2634" y="658.2761">BoilerplateNonHTTP</text><line style="stroke:#000000;stroke-width:1;" x1="1873.68" x2="2062.3196" y1="667.4294" y2="667.4294"/><line style="stroke:#000000;stroke-width:1;" x1="1873.68" x2="2062.3196" y1="675.4294" y2="675.4294"/><ellipse cx="1883.68" cy="689.0778" fill="#FFFFFF" rx="3" ry="3" style="stroke:#000000;stroke-width:1;"/><text fill="#000000" font-family="Verdana" font-size="14" lengthAdjust="spacing" textLength="166.6396" x="1890.68" y="692.4245">set_lifespan(): datetime</text></g><g class="entity" data-entity="GMN22" data-source-line="148" data-uid="ent0023" id="entity_GMN22"><path d="M1014.1,208.8694 L1014.1,255.2694 L978.74,259.2694 L1014.1,263.2694 L1014.1,309.6663 A0,0 0 0 0 1014.1,309.6663 L1251.9042,309.6663 A0,0 0 0 0 1251.9042,309.6663 L1251.9042,218.8694 L1241.9042,208.8694 L1014.1,208.8694 A0,0 0 0 0 1014.1,208.8694" fill="#FFFFFF" style="stroke:#000000;stroke-width:1;"/><path d="M1241.9042,208.8694 L1241.9042,218.8694 L1251.9042,218.8694 L1241.9042,208.8694" fill="#FFFFFF" style="stroke:#000000;stroke-width:1;"/><text fill="#000000" font-family="Verdana" font-size="13" lengthAdjust="spacing" textLength="128.2607" x="1020.1" y="225.9363">Task Injection Flow:</text><text fill="#000000" font-family="Verdana" font-size="13" lengthAdjust="spacing" textLength="147.0625" x="1020.1" y="241.0691">1. inject_crons() called</text><text fill="#000000" font-family="Verdana" font-size="13" lengthAdjust="spacing" textLength="216.8042" x="1020.1" y="256.2019">2. Adds tasks via safe_add_task()</text><text fill="#000000" font-family="Verdana" font-size="13" lengthAdjust="spacing" textLength="160.2656" x="1020.1" y="271.3347">3. Tasks run on intervals</text><text fill="#000000" font-family="Verdana" font-size="13" lengthAdjust="spacing" textLength="206.667" x="1020.1" y="286.4675">4. Database cleanup performed</text><text fill="#000000" font-family="Verdana" font-size="13" lengthAdjust="spacing" textLength="165.5532" x="1020.1" y="301.6003">5. OAuth tokens renewed</text></g><g class="entity" data-entity="GMN25" data-source-line="157" data-uid="ent0026" id="entity_GMN25"><path d="M2098.06,626.7494 L2098.06,712.4134 L2343.9321,712.4134 L2343.9321,636.7494 L2333.9321,626.7494 L2098.06,626.7494" fill="#FFFFFF" style="stroke:#000000;stroke-width:1;"/><path d="M2333.9321,626.7494 L2333.9321,636.7494 L2343.9321,636.7494 L2333.9321,626.7494" fill="#FFFFFF" style="stroke:#000000;stroke-width:1;"/><text fill="#000000" font-family="Verdana" font-size="13" lengthAdjust="spacing" textLength="84.8872" x="2104.06" y="643.8163">Safe Pattern:</text><text fill="#000000" font-family="Verdana" font-size="13" lengthAdjust="spacing" textLength="224.8721" x="2104.06" y="658.9491">- safe_* methods catch exceptions</text><text fill="#000000" font-family="Verdana" font-size="13" lengthAdjust="spacing" textLength="190.1821" x="2104.06" y="674.0819">- Return error code on failure</text><text fill="#000000" font-family="Verdana" font-size="13" lengthAdjust="spacing" textLength="124.9155" x="2104.06" y="689.2147">- Log all operations</text><text fill="#000000" font-family="Verdana" font-size="13" lengthAdjust="spacing" textLength="146.8467" x="2104.06" y="704.3475">- Graceful degradation</text></g><!--link Crons to BackgroundTasks--><g class="link" data-entity-1="Crons" data-entity-2="BackgroundTasks" data-source-line="137" data-uid="lnk14" id="link_Crons_BackgroundTasks"><path codeLine="137" d="M551.65,426.3494 C522.8,451.5194 497.552,473.5458 468.702,498.7058" fill="none" id="Crons-to-BackgroundTasks" style="stroke:#000000;stroke-width:1;"/><polygon fill="#000000" points="464.18,502.6494,473.592,499.7486,467.9483,499.3631,468.3339,493.7194,464.18,502.6494" style="stroke:#000000;stroke-width:1;"/><text fill="#000000" font-family="Verdana" font-size="13" lengthAdjust="spacing" textLength="29.7832" x="509" y="468.9963">uses</text></g><!--link Crons to crons_constants--><g class="link" data-entity-1="Crons" data-entity-2="crons_constants" data-source-line="138" data-uid="lnk15" id="link_Crons_crons_constants"><path codeLine="138" d="M752.58,426.3494 C755.39,470.4994 757.9793,511.1415 760.5493,551.5615" fill="none" id="Crons-to-crons_constants" style="stroke:#000000;stroke-width:1;"/><polygon fill="#000000" points="760.93,557.5494,764.3509,548.3137,760.6127,552.5595,756.367,548.8213,760.93,557.5494" style="stroke:#000000;stroke-width:1;"/><text fill="#000000" font-family="Verdana" font-size="13" lengthAdjust="spacing" textLength="49.6958" x="756" y="468.9963">imports</text></g><!--link BackgroundTasks to BackgroundScheduler--><g class="link" data-entity-1="BackgroundTasks" data-entity-2="BackgroundScheduler" data-source-line="139" data-uid="lnk16" id="link_BackgroundTasks_BackgroundScheduler"><path codeLine="139" d="M274,836.6794 C274,872.1394 274,901.4394 274,929.9394" fill="none" id="BackgroundTasks-to-BackgroundScheduler" style="stroke:#000000;stroke-width:1;"/><polygon fill="#000000" points="274,935.9394,278,926.9394,274,930.9394,270,926.9394,274,935.9394" style="stroke:#000000;stroke-width:1;"/><text fill="#000000" font-family="Verdana" font-size="13" lengthAdjust="spacing" textLength="38.9683" x="275" y="881.3063">wraps</text></g><!--link BackgroundScheduler to Job--><g class="link" data-entity-1="BackgroundScheduler" data-entity-2="Job" data-source-line="140" data-uid="lnk17" id="link_BackgroundScheduler_Job"><path codeLine="140" d="M274,1062.1594 C274,1086.7494 274,1108.7294 274,1132.4394" fill="none" id="BackgroundScheduler-to-Job" style="stroke:#000000;stroke-width:1;"/><polygon fill="#000000" points="274,1138.4394,278,1129.4394,274,1133.4394,270,1129.4394,274,1138.4394" style="stroke:#000000;stroke-width:1;"/><text fill="#000000" font-family="Verdana" font-size="13" lengthAdjust="spacing" textLength="48.3247" x="275" y="1104.7863">creates</text></g><!--link Crons to RuntimeManager--><g class="link" data-entity-1="Crons" data-entity-2="RuntimeManager" data-source-line="141" data-uid="lnk18" id="link_Crons_RuntimeManager"><path codeLine="141" d="M917.26,426.2794 C943.52,451.7394 970.11,477.8894 995,502.9294 C1031.46,539.5994 1067.444,577.545 1097.984,610.235" fill="none" id="Crons-to-RuntimeManager" style="stroke:#000000;stroke-width:1;"/><polygon fill="#000000" points="1102.08,614.6194,1098.8589,605.3121,1098.6667,610.9657,1093.0131,610.7735,1102.08,614.6194" style="stroke:#000000;stroke-width:1;"/><text fill="#000000" font-family="Verdana" font-size="13" lengthAdjust="spacing" textLength="123.8364" x="962.22" y="468.9963">retrieves instances</text></g><!--link Crons to SQL--><g class="link" data-entity-1="Crons" data-entity-2="SQL" data-source-line="142" data-uid="lnk19" id="link_Crons_SQL"><path codeLine="142" d="M978.87,417.5094 C984.92,420.4394 990.97,423.2494 997,425.9294 C1118.88,480.0394 1171.71,435.9094 1287,502.9294 C1339.5,533.4394 1382.8742,580.6343 1412.7842,618.2243" fill="none" id="Crons-to-SQL" style="stroke:#000000;stroke-width:1;"/><polygon fill="#000000" points="1416.52,622.9194,1414.0463,613.3862,1413.4068,619.0068,1407.7862,618.3673,1416.52,622.9194" style="stroke:#000000;stroke-width:1;"/><text fill="#000000" font-family="Verdana" font-size="13" lengthAdjust="spacing" textLength="133.5928" x="1219.58" y="468.9963">database operations</text></g><!--link Crons to OAuthAuthentication--><g class="link" data-entity-1="Crons" data-entity-2="OAuthAuthentication" data-source-line="143" data-uid="lnk20" id="link_Crons_OAuthAuthentication"><path codeLine="143" d="M979.03,419.2894 C985.01,421.6594 991,423.8794 997,425.9294 C1258.1,515.0894 1379.61,355.7794 1613,502.9294 C1665.57,536.0694 1700.0844,595.5947 1718.3944,633.5747" fill="none" id="Crons-to-OAuthAuthentication" style="stroke:#000000;stroke-width:1;"/><polygon fill="#000000" points="1721,638.9794,1720.6948,629.1352,1718.8287,634.4754,1713.4885,632.6094,1721,638.9794" style="stroke:#000000;stroke-width:1;"/><text fill="#000000" font-family="Verdana" font-size="13" lengthAdjust="spacing" textLength="92.7393" x="1547.09" y="468.9963">token renewal</text></g><!--link Crons to BoilerplateNonHTTP--><g class="link" data-entity-1="Crons" data-entity-2="BoilerplateNonHTTP" data-source-line="144" data-uid="lnk21" id="link_Crons_BoilerplateNonHTTP"><path codeLine="144" d="M978.94,419.5794 C984.94,421.8694 990.97,423.9894 997,425.9294 C1179.24,484.5194 1696.76,395.1994 1855,502.9294 C1905.07,537.0094 1936.8391,595.8083 1953.6191,633.4883" fill="none" id="Crons-to-BoilerplateNonHTTP" style="stroke:#000000;stroke-width:1;"/><polygon fill="#000000" points="1956.06,638.9694,1956.0527,629.1205,1954.0259,634.4018,1948.7446,632.375,1956.06,638.9694" style="stroke:#000000;stroke-width:1;"/><text fill="#000000" font-family="Verdana" font-size="13" lengthAdjust="spacing" textLength="100.9722" x="1784.71" y="468.9963">utility functions</text></g><!--link BackgroundTasks to GMN25--><g class="link" data-entity-1="BackgroundTasks" data-entity-2="GMN25" data-source-line="157" data-uid="lnk27" id="link_BackgroundTasks_GMN25"><path d="M473.2,502.5594 C499.9,487.0494 527.96,473.6894 556.5,464.4294 C636.02,438.5994 1986.39,427.6794 2061.5,464.4294 C2130.19,498.0294 2177.84,577.0694 2202.2,626.6494" fill="none" id="BackgroundTasks-GMN25" style="stroke:#000000;stroke-width:1;stroke-dasharray:7,7;"/></g><!--SRC=[dLTPR-Cs47xths3tfSxX0BrUX4K0nN6QT1qxjTtjms91qDB8ufec1PAoDoZsltSe-g0EfuSVR8dpSJZdD_HtDeSDa48mBdizowq0CjHA6lAiqX9VOftat49YImszNi6IDLi1UHTYtf6_UWG_YM36a3k4hBGgPRfWPct8-_SFN39nUxj7kS-0fDmK4Rd7xs3H93auXJeAjCmFYo6mJ18m9Y9Ssc0Pj5QwkPZ2ibn5PAcKEAuU7wu8fLnoIsb_h_FQQxds-ou2f64PK9QcrA9V_QoKoJLXUeKxrZl_QpLVhG3t6aYKJCr5HFwGNCbFQD4r-KqjFpVL6SkqxL_KRTxB2bOQw5VVtG0Dfjp0cTt6ggA_OzosnF_F1RJ-caoKX9eF1_C3DvkOkXjl04_kl04AtJeB6n1g5KrvOlifimoXxhaIV-i5fUgB-3yKQ6U1dId6hheR45rAopT0DqnY7w6kcLzuzky1SddiW2fR9cfsLdWMUhba1gZWSXsH-U_ZGAXOQNFglW2FIfZ5g5L5pvdW1jA8J0ktniIdQOoek8OCexfK7FiGkS82bQWajxOue-dk1CNSF2uMBv_VxBvzqnsRiDLzN7v14gA9Ircxv94ZaZLbYJkz4hk22EK2cAJmjU0QC9vg3Vy2jWNDiqF0f4gXQui62JkgcCtRKbU7O2pDGGX5TqgBz2mcAJMgiXHJ2VrBrumXibQsLGmejYUsdxGcADihifW-Z-bmEda8QjvBHfFuRZoYYz5yGOUpwMJUgCqhCXoFuWbTJ3-CpWe_ZcPF3q_3UF4qdRGWiz5az2UTnel7iqeUHyCFD1wwxNFwD5cCPX_ZSJEP9nFFGa9J_m4KcdmMsZBzB9Akm681RGJTCitPKa2_UiDqP1Lhkcf1FeLNLyGPAuMZgbY-xlFuBHYYySjnk9sReKT0BSkEmh-evPx1ZvnzUUbf70z4kkxYwKRnUcxkAke35JS49YzjgdRoGC51WHuxsxk01jHCviWEnkfWHR8DjDRWgwN8aTHnOkHu3TnJWDWx6v65V-W8wr1f8FTGW4n19XnCFRXrngqPYRdj9y842TkxxTTh4Mv4nfK5pv0xkB76Wzlfzz0JvYBea5O4aSMRnZbsO3JJQeCpmPLUVGgEKMzzecxK5hesDIuC65IvgcRcFk0EKmj-oxgEKL6pzi2BRlQS-FPmRajTUrxKj642SBPbO0ecEsp3x7zFPY0gCqpE2zFpitqmk6rTI2E2HHy2cdoAPcuAfQtfDRVMrPrwCo8xpOeGVvAvFQuP8Zm7qEpmv4OfHXWrJ0LimM2ad3L93Uug8ZeEUw8AqDxZ0DELbuXK6V0vOIACJJli61xB1RUlnB6BLu_HTG4uND2nM4WcrAudbGM2VPXReZ9_dQeoKe6Vgedjpdz0R5G9VhXf37AIC24WhOG_tf0uJGsfhZjaordZoksl0p_T49yCf0c2oh6aG6-Py2V_V4Fk3_6ffdbP40nJflHcVyelDpv6FYR61mLbo1R4-TDhUDLrwvgZNUI5MJnPUiS6tjPBiW6RAtG2Gv_asEe953w67ZK3_2Cb_KMI97YdS2vaZ0ltzyf3ncf5C2XXUhtWLyqIo4g1nBBIBAra9xF_1W00]--></g></svg>