<svg xmlns="http://www.w3.org/2000/svg" xmlns:xlink="http://www.w3.org/1999/xlink" contentStyleType="text/css" data-diagram-type="SEQUENCE" height="979px" preserveAspectRatio="none" style="width:1201px;height:979px;background:#FFFFFF;" version="1.1" viewBox="0 0 1201 979" width="1201px" zoomAndPan="magnify"><defs/><g><g><title>SQL</title><rect fill="#FFFFFF" height="195.9297" style="stroke:#000000;stroke-width:1;" width="10" x="398.0078" y="98.4297"/></g><g><title>SQL</title><rect fill="#FFFFFF" height="269.0625" style="stroke:#000000;stroke-width:1;" width="10" x="398.0078" y="366.625"/></g><g><title>SQL</title><rect fill="#FFFFFF" height="174.7969" style="stroke:#000000;stroke-width:1;" width="10" x="398.0078" y="707.9531"/></g><g><title>SQLManageConnections</title><rect fill="#FFFFFF" height="137.6641" style="stroke:#000000;stroke-width:1;" width="10" x="609.2173" y="127.5625"/></g><g><title>SQLManageConnections</title><rect fill="#FFFFFF" height="210.7969" style="stroke:#000000;stroke-width:1;" width="10" x="609.2173" y="395.7578"/></g><g><title>SQLManageConnections</title><rect fill="#FFFFFF" height="116.5313" style="stroke:#000000;stroke-width:1;" width="10" x="609.2173" y="737.0859"/></g><g><title>Connection Pool</title><rect fill="#FFFFFF" height="79.3984" style="stroke:#000000;stroke-width:1;" width="10" x="780.6938" y="156.6953"/></g><g><title>Connection Pool</title><rect fill="#FFFFFF" height="29.1328" style="stroke:#000000;stroke-width:1;" width="10" x="780.6938" y="424.8906"/></g><g><title>Connection Pool</title><rect fill="#FFFFFF" height="30" style="stroke:#000000;stroke-width:1;" width="10" x="780.6938" y="544.4219"/></g><g><title>Connection Pool</title><rect fill="#FFFFFF" height="58.2656" style="stroke:#000000;stroke-width:1;" width="10" x="780.6938" y="766.2188"/></g><g><title>MariaDB</title><rect fill="#FFFFFF" height="29.1328" style="stroke:#000000;stroke-width:1;" width="10" x="990.9194" y="483.1563"/></g><g><title>Server Init</title><rect fill="#000000" fill-opacity="0.00000" height="833.4531" width="8" x="59.3706" y="67.2969"/><line style="stroke:#000000;stroke-width:1;stroke-dasharray:5,5;" x1="63" x2="63" y1="67.2969" y2="900.75"/></g><g><title>SQL</title><rect fill="#000000" fill-opacity="0.00000" height="833.4531" width="8" x="399.0078" y="67.2969"/><line style="stroke:#000000;stroke-width:1;stroke-dasharray:5,5;" x1="402.1548" x2="402.1548" y1="67.2969" y2="900.75"/></g><g><title>SQLManageConnections</title><rect fill="#000000" fill-opacity="0.00000" height="833.4531" width="8" x="610.2173" y="67.2969"/><line style="stroke:#000000;stroke-width:1;stroke-dasharray:5,5;" x1="613.3047" x2="613.3047" y1="67.2969" y2="900.75"/></g><g><title>Connection Pool</title><rect fill="#000000" fill-opacity="0.00000" height="833.4531" width="8" x="781.6938" y="67.2969"/><line style="stroke:#000000;stroke-width:1;stroke-dasharray:5,5;" x1="785.1299" x2="785.1299" y1="67.2969" y2="900.75"/></g><g><title>MariaDB</title><rect fill="#000000" fill-opacity="0.00000" height="833.4531" width="8" x="991.9194" y="67.2969"/><line style="stroke:#000000;stroke-width:1;stroke-dasharray:5,5;" x1="995.2856" x2="995.2856" y1="67.2969" y2="900.75"/></g><g class="participant participant-head" data-participant="Server"><rect fill="#FFFFFF" height="30.2969" rx="2.5" ry="2.5" style="stroke:#000000;stroke-width:1;" width="86.7412" x="20" y="36"/><text fill="#000000" font-family="Verdana" font-size="14" lengthAdjust="spacing" textLength="72.7412" x="27" y="55.9951">Server Init</text></g><g class="participant participant-tail" data-participant="Server"><rect fill="#FFFFFF" height="30.2969" rx="2.5" ry="2.5" style="stroke:#000000;stroke-width:1;" width="86.7412" x="20" y="899.75"/><text fill="#000000" font-family="Verdana" font-size="14" lengthAdjust="spacing" textLength="72.7412" x="27" y="919.7451">Server Init</text></g><g class="participant participant-head" data-participant="SQL"><rect fill="#FFFFFF" height="30.2969" rx="2.5" ry="2.5" style="stroke:#000000;stroke-width:1;" width="41.7061" x="382.1548" y="36"/><text fill="#000000" font-family="Verdana" font-size="14" lengthAdjust="spacing" textLength="27.7061" x="389.1548" y="55.9951">SQL</text></g><g class="participant participant-tail" data-participant="SQL"><rect fill="#FFFFFF" height="30.2969" rx="2.5" ry="2.5" style="stroke:#000000;stroke-width:1;" width="41.7061" x="382.1548" y="899.75"/><text fill="#000000" font-family="Verdana" font-size="14" lengthAdjust="spacing" textLength="27.7061" x="389.1548" y="919.7451">SQL</text></g><g class="participant participant-head" data-participant="ConnMgr"><rect fill="#FFFFFF" height="30.2969" rx="2.5" ry="2.5" style="stroke:#000000;stroke-width:1;" width="183.8252" x="522.3047" y="36"/><text fill="#000000" font-family="Verdana" font-size="14" lengthAdjust="spacing" textLength="169.8252" x="529.3047" y="55.9951">SQLManageConnections</text></g><g class="participant participant-tail" data-participant="ConnMgr"><rect fill="#FFFFFF" height="30.2969" rx="2.5" ry="2.5" style="stroke:#000000;stroke-width:1;" width="183.8252" x="522.3047" y="899.75"/><text fill="#000000" font-family="Verdana" font-size="14" lengthAdjust="spacing" textLength="169.8252" x="529.3047" y="919.7451">SQLManageConnections</text></g><g class="participant participant-head" data-participant="Pool"><text fill="#000000" font-family="Verdana" font-size="14" lengthAdjust="spacing" textLength="113.1279" x="726.1299" y="63.9951">Connection Pool</text><path d="M767.6938,15 C767.6938,5 785.6938,5 785.6938,5 C785.6938,5 803.6938,5 803.6938,15 L803.6938,41 C803.6938,51 785.6938,51 785.6938,51 C785.6938,51 767.6938,51 767.6938,41 L767.6938,15" fill="#FFFFFF" style="stroke:#000000;stroke-width:1;"/><path d="M767.6938,15 C767.6938,25 785.6938,25 785.6938,25 C785.6938,25 803.6938,25 803.6938,15" fill="none" style="stroke:#000000;stroke-width:1;"/></g><g class="participant participant-tail" data-participant="Pool"><text fill="#000000" font-family="Verdana" font-size="14" lengthAdjust="spacing" textLength="113.1279" x="726.1299" y="912.7451">Connection Pool</text><path d="M767.6938,926.0469 C767.6938,916.0469 785.6938,916.0469 785.6938,916.0469 C785.6938,916.0469 803.6938,916.0469 803.6938,926.0469 L803.6938,952.0469 C803.6938,962.0469 785.6938,962.0469 785.6938,962.0469 C785.6938,962.0469 767.6938,962.0469 767.6938,952.0469 L767.6938,926.0469" fill="#FFFFFF" style="stroke:#000000;stroke-width:1;"/><path d="M767.6938,926.0469 C767.6938,936.0469 785.6938,936.0469 785.6938,936.0469 C785.6938,936.0469 803.6938,936.0469 803.6938,926.0469" fill="none" style="stroke:#000000;stroke-width:1;"/></g><g class="participant participant-head" data-participant="DB"><text fill="#000000" font-family="Verdana" font-size="14" lengthAdjust="spacing" textLength="59.2676" x="963.2856" y="63.9951">MariaDB</text><path d="M977.9194,15 C977.9194,5 995.9194,5 995.9194,5 C995.9194,5 1013.9194,5 1013.9194,15 L1013.9194,41 C1013.9194,51 995.9194,51 995.9194,51 C995.9194,51 977.9194,51 977.9194,41 L977.9194,15" fill="#FFFFFF" style="stroke:#000000;stroke-width:1;"/><path d="M977.9194,15 C977.9194,25 995.9194,25 995.9194,25 C995.9194,25 1013.9194,25 1013.9194,15" fill="none" style="stroke:#000000;stroke-width:1;"/></g><g class="participant participant-tail" data-participant="DB"><text fill="#000000" font-family="Verdana" font-size="14" lengthAdjust="spacing" textLength="59.2676" x="963.2856" y="912.7451">MariaDB</text><path d="M977.9194,926.0469 C977.9194,916.0469 995.9194,916.0469 995.9194,916.0469 C995.9194,916.0469 1013.9194,916.0469 1013.9194,926.0469 L1013.9194,952.0469 C1013.9194,962.0469 995.9194,962.0469 995.9194,962.0469 C995.9194,962.0469 977.9194,962.0469 977.9194,952.0469 L977.9194,926.0469" fill="#FFFFFF" style="stroke:#000000;stroke-width:1;"/><path d="M977.9194,926.0469 C977.9194,936.0469 995.9194,936.0469 995.9194,936.0469 C995.9194,936.0469 1013.9194,936.0469 1013.9194,926.0469" fill="none" style="stroke:#000000;stroke-width:1;"/></g><g><title>SQL</title><rect fill="#FFFFFF" height="195.9297" style="stroke:#000000;stroke-width:1;" width="10" x="398.0078" y="98.4297"/></g><g><title>SQL</title><rect fill="#FFFFFF" height="269.0625" style="stroke:#000000;stroke-width:1;" width="10" x="398.0078" y="366.625"/></g><g><title>SQL</title><rect fill="#FFFFFF" height="174.7969" style="stroke:#000000;stroke-width:1;" width="10" x="398.0078" y="707.9531"/></g><g><title>SQLManageConnections</title><rect fill="#FFFFFF" height="137.6641" style="stroke:#000000;stroke-width:1;" width="10" x="609.2173" y="127.5625"/></g><g><title>SQLManageConnections</title><rect fill="#FFFFFF" height="210.7969" style="stroke:#000000;stroke-width:1;" width="10" x="609.2173" y="395.7578"/></g><g><title>SQLManageConnections</title><rect fill="#FFFFFF" height="116.5313" style="stroke:#000000;stroke-width:1;" width="10" x="609.2173" y="737.0859"/></g><g><title>Connection Pool</title><rect fill="#FFFFFF" height="79.3984" style="stroke:#000000;stroke-width:1;" width="10" x="780.6938" y="156.6953"/></g><g><title>Connection Pool</title><rect fill="#FFFFFF" height="29.1328" style="stroke:#000000;stroke-width:1;" width="10" x="780.6938" y="424.8906"/></g><g><title>Connection Pool</title><rect fill="#FFFFFF" height="30" style="stroke:#000000;stroke-width:1;" width="10" x="780.6938" y="544.4219"/></g><g><title>Connection Pool</title><rect fill="#FFFFFF" height="58.2656" style="stroke:#000000;stroke-width:1;" width="10" x="780.6938" y="766.2188"/></g><g><title>MariaDB</title><rect fill="#FFFFFF" height="29.1328" style="stroke:#000000;stroke-width:1;" width="10" x="990.9194" y="483.1563"/></g><g class="message" data-participant-1="Server" data-participant-2="SQL"><polygon fill="#000000" points="386.0078,94.4297,396.0078,98.4297,386.0078,102.4297,390.0078,98.4297" style="stroke:#000000;stroke-width:1;"/><line style="stroke:#000000;stroke-width:1;" x1="63.3706" x2="392.0078" y1="98.4297" y2="98.4297"/><text fill="#000000" font-family="Verdana" font-size="13" lengthAdjust="spacing" textLength="315.6372" x="70.3706" y="93.3638">create(url, port, username, password, db_name)</text></g><g class="message" data-participant-1="SQL" data-participant-2="ConnMgr"><polygon fill="#000000" points="597.2173,123.5625,607.2173,127.5625,597.2173,131.5625,601.2173,127.5625" style="stroke:#000000;stroke-width:1;"/><line style="stroke:#000000;stroke-width:1;" x1="408.0078" x2="603.2173" y1="127.5625" y2="127.5625"/><text fill="#000000" font-family="Verdana" font-size="13" lengthAdjust="spacing" text-decoration="underline" textLength="20.5601" x="415.0078" y="122.4966">init</text><text fill="#000000" font-family="Verdana" font-size="13" lengthAdjust="spacing" textLength="82.1831" x="435.5679" y="122.4966">(credentials)</text></g><g class="message" data-participant-1="ConnMgr" data-participant-2="Pool"><polygon fill="#000000" points="768.6938,152.6953,778.6938,156.6953,768.6938,160.6953,772.6938,156.6953" style="stroke:#000000;stroke-width:1;"/><line style="stroke:#000000;stroke-width:1;" x1="619.2173" x2="774.6938" y1="156.6953" y2="156.6953"/><text fill="#000000" font-family="Verdana" font-size="13" lengthAdjust="spacing" textLength="73.4551" x="626.2173" y="151.6294">create pool</text></g><g class="message" data-participant-1="Pool" data-participant-2="DB"><polygon fill="#000000" points="983.9194,192.3945,993.9194,196.3945,983.9194,200.3945,987.9194,196.3945" style="stroke:#000000;stroke-width:1;"/><line style="stroke:#000000;stroke-width:1;" x1="790.6938" x2="989.9194" y1="196.3945" y2="196.3945"/><text fill="#000000" font-family="Verdana" font-size="13" lengthAdjust="spacing" textLength="181.2256" x="797.6938" y="191.3286">establish connections (lazy)</text></g><path d="M1000,169.6953 L1000,209.6953 L1183,209.6953 L1183,179.6953 L1173,169.6953 L1000,169.6953" fill="#FFFFFF" style="stroke:#000000;stroke-width:1;"/><path d="M1173,169.6953 L1173,179.6953 L1183,179.6953 L1173,169.6953" fill="#FFFFFF" style="stroke:#000000;stroke-width:1;"/><text fill="#000000" font-family="Verdana" font-size="13" lengthAdjust="spacing" textLength="162.3477" x="1006" y="186.7622">Pool creates connections</text><text fill="#000000" font-family="Verdana" font-size="13" lengthAdjust="spacing" textLength="156.8062" x="1006" y="201.895">on-demand, not eagerly</text><g class="message" data-participant-1="Pool" data-participant-2="ConnMgr"><polygon fill="#000000" points="630.2173,232.0938,620.2173,236.0938,630.2173,240.0938,626.2173,236.0938" style="stroke:#000000;stroke-width:1;"/><line style="stroke:#000000;stroke-width:1;stroke-dasharray:2,2;" x1="624.2173" x2="784.6938" y1="236.0938" y2="236.0938"/><text fill="#000000" font-family="Verdana" font-size="13" lengthAdjust="spacing" textLength="69.1577" x="636.2173" y="231.0278">pool ready</text></g><g class="message" data-participant-1="ConnMgr" data-participant-2="SQL"><polygon fill="#000000" points="419.0078,261.2266,409.0078,265.2266,419.0078,269.2266,415.0078,265.2266" style="stroke:#000000;stroke-width:1;"/><line style="stroke:#000000;stroke-width:1;stroke-dasharray:2,2;" x1="413.0078" x2="613.2173" y1="265.2266" y2="265.2266"/><text fill="#000000" font-family="Verdana" font-size="13" lengthAdjust="spacing" textLength="175.5762" x="425.0078" y="260.1606">connection manager ready</text></g><g class="message" data-participant-1="SQL" data-participant-2="Server"><polygon fill="#000000" points="74.3706,290.3594,64.3706,294.3594,74.3706,298.3594,70.3706,294.3594" style="stroke:#000000;stroke-width:1;"/><line style="stroke:#000000;stroke-width:1;stroke-dasharray:2,2;" x1="68.3706" x2="402.0078" y1="294.3594" y2="294.3594"/><text fill="#000000" font-family="Verdana" font-size="13" lengthAdjust="spacing" textLength="84.9316" x="80.3706" y="289.2935">SQL instance</text></g><rect fill="#FFFFFF" height="3" style="stroke:#FFFFFF;stroke-width:1;" width="1189.2671" x="5" y="322.9258"/><line style="stroke:#000000;stroke-width:0.5;" x1="5" x2="1194.2671" y1="322.9258" y2="322.9258"/><line style="stroke:#000000;stroke-width:0.5;" x1="5" x2="1194.2671" y1="325.9258" y2="325.9258"/><rect fill="#FFFFFF" height="23.1328" style="stroke:#000000;stroke-width:1;" width="138.96" x="530.1536" y="312.3594"/><text fill="#000000" font-family="Verdana" font-size="13" font-weight="bold" lengthAdjust="spacing" textLength="120.4341" x="536.1536" y="328.4263">Query Execution</text><g class="message" data-participant-1="Server" data-participant-2="SQL"><polygon fill="#000000" points="386.0078,362.625,396.0078,366.625,386.0078,370.625,390.0078,366.625" style="stroke:#000000;stroke-width:1;"/><line style="stroke:#000000;stroke-width:1;" x1="63.3706" x2="392.0078" y1="366.625" y2="366.625"/><text fill="#000000" font-family="Verdana" font-size="13" lengthAdjust="spacing" textLength="156.1333" x="70.3706" y="361.5591">get_data_from_table(...)</text></g><g class="message" data-participant-1="SQL" data-participant-2="ConnMgr"><polygon fill="#000000" points="597.2173,391.7578,607.2173,395.7578,597.2173,399.7578,601.2173,395.7578" style="stroke:#000000;stroke-width:1;"/><line style="stroke:#000000;stroke-width:1;" x1="408.0078" x2="603.2173" y1="395.7578" y2="395.7578"/><text fill="#000000" font-family="Verdana" font-size="13" lengthAdjust="spacing" textLength="182.2095" x="415.0078" y="390.6919">execute_query(sql, params)</text></g><g class="message" data-participant-1="ConnMgr" data-participant-2="Pool"><polygon fill="#000000" points="768.6938,420.8906,778.6938,424.8906,768.6938,428.8906,772.6938,424.8906" style="stroke:#000000;stroke-width:1;"/><line style="stroke:#000000;stroke-width:1;" x1="619.2173" x2="774.6938" y1="424.8906" y2="424.8906"/><text fill="#000000" font-family="Verdana" font-size="13" lengthAdjust="spacing" textLength="109.6177" x="626.2173" y="419.8247">get_connection()</text></g><g class="message" data-participant-1="Pool" data-participant-2="ConnMgr"><polygon fill="#000000" points="630.2173,450.0234,620.2173,454.0234,630.2173,458.0234,626.2173,454.0234" style="stroke:#000000;stroke-width:1;"/><line style="stroke:#000000;stroke-width:1;stroke-dasharray:2,2;" x1="624.2173" x2="784.6938" y1="454.0234" y2="454.0234"/><text fill="#000000" font-family="Verdana" font-size="13" lengthAdjust="spacing" textLength="71.627" x="636.2173" y="448.9575">connection</text></g><g class="message" data-participant-1="ConnMgr" data-participant-2="DB"><polygon fill="#000000" points="978.9194,479.1563,988.9194,483.1563,978.9194,487.1563,982.9194,483.1563" style="stroke:#000000;stroke-width:1;"/><line style="stroke:#000000;stroke-width:1;" x1="619.2173" x2="984.9194" y1="483.1563" y2="483.1563"/><text fill="#000000" font-family="Verdana" font-size="13" lengthAdjust="spacing" textLength="138.1821" x="626.2173" y="478.0903">execute(sql, params)</text></g><g class="message" data-participant-1="DB" data-participant-2="ConnMgr"><polygon fill="#000000" points="630.2173,508.2891,620.2173,512.2891,630.2173,516.2891,626.2173,512.2891" style="stroke:#000000;stroke-width:1;"/><line style="stroke:#000000;stroke-width:1;stroke-dasharray:2,2;" x1="624.2173" x2="994.9194" y1="512.2891" y2="512.2891"/><text fill="#000000" font-family="Verdana" font-size="13" lengthAdjust="spacing" textLength="37.064" x="636.2173" y="507.2231">result</text></g><g class="message" data-participant-1="ConnMgr" data-participant-2="Pool"><polygon fill="#000000" points="768.6938,540.4219,778.6938,544.4219,768.6938,548.4219,772.6938,544.4219" style="stroke:#000000;stroke-width:1;"/><line style="stroke:#000000;stroke-width:1;" x1="619.2173" x2="774.6938" y1="544.4219" y2="544.4219"/><text fill="#000000" font-family="Verdana" font-size="13" lengthAdjust="spacing" textLength="116.0225" x="626.2173" y="539.356">return connection</text></g><path d="M795,525.2891 L795,550.2891 L938,550.2891 L938,535.2891 L928,525.2891 L795,525.2891" fill="#FFFFFF" style="stroke:#000000;stroke-width:1;"/><path d="M928,525.2891 L928,535.2891 L938,535.2891 L928,525.2891" fill="#FFFFFF" style="stroke:#000000;stroke-width:1;"/><text fill="#000000" font-family="Verdana" font-size="13" lengthAdjust="spacing" textLength="122.2939" x="801" y="542.356">Connection reused</text><g class="message" data-participant-1="ConnMgr" data-participant-2="SQL"><polygon fill="#000000" points="419.0078,602.5547,409.0078,606.5547,419.0078,610.5547,415.0078,606.5547" style="stroke:#000000;stroke-width:1;"/><line style="stroke:#000000;stroke-width:1;stroke-dasharray:2,2;" x1="413.0078" x2="613.2173" y1="606.5547" y2="606.5547"/><text fill="#000000" font-family="Verdana" font-size="13" lengthAdjust="spacing" textLength="107.688" x="425.0078" y="601.4888">processed result</text></g><g class="message" data-participant-1="SQL" data-participant-2="Server"><polygon fill="#000000" points="74.3706,631.6875,64.3706,635.6875,74.3706,639.6875,70.3706,635.6875" style="stroke:#000000;stroke-width:1;"/><line style="stroke:#000000;stroke-width:1;stroke-dasharray:2,2;" x1="68.3706" x2="402.0078" y1="635.6875" y2="635.6875"/><text fill="#000000" font-family="Verdana" font-size="13" lengthAdjust="spacing" textLength="29.2817" x="80.3706" y="630.6216">data</text></g><rect fill="#FFFFFF" height="3" style="stroke:#FFFFFF;stroke-width:1;" width="1189.2671" x="5" y="664.2539"/><line style="stroke:#000000;stroke-width:0.5;" x1="5" x2="1194.2671" y1="664.2539" y2="664.2539"/><line style="stroke:#000000;stroke-width:0.5;" x1="5" x2="1194.2671" y1="667.2539" y2="667.2539"/><rect fill="#FFFFFF" height="23.1328" style="stroke:#000000;stroke-width:1;" width="92.1143" x="553.5764" y="653.6875"/><text fill="#000000" font-family="Verdana" font-size="13" font-weight="bold" lengthAdjust="spacing" textLength="73.5884" x="559.5764" y="669.7544">Shutdown</text><g class="message" data-participant-1="Server" data-participant-2="SQL"><polygon fill="#000000" points="386.0078,703.9531,396.0078,707.9531,386.0078,711.9531,390.0078,707.9531" style="stroke:#000000;stroke-width:1;"/><line style="stroke:#000000;stroke-width:1;" x1="63.3706" x2="392.0078" y1="707.9531" y2="707.9531"/><text fill="#000000" font-family="Verdana" font-size="13" lengthAdjust="spacing" textLength="73.5693" x="70.3706" y="702.8872">shutdown()</text></g><g class="message" data-participant-1="SQL" data-participant-2="ConnMgr"><polygon fill="#000000" points="597.2173,733.0859,607.2173,737.0859,597.2173,741.0859,601.2173,737.0859" style="stroke:#000000;stroke-width:1;"/><line style="stroke:#000000;stroke-width:1;" x1="408.0078" x2="603.2173" y1="737.0859" y2="737.0859"/><text fill="#000000" font-family="Verdana" font-size="13" lengthAdjust="spacing" textLength="65.3174" x="415.0078" y="732.02">close_all()</text></g><g class="message" data-participant-1="ConnMgr" data-participant-2="Pool"><polygon fill="#000000" points="768.6938,762.2188,778.6938,766.2188,768.6938,770.2188,772.6938,766.2188" style="stroke:#000000;stroke-width:1;"/><line style="stroke:#000000;stroke-width:1;" x1="619.2173" x2="774.6938" y1="766.2188" y2="766.2188"/><text fill="#000000" font-family="Verdana" font-size="13" lengthAdjust="spacing" textLength="135.3384" x="626.2173" y="761.1528">close all connections</text></g><g class="message" data-participant-1="Pool" data-participant-2="DB"><polygon fill="#000000" points="983.9194,791.3516,993.9194,795.3516,983.9194,799.3516,987.9194,795.3516" style="stroke:#000000;stroke-width:1;"/><line style="stroke:#000000;stroke-width:1;" x1="790.6938" x2="989.9194" y1="795.3516" y2="795.3516"/><text fill="#000000" font-family="Verdana" font-size="13" lengthAdjust="spacing" textLength="70.459" x="797.6938" y="790.2856">disconnect</text></g><g class="message" data-participant-1="Pool" data-participant-2="ConnMgr"><polygon fill="#000000" points="630.2173,820.4844,620.2173,824.4844,630.2173,828.4844,626.2173,824.4844" style="stroke:#000000;stroke-width:1;"/><line style="stroke:#000000;stroke-width:1;stroke-dasharray:2,2;" x1="624.2173" x2="784.6938" y1="824.4844" y2="824.4844"/><text fill="#000000" font-family="Verdana" font-size="13" lengthAdjust="spacing" textLength="41.7358" x="636.2173" y="819.4185">closed</text></g><g class="message" data-participant-1="ConnMgr" data-participant-2="SQL"><polygon fill="#000000" points="419.0078,849.6172,409.0078,853.6172,419.0078,857.6172,415.0078,853.6172" style="stroke:#000000;stroke-width:1;"/><line style="stroke:#000000;stroke-width:1;stroke-dasharray:2,2;" x1="413.0078" x2="613.2173" y1="853.6172" y2="853.6172"/><text fill="#000000" font-family="Verdana" font-size="13" lengthAdjust="spacing" textLength="116.3081" x="425.0078" y="848.5513">cleanup complete</text></g><g class="message" data-participant-1="SQL" data-participant-2="Server"><polygon fill="#000000" points="74.3706,878.75,64.3706,882.75,74.3706,886.75,70.3706,882.75" style="stroke:#000000;stroke-width:1;"/><line style="stroke:#000000;stroke-width:1;stroke-dasharray:2,2;" x1="68.3706" x2="402.0078" y1="882.75" y2="882.75"/><text fill="#000000" font-family="Verdana" font-size="13" lengthAdjust="spacing" textLength="128.2798" x="80.3706" y="877.6841">shutdown complete</text></g><!--SRC=[ZLD1Zjim3Bph5MnE3f3D0moaXpGz5DW03VO11jTY4m6ov9NatQQlBwauiTCutVXWMDQG7CwGNzA16eBMed5AjHYIgKsBBi7iXS8x1VZXJ9e1HZYT_y7idaztk-URYoqwtDCtxnpLoNWNCrBEstrG6XE-OYIO3GZuwRtDAFaOGROO36xM-MgpLggdzlHL2fTG1y94HHVi0beVqWAwIC5XGtp663zyq0lGhvNycYlaOkySa5ahVacYdbS9LMMuuwegEAicbmpQE8evyrVzXyGAspCB9i3KB_3SYBm4jrcNG96RiYOUe1wKWSBYd-DSESyXmUmFIG4_EUwKDexX-TAx9qqDEkwCmu1Ows2FYfoMC_L5nvq9C-1i-gWqNJCSkhbeEhZIP2F3RUX5YwoXH6PVIia0nd6dhgPnG1PyjO9TH-48ttzJtUKAgzMDftjAbGn0zIlufXBDg5Wkbv-vHpadLMzIeOXlCX4Oi7dCGYawD5xC9tqSbnl0_v6qD_x4x0uddkhD-ZfteDZPDCuhet_3EL3gWXipkUOnp5G9erKBn3kY7nY4DlYQ8cCd2DqT075kolYNGvUq_vXqFFPtnMSUrzP7gj3Quh6z53Wm_6g5xc-eDh47JXakoHwHhRQ4hckvPjDQIlIGR6S99gD4Yxy0]--></g></svg>