<svg xmlns="http://www.w3.org/2000/svg" xmlns:xlink="http://www.w3.org/1999/xlink" contentStyleType="text/css" data-diagram-type="CLASS" height="728px" preserveAspectRatio="none" style="width:1516px;height:728px;background:#FFFFFF;" version="1.1" viewBox="0 0 1516 728" width="1516px" zoomAndPan="magnify"><defs/><g><!--cluster SQL Module--><g class="cluster" data-entity="SQL Module" data-source-line="36" data-uid="ent0002" id="cluster_SQL Module"><path d="M13.5,11 L108.1113,11 A3.75,3.75 0 0 1 110.6113,13.5 L117.6113,33.2969 L1235.5,33.2969 A2.5,2.5 0 0 1 1238,35.7969 L1238,718.92 A2.5,2.5 0 0 1 1235.5,721.42 L13.5,721.42 A2.5,2.5 0 0 1 11,718.92 L11,13.5 A2.5,2.5 0 0 1 13.5,11" fill="#FFFFFF" style="stroke:#000000;stroke-width:1;"/><line style="stroke:#000000;stroke-width:1;" x1="11" x2="117.6113" y1="33.2969" y2="33.2969"/><text fill="#000000" font-family="Verdana" font-size="14" font-weight="bold" lengthAdjust="spacing" textLength="93.6113" x="15" y="25.9951">SQL Module</text></g><!--class SQL--><g class="entity" data-entity="SQL" data-source-line="37" data-uid="ent0003" id="entity_SQL"><rect fill="#FFFFFF" height="239.5625" rx="2.5" ry="2.5" style="stroke:#000000;stroke-width:1;" width="400.79" x="573.6" y="46"/><ellipse cx="756.392" cy="60" fill="#FFFFFF" rx="9" ry="9" style="stroke:#000000;stroke-width:1;"/><path d="M759.3607,65.6406 Q758.7826,65.9375 758.142,66.0781 Q757.5014,66.2344 756.7982,66.2344 Q754.2982,66.2344 752.9701,64.5938 Q751.6576,62.9375 751.6576,59.8125 Q751.6576,56.6875 752.9701,55.0313 Q754.2982,53.375 756.7982,53.375 Q757.5014,53.375 758.142,53.5313 Q758.7982,53.6875 759.3607,53.9844 L759.3607,56.7031 Q758.7357,56.125 758.142,55.8594 Q757.5482,55.5781 756.9232,55.5781 Q755.5795,55.5781 754.892,56.6563 Q754.2045,57.7188 754.2045,59.8125 Q754.2045,61.9063 754.892,62.9844 Q755.5795,64.0469 756.9232,64.0469 Q757.5482,64.0469 758.142,63.7813 Q758.7357,63.5 759.3607,62.9219 L759.3607,65.6406 Z " fill="#000000"/><text fill="#000000" font-family="Verdana" font-size="14" lengthAdjust="spacing" textLength="27.7061" x="773.892" y="64.8467">SQL</text><line style="stroke:#000000;stroke-width:1;" x1="574.6" x2="973.39" y1="74" y2="74"/><ellipse cx="584.6" cy="87.6484" fill="none" rx="3" ry="3" style="stroke:#000000;stroke-width:1;"/><text fill="#000000" font-family="Verdana" font-size="14" lengthAdjust="spacing" text-decoration="underline" textLength="68.9746" x="591.6" y="90.9951">disp: Disp</text><rect fill="none" height="6" style="stroke:#000000;stroke-width:1;" width="6" x="581.6" y="100.9453"/><text fill="#000000" font-family="Verdana" font-size="14" lengthAdjust="spacing" textLength="354.6621" x="591.6" y="107.292">sql_manage_connections: SQLManageConnections</text><rect fill="none" height="6" style="stroke:#000000;stroke-width:1;" width="6" x="581.6" y="117.2422"/><text fill="#000000" font-family="Verdana" font-size="14" lengthAdjust="spacing" textLength="319.7578" x="591.6" y="123.5889">sql_time_manipulation: SQLTimeManipulation</text><rect fill="none" height="6" style="stroke:#000000;stroke-width:1;" width="6" x="581.6" y="133.5391"/><text fill="#000000" font-family="Verdana" font-size="14" lengthAdjust="spacing" textLength="331.2627" x="591.6" y="139.8857">sql_cache_orchestrator: SQLCacheOrchestrator</text><line style="stroke:#000000;stroke-width:1;" x1="574.6" x2="973.39" y1="147.1875" y2="147.1875"/><ellipse cx="584.6" cy="160.8359" fill="#FFFFFF" rx="3" ry="3" style="stroke:#000000;stroke-width:1;"/><text fill="#000000" font-family="Verdana" font-size="14" lengthAdjust="spacing" textLength="345.3105" x="591.6" y="164.1826">__init__(url, port, username, password, db_name)</text><ellipse cx="584.6" cy="177.1328" fill="#FFFFFF" rx="3" ry="3" style="stroke:#000000;stroke-width:1;"/><text fill="#000000" font-family="Verdana" font-size="14" lengthAdjust="spacing" textLength="376.79" x="591.6" y="180.4795">create(url, port, username, password, db_name): SQL</text><ellipse cx="584.6" cy="193.4297" fill="#FFFFFF" rx="3" ry="3" style="stroke:#000000;stroke-width:1;"/><text fill="#000000" font-family="Verdana" font-size="14" lengthAdjust="spacing" textLength="240.5635" x="591.6" y="196.7764">get_data_from_table(...): List[Dict]</text><ellipse cx="584.6" cy="209.7266" fill="#FFFFFF" rx="3" ry="3" style="stroke:#000000;stroke-width:1;"/><text fill="#000000" font-family="Verdana" font-size="14" lengthAdjust="spacing" textLength="201.7764" x="591.6" y="213.0732">update_data_in_table(...): int</text><ellipse cx="584.6" cy="226.0234" fill="#FFFFFF" rx="3" ry="3" style="stroke:#000000;stroke-width:1;"/><text fill="#000000" font-family="Verdana" font-size="14" lengthAdjust="spacing" textLength="206.418" x="591.6" y="229.3701">insert_data_into_table(...): int</text><ellipse cx="584.6" cy="242.3203" fill="#FFFFFF" rx="3" ry="3" style="stroke:#000000;stroke-width:1;"/><text fill="#000000" font-family="Verdana" font-size="14" lengthAdjust="spacing" textLength="216.6787" x="591.6" y="245.667">delete_data_from_table(...): int</text><ellipse cx="584.6" cy="258.6172" fill="#FFFFFF" rx="3" ry="3" style="stroke:#000000;stroke-width:1;"/><text fill="#000000" font-family="Verdana" font-size="14" lengthAdjust="spacing" textLength="206.5547" x="591.6" y="261.9639">check_if_data_exists(...): bool</text><ellipse cx="584.6" cy="274.9141" fill="#FFFFFF" rx="3" ry="3" style="stroke:#000000;stroke-width:1;"/><text fill="#000000" font-family="Verdana" font-size="14" lengthAdjust="spacing" textLength="124.9199" x="591.6" y="278.2607">shutdown(): None</text></g><!--class SQLManageConnections--><g class="entity" data-entity="SQLManageConnections" data-source-line="53" data-uid="ent0004" id="entity_SQLManageConnections"><rect fill="#FFFFFF" height="190.6719" rx="2.5" ry="2.5" style="stroke:#000000;stroke-width:1;" width="293.623" x="338.19" y="345.56"/><ellipse cx="396.3389" cy="359.56" fill="#FFFFFF" rx="9" ry="9" style="stroke:#000000;stroke-width:1;"/><path d="M399.3077,365.2006 Q398.7296,365.4975 398.0889,365.6381 Q397.4483,365.7944 396.7452,365.7944 Q394.2452,365.7944 392.9171,364.1537 Q391.6046,362.4975 391.6046,359.3725 Q391.6046,356.2475 392.9171,354.5912 Q394.2452,352.935 396.7452,352.935 Q397.4483,352.935 398.0889,353.0912 Q398.7452,353.2475 399.3077,353.5444 L399.3077,356.2631 Q398.6827,355.685 398.0889,355.4194 Q397.4952,355.1381 396.8702,355.1381 Q395.5264,355.1381 394.8389,356.2162 Q394.1514,357.2787 394.1514,359.3725 Q394.1514,361.4662 394.8389,362.5444 Q395.5264,363.6069 396.8702,363.6069 Q397.4952,363.6069 398.0889,363.3412 Q398.6827,363.06 399.3077,362.4819 L399.3077,365.2006 Z " fill="#000000"/><text fill="#000000" font-family="Verdana" font-size="14" lengthAdjust="spacing" textLength="169.8252" x="413.8389" y="364.4067">SQLManageConnections</text><line style="stroke:#000000;stroke-width:1;" x1="339.19" x2="630.813" y1="373.56" y2="373.56"/><rect fill="none" height="6" style="stroke:#000000;stroke-width:1;" width="6" x="346.19" y="384.2084"/><text fill="#000000" font-family="Verdana" font-size="14" lengthAdjust="spacing" textLength="147.752" x="356.19" y="390.5551">pool: ConnectionPool</text><rect fill="none" height="6" style="stroke:#000000;stroke-width:1;" width="6" x="346.19" y="400.5053"/><text fill="#000000" font-family="Verdana" font-size="14" lengthAdjust="spacing" textLength="46.2246" x="356.19" y="406.852">url: str</text><rect fill="none" height="6" style="stroke:#000000;stroke-width:1;" width="6" x="346.19" y="416.8022"/><text fill="#000000" font-family="Verdana" font-size="14" lengthAdjust="spacing" textLength="56.1162" x="356.19" y="423.1489">port: int</text><rect fill="none" height="6" style="stroke:#000000;stroke-width:1;" width="6" x="346.19" y="433.0991"/><text fill="#000000" font-family="Verdana" font-size="14" lengthAdjust="spacing" textLength="97.9453" x="356.19" y="439.4457">username: str</text><rect fill="none" height="6" style="stroke:#000000;stroke-width:1;" width="6" x="346.19" y="449.3959"/><text fill="#000000" font-family="Verdana" font-size="14" lengthAdjust="spacing" textLength="94.418" x="356.19" y="455.7426">password: str</text><rect fill="none" height="6" style="stroke:#000000;stroke-width:1;" width="6" x="346.19" y="465.6928"/><text fill="#000000" font-family="Verdana" font-size="14" lengthAdjust="spacing" textLength="92.1826" x="356.19" y="472.0395">db_name: str</text><line style="stroke:#000000;stroke-width:1;" x1="339.19" x2="630.813" y1="479.3412" y2="479.3412"/><ellipse cx="349.19" cy="492.9897" fill="#FFFFFF" rx="3" ry="3" style="stroke:#000000;stroke-width:1;"/><text fill="#000000" font-family="Verdana" font-size="14" lengthAdjust="spacing" textLength="269.623" x="356.19" y="496.3364">execute_query(query, params): Result</text><ellipse cx="349.19" cy="509.2866" fill="#FFFFFF" rx="3" ry="3" style="stroke:#000000;stroke-width:1;"/><text fill="#000000" font-family="Verdana" font-size="14" lengthAdjust="spacing" textLength="206.4316" x="356.19" y="512.6332">get_connection(): Connection</text><ellipse cx="349.19" cy="525.5834" fill="#FFFFFF" rx="3" ry="3" style="stroke:#000000;stroke-width:1;"/><text fill="#000000" font-family="Verdana" font-size="14" lengthAdjust="spacing" textLength="116.0332" x="356.19" y="528.9301">close_all(): None</text></g><!--class SQLCacheOrchestrator--><g class="entity" data-entity="SQLCacheOrchestrator" data-source-line="66" data-uid="ent0005" id="entity_SQLCacheOrchestrator"><rect fill="#FFFFFF" height="109.1875" rx="2.5" ry="2.5" style="stroke:#000000;stroke-width:1;" width="275.9658" x="27.02" y="386.3"/><ellipse cx="81.187" cy="400.3" fill="#FFFFFF" rx="9" ry="9" style="stroke:#000000;stroke-width:1;"/><path d="M84.1557,405.9406 Q83.5776,406.2375 82.937,406.3781 Q82.2964,406.5344 81.5932,406.5344 Q79.0932,406.5344 77.7651,404.8937 Q76.4526,403.2375 76.4526,400.1125 Q76.4526,396.9875 77.7651,395.3312 Q79.0932,393.675 81.5932,393.675 Q82.2964,393.675 82.937,393.8312 Q83.5932,393.9875 84.1557,394.2844 L84.1557,397.0031 Q83.5307,396.425 82.937,396.1594 Q82.3432,395.8781 81.7182,395.8781 Q80.3745,395.8781 79.687,396.9562 Q78.9995,398.0187 78.9995,400.1125 Q78.9995,402.2062 79.687,403.2844 Q80.3745,404.3469 81.7182,404.3469 Q82.3432,404.3469 82.937,404.0812 Q83.5307,403.8 84.1557,403.2219 L84.1557,405.9406 Z " fill="#000000"/><text fill="#000000" font-family="Verdana" font-size="14" lengthAdjust="spacing" textLength="160.1318" x="98.687" y="405.1467">SQLCacheOrchestrator</text><line style="stroke:#000000;stroke-width:1;" x1="28.02" x2="301.9858" y1="414.3" y2="414.3"/><rect fill="none" height="6" style="stroke:#000000;stroke-width:1;" width="6" x="35.02" y="424.9484"/><text fill="#000000" font-family="Verdana" font-size="14" lengthAdjust="spacing" textLength="187.0518" x="45.02" y="431.2951">redis_cache: RedisCaching</text><rect fill="none" height="6" style="stroke:#000000;stroke-width:1;" width="6" x="35.02" y="441.2453"/><text fill="#000000" font-family="Verdana" font-size="14" lengthAdjust="spacing" textLength="126.8682" x="45.02" y="447.592">sql_manager: SQL</text><line style="stroke:#000000;stroke-width:1;" x1="28.02" x2="301.9858" y1="454.8937" y2="454.8937"/><ellipse cx="38.02" cy="468.5422" fill="#FFFFFF" rx="3" ry="3" style="stroke:#000000;stroke-width:1;"/><text fill="#000000" font-family="Verdana" font-size="14" lengthAdjust="spacing" textLength="204.4355" x="45.02" y="471.8889">get_cached_or_fetch(...): Any</text><ellipse cx="38.02" cy="484.8391" fill="#FFFFFF" rx="3" ry="3" style="stroke:#000000;stroke-width:1;"/><text fill="#000000" font-family="Verdana" font-size="14" lengthAdjust="spacing" textLength="251.9658" x="45.02" y="488.1857">invalidate_table_cache(table): None</text></g><!--class SQLQueryBoilerplates--><g class="entity" data-entity="SQLQueryBoilerplates" data-source-line="74" data-uid="ent0006" id="entity_SQLQueryBoilerplates"><rect fill="#FFFFFF" height="109.1875" rx="2.5" ry="2.5" style="stroke:#000000;stroke-width:1;" width="214.1484" x="666.93" y="386.3"/><ellipse cx="694.7013" cy="400.3" fill="#FFFFFF" rx="9" ry="9" style="stroke:#000000;stroke-width:1;"/><path d="M697.6701,405.9406 Q697.092,406.2375 696.4513,406.3781 Q695.8107,406.5344 695.1076,406.5344 Q692.6076,406.5344 691.2795,404.8937 Q689.967,403.2375 689.967,400.1125 Q689.967,396.9875 691.2795,395.3312 Q692.6076,393.675 695.1076,393.675 Q695.8107,393.675 696.4513,393.8312 Q697.1076,393.9875 697.6701,394.2844 L697.6701,397.0031 Q697.0451,396.425 696.4513,396.1594 Q695.8576,395.8781 695.2326,395.8781 Q693.8888,395.8781 693.2013,396.9562 Q692.5138,398.0187 692.5138,400.1125 Q692.5138,402.2062 693.2013,403.2844 Q693.8888,404.3469 695.2326,404.3469 Q695.8576,404.3469 696.4513,404.0812 Q697.0451,403.8 697.6701,403.2219 L697.6701,405.9406 Z " fill="#000000"/><text fill="#000000" font-family="Verdana" font-size="14" lengthAdjust="spacing" textLength="153.3232" x="709.9839" y="405.1467">SQLQueryBoilerplates</text><line style="stroke:#000000;stroke-width:1;" x1="667.93" x2="880.0784" y1="414.3" y2="414.3"/><line style="stroke:#000000;stroke-width:1;" x1="667.93" x2="880.0784" y1="422.3" y2="422.3"/><ellipse cx="677.93" cy="435.9484" fill="#FFFFFF" rx="3" ry="3" style="stroke:#000000;stroke-width:1;"/><text fill="#000000" font-family="Verdana" font-size="14" lengthAdjust="spacing" textLength="182.417" x="684.93" y="439.2951">build_select_query(...): str</text><ellipse cx="677.93" cy="452.2453" fill="#FFFFFF" rx="3" ry="3" style="stroke:#000000;stroke-width:1;"/><text fill="#000000" font-family="Verdana" font-size="14" lengthAdjust="spacing" textLength="180.7354" x="684.93" y="455.592">build_insert_query(...): str</text><ellipse cx="677.93" cy="468.5422" fill="#FFFFFF" rx="3" ry="3" style="stroke:#000000;stroke-width:1;"/><text fill="#000000" font-family="Verdana" font-size="14" lengthAdjust="spacing" textLength="190.1484" x="684.93" y="471.8889">build_update_query(...): str</text><ellipse cx="677.93" cy="484.8391" fill="#FFFFFF" rx="3" ry="3" style="stroke:#000000;stroke-width:1;"/><text fill="#000000" font-family="Verdana" font-size="14" lengthAdjust="spacing" textLength="184.9258" x="684.93" y="488.1857">build_delete_query(...): str</text></g><!--class SQLTimeManipulation--><g class="entity" data-entity="SQLTimeManipulation" data-source-line="81" data-uid="ent0007" id="entity_SQLTimeManipulation"><rect fill="#FFFFFF" height="92.8906" rx="2.5" ry="2.5" style="stroke:#000000;stroke-width:1;" width="305.0186" x="916.49" y="394.45"/><ellipse cx="988.8167" cy="408.45" fill="#FFFFFF" rx="9" ry="9" style="stroke:#000000;stroke-width:1;"/><path d="M991.7854,414.0906 Q991.2073,414.3875 990.5667,414.5281 Q989.926,414.6844 989.2229,414.6844 Q986.7229,414.6844 985.3948,413.0437 Q984.0823,411.3875 984.0823,408.2625 Q984.0823,405.1375 985.3948,403.4812 Q986.7229,401.825 989.2229,401.825 Q989.926,401.825 990.5667,401.9812 Q991.2229,402.1375 991.7854,402.4344 L991.7854,405.1531 Q991.1604,404.575 990.5667,404.3094 Q989.9729,404.0281 989.3479,404.0281 Q988.0042,404.0281 987.3167,405.1062 Q986.6292,406.1687 986.6292,408.2625 Q986.6292,410.3562 987.3167,411.4344 Q988.0042,412.4969 989.3479,412.4969 Q989.9729,412.4969 990.5667,412.2312 Q991.1604,411.95 991.7854,411.3719 L991.7854,414.0906 Z " fill="#000000"/><text fill="#000000" font-family="Verdana" font-size="14" lengthAdjust="spacing" textLength="152.8652" x="1006.3167" y="413.2967">SQLTimeManipulation</text><line style="stroke:#000000;stroke-width:1;" x1="917.49" x2="1220.5086" y1="422.45" y2="422.45"/><line style="stroke:#000000;stroke-width:1;" x1="917.49" x2="1220.5086" y1="430.45" y2="430.45"/><ellipse cx="927.49" cy="444.0984" fill="#FFFFFF" rx="3" ry="3" style="stroke:#000000;stroke-width:1;"/><text fill="#000000" font-family="Verdana" font-size="14" lengthAdjust="spacing" textLength="224.6084" x="934.49" y="447.4451">convert_to_sql_datetime(dt): str</text><ellipse cx="927.49" cy="460.3953" fill="#FFFFFF" rx="3" ry="3" style="stroke:#000000;stroke-width:1;"/><text fill="#000000" font-family="Verdana" font-size="14" lengthAdjust="spacing" textLength="281.0186" x="934.49" y="463.742">convert_from_sql_datetime(s): datetime</text><ellipse cx="927.49" cy="476.6922" fill="#FFFFFF" rx="3" ry="3" style="stroke:#000000;stroke-width:1;"/><text fill="#000000" font-family="Verdana" font-size="14" lengthAdjust="spacing" textLength="229.2637" x="934.49" y="480.0389">get_current_sql_timestamp(): str</text></g><!--class RedisCaching--><g class="entity" data-entity="RedisCaching" data-source-line="87" data-uid="ent0008" id="entity_RedisCaching"><rect fill="#FFFFFF" height="109.1875" rx="2.5" ry="2.5" style="stroke:#000000;stroke-width:1;" width="228.0459" x="50.98" y="596.23"/><ellipse cx="113.7603" cy="610.23" fill="#FFFFFF" rx="9" ry="9" style="stroke:#000000;stroke-width:1;"/><path d="M116.729,615.8706 Q116.1509,616.1675 115.5103,616.3081 Q114.8696,616.4644 114.1665,616.4644 Q111.6665,616.4644 110.3384,614.8237 Q109.0259,613.1675 109.0259,610.0425 Q109.0259,606.9175 110.3384,605.2612 Q111.6665,603.605 114.1665,603.605 Q114.8696,603.605 115.5103,603.7612 Q116.1665,603.9175 116.729,604.2144 L116.729,606.9331 Q116.104,606.355 115.5103,606.0894 Q114.9165,605.8081 114.2915,605.8081 Q112.9478,605.8081 112.2603,606.8862 Q111.5728,607.9487 111.5728,610.0425 Q111.5728,612.1362 112.2603,613.2144 Q112.9478,614.2769 114.2915,614.2769 Q114.9165,614.2769 115.5103,614.0112 Q116.104,613.73 116.729,613.1519 L116.729,615.8706 Z " fill="#000000"/><text fill="#000000" font-family="Verdana" font-size="14" lengthAdjust="spacing" textLength="94.9854" x="131.2603" y="615.0767">RedisCaching</text><line style="stroke:#000000;stroke-width:1;" x1="51.98" x2="278.0259" y1="624.23" y2="624.23"/><rect fill="none" height="6" style="stroke:#000000;stroke-width:1;" width="6" x="58.98" y="634.8784"/><text fill="#000000" font-family="Verdana" font-size="14" lengthAdjust="spacing" textLength="86.0303" x="68.98" y="641.2251">client: Redis</text><line style="stroke:#000000;stroke-width:1;" x1="51.98" x2="278.0259" y1="648.5269" y2="648.5269"/><ellipse cx="61.98" cy="662.1753" fill="#FFFFFF" rx="3" ry="3" style="stroke:#000000;stroke-width:1;"/><text fill="#000000" font-family="Verdana" font-size="14" lengthAdjust="spacing" textLength="204.0459" x="68.98" y="665.522">get_data_from_table(...): Any</text><ellipse cx="61.98" cy="678.4722" fill="#FFFFFF" rx="3" ry="3" style="stroke:#000000;stroke-width:1;"/><text fill="#000000" font-family="Verdana" font-size="14" lengthAdjust="spacing" textLength="177.2764" x="68.98" y="681.8189">invalidate(pattern): None</text><ellipse cx="61.98" cy="694.7691" fill="#FFFFFF" rx="3" ry="3" style="stroke:#000000;stroke-width:1;"/><text fill="#000000" font-family="Verdana" font-size="14" lengthAdjust="spacing" textLength="173.9268" x="68.98" y="698.1157">set(key, value, ttl): None</text></g><g class="entity" data-entity="GMN14" data-source-line="103" data-uid="ent0015" id="entity_GMN14"><path d="M1254.32,122.95 L1254.32,161.78 L974.69,165.78 L1254.32,169.78 L1254.32,208.6141 A0,0 0 0 0 1254.32,208.6141 L1509.6882,208.6141 A0,0 0 0 0 1509.6882,208.6141 L1509.6882,132.95 L1499.6882,122.95 L1254.32,122.95 A0,0 0 0 0 1254.32,122.95" fill="#FFFFFF" style="stroke:#000000;stroke-width:1;"/><path d="M1499.6882,122.95 L1499.6882,132.95 L1509.6882,132.95 L1499.6882,122.95" fill="#FFFFFF" style="stroke:#000000;stroke-width:1;"/><text fill="#000000" font-family="Verdana" font-size="13" lengthAdjust="spacing" textLength="139.6167" x="1260.32" y="140.0169">FinalClass metaclass:</text><text fill="#000000" font-family="Verdana" font-size="13" lengthAdjust="spacing" textLength="234.3682" x="1260.32" y="155.1497">- Not a singleton (no FinalSingleton)</text><text fill="#000000" font-family="Verdana" font-size="13" lengthAdjust="spacing" textLength="193.3306" x="1260.32" y="170.2825">- Can have multiple instances</text><text fill="#000000" font-family="Verdana" font-size="13" lengthAdjust="spacing" textLength="180.7622" x="1260.32" y="185.4153">- Used via RuntimeManager</text><text fill="#000000" font-family="Verdana" font-size="13" lengthAdjust="spacing" textLength="143.4316" x="1260.32" y="200.5481">- Prevents inheritance</text></g><g class="entity" data-entity="GMN17" data-source-line="111" data-uid="ent0018" id="entity_GMN17"><path d="M1256.76,398.06 L1256.76,483.7241 L1433.2395,483.7241 L1433.2395,408.06 L1423.2395,398.06 L1256.76,398.06" fill="#FFFFFF" style="stroke:#000000;stroke-width:1;"/><path d="M1423.2395,398.06 L1423.2395,408.06 L1433.2395,408.06 L1423.2395,398.06" fill="#FFFFFF" style="stroke:#000000;stroke-width:1;"/><text fill="#000000" font-family="Verdana" font-size="13" lengthAdjust="spacing" textLength="116.7461" x="1262.76" y="415.1269">Caching Strategy:</text><text fill="#000000" font-family="Verdana" font-size="13" lengthAdjust="spacing" textLength="142.416" x="1262.76" y="430.2597">- Write-through cache</text><text fill="#000000" font-family="Verdana" font-size="13" lengthAdjust="spacing" textLength="96.3257" x="1262.76" y="445.3925">- Redis-backed</text><text fill="#000000" font-family="Verdana" font-size="13" lengthAdjust="spacing" textLength="155.4795" x="1262.76" y="460.5253">- Automatic invalidation</text><text fill="#000000" font-family="Verdana" font-size="13" lengthAdjust="spacing" textLength="145.7803" x="1262.76" y="475.6581">- TTL-based expiration</text></g><!--reverse link SQL to SQLManageConnections--><g class="link" data-entity-1="SQL" data-entity-2="SQLManageConnections" data-source-line="95" data-uid="lnk9" id="link_SQL_SQLManageConnections"><path codeLine="95" d="M639.3592,294.023 C618.3692,313.863 605.57,325.96 585.32,345.09" fill="none" id="SQL-backto-SQLManageConnections" style="stroke:#000000;stroke-width:1;"/><polygon fill="#000000" points="648.08,285.78,640.9719,286.9946,639.3592,294.023,646.4673,292.8084,648.08,285.78" style="stroke:#000000;stroke-width:1;"/></g><!--reverse link SQL to SQLCacheOrchestrator--><g class="link" data-entity-1="SQL" data-entity-2="SQLCacheOrchestrator" data-source-line="96" data-uid="lnk10" id="link_SQL_SQLCacheOrchestrator"><path codeLine="96" d="M562.0227,241.9629 C482.2127,272.2929 401.59,305.64 321,345.56 C296.89,357.5 271.6,371.91 248.56,385.84" fill="none" id="SQL-backto-SQLCacheOrchestrator" style="stroke:#000000;stroke-width:1;"/><polygon fill="#000000" points="573.24,237.7,566.2104,236.0923,562.0227,241.9629,569.0523,243.5705,573.24,237.7" style="stroke:#000000;stroke-width:1;"/></g><!--reverse link SQL to SQLQueryBoilerplates--><g class="link" data-entity-1="SQL" data-entity-2="SQLQueryBoilerplates" data-source-line="97" data-uid="lnk11" id="link_SQL_SQLQueryBoilerplates"><path codeLine="97" d="M774,297.78 C774,332.71 774,357.2 774,385.9" fill="none" id="SQL-backto-SQLQueryBoilerplates" style="stroke:#000000;stroke-width:1;"/><polygon fill="#000000" points="774,285.78,770,291.78,774,297.78,778,291.78,774,285.78" style="stroke:#000000;stroke-width:1;"/></g><!--reverse link SQL to SQLTimeManipulation--><g class="link" data-entity-1="SQL" data-entity-2="SQLTimeManipulation" data-source-line="98" data-uid="lnk12" id="link_SQL_SQLTimeManipulation"><path codeLine="98" d="M911.3361,293.9319 C952.7961,332.3119 987.48,364.42 1019.61,394.17" fill="none" id="SQL-backto-SQLTimeManipulation" style="stroke:#000000;stroke-width:1;"/><polygon fill="#000000" points="902.53,285.78,904.2157,292.7913,911.3361,293.9319,909.6503,286.9206,902.53,285.78" style="stroke:#000000;stroke-width:1;"/></g><!--link SQLCacheOrchestrator to RedisCaching--><g class="link" data-entity-1="SQLCacheOrchestrator" data-entity-2="RedisCaching" data-source-line="99" data-uid="lnk13" id="link_SQLCacheOrchestrator_RedisCaching"><path codeLine="99" d="M165,495.98 C165,526.79 165,559.25 165,590.01" fill="none" id="SQLCacheOrchestrator-to-RedisCaching" style="stroke:#000000;stroke-width:1;"/><polygon fill="#000000" points="165,596.01,169,587.01,165,591.01,161,587.01,165,596.01" style="stroke:#000000;stroke-width:1;"/></g><!--link SQLCacheOrchestrator to GMN17--><g class="link" data-entity-1="SQLCacheOrchestrator" data-entity-2="GMN17" data-source-line="111" data-uid="lnk19" id="link_SQLCacheOrchestrator_GMN17"><path d="M221.62,385.95 C253.26,359.11 295.01,329.63 338.5,315.56 C431.74,285.4 1130.02,277.91 1220.5,315.56 C1260.43,332.18 1294.14,368.51 1316.37,397.8" fill="none" id="SQLCacheOrchestrator-GMN17" style="stroke:#000000;stroke-width:1;stroke-dasharray:7,7;"/></g><!--SRC=[ZLRDRfmm4BxlKxWvaIRa0VPGATsefwJDNzL3LLbUc2nMZ4tiOPCeohjtRCnYMBOf1uHdlXdcvvk1JrX13QnHGkh5eX75ezW0ExgxkMHNfcmL7B6t1QEhKC8vvkNTsLzl3WNAufsTbD8rItP1zvqoTq-ArqAJFruOhQ50QRHRUXzNGRmQf6Chb3LuKzcqIdXzCBedwLKY7DiKegY06qjtXrQWiS5evSK_4kbWbUyUJpYNMYBdMMlLAMkCnLFMEh1Qr41dolpPsFAKbMlkHSU3PM518FolNGXfCDu0ybAWu0_Mr1p5Ma5sTdP6i4lfyFU5BF3FW6uRma9d8FK8BZKEEAaf0knnQ0uZIr3GUzmBOOIa-XMFN3vqM7YXy5p4hOrH0z1LBPRcMMUa-Muq1CtxOaoXlVOddCeRyhTaW_8wzPzJePUCMfdYBOwZpViMJ96n7nDnRCv4ch03Ng1egKvFBTZNBDnzSwse7MLv2wvLE6xgm7TVXo6NfA3AEE12gNyMQe-zQQ4iqDHrlFTHqC73fTxCZQ0TKozDBmJilPGqFlm1iAXYQy_rQqghhL0oK33GfBF9mlE_ShZnzVfgf09BMmOXRVR9kfMgv8vuM62iR_Vgj1SH5Ndz0IfEoGUeoFmvr3J-wTf9mwS-RtrCD6I-rFxDVdTb9KvVsoF3c8smdaFzOTAKrbhGoFkLIDksRh93eQOCI6bIA4bE8aCE4c1-1nmWGDO8H1gnjEtTz0DcZq3JGSYMDY2Ycg66_uXyplF37u84CB-_4y0UlQQ0sS_6x6pb-PVn756ysY0mApSLClEm6w5lKWkr2cMl0KLem39eSieMcM2Ex8bYH9TCcmv_rukE8t8bDAl45bXD2qGs2cYBKOzr4PF8sKy79TjAmMvRZLqUVfQZzjh2bbhhoAm2AuFb0dJ9VD0peS_NigVCdPV1vhNFunTvX1mhQzfDnSAmHqseKRwcVmKee-YyHLFxVm6sOqbVwfpTtryIsgS2BusqdMeNvry0]--></g></svg>